<?xml version="1.0" encoding="utf-8" standalone="no"?>
<!DOCTYPE svg PUBLIC "-//W3C//DTD SVG 1.1//EN"
  "http://www.w3.org/Graphics/SVG/1.1/DTD/svg11.dtd">
<svg xmlns:xlink="http://www.w3.org/1999/xlink" width="720pt" height="432pt" viewBox="0 0 720 432" xmlns="http://www.w3.org/2000/svg" version="1.1">
 <metadata>
  <rdf:RDF xmlns:dc="http://purl.org/dc/elements/1.1/" xmlns:cc="http://creativecommons.org/ns#" xmlns:rdf="http://www.w3.org/1999/02/22-rdf-syntax-ns#">
   <cc:Work>
    <dc:type rdf:resource="http://purl.org/dc/dcmitype/StillImage"/>
    <dc:date>2023-06-21T10:47:36.276297</dc:date>
    <dc:format>image/svg+xml</dc:format>
    <dc:creator>
     <cc:Agent>
      <dc:title>Matplotlib v3.7.1, https://matplotlib.org/</dc:title>
     </cc:Agent>
    </dc:creator>
   </cc:Work>
  </rdf:RDF>
 </metadata>
 <defs>
  <style type="text/css">*{stroke-linejoin: round; stroke-linecap: butt}</style>
 </defs>
 <g id="figure_1">
  <g id="patch_1">
   <path d="M 0 432 
L 720 432 
L 720 0 
L 0 0 
z
" style="fill: #ffffff"/>
  </g>
  <g id="axes_1">
   <g id="patch_2">
    <path d="M 73.37 390.04 
L 554.8 390.04 
L 554.8 25.44 
L 73.37 25.44 
z
" style="fill: #ffffff"/>
   </g>
   <g id="matplotlib.axis_1">
    <g id="xtick_1">
     <g id="line2d_1">
      <defs>
       <path id="m10921e18f0" d="M 0 0 
L 0 3.5 
" style="stroke: #000000; stroke-width: 0.8"/>
      </defs>
      <g>
       <use xlink:href="#m10921e18f0" x="94.457068" y="390.04" style="stroke: #000000; stroke-width: 0.8"/>
      </g>
     </g>
     <g id="text_1">
      <!-- 0 -->
      <g transform="translate(91.275818 404.638438) scale(0.1 -0.1)">
       <defs>
        <path id="DejaVuSans-30" d="M 2034 4250 
Q 1547 4250 1301 3770 
Q 1056 3291 1056 2328 
Q 1056 1369 1301 889 
Q 1547 409 2034 409 
Q 2525 409 2770 889 
Q 3016 1369 3016 2328 
Q 3016 3291 2770 3770 
Q 2525 4250 2034 4250 
z
M 2034 4750 
Q 2819 4750 3233 4129 
Q 3647 3509 3647 2328 
Q 3647 1150 3233 529 
Q 2819 -91 2034 -91 
Q 1250 -91 836 529 
Q 422 1150 422 2328 
Q 422 3509 836 4129 
Q 1250 4750 2034 4750 
z
" transform="scale(0.015625)"/>
       </defs>
       <use xlink:href="#DejaVuSans-30"/>
      </g>
     </g>
    </g>
    <g id="xtick_2">
     <g id="line2d_2">
      <g>
       <use xlink:href="#m10921e18f0" x="193.97131" y="390.04" style="stroke: #000000; stroke-width: 0.8"/>
      </g>
     </g>
     <g id="text_2">
      <!-- 500 -->
      <g transform="translate(184.42756 404.638438) scale(0.1 -0.1)">
       <defs>
        <path id="DejaVuSans-35" d="M 691 4666 
L 3169 4666 
L 3169 4134 
L 1269 4134 
L 1269 2991 
Q 1406 3038 1543 3061 
Q 1681 3084 1819 3084 
Q 2600 3084 3056 2656 
Q 3513 2228 3513 1497 
Q 3513 744 3044 326 
Q 2575 -91 1722 -91 
Q 1428 -91 1123 -41 
Q 819 9 494 109 
L 494 744 
Q 775 591 1075 516 
Q 1375 441 1709 441 
Q 2250 441 2565 725 
Q 2881 1009 2881 1497 
Q 2881 1984 2565 2268 
Q 2250 2553 1709 2553 
Q 1456 2553 1204 2497 
Q 953 2441 691 2322 
L 691 4666 
z
" transform="scale(0.015625)"/>
       </defs>
       <use xlink:href="#DejaVuSans-35"/>
       <use xlink:href="#DejaVuSans-30" x="63.623047"/>
       <use xlink:href="#DejaVuSans-30" x="127.246094"/>
      </g>
     </g>
    </g>
    <g id="xtick_3">
     <g id="line2d_3">
      <g>
       <use xlink:href="#m10921e18f0" x="293.485552" y="390.04" style="stroke: #000000; stroke-width: 0.8"/>
      </g>
     </g>
     <g id="text_3">
      <!-- 1000 -->
      <g transform="translate(280.760552 404.638438) scale(0.1 -0.1)">
       <defs>
        <path id="DejaVuSans-31" d="M 794 531 
L 1825 531 
L 1825 4091 
L 703 3866 
L 703 4441 
L 1819 4666 
L 2450 4666 
L 2450 531 
L 3481 531 
L 3481 0 
L 794 0 
L 794 531 
z
" transform="scale(0.015625)"/>
       </defs>
       <use xlink:href="#DejaVuSans-31"/>
       <use xlink:href="#DejaVuSans-30" x="63.623047"/>
       <use xlink:href="#DejaVuSans-30" x="127.246094"/>
       <use xlink:href="#DejaVuSans-30" x="190.869141"/>
      </g>
     </g>
    </g>
    <g id="xtick_4">
     <g id="line2d_4">
      <g>
       <use xlink:href="#m10921e18f0" x="392.999794" y="390.04" style="stroke: #000000; stroke-width: 0.8"/>
      </g>
     </g>
     <g id="text_4">
      <!-- 1500 -->
      <g transform="translate(380.274794 404.638438) scale(0.1 -0.1)">
       <use xlink:href="#DejaVuSans-31"/>
       <use xlink:href="#DejaVuSans-35" x="63.623047"/>
       <use xlink:href="#DejaVuSans-30" x="127.246094"/>
       <use xlink:href="#DejaVuSans-30" x="190.869141"/>
      </g>
     </g>
    </g>
    <g id="xtick_5">
     <g id="line2d_5">
      <g>
       <use xlink:href="#m10921e18f0" x="492.514036" y="390.04" style="stroke: #000000; stroke-width: 0.8"/>
      </g>
     </g>
     <g id="text_5">
      <!-- 2000 -->
      <g transform="translate(479.789036 404.638438) scale(0.1 -0.1)">
       <defs>
        <path id="DejaVuSans-32" d="M 1228 531 
L 3431 531 
L 3431 0 
L 469 0 
L 469 531 
Q 828 903 1448 1529 
Q 2069 2156 2228 2338 
Q 2531 2678 2651 2914 
Q 2772 3150 2772 3378 
Q 2772 3750 2511 3984 
Q 2250 4219 1831 4219 
Q 1534 4219 1204 4116 
Q 875 4013 500 3803 
L 500 4441 
Q 881 4594 1212 4672 
Q 1544 4750 1819 4750 
Q 2544 4750 2975 4387 
Q 3406 4025 3406 3419 
Q 3406 3131 3298 2873 
Q 3191 2616 2906 2266 
Q 2828 2175 2409 1742 
Q 1991 1309 1228 531 
z
" transform="scale(0.015625)"/>
       </defs>
       <use xlink:href="#DejaVuSans-32"/>
       <use xlink:href="#DejaVuSans-30" x="63.623047"/>
       <use xlink:href="#DejaVuSans-30" x="127.246094"/>
       <use xlink:href="#DejaVuSans-30" x="190.869141"/>
      </g>
     </g>
    </g>
    <g id="text_6">
     <!-- 1st Publishing Year -->
     <g transform="translate(267.019375 418.316562) scale(0.1 -0.1)">
      <defs>
       <path id="DejaVuSans-73" d="M 2834 3397 
L 2834 2853 
Q 2591 2978 2328 3040 
Q 2066 3103 1784 3103 
Q 1356 3103 1142 2972 
Q 928 2841 928 2578 
Q 928 2378 1081 2264 
Q 1234 2150 1697 2047 
L 1894 2003 
Q 2506 1872 2764 1633 
Q 3022 1394 3022 966 
Q 3022 478 2636 193 
Q 2250 -91 1575 -91 
Q 1294 -91 989 -36 
Q 684 19 347 128 
L 347 722 
Q 666 556 975 473 
Q 1284 391 1588 391 
Q 1994 391 2212 530 
Q 2431 669 2431 922 
Q 2431 1156 2273 1281 
Q 2116 1406 1581 1522 
L 1381 1569 
Q 847 1681 609 1914 
Q 372 2147 372 2553 
Q 372 3047 722 3315 
Q 1072 3584 1716 3584 
Q 2034 3584 2315 3537 
Q 2597 3491 2834 3397 
z
" transform="scale(0.015625)"/>
       <path id="DejaVuSans-74" d="M 1172 4494 
L 1172 3500 
L 2356 3500 
L 2356 3053 
L 1172 3053 
L 1172 1153 
Q 1172 725 1289 603 
Q 1406 481 1766 481 
L 2356 481 
L 2356 0 
L 1766 0 
Q 1100 0 847 248 
Q 594 497 594 1153 
L 594 3053 
L 172 3053 
L 172 3500 
L 594 3500 
L 594 4494 
L 1172 4494 
z
" transform="scale(0.015625)"/>
       <path id="DejaVuSans-20" transform="scale(0.015625)"/>
       <path id="DejaVuSans-50" d="M 1259 4147 
L 1259 2394 
L 2053 2394 
Q 2494 2394 2734 2622 
Q 2975 2850 2975 3272 
Q 2975 3691 2734 3919 
Q 2494 4147 2053 4147 
L 1259 4147 
z
M 628 4666 
L 2053 4666 
Q 2838 4666 3239 4311 
Q 3641 3956 3641 3272 
Q 3641 2581 3239 2228 
Q 2838 1875 2053 1875 
L 1259 1875 
L 1259 0 
L 628 0 
L 628 4666 
z
" transform="scale(0.015625)"/>
       <path id="DejaVuSans-75" d="M 544 1381 
L 544 3500 
L 1119 3500 
L 1119 1403 
Q 1119 906 1312 657 
Q 1506 409 1894 409 
Q 2359 409 2629 706 
Q 2900 1003 2900 1516 
L 2900 3500 
L 3475 3500 
L 3475 0 
L 2900 0 
L 2900 538 
Q 2691 219 2414 64 
Q 2138 -91 1772 -91 
Q 1169 -91 856 284 
Q 544 659 544 1381 
z
M 1991 3584 
L 1991 3584 
z
" transform="scale(0.015625)"/>
       <path id="DejaVuSans-62" d="M 3116 1747 
Q 3116 2381 2855 2742 
Q 2594 3103 2138 3103 
Q 1681 3103 1420 2742 
Q 1159 2381 1159 1747 
Q 1159 1113 1420 752 
Q 1681 391 2138 391 
Q 2594 391 2855 752 
Q 3116 1113 3116 1747 
z
M 1159 2969 
Q 1341 3281 1617 3432 
Q 1894 3584 2278 3584 
Q 2916 3584 3314 3078 
Q 3713 2572 3713 1747 
Q 3713 922 3314 415 
Q 2916 -91 2278 -91 
Q 1894 -91 1617 61 
Q 1341 213 1159 525 
L 1159 0 
L 581 0 
L 581 4863 
L 1159 4863 
L 1159 2969 
z
" transform="scale(0.015625)"/>
       <path id="DejaVuSans-6c" d="M 603 4863 
L 1178 4863 
L 1178 0 
L 603 0 
L 603 4863 
z
" transform="scale(0.015625)"/>
       <path id="DejaVuSans-69" d="M 603 3500 
L 1178 3500 
L 1178 0 
L 603 0 
L 603 3500 
z
M 603 4863 
L 1178 4863 
L 1178 4134 
L 603 4134 
L 603 4863 
z
" transform="scale(0.015625)"/>
       <path id="DejaVuSans-68" d="M 3513 2113 
L 3513 0 
L 2938 0 
L 2938 2094 
Q 2938 2591 2744 2837 
Q 2550 3084 2163 3084 
Q 1697 3084 1428 2787 
Q 1159 2491 1159 1978 
L 1159 0 
L 581 0 
L 581 4863 
L 1159 4863 
L 1159 2956 
Q 1366 3272 1645 3428 
Q 1925 3584 2291 3584 
Q 2894 3584 3203 3211 
Q 3513 2838 3513 2113 
z
" transform="scale(0.015625)"/>
       <path id="DejaVuSans-6e" d="M 3513 2113 
L 3513 0 
L 2938 0 
L 2938 2094 
Q 2938 2591 2744 2837 
Q 2550 3084 2163 3084 
Q 1697 3084 1428 2787 
Q 1159 2491 1159 1978 
L 1159 0 
L 581 0 
L 581 3500 
L 1159 3500 
L 1159 2956 
Q 1366 3272 1645 3428 
Q 1925 3584 2291 3584 
Q 2894 3584 3203 3211 
Q 3513 2838 3513 2113 
z
" transform="scale(0.015625)"/>
       <path id="DejaVuSans-67" d="M 2906 1791 
Q 2906 2416 2648 2759 
Q 2391 3103 1925 3103 
Q 1463 3103 1205 2759 
Q 947 2416 947 1791 
Q 947 1169 1205 825 
Q 1463 481 1925 481 
Q 2391 481 2648 825 
Q 2906 1169 2906 1791 
z
M 3481 434 
Q 3481 -459 3084 -895 
Q 2688 -1331 1869 -1331 
Q 1566 -1331 1297 -1286 
Q 1028 -1241 775 -1147 
L 775 -588 
Q 1028 -725 1275 -790 
Q 1522 -856 1778 -856 
Q 2344 -856 2625 -561 
Q 2906 -266 2906 331 
L 2906 616 
Q 2728 306 2450 153 
Q 2172 0 1784 0 
Q 1141 0 747 490 
Q 353 981 353 1791 
Q 353 2603 747 3093 
Q 1141 3584 1784 3584 
Q 2172 3584 2450 3431 
Q 2728 3278 2906 2969 
L 2906 3500 
L 3481 3500 
L 3481 434 
z
" transform="scale(0.015625)"/>
       <path id="DejaVuSans-59" d="M -13 4666 
L 666 4666 
L 1959 2747 
L 3244 4666 
L 3922 4666 
L 2272 2222 
L 2272 0 
L 1638 0 
L 1638 2222 
L -13 4666 
z
" transform="scale(0.015625)"/>
       <path id="DejaVuSans-65" d="M 3597 1894 
L 3597 1613 
L 953 1613 
Q 991 1019 1311 708 
Q 1631 397 2203 397 
Q 2534 397 2845 478 
Q 3156 559 3463 722 
L 3463 178 
Q 3153 47 2828 -22 
Q 2503 -91 2169 -91 
Q 1331 -91 842 396 
Q 353 884 353 1716 
Q 353 2575 817 3079 
Q 1281 3584 2069 3584 
Q 2775 3584 3186 3129 
Q 3597 2675 3597 1894 
z
M 3022 2063 
Q 3016 2534 2758 2815 
Q 2500 3097 2075 3097 
Q 1594 3097 1305 2825 
Q 1016 2553 972 2059 
L 3022 2063 
z
" transform="scale(0.015625)"/>
       <path id="DejaVuSans-61" d="M 2194 1759 
Q 1497 1759 1228 1600 
Q 959 1441 959 1056 
Q 959 750 1161 570 
Q 1363 391 1709 391 
Q 2188 391 2477 730 
Q 2766 1069 2766 1631 
L 2766 1759 
L 2194 1759 
z
M 3341 1997 
L 3341 0 
L 2766 0 
L 2766 531 
Q 2569 213 2275 61 
Q 1981 -91 1556 -91 
Q 1019 -91 701 211 
Q 384 513 384 1019 
Q 384 1609 779 1909 
Q 1175 2209 1959 2209 
L 2766 2209 
L 2766 2266 
Q 2766 2663 2505 2880 
Q 2244 3097 1772 3097 
Q 1472 3097 1187 3025 
Q 903 2953 641 2809 
L 641 3341 
Q 956 3463 1253 3523 
Q 1550 3584 1831 3584 
Q 2591 3584 2966 3190 
Q 3341 2797 3341 1997 
z
" transform="scale(0.015625)"/>
       <path id="DejaVuSans-72" d="M 2631 2963 
Q 2534 3019 2420 3045 
Q 2306 3072 2169 3072 
Q 1681 3072 1420 2755 
Q 1159 2438 1159 1844 
L 1159 0 
L 581 0 
L 581 3500 
L 1159 3500 
L 1159 2956 
Q 1341 3275 1631 3429 
Q 1922 3584 2338 3584 
Q 2397 3584 2469 3576 
Q 2541 3569 2628 3553 
L 2631 2963 
z
" transform="scale(0.015625)"/>
      </defs>
      <use xlink:href="#DejaVuSans-31"/>
      <use xlink:href="#DejaVuSans-73" x="63.623047"/>
      <use xlink:href="#DejaVuSans-74" x="115.722656"/>
      <use xlink:href="#DejaVuSans-20" x="154.931641"/>
      <use xlink:href="#DejaVuSans-50" x="186.71875"/>
      <use xlink:href="#DejaVuSans-75" x="245.271484"/>
      <use xlink:href="#DejaVuSans-62" x="308.650391"/>
      <use xlink:href="#DejaVuSans-6c" x="372.126953"/>
      <use xlink:href="#DejaVuSans-69" x="399.910156"/>
      <use xlink:href="#DejaVuSans-73" x="427.693359"/>
      <use xlink:href="#DejaVuSans-68" x="479.792969"/>
      <use xlink:href="#DejaVuSans-69" x="543.171875"/>
      <use xlink:href="#DejaVuSans-6e" x="570.955078"/>
      <use xlink:href="#DejaVuSans-67" x="634.333984"/>
      <use xlink:href="#DejaVuSans-20" x="697.810547"/>
      <use xlink:href="#DejaVuSans-59" x="729.597656"/>
      <use xlink:href="#DejaVuSans-65" x="777.431641"/>
      <use xlink:href="#DejaVuSans-61" x="838.955078"/>
      <use xlink:href="#DejaVuSans-72" x="900.234375"/>
     </g>
    </g>
   </g>
   <g id="matplotlib.axis_2">
    <g id="ytick_1">
     <g id="line2d_6">
      <defs>
       <path id="mb951706c1d" d="M 0 0 
L -3.5 0 
" style="stroke: #000000; stroke-width: 0.8"/>
      </defs>
      <g>
       <use xlink:href="#mb951706c1d" x="73.37" y="373.468157" style="stroke: #000000; stroke-width: 0.8"/>
      </g>
     </g>
     <g id="text_7">
      <!-- 0 -->
      <g transform="translate(60.0075 377.267375) scale(0.1 -0.1)">
       <use xlink:href="#DejaVuSans-30"/>
      </g>
     </g>
    </g>
    <g id="ytick_2">
     <g id="line2d_7">
      <g>
       <use xlink:href="#mb951706c1d" x="73.37" y="329.276456" style="stroke: #000000; stroke-width: 0.8"/>
      </g>
     </g>
     <g id="text_8">
      <!-- 50,000 -->
      <g transform="translate(31.379375 333.075675) scale(0.1 -0.1)">
       <defs>
        <path id="DejaVuSans-2c" d="M 750 794 
L 1409 794 
L 1409 256 
L 897 -744 
L 494 -744 
L 750 256 
L 750 794 
z
" transform="scale(0.015625)"/>
       </defs>
       <use xlink:href="#DejaVuSans-35"/>
       <use xlink:href="#DejaVuSans-30" x="63.623047"/>
       <use xlink:href="#DejaVuSans-2c" x="127.246094"/>
       <use xlink:href="#DejaVuSans-30" x="159.033203"/>
       <use xlink:href="#DejaVuSans-30" x="222.65625"/>
       <use xlink:href="#DejaVuSans-30" x="286.279297"/>
      </g>
     </g>
    </g>
    <g id="ytick_3">
     <g id="line2d_8">
      <g>
       <use xlink:href="#mb951706c1d" x="73.37" y="285.084756" style="stroke: #000000; stroke-width: 0.8"/>
      </g>
     </g>
     <g id="text_9">
      <!-- 100,000 -->
      <g transform="translate(25.016875 288.883975) scale(0.1 -0.1)">
       <use xlink:href="#DejaVuSans-31"/>
       <use xlink:href="#DejaVuSans-30" x="63.623047"/>
       <use xlink:href="#DejaVuSans-30" x="127.246094"/>
       <use xlink:href="#DejaVuSans-2c" x="190.869141"/>
       <use xlink:href="#DejaVuSans-30" x="222.65625"/>
       <use xlink:href="#DejaVuSans-30" x="286.279297"/>
       <use xlink:href="#DejaVuSans-30" x="349.902344"/>
      </g>
     </g>
    </g>
    <g id="ytick_4">
     <g id="line2d_9">
      <g>
       <use xlink:href="#mb951706c1d" x="73.37" y="240.893056" style="stroke: #000000; stroke-width: 0.8"/>
      </g>
     </g>
     <g id="text_10">
      <!-- 150,000 -->
      <g transform="translate(25.016875 244.692274) scale(0.1 -0.1)">
       <use xlink:href="#DejaVuSans-31"/>
       <use xlink:href="#DejaVuSans-35" x="63.623047"/>
       <use xlink:href="#DejaVuSans-30" x="127.246094"/>
       <use xlink:href="#DejaVuSans-2c" x="190.869141"/>
       <use xlink:href="#DejaVuSans-30" x="222.65625"/>
       <use xlink:href="#DejaVuSans-30" x="286.279297"/>
       <use xlink:href="#DejaVuSans-30" x="349.902344"/>
      </g>
     </g>
    </g>
    <g id="ytick_5">
     <g id="line2d_10">
      <g>
       <use xlink:href="#mb951706c1d" x="73.37" y="196.701355" style="stroke: #000000; stroke-width: 0.8"/>
      </g>
     </g>
     <g id="text_11">
      <!-- 200,000 -->
      <g transform="translate(25.016875 200.500574) scale(0.1 -0.1)">
       <use xlink:href="#DejaVuSans-32"/>
       <use xlink:href="#DejaVuSans-30" x="63.623047"/>
       <use xlink:href="#DejaVuSans-30" x="127.246094"/>
       <use xlink:href="#DejaVuSans-2c" x="190.869141"/>
       <use xlink:href="#DejaVuSans-30" x="222.65625"/>
       <use xlink:href="#DejaVuSans-30" x="286.279297"/>
       <use xlink:href="#DejaVuSans-30" x="349.902344"/>
      </g>
     </g>
    </g>
    <g id="ytick_6">
     <g id="line2d_11">
      <g>
       <use xlink:href="#mb951706c1d" x="73.37" y="152.509655" style="stroke: #000000; stroke-width: 0.8"/>
      </g>
     </g>
     <g id="text_12">
      <!-- 250,000 -->
      <g transform="translate(25.016875 156.308874) scale(0.1 -0.1)">
       <use xlink:href="#DejaVuSans-32"/>
       <use xlink:href="#DejaVuSans-35" x="63.623047"/>
       <use xlink:href="#DejaVuSans-30" x="127.246094"/>
       <use xlink:href="#DejaVuSans-2c" x="190.869141"/>
       <use xlink:href="#DejaVuSans-30" x="222.65625"/>
       <use xlink:href="#DejaVuSans-30" x="286.279297"/>
       <use xlink:href="#DejaVuSans-30" x="349.902344"/>
      </g>
     </g>
    </g>
    <g id="ytick_7">
     <g id="line2d_12">
      <g>
       <use xlink:href="#mb951706c1d" x="73.37" y="108.317954" style="stroke: #000000; stroke-width: 0.8"/>
      </g>
     </g>
     <g id="text_13">
      <!-- 300,000 -->
      <g transform="translate(25.016875 112.117173) scale(0.1 -0.1)">
       <defs>
        <path id="DejaVuSans-33" d="M 2597 2516 
Q 3050 2419 3304 2112 
Q 3559 1806 3559 1356 
Q 3559 666 3084 287 
Q 2609 -91 1734 -91 
Q 1441 -91 1130 -33 
Q 819 25 488 141 
L 488 750 
Q 750 597 1062 519 
Q 1375 441 1716 441 
Q 2309 441 2620 675 
Q 2931 909 2931 1356 
Q 2931 1769 2642 2001 
Q 2353 2234 1838 2234 
L 1294 2234 
L 1294 2753 
L 1863 2753 
Q 2328 2753 2575 2939 
Q 2822 3125 2822 3475 
Q 2822 3834 2567 4026 
Q 2313 4219 1838 4219 
Q 1578 4219 1281 4162 
Q 984 4106 628 3988 
L 628 4550 
Q 988 4650 1302 4700 
Q 1616 4750 1894 4750 
Q 2613 4750 3031 4423 
Q 3450 4097 3450 3541 
Q 3450 3153 3228 2886 
Q 3006 2619 2597 2516 
z
" transform="scale(0.015625)"/>
       </defs>
       <use xlink:href="#DejaVuSans-33"/>
       <use xlink:href="#DejaVuSans-30" x="63.623047"/>
       <use xlink:href="#DejaVuSans-30" x="127.246094"/>
       <use xlink:href="#DejaVuSans-2c" x="190.869141"/>
       <use xlink:href="#DejaVuSans-30" x="222.65625"/>
       <use xlink:href="#DejaVuSans-30" x="286.279297"/>
       <use xlink:href="#DejaVuSans-30" x="349.902344"/>
      </g>
     </g>
    </g>
    <g id="ytick_8">
     <g id="line2d_13">
      <g>
       <use xlink:href="#mb951706c1d" x="73.37" y="64.126254" style="stroke: #000000; stroke-width: 0.8"/>
      </g>
     </g>
     <g id="text_14">
      <!-- 350,000 -->
      <g transform="translate(25.016875 67.925473) scale(0.1 -0.1)">
       <use xlink:href="#DejaVuSans-33"/>
       <use xlink:href="#DejaVuSans-35" x="63.623047"/>
       <use xlink:href="#DejaVuSans-30" x="127.246094"/>
       <use xlink:href="#DejaVuSans-2c" x="190.869141"/>
       <use xlink:href="#DejaVuSans-30" x="222.65625"/>
       <use xlink:href="#DejaVuSans-30" x="286.279297"/>
       <use xlink:href="#DejaVuSans-30" x="349.902344"/>
      </g>
     </g>
    </g>
    <g id="text_15">
     <!-- Number of Authors -->
     <g transform="translate(18.937187 255.261094) rotate(-90) scale(0.1 -0.1)">
      <defs>
       <path id="DejaVuSans-4e" d="M 628 4666 
L 1478 4666 
L 3547 763 
L 3547 4666 
L 4159 4666 
L 4159 0 
L 3309 0 
L 1241 3903 
L 1241 0 
L 628 0 
L 628 4666 
z
" transform="scale(0.015625)"/>
       <path id="DejaVuSans-6d" d="M 3328 2828 
Q 3544 3216 3844 3400 
Q 4144 3584 4550 3584 
Q 5097 3584 5394 3201 
Q 5691 2819 5691 2113 
L 5691 0 
L 5113 0 
L 5113 2094 
Q 5113 2597 4934 2840 
Q 4756 3084 4391 3084 
Q 3944 3084 3684 2787 
Q 3425 2491 3425 1978 
L 3425 0 
L 2847 0 
L 2847 2094 
Q 2847 2600 2669 2842 
Q 2491 3084 2119 3084 
Q 1678 3084 1418 2786 
Q 1159 2488 1159 1978 
L 1159 0 
L 581 0 
L 581 3500 
L 1159 3500 
L 1159 2956 
Q 1356 3278 1631 3431 
Q 1906 3584 2284 3584 
Q 2666 3584 2933 3390 
Q 3200 3197 3328 2828 
z
" transform="scale(0.015625)"/>
       <path id="DejaVuSans-6f" d="M 1959 3097 
Q 1497 3097 1228 2736 
Q 959 2375 959 1747 
Q 959 1119 1226 758 
Q 1494 397 1959 397 
Q 2419 397 2687 759 
Q 2956 1122 2956 1747 
Q 2956 2369 2687 2733 
Q 2419 3097 1959 3097 
z
M 1959 3584 
Q 2709 3584 3137 3096 
Q 3566 2609 3566 1747 
Q 3566 888 3137 398 
Q 2709 -91 1959 -91 
Q 1206 -91 779 398 
Q 353 888 353 1747 
Q 353 2609 779 3096 
Q 1206 3584 1959 3584 
z
" transform="scale(0.015625)"/>
       <path id="DejaVuSans-66" d="M 2375 4863 
L 2375 4384 
L 1825 4384 
Q 1516 4384 1395 4259 
Q 1275 4134 1275 3809 
L 1275 3500 
L 2222 3500 
L 2222 3053 
L 1275 3053 
L 1275 0 
L 697 0 
L 697 3053 
L 147 3053 
L 147 3500 
L 697 3500 
L 697 3744 
Q 697 4328 969 4595 
Q 1241 4863 1831 4863 
L 2375 4863 
z
" transform="scale(0.015625)"/>
       <path id="DejaVuSans-41" d="M 2188 4044 
L 1331 1722 
L 3047 1722 
L 2188 4044 
z
M 1831 4666 
L 2547 4666 
L 4325 0 
L 3669 0 
L 3244 1197 
L 1141 1197 
L 716 0 
L 50 0 
L 1831 4666 
z
" transform="scale(0.015625)"/>
      </defs>
      <use xlink:href="#DejaVuSans-4e"/>
      <use xlink:href="#DejaVuSans-75" x="74.804688"/>
      <use xlink:href="#DejaVuSans-6d" x="138.183594"/>
      <use xlink:href="#DejaVuSans-62" x="235.595703"/>
      <use xlink:href="#DejaVuSans-65" x="299.072266"/>
      <use xlink:href="#DejaVuSans-72" x="360.595703"/>
      <use xlink:href="#DejaVuSans-20" x="401.708984"/>
      <use xlink:href="#DejaVuSans-6f" x="433.496094"/>
      <use xlink:href="#DejaVuSans-66" x="494.677734"/>
      <use xlink:href="#DejaVuSans-20" x="529.882812"/>
      <use xlink:href="#DejaVuSans-41" x="561.669922"/>
      <use xlink:href="#DejaVuSans-75" x="630.078125"/>
      <use xlink:href="#DejaVuSans-74" x="693.457031"/>
      <use xlink:href="#DejaVuSans-68" x="732.666016"/>
      <use xlink:href="#DejaVuSans-6f" x="796.044922"/>
      <use xlink:href="#DejaVuSans-72" x="857.226562"/>
      <use xlink:href="#DejaVuSans-73" x="898.339844"/>
     </g>
    </g>
   </g>
   <g id="line2d_14">
    <path d="M 373.096946 373.467273 
L 452.509311 373.461086 
L 452.708339 373.296693 
L 453.106396 373.423965 
L 454.897652 373.443409 
L 456.887937 373.431036 
L 458.679194 373.408056 
L 459.475308 373.418662 
L 462.261706 373.413359 
L 472.412159 373.232173 
L 472.611188 373.15086 
L 473.009244 373.237476 
L 474.800501 373.148209 
L 475.198558 373.138486 
L 476.1937 373.278132 
L 476.989814 373.106668 
L 477.188843 373.154395 
L 477.387871 373.046568 
L 477.984957 373.102249 
L 478.582042 373.005028 
L 479.378156 373.066896 
L 480.373298 373.07485 
L 481.567469 373.174724 
L 482.562612 372.825609 
L 482.76164 372.975861 
L 483.159697 372.815887 
L 484.751925 372.58609 
L 485.946096 372.304147 
L 486.145124 372.172456 
L 486.344153 371.753519 
L 486.543181 371.62713 
L 486.74221 372.017785 
L 487.339295 372.045184 
L 487.936381 371.681044 
L 488.334438 371.59708 
L 488.533466 371.445061 
L 489.130552 371.453015 
L 489.32958 371.447712 
L 489.727637 371.086224 
L 489.926666 371.110971 
L 490.125694 370.958952 
L 490.523751 370.858195 
L 490.921808 370.707059 
L 491.319865 370.46754 
L 492.315007 370.055673 
L 492.713064 369.662367 
L 492.912093 369.59608 
L 493.708207 368.789139 
L 494.305292 367.875255 
L 494.703349 367.801013 
L 494.902378 367.35998 
L 495.101406 367.553539 
L 495.499463 367.42008 
L 495.698492 366.842937 
L 495.89752 367.069198 
L 496.096549 368.267677 
L 496.295577 368.523105 
L 496.892663 371.166653 
L 497.091691 372.972326 
L 497.29072 373.467273 
L 497.29072 373.467273 
" clip-path="url(#p3adbe62ec6)" style="fill: none; stroke: #1f77b4; stroke-opacity: 0.8; stroke-width: 1.5; stroke-linecap: square"/>
   </g>
   <g id="line2d_15">
    <path d="M 135.854993 373.466389 
L 452.509311 373.457551 
L 452.708339 373.271062 
L 452.907368 373.433687 
L 462.858792 373.337349 
L 463.455877 373.320556 
L 463.853934 373.343536 
L 464.650048 373.314369 
L 465.645191 373.340884 
L 467.237418 373.30288 
L 467.635475 373.278132 
L 472.213131 373.087224 
L 472.611188 372.695686 
L 472.810216 373.012098 
L 475.596615 372.743413 
L 476.1937 372.883058 
L 478.183985 372.077886 
L 478.383014 372.095562 
L 478.582042 371.739377 
L 478.781071 371.910841 
L 479.179127 371.766776 
L 480.17427 371.630666 
L 480.373298 371.644807 
L 480.572327 370.741529 
L 480.771355 371.84367 
L 481.368441 372.115007 
L 481.766498 371.321324 
L 481.965526 370.74418 
L 482.164555 370.561227 
L 482.363583 370.181178 
L 482.562612 367.976896 
L 482.76164 368.884593 
L 482.960669 368.851008 
L 483.358726 368.313637 
L 483.557754 368.234975 
L 484.15484 367.176142 
L 484.353868 366.708594 
L 484.552897 363.707094 
L 484.751925 365.899886 
L 486.145124 360.692336 
L 486.344153 358.546387 
L 486.543181 352.182782 
L 486.74221 359.206611 
L 488.334438 353.061313 
L 488.533466 346.676496 
L 488.732495 351.383796 
L 488.931523 351.17256 
L 489.130552 350.496427 
L 490.324723 342.335988 
L 490.523751 335.304204 
L 490.72278 339.414916 
L 491.120837 335.872509 
L 491.717922 329.363072 
L 491.91695 329.154487 
L 492.315007 325.301855 
L 492.514036 313.652039 
L 492.713064 317.996967 
L 493.708207 298.158428 
L 494.106264 293.088757 
L 494.305292 285.382608 
L 494.902378 276.782019 
L 495.101406 270.035714 
L 495.300435 267.714766 
L 495.499463 269.560212 
L 495.698492 266.457954 
L 496.096549 272.69959 
L 496.295577 271.019421 
L 496.494606 272.277117 
L 496.892663 289.702789 
L 497.29072 373.442525 
L 497.489748 373.465505 
L 514.208141 373.466389 
L 514.208141 373.466389 
" clip-path="url(#p3adbe62ec6)" style="fill: none; stroke: #aec7e8; stroke-opacity: 0.8; stroke-width: 1.5; stroke-linecap: square"/>
   </g>
   <g id="line2d_16">
    <path d="M 403.150247 373.467273 
L 477.5869 373.359445 
L 478.980099 373.335581 
L 479.577184 373.338233 
L 480.572327 373.308183 
L 481.368441 373.382425 
L 484.15484 373.168537 
L 484.353868 373.198587 
L 484.552897 373.088992 
L 484.950954 373.148209 
L 486.344153 372.83268 
L 486.543181 372.516267 
L 486.74221 372.867149 
L 488.334438 372.584323 
L 488.533466 372.351874 
L 488.732495 372.519803 
L 489.32958 372.390763 
L 489.727637 372.134451 
L 489.926666 372.229021 
L 490.523751 371.673974 
L 490.72278 371.725236 
L 491.319865 371.445061 
L 492.315007 370.634585 
L 492.514036 370.06186 
L 492.713064 369.888629 
L 493.111121 369.022472 
L 493.907235 366.983466 
L 494.902378 362.603185 
L 495.499463 360.944229 
L 495.698492 360.903572 
L 496.096549 361.417964 
L 496.295577 361.148394 
L 496.494606 362.870103 
L 497.091691 372.693034 
L 508.436315 373.465505 
L 515.60134 373.467273 
L 515.60134 373.467273 
" clip-path="url(#p3adbe62ec6)" style="fill: none; stroke: #ff7f0e; stroke-opacity: 0.8; stroke-width: 1.5; stroke-linecap: square"/>
   </g>
   <g id="line2d_17">
    <path d="M 135.655964 373.467273 
L 468.431589 373.367399 
L 469.227703 373.37447 
L 470.819931 373.33293 
L 471.616045 373.287854 
L 475.198558 373.142022 
L 476.1937 373.29139 
L 478.980099 372.758438 
L 480.17427 372.693034 
L 480.771355 372.85566 
L 481.368441 372.967023 
L 481.766498 372.754019 
L 482.363583 372.080537 
L 482.562612 371.673974 
L 482.960669 371.361096 
L 483.159697 371.450364 
L 483.358726 371.268294 
L 483.557754 371.270945 
L 483.756783 371.107436 
L 483.955811 371.094178 
L 484.552897 370.121077 
L 484.751925 370.077769 
L 484.950954 369.756054 
L 485.149982 369.670322 
L 485.548039 368.756437 
L 485.747067 368.634468 
L 486.145124 368.137754 
L 486.344153 368.018436 
L 486.543181 364.633352 
L 486.74221 366.273748 
L 487.140267 366.385995 
L 487.339295 366.99584 
L 487.538324 367.195587 
L 487.737352 367.565029 
L 487.936381 367.445712 
L 488.334438 367.656064 
L 488.533466 367.214147 
L 488.732495 367.344955 
L 489.130552 367.111622 
L 489.727637 366.81377 
L 489.926666 366.474378 
L 490.125694 366.431954 
L 490.523751 365.543701 
L 491.120837 365.368702 
L 491.518894 364.693453 
L 491.91695 364.316055 
L 492.115979 364.16492 
L 492.315007 363.781336 
L 492.514036 362.97086 
L 492.713064 362.736644 
L 493.708207 359.712164 
L 493.907235 359.537165 
L 494.106264 359.528327 
L 494.504321 358.365201 
L 494.902378 358.524291 
L 495.101406 357.962173 
L 495.499463 358.928203 
L 495.698492 353.634038 
L 496.295577 361.858997 
L 496.693634 364.818073 
L 496.892663 367.237127 
L 497.091691 372.141522 
L 497.489748 373.467273 
L 497.489748 373.467273 
" clip-path="url(#p3adbe62ec6)" style="fill: none; stroke: #ffbb78; stroke-opacity: 0.8; stroke-width: 1.5; stroke-linecap: square"/>
   </g>
   <g id="line2d_18">
    <path d="M 99.830837 373.466389 
L 452.509311 373.462854 
L 452.708339 373.256036 
L 452.907368 373.423965 
L 456.091823 373.442525 
L 458.878222 373.401869 
L 459.873365 373.399218 
L 461.863649 373.377122 
L 469.824789 373.170305 
L 472.213131 372.974977 
L 472.611188 371.578519 
L 472.810216 372.990002 
L 473.60633 372.905154 
L 474.004387 372.918412 
L 475.397586 372.792024 
L 475.994672 372.932553 
L 476.392729 372.865382 
L 476.790786 372.655913 
L 476.989814 372.501242 
L 477.188843 372.590509 
L 478.183985 372.323592 
L 478.383014 372.333314 
L 478.582042 372.111471 
L 478.781071 372.20339 
L 479.378156 372.092911 
L 480.17427 372.038997 
L 480.373298 372.038113 
L 480.572327 371.911725 
L 480.771355 372.240511 
L 481.368441 372.442909 
L 481.567469 372.35541 
L 482.363583 371.125113 
L 482.562612 369.970825 
L 482.76164 369.976128 
L 482.960669 370.092794 
L 483.358726 369.718933 
L 483.557754 369.721584 
L 484.15484 368.931437 
L 484.353868 368.499242 
L 484.552897 367.653413 
L 484.751925 368.181062 
L 485.747067 364.640422 
L 485.946096 364.278051 
L 486.344153 362.544852 
L 486.543181 359.73426 
L 486.74221 362.112657 
L 487.339295 360.174409 
L 487.538324 358.788558 
L 487.737352 358.780603 
L 488.135409 357.689068 
L 488.334438 356.479983 
L 488.732495 353.70386 
L 489.32958 350.604255 
L 489.926666 345.016656 
L 490.125694 341.783591 
L 490.324723 332.947019 
L 490.523751 330.491728 
L 490.72278 330.400693 
L 491.120837 327.478738 
L 491.319865 323.019795 
L 491.518894 321.350233 
L 491.91695 316.655307 
L 492.115979 314.987512 
L 492.315007 311.862275 
L 492.514036 301.148439 
L 492.713064 297.869415 
L 493.708207 262.430323 
L 494.106264 255.392352 
L 494.504321 239.203165 
L 494.703349 234.244856 
L 494.902378 232.166079 
L 495.300435 218.05832 
L 495.499463 212.12691 
L 495.698492 182.398269 
L 495.89752 203.013698 
L 496.096549 209.828058 
L 496.295577 204.875052 
L 496.494606 207.985264 
L 496.693634 234.578062 
L 497.29072 373.444293 
L 498.48489 373.467273 
L 515.402312 373.467273 
L 515.402312 373.467273 
" clip-path="url(#p3adbe62ec6)" style="fill: none; stroke: #2ca02c; stroke-opacity: 0.8; stroke-width: 1.5; stroke-linecap: square"/>
   </g>
   <g id="line2d_19">
    <path d="M 404.145389 373.467273 
L 482.164555 373.363864 
L 483.557754 373.269294 
L 484.15484 373.278132 
L 485.349011 373.184446 
L 486.145124 373.066896 
L 486.344153 372.936972 
L 486.543181 372.666519 
L 486.74221 372.930785 
L 487.936381 372.787604 
L 488.334438 372.785837 
L 488.533466 372.655029 
L 488.732495 372.761089 
L 490.523751 372.412859 
L 490.921808 372.419046 
L 491.717922 372.089376 
L 492.315007 371.87372 
L 492.514036 371.490136 
L 492.713064 371.461853 
L 493.31015 371.06678 
L 493.509178 371.049103 
L 493.907235 370.78572 
L 494.106264 370.733574 
L 494.305292 370.422465 
L 494.902378 370.197971 
L 495.101406 370.136986 
L 495.499463 370.432187 
L 495.89752 370.852892 
L 496.295577 371.341652 
L 496.494606 371.713746 
L 497.091691 373.399218 
L 497.091691 373.399218 
" clip-path="url(#p3adbe62ec6)" style="fill: none; stroke: #98df8a; stroke-opacity: 0.8; stroke-width: 1.5; stroke-linecap: square"/>
   </g>
   <g id="line2d_20">
    <path d="M 392.20368 373.467273 
L 472.412159 373.392147 
L 472.810216 373.386844 
L 482.363583 373.163234 
L 482.562612 373.028891 
L 482.960669 373.02624 
L 484.15484 372.789372 
L 484.552897 372.633817 
L 484.950954 372.581671 
L 485.349011 372.435838 
L 485.747067 372.185713 
L 486.344153 371.933821 
L 486.543181 371.38496 
L 486.74221 371.975361 
L 486.941238 371.988618 
L 487.538324 371.740261 
L 487.737352 371.753519 
L 487.936381 371.576752 
L 488.334438 371.590009 
L 488.533466 371.423849 
L 488.931523 371.514883 
L 489.528609 371.198471 
L 489.727637 371.259455 
L 490.125694 370.743296 
L 491.518894 369.942543 
L 491.717922 369.568681 
L 492.115979 369.484717 
L 492.315007 368.924366 
L 492.514036 367.324626 
L 492.713064 367.296344 
L 493.111121 366.375389 
L 493.31015 365.214031 
L 493.708207 364.650145 
L 493.907235 364.858729 
L 494.106264 364.485752 
L 494.504321 363.266061 
L 494.703349 362.916062 
L 494.902378 362.962906 
L 495.101406 362.298262 
L 495.300435 362.083491 
L 495.499463 362.163036 
L 495.698492 348.073838 
L 495.89752 351.135439 
L 496.096549 362.621746 
L 496.295577 363.446363 
L 496.494606 364.917063 
L 497.091691 372.488868 
L 497.29072 373.464621 
L 497.29072 373.464621 
" clip-path="url(#p3adbe62ec6)" style="fill: none; stroke: #d62728; stroke-opacity: 0.8; stroke-width: 1.5; stroke-linecap: square"/>
   </g>
   <g id="line2d_21">
    <path d="M 392.999794 373.448712 
L 467.635475 373.438106 
L 468.431589 373.431036 
L 471.815074 373.386844 
L 472.412159 373.370935 
L 472.810216 373.369167 
L 475.397586 373.266642 
L 476.1937 373.336465 
L 476.790786 373.259572 
L 477.387871 373.220683 
L 477.984957 373.223335 
L 478.781071 373.154395 
L 479.378156 373.134067 
L 480.373298 373.059825 
L 480.572327 372.696569 
L 480.771355 373.089876 
L 481.567469 373.133183 
L 482.363583 372.793791 
L 482.562612 372.245814 
L 482.76164 372.54455 
L 483.955811 372.294425 
L 484.353868 372.054906 
L 484.552897 370.96779 
L 484.751925 371.891397 
L 484.950954 371.772963 
L 485.548039 370.982815 
L 485.747067 370.950997 
L 486.344153 370.402136 
L 486.543181 368.174875 
L 486.74221 370.099865 
L 486.941238 370.064512 
L 488.334438 368.44356 
L 488.533466 366.114658 
L 488.732495 367.845205 
L 488.931523 367.78422 
L 489.130552 367.927401 
L 489.32958 367.686998 
L 489.528609 367.659599 
L 490.324723 366.345338 
L 490.523751 363.954567 
L 490.72278 365.675392 
L 491.319865 363.776917 
L 491.518894 362.484751 
L 492.115979 362.1595 
L 492.315007 361.542584 
L 492.514036 358.550806 
L 492.713064 359.266712 
L 493.111121 356.727457 
L 493.509178 353.482902 
L 493.907235 351.087712 
L 494.305292 345.607941 
L 494.703349 340.452537 
L 494.902378 338.136892 
L 495.300435 329.550445 
L 495.499463 327.868509 
L 495.698492 321.712605 
L 495.89752 319.920189 
L 496.096549 321.194678 
L 496.295577 318.054416 
L 496.494606 317.113133 
L 496.693634 316.910735 
L 496.892663 325.713721 
L 497.29072 373.454015 
L 498.086833 373.467273 
L 498.086833 373.467273 
" clip-path="url(#p3adbe62ec6)" style="fill: none; stroke: #ff9896; stroke-opacity: 0.8; stroke-width: 1.5; stroke-linecap: square"/>
   </g>
   <g id="line2d_22">
    <path d="M 373.096946 373.466389 
L 472.412159 373.365632 
L 472.810216 373.352374 
L 474.004387 373.353258 
L 474.601472 373.301112 
L 475.198558 373.316137 
L 479.179127 373.262223 
L 479.975241 373.254269 
L 480.572327 373.152628 
L 480.771355 373.304647 
L 481.965526 373.258688 
L 482.363583 373.183562 
L 482.562612 372.990002 
L 482.960669 373.131416 
L 483.756783 373.099598 
L 484.353868 373.051871 
L 484.552897 372.898084 
L 484.950954 372.995305 
L 485.548039 372.920179 
L 486.344153 372.70364 
L 486.543181 372.294425 
L 486.74221 372.720433 
L 487.538324 372.590509 
L 488.135409 372.382808 
L 488.334438 372.381041 
L 488.533466 372.053138 
L 488.732495 372.202506 
L 489.926666 371.955033 
L 490.324723 371.79771 
L 490.523751 371.380541 
L 490.72278 371.590893 
L 491.120837 371.486601 
L 492.315007 370.816655 
L 492.514036 370.169688 
L 492.713064 370.151128 
L 493.31015 369.591661 
L 493.907235 368.740528 
L 494.504321 367.436873 
L 494.703349 367.518186 
L 495.101406 366.673241 
L 495.300435 366.740412 
L 495.499463 366.175642 
L 495.698492 366.007714 
L 496.096549 366.649377 
L 496.295577 366.93132 
L 496.494606 367.422732 
L 496.693634 368.873104 
L 497.091691 373.104901 
L 497.091691 373.104901 
" clip-path="url(#p3adbe62ec6)" style="fill: none; stroke: #9467bd; stroke-opacity: 0.8; stroke-width: 1.5; stroke-linecap: square"/>
   </g>
   <g id="line2d_23">
    <path d="M 392.999794 373.465505 
L 473.407301 373.378005 
L 474.601472 373.36298 
L 476.392729 373.386844 
L 478.582042 373.299344 
L 479.378156 373.294041 
L 480.572327 373.288738 
L 481.567469 373.356793 
L 482.363583 373.221567 
L 482.562612 373.082805 
L 483.557754 373.052755 
L 486.344153 372.321824 
L 486.543181 372.019553 
L 486.74221 372.346571 
L 487.538324 372.136219 
L 487.936381 372.071699 
L 488.334438 371.837483 
L 489.130552 371.785337 
L 489.32958 371.539631 
L 489.926666 371.471576 
L 490.523751 371.025239 
L 490.921808 370.972209 
L 491.319865 370.737993 
L 491.717922 370.442793 
L 492.115979 370.36148 
L 492.315007 370.272213 
L 493.708207 368.551388 
L 493.907235 368.586741 
L 494.504321 367.525257 
L 494.703349 367.700256 
L 495.101406 367.123112 
L 495.300435 366.77223 
L 495.499463 366.656448 
L 495.698492 366.058976 
L 495.89752 366.41251 
L 496.096549 367.27248 
L 496.295577 367.458969 
L 496.693634 369.901886 
L 497.091691 372.970558 
L 497.091691 372.970558 
" clip-path="url(#p3adbe62ec6)" style="fill: none; stroke: #c5b0d5; stroke-opacity: 0.8; stroke-width: 1.5; stroke-linecap: square"/>
   </g>
   <g id="line2d_24">
    <path d="M 387.426996 373.467273 
L 462.460735 373.376238 
L 462.659763 373.20389 
L 463.256849 373.270178 
L 465.247134 373.36298 
L 466.242276 373.29139 
L 466.839361 373.316137 
L 467.237418 373.281668 
L 467.834504 373.280784 
L 470.421874 373.218915 
L 471.217988 373.19682 
L 472.412159 373.156163 
L 472.611188 373.05629 
L 473.009244 373.165001 
L 475.994672 373.100482 
L 476.392729 373.183562 
L 476.790786 373.094295 
L 478.582042 372.873336 
L 479.179127 372.804397 
L 479.577184 372.866266 
L 480.17427 372.815003 
L 481.368441 372.990886 
L 481.766498 372.952881 
L 482.562612 372.615257 
L 482.960669 372.691266 
L 483.358726 372.559575 
L 483.756783 372.549853 
L 484.15484 372.341268 
L 484.353868 372.375738 
L 484.552897 372.218415 
L 484.950954 372.271445 
L 485.149982 372.149476 
L 485.349011 372.163618 
L 485.548039 371.939124 
L 485.747067 371.945311 
L 486.145124 371.715514 
L 486.543181 371.276248 
L 486.74221 371.530792 
L 486.941238 371.55554 
L 487.140267 371.398217 
L 487.339295 371.413242 
L 487.737352 371.110087 
L 487.936381 371.164885 
L 488.135409 370.952765 
L 488.533466 370.912109 
L 488.931523 371.157814 
L 489.32958 370.935972 
L 489.528609 370.91476 
L 489.926666 370.646958 
L 490.324723 370.569181 
L 490.921808 370.258955 
L 491.518894 370.012366 
L 491.717922 369.828528 
L 491.91695 369.908073 
L 492.115979 369.844437 
L 492.315007 369.590777 
L 492.514036 369.060476 
L 492.713064 369.146208 
L 493.111121 368.530176 
L 493.31015 368.132451 
L 493.509178 367.999876 
L 494.305292 366.117309 
L 495.300435 363.981966 
L 495.499463 362.953183 
L 495.698492 363.269596 
L 495.89752 362.764043 
L 496.295577 363.387146 
L 496.494606 364.438025 
L 496.892663 368.504545 
L 497.29072 373.466389 
L 498.683919 373.467273 
L 498.683919 373.467273 
" clip-path="url(#p3adbe62ec6)" style="fill: none; stroke: #8c564b; stroke-opacity: 0.8; stroke-width: 1.5; stroke-linecap: square"/>
   </g>
   <g id="line2d_25">
    <path d="M 95.253182 373.467273 
L 481.965526 373.368283 
L 482.960669 373.189749 
L 483.955811 373.110204 
L 484.552897 372.850357 
L 484.950954 372.860963 
L 485.548039 372.705408 
L 485.747067 372.563994 
L 485.946096 372.65061 
L 486.543181 372.334198 
L 486.74221 372.469424 
L 487.140267 372.44998 
L 488.334438 372.460586 
L 488.533466 372.317405 
L 488.732495 372.368667 
L 490.523751 371.749099 
L 491.120837 371.478646 
L 491.319865 371.548469 
L 491.717922 371.170188 
L 491.91695 371.183446 
L 492.115979 371.022588 
L 492.315007 371.01375 
L 492.514036 370.677893 
L 492.713064 370.658448 
L 493.111121 370.318172 
L 493.907235 369.707443 
L 494.305292 369.538631 
L 494.703349 369.292925 
L 494.902378 369.268177 
L 495.101406 369.055173 
L 495.300435 369.098481 
L 495.499463 369.398101 
L 495.698492 366.850891 
L 495.89752 367.740028 
L 496.096549 370.174991 
L 496.494606 370.874988 
L 496.892663 371.941775 
L 497.091691 373.209193 
L 497.091691 373.209193 
" clip-path="url(#p3adbe62ec6)" style="fill: none; stroke: #c49c94; stroke-opacity: 0.8; stroke-width: 1.5; stroke-linecap: square"/>
   </g>
   <g id="line2d_26">
    <path d="M 135.854993 373.467273 
L 471.217988 373.368283 
L 471.616045 373.324092 
L 472.213131 373.347955 
L 472.412159 373.175608 
L 473.009244 373.317021 
L 475.397586 373.228638 
L 476.591757 373.199471 
L 477.5869 373.111088 
L 478.183985 373.034194 
L 478.383014 373.065128 
L 478.781071 372.98028 
L 479.776213 372.860963 
L 480.373298 372.871569 
L 480.572327 372.770812 
L 480.970384 372.990002 
L 481.567469 373.002376 
L 482.76164 372.0443 
L 483.955811 371.547585 
L 484.15484 371.251501 
L 484.353868 371.155163 
L 484.552897 370.387995 
L 484.751925 370.556807 
L 485.349011 369.49002 
L 485.548039 368.864265 
L 485.747067 368.621211 
L 486.344153 367.216799 
L 486.543181 365.336 
L 486.74221 366.948113 
L 487.140267 365.845088 
L 487.538324 365.343071 
L 487.737352 365.228172 
L 487.936381 364.905573 
L 488.135409 364.825144 
L 488.334438 364.378808 
L 488.533466 362.914295 
L 488.732495 363.473762 
L 488.931523 363.330581 
L 489.130552 362.946113 
L 489.926666 359.641457 
L 490.523751 355.136555 
L 491.120837 353.253105 
L 491.717922 349.239615 
L 492.315007 347.482553 
L 492.514036 342.541921 
L 492.713064 342.589648 
L 493.111121 334.874661 
L 493.509178 325.906397 
L 494.305292 309.771124 
L 495.300435 274.417763 
L 495.499463 274.114608 
L 495.698492 275.183163 
L 495.89752 269.378142 
L 496.494606 241.126388 
L 496.693634 221.0828 
L 496.892663 234.502936 
L 497.29072 373.454899 
L 498.882947 373.467273 
L 500.077118 373.467273 
L 500.077118 373.467273 
" clip-path="url(#p3adbe62ec6)" style="fill: none; stroke: #e377c2; stroke-opacity: 0.8; stroke-width: 1.5; stroke-linecap: square"/>
   </g>
   <g id="line2d_27">
    <path d="M 136.054021 373.467273 
L 452.509311 373.457551 
L 452.708339 373.284319 
L 453.106396 373.432803 
L 454.698624 373.423081 
L 458.082108 373.383308 
L 459.077251 373.347955 
L 461.465592 373.314369 
L 462.659763 373.293157 
L 470.023817 372.898084 
L 470.819931 372.799094 
L 471.217988 372.827377 
L 471.417017 372.687731 
L 472.014102 372.62763 
L 472.412159 372.526873 
L 472.611188 372.254652 
L 472.810216 372.510964 
L 473.009244 372.550737 
L 473.60633 372.328895 
L 474.004387 372.432303 
L 474.402444 372.283819 
L 474.999529 372.116774 
L 475.198558 372.011598 
L 475.994672 372.37397 
L 476.1937 372.417278 
L 476.790786 371.953265 
L 477.188843 371.586474 
L 477.387871 371.411475 
L 477.5869 371.408823 
L 477.785928 371.068547 
L 478.183985 370.839634 
L 478.383014 370.96779 
L 478.582042 370.662867 
L 478.781071 370.775114 
L 479.179127 370.404788 
L 479.577184 370.471075 
L 479.975241 370.407439 
L 480.17427 370.198855 
L 480.373298 370.265142 
L 480.572327 369.786988 
L 480.771355 370.578903 
L 481.169412 370.719433 
L 481.368441 370.928018 
L 481.965526 365.737261 
L 482.164555 365.169839 
L 482.363583 364.979815 
L 482.562612 360.877057 
L 482.76164 360.398903 
L 482.960669 361.38261 
L 483.159697 361.61771 
L 483.756783 361.345489 
L 483.955811 360.542084 
L 484.15484 360.448398 
L 484.950954 356.917481 
L 485.149982 354.577972 
L 485.349011 353.758658 
L 485.548039 351.157535 
L 485.747067 351.187585 
L 485.946096 350.482286 
L 486.145124 349.267014 
L 486.543181 344.439512 
L 486.74221 347.196191 
L 487.339295 343.924237 
L 488.334438 336.842075 
L 488.533466 332.815328 
L 488.732495 332.728712 
L 488.931523 331.273037 
L 489.130552 330.760414 
L 490.523751 310.200667 
L 490.72278 312.342197 
L 491.120837 308.888173 
L 492.115979 290.142054 
L 492.315007 290.168569 
L 492.514036 278.212946 
L 492.713064 278.489587 
L 493.111121 259.155718 
L 493.31015 245.817779 
L 493.509178 241.343811 
L 493.708207 231.195629 
L 493.907235 229.763818 
L 494.106264 223.696297 
L 494.703349 188.93157 
L 495.300435 152.939198 
L 495.499463 152.176449 
L 495.698492 148.584548 
L 495.89752 139.310478 
L 496.096549 144.303256 
L 496.295577 132.33526 
L 496.494606 104.62618 
L 496.693634 105.374787 
L 496.892663 149.518761 
L 497.29072 373.426616 
L 498.882947 373.467273 
L 532.916818 373.463737 
L 532.916818 373.463737 
" clip-path="url(#p3adbe62ec6)" style="fill: none; stroke: #f7b6d2; stroke-opacity: 0.8; stroke-width: 1.5; stroke-linecap: square"/>
   </g>
   <g id="line2d_28">
    <path d="M 135.854993 373.467273 
L 488.533466 373.38596 
L 489.130552 373.341768 
L 489.727637 373.349723 
L 490.523751 373.138486 
L 490.921808 373.30288 
L 491.319865 372.96172 
L 491.518894 373.034194 
L 491.717922 372.866266 
L 491.91695 373.020937 
L 492.315007 373.051871 
L 492.912093 372.992654 
L 493.31015 372.836215 
L 493.509178 373.065128 
L 493.907235 372.807933 
L 494.106264 372.86273 
L 494.504321 372.49152 
L 494.703349 371.900235 
L 494.902378 371.815387 
L 495.101406 371.901119 
L 495.300435 372.358945 
L 495.698492 372.166269 
L 496.096549 372.547202 
L 496.295577 372.503894 
L 496.494606 372.12031 
L 496.693634 370.118426 
L 496.892663 356.165338 
L 497.091691 161.923371 
L 497.29072 373.23836 
L 497.489748 373.462854 
L 512.615913 373.456667 
L 512.615913 373.456667 
" clip-path="url(#p3adbe62ec6)" style="fill: none; stroke: #7f7f7f; stroke-opacity: 0.8; stroke-width: 1.5; stroke-linecap: square"/>
   </g>
   <g id="line2d_29">
    <path d="M 134.660822 373.467273 
L 452.509311 373.458434 
L 452.708339 373.254269 
L 453.106396 373.381541 
L 457.88308 373.386844 
L 459.674336 373.369167 
L 467.436447 373.248966 
L 467.635475 373.142906 
L 468.033532 373.178259 
L 470.421874 373.058941 
L 470.819931 373.119926 
L 471.616045 373.060709 
L 472.412159 373.041265 
L 472.611188 372.881291 
L 473.009244 372.981164 
L 475.198558 372.769928 
L 475.795643 373.096946 
L 476.1937 373.138486 
L 476.989814 372.853892 
L 477.5869 372.760206 
L 478.582042 372.601115 
L 479.776213 372.624979 
L 480.373298 372.678893 
L 481.567469 373.038613 
L 482.164555 372.603767 
L 482.76164 372.40402 
L 483.159697 372.245814 
L 483.358726 372.136219 
L 483.557754 372.213996 
L 484.15484 371.900235 
L 484.353868 371.977129 
L 484.751925 371.833947 
L 485.548039 371.45655 
L 486.145124 371.00933 
L 486.543181 368.651261 
L 486.74221 370.571833 
L 486.941238 370.600115 
L 487.538324 370.244814 
L 487.936381 369.862114 
L 488.334438 369.493555 
L 488.732495 368.831563 
L 488.931523 369.150627 
L 489.528609 368.342803 
L 489.926666 367.425383 
L 490.125694 367.343187 
L 490.324723 367.038264 
L 490.523751 366.497358 
L 490.72278 366.625514 
L 491.717922 363.861765 
L 492.912093 358.503963 
L 494.106264 347.149348 
L 495.698492 321.919422 
L 495.89752 320.95074 
L 496.096549 325.543141 
L 496.295577 326.769903 
L 496.693634 342.545456 
L 497.091691 369.66767 
L 497.29072 373.465505 
L 497.29072 373.465505 
" clip-path="url(#p3adbe62ec6)" style="fill: none; stroke: #c7c7c7; stroke-opacity: 0.8; stroke-width: 1.5; stroke-linecap: square"/>
   </g>
   <g id="line2d_30">
    <path d="M 95.253182 373.467273 
L 452.509311 373.460202 
L 452.708339 373.334698 
L 453.106396 373.441642 
L 456.091823 373.454015 
L 471.417017 373.286971 
L 472.611188 373.069547 
L 472.810216 373.240127 
L 473.60633 373.19682 
L 474.402444 373.156163 
L 475.397586 373.123461 
L 476.1937 373.240127 
L 476.989814 373.05629 
L 477.785928 372.905154 
L 478.183985 372.783185 
L 478.383014 372.823842 
L 478.582042 372.746948 
L 478.980099 372.742529 
L 479.577184 372.607302 
L 480.373298 372.672706 
L 480.572327 372.579903 
L 480.970384 372.872452 
L 481.368441 372.937856 
L 481.567469 372.835331 
L 482.76164 371.018169 
L 482.960669 370.876755 
L 483.358726 370.783069 
L 483.557754 370.645191 
L 484.353868 368.874871 
L 484.552897 368.056441 
L 484.751925 368.097981 
L 485.946096 364.715548 
L 486.145124 364.52464 
L 486.344153 363.949264 
L 486.543181 362.445863 
L 486.74221 363.691185 
L 487.140267 363.142324 
L 487.339295 362.737528 
L 487.538324 362.589044 
L 487.737352 363.094597 
L 487.936381 362.919598 
L 488.135409 363.181213 
L 488.732495 361.54612 
L 488.931523 362.162152 
L 489.32958 361.165187 
L 490.523751 355.433524 
L 490.72278 355.388448 
L 491.319865 353.10904 
L 491.518894 352.65033 
L 491.717922 350.830516 
L 491.91695 351.115111 
L 492.315007 350.420417 
L 492.514036 347.03003 
L 492.713064 347.529396 
L 493.111121 343.591032 
L 493.509178 339.223124 
L 493.907235 336.055463 
L 494.106264 334.346128 
L 494.703349 325.163977 
L 494.902378 324.090118 
L 495.101406 319.591403 
L 495.300435 319.317415 
L 495.499463 317.498484 
L 495.698492 312.331591 
L 495.89752 310.50117 
L 496.096549 316.269955 
L 496.295577 315.03082 
L 496.892663 330.871777 
L 497.29072 373.466389 
L 497.29072 373.466389 
" clip-path="url(#p3adbe62ec6)" style="fill: none; stroke: #bcbd22; stroke-opacity: 0.8; stroke-width: 1.5; stroke-linecap: square"/>
   </g>
   <g id="line2d_31">
    <path d="M 371.106661 373.467273 
L 452.509311 373.457551 
L 452.708339 373.301996 
L 453.106396 373.421313 
L 457.684051 373.40894 
L 459.674336 373.357677 
L 461.266564 373.345304 
L 463.256849 373.301996 
L 467.436447 373.232173 
L 468.232561 373.198587 
L 469.227703 373.179143 
L 469.824789 373.124345 
L 470.620903 373.02624 
L 471.417017 373.018285 
L 472.412159 372.869801 
L 472.611188 372.710711 
L 472.810216 372.894548 
L 473.208273 372.781418 
L 474.004387 372.769044 
L 475.397586 372.580787 
L 475.795643 372.704524 
L 476.392729 372.676241 
L 477.188843 372.429652 
L 477.387871 372.472959 
L 477.984957 372.165385 
L 478.781071 371.945311 
L 478.980099 372.048719 
L 479.179127 371.863998 
L 479.378156 372.038997 
L 479.577184 371.969174 
L 479.975241 372.000992 
L 480.17427 371.871952 
L 480.373298 371.9568 
L 480.572327 367.169072 
L 480.771355 372.22637 
L 481.368441 372.37397 
L 481.766498 372.033694 
L 481.965526 371.725236 
L 482.363583 371.485717 
L 482.562612 370.993421 
L 482.960669 371.036729 
L 484.15484 370.508196 
L 484.353868 370.304915 
L 484.552897 369.840902 
L 484.751925 369.982315 
L 485.149982 369.566913 
L 486.145124 367.816922 
L 486.543181 364.514918 
L 486.74221 366.418697 
L 486.941238 365.830947 
L 487.140267 365.680695 
L 487.339295 365.361631 
L 487.936381 363.880325 
L 488.135409 363.730957 
L 488.533466 362.332732 
L 488.732495 362.409625 
L 488.931523 362.333616 
L 489.32958 361.542584 
L 489.727637 360.037415 
L 490.324723 357.301949 
L 490.523751 355.613826 
L 490.72278 355.26206 
L 491.120837 352.686568 
L 491.518894 349.132671 
L 491.717922 348.930273 
L 492.315007 344.121332 
L 492.514036 338.200528 
L 492.713064 336.960509 
L 493.31015 323.852367 
L 493.907235 308.474539 
L 494.703349 275.517253 
L 495.499463 239.863389 
L 495.698492 238.40683 
L 495.89752 235.810126 
L 496.295577 220.860958 
L 496.494606 213.259985 
L 496.693634 218.648721 
L 496.892663 261.964542 
L 497.29072 373.431036 
L 497.489748 373.466389 
L 516.596482 373.467273 
L 516.596482 373.467273 
" clip-path="url(#p3adbe62ec6)" style="fill: none; stroke: #dbdb8d; stroke-opacity: 0.8; stroke-width: 1.5; stroke-linecap: square"/>
   </g>
   <g id="line2d_32">
    <path d="M 135.655964 373.467273 
L 452.509311 373.463737 
L 452.708339 373.348839 
L 453.106396 373.456667 
L 466.043248 373.423081 
L 466.839361 373.402753 
L 468.431589 373.384192 
L 474.800501 373.040381 
L 475.198558 373.005911 
L 475.795643 373.025356 
L 477.785928 372.645307 
L 478.183985 372.520687 
L 478.383014 372.563111 
L 478.781071 372.339501 
L 478.980099 372.366899 
L 479.179127 372.258188 
L 479.378156 372.366016 
L 479.577184 372.222834 
L 479.975241 372.169804 
L 480.572327 371.927634 
L 480.771355 372.165385 
L 481.169412 372.326243 
L 481.368441 372.412859 
L 482.164555 371.38496 
L 482.363583 371.16135 
L 482.76164 370.083956 
L 483.159697 370.075118 
L 483.756783 369.850624 
L 484.15484 369.518302 
L 484.552897 368.736109 
L 485.149982 367.664902 
L 485.946096 364.932972 
L 486.145124 364.120728 
L 486.543181 361.063546 
L 486.74221 361.459504 
L 487.339295 359.683881 
L 487.538324 358.176061 
L 487.737352 357.807502 
L 488.135409 356.170641 
L 488.334438 356.021273 
L 488.732495 354.218252 
L 488.931523 354.217368 
L 489.130552 353.707396 
L 490.125694 347.085711 
L 490.523751 342.743435 
L 490.72278 342.69394 
L 490.921808 340.881197 
L 491.120837 340.414532 
L 491.717922 333.139695 
L 492.115979 329.564586 
L 492.315007 328.519894 
L 492.514036 323.877998 
L 492.713064 322.107679 
L 493.509178 299.119156 
L 494.504321 251.472549 
L 495.499463 178.718868 
L 495.698492 175.04919 
L 496.096549 147.01751 
L 496.693634 42.012727 
L 496.892663 95.330898 
L 497.29072 373.414243 
L 497.688777 373.465505 
L 516.596482 373.463737 
L 516.596482 373.463737 
" clip-path="url(#p3adbe62ec6)" style="fill: none; stroke: #17becf; stroke-opacity: 0.8; stroke-width: 1.5; stroke-linecap: square"/>
   </g>
   <g id="line2d_33">
    <path d="M 440.76663 373.466389 
L 484.353868 373.370051 
L 485.149982 373.330278 
L 487.140267 373.157047 
L 487.737352 373.135835 
L 488.135409 373.115507 
L 490.324723 373.020053 
L 490.523751 372.951998 
L 490.921808 372.983816 
L 491.319865 372.936972 
L 492.115979 372.765509 
L 492.514036 372.682428 
L 495.101406 371.710211 
L 495.499463 371.586474 
L 496.295577 371.730539 
L 496.494606 371.857811 
L 497.091691 373.369167 
L 497.091691 373.369167 
" clip-path="url(#p3adbe62ec6)" style="fill: none; stroke: #9edae5; stroke-opacity: 0.8; stroke-width: 1.5; stroke-linecap: square"/>
   </g>
   <g id="line2d_34">
    <path d="M 455.693766 390.04 
L 455.693766 25.44 
" clip-path="url(#p3adbe62ec6)" style="fill: none; stroke-dasharray: 1.5,2.475; stroke-dashoffset: 0; stroke: #1f77b4; stroke-width: 1.5"/>
   </g>
   <g id="patch_3">
    <path d="M 73.37 390.04 
L 73.37 25.44 
" style="fill: none; stroke: #000000; stroke-width: 0.8; stroke-linejoin: miter; stroke-linecap: square"/>
   </g>
   <g id="patch_4">
    <path d="M 554.8 390.04 
L 554.8 25.44 
" style="fill: none; stroke: #000000; stroke-width: 0.8; stroke-linejoin: miter; stroke-linecap: square"/>
   </g>
   <g id="patch_5">
    <path d="M 73.37 390.04 
L 554.8 390.04 
" style="fill: none; stroke: #000000; stroke-width: 0.8; stroke-linejoin: miter; stroke-linecap: square"/>
   </g>
   <g id="patch_6">
    <path d="M 73.37 25.44 
L 554.8 25.44 
" style="fill: none; stroke: #000000; stroke-width: 0.8; stroke-linejoin: miter; stroke-linecap: square"/>
   </g>
   <g id="text_16">
    <!-- End of Waterloo -->
    <g transform="translate(457.684051 36.617823) scale(0.1 -0.1)">
     <defs>
      <path id="DejaVuSans-45" d="M 628 4666 
L 3578 4666 
L 3578 4134 
L 1259 4134 
L 1259 2753 
L 3481 2753 
L 3481 2222 
L 1259 2222 
L 1259 531 
L 3634 531 
L 3634 0 
L 628 0 
L 628 4666 
z
" transform="scale(0.015625)"/>
      <path id="DejaVuSans-64" d="M 2906 2969 
L 2906 4863 
L 3481 4863 
L 3481 0 
L 2906 0 
L 2906 525 
Q 2725 213 2448 61 
Q 2172 -91 1784 -91 
Q 1150 -91 751 415 
Q 353 922 353 1747 
Q 353 2572 751 3078 
Q 1150 3584 1784 3584 
Q 2172 3584 2448 3432 
Q 2725 3281 2906 2969 
z
M 947 1747 
Q 947 1113 1208 752 
Q 1469 391 1925 391 
Q 2381 391 2643 752 
Q 2906 1113 2906 1747 
Q 2906 2381 2643 2742 
Q 2381 3103 1925 3103 
Q 1469 3103 1208 2742 
Q 947 2381 947 1747 
z
" transform="scale(0.015625)"/>
      <path id="DejaVuSans-57" d="M 213 4666 
L 850 4666 
L 1831 722 
L 2809 4666 
L 3519 4666 
L 4500 722 
L 5478 4666 
L 6119 4666 
L 4947 0 
L 4153 0 
L 3169 4050 
L 2175 0 
L 1381 0 
L 213 4666 
z
" transform="scale(0.015625)"/>
     </defs>
     <use xlink:href="#DejaVuSans-45"/>
     <use xlink:href="#DejaVuSans-6e" x="63.183594"/>
     <use xlink:href="#DejaVuSans-64" x="126.5625"/>
     <use xlink:href="#DejaVuSans-20" x="190.039062"/>
     <use xlink:href="#DejaVuSans-6f" x="221.826172"/>
     <use xlink:href="#DejaVuSans-66" x="283.007812"/>
     <use xlink:href="#DejaVuSans-20" x="318.212891"/>
     <use xlink:href="#DejaVuSans-57" x="350"/>
     <use xlink:href="#DejaVuSans-61" x="442.501953"/>
     <use xlink:href="#DejaVuSans-74" x="503.78125"/>
     <use xlink:href="#DejaVuSans-65" x="542.990234"/>
     <use xlink:href="#DejaVuSans-72" x="604.513672"/>
     <use xlink:href="#DejaVuSans-6c" x="645.626953"/>
     <use xlink:href="#DejaVuSans-6f" x="673.410156"/>
     <use xlink:href="#DejaVuSans-6f" x="734.591797"/>
    </g>
   </g>
   <g id="text_17">
    <!-- Number of New Authors per Year by Concept, for Full Dataset -->
    <g transform="translate(129.959063 19.44) scale(0.12 -0.12)">
     <defs>
      <path id="DejaVuSans-77" d="M 269 3500 
L 844 3500 
L 1563 769 
L 2278 3500 
L 2956 3500 
L 3675 769 
L 4391 3500 
L 4966 3500 
L 4050 0 
L 3372 0 
L 2619 2869 
L 1863 0 
L 1184 0 
L 269 3500 
z
" transform="scale(0.015625)"/>
      <path id="DejaVuSans-70" d="M 1159 525 
L 1159 -1331 
L 581 -1331 
L 581 3500 
L 1159 3500 
L 1159 2969 
Q 1341 3281 1617 3432 
Q 1894 3584 2278 3584 
Q 2916 3584 3314 3078 
Q 3713 2572 3713 1747 
Q 3713 922 3314 415 
Q 2916 -91 2278 -91 
Q 1894 -91 1617 61 
Q 1341 213 1159 525 
z
M 3116 1747 
Q 3116 2381 2855 2742 
Q 2594 3103 2138 3103 
Q 1681 3103 1420 2742 
Q 1159 2381 1159 1747 
Q 1159 1113 1420 752 
Q 1681 391 2138 391 
Q 2594 391 2855 752 
Q 3116 1113 3116 1747 
z
" transform="scale(0.015625)"/>
      <path id="DejaVuSans-79" d="M 2059 -325 
Q 1816 -950 1584 -1140 
Q 1353 -1331 966 -1331 
L 506 -1331 
L 506 -850 
L 844 -850 
Q 1081 -850 1212 -737 
Q 1344 -625 1503 -206 
L 1606 56 
L 191 3500 
L 800 3500 
L 1894 763 
L 2988 3500 
L 3597 3500 
L 2059 -325 
z
" transform="scale(0.015625)"/>
      <path id="DejaVuSans-43" d="M 4122 4306 
L 4122 3641 
Q 3803 3938 3442 4084 
Q 3081 4231 2675 4231 
Q 1875 4231 1450 3742 
Q 1025 3253 1025 2328 
Q 1025 1406 1450 917 
Q 1875 428 2675 428 
Q 3081 428 3442 575 
Q 3803 722 4122 1019 
L 4122 359 
Q 3791 134 3420 21 
Q 3050 -91 2638 -91 
Q 1578 -91 968 557 
Q 359 1206 359 2328 
Q 359 3453 968 4101 
Q 1578 4750 2638 4750 
Q 3056 4750 3426 4639 
Q 3797 4528 4122 4306 
z
" transform="scale(0.015625)"/>
      <path id="DejaVuSans-63" d="M 3122 3366 
L 3122 2828 
Q 2878 2963 2633 3030 
Q 2388 3097 2138 3097 
Q 1578 3097 1268 2742 
Q 959 2388 959 1747 
Q 959 1106 1268 751 
Q 1578 397 2138 397 
Q 2388 397 2633 464 
Q 2878 531 3122 666 
L 3122 134 
Q 2881 22 2623 -34 
Q 2366 -91 2075 -91 
Q 1284 -91 818 406 
Q 353 903 353 1747 
Q 353 2603 823 3093 
Q 1294 3584 2113 3584 
Q 2378 3584 2631 3529 
Q 2884 3475 3122 3366 
z
" transform="scale(0.015625)"/>
      <path id="DejaVuSans-46" d="M 628 4666 
L 3309 4666 
L 3309 4134 
L 1259 4134 
L 1259 2759 
L 3109 2759 
L 3109 2228 
L 1259 2228 
L 1259 0 
L 628 0 
L 628 4666 
z
" transform="scale(0.015625)"/>
      <path id="DejaVuSans-44" d="M 1259 4147 
L 1259 519 
L 2022 519 
Q 2988 519 3436 956 
Q 3884 1394 3884 2338 
Q 3884 3275 3436 3711 
Q 2988 4147 2022 4147 
L 1259 4147 
z
M 628 4666 
L 1925 4666 
Q 3281 4666 3915 4102 
Q 4550 3538 4550 2338 
Q 4550 1131 3912 565 
Q 3275 0 1925 0 
L 628 0 
L 628 4666 
z
" transform="scale(0.015625)"/>
     </defs>
     <use xlink:href="#DejaVuSans-4e"/>
     <use xlink:href="#DejaVuSans-75" x="74.804688"/>
     <use xlink:href="#DejaVuSans-6d" x="138.183594"/>
     <use xlink:href="#DejaVuSans-62" x="235.595703"/>
     <use xlink:href="#DejaVuSans-65" x="299.072266"/>
     <use xlink:href="#DejaVuSans-72" x="360.595703"/>
     <use xlink:href="#DejaVuSans-20" x="401.708984"/>
     <use xlink:href="#DejaVuSans-6f" x="433.496094"/>
     <use xlink:href="#DejaVuSans-66" x="494.677734"/>
     <use xlink:href="#DejaVuSans-20" x="529.882812"/>
     <use xlink:href="#DejaVuSans-4e" x="561.669922"/>
     <use xlink:href="#DejaVuSans-65" x="636.474609"/>
     <use xlink:href="#DejaVuSans-77" x="697.998047"/>
     <use xlink:href="#DejaVuSans-20" x="779.785156"/>
     <use xlink:href="#DejaVuSans-41" x="811.572266"/>
     <use xlink:href="#DejaVuSans-75" x="879.980469"/>
     <use xlink:href="#DejaVuSans-74" x="943.359375"/>
     <use xlink:href="#DejaVuSans-68" x="982.568359"/>
     <use xlink:href="#DejaVuSans-6f" x="1045.947266"/>
     <use xlink:href="#DejaVuSans-72" x="1107.128906"/>
     <use xlink:href="#DejaVuSans-73" x="1148.242188"/>
     <use xlink:href="#DejaVuSans-20" x="1200.341797"/>
     <use xlink:href="#DejaVuSans-70" x="1232.128906"/>
     <use xlink:href="#DejaVuSans-65" x="1295.605469"/>
     <use xlink:href="#DejaVuSans-72" x="1357.128906"/>
     <use xlink:href="#DejaVuSans-20" x="1398.242188"/>
     <use xlink:href="#DejaVuSans-59" x="1430.029297"/>
     <use xlink:href="#DejaVuSans-65" x="1477.863281"/>
     <use xlink:href="#DejaVuSans-61" x="1539.386719"/>
     <use xlink:href="#DejaVuSans-72" x="1600.666016"/>
     <use xlink:href="#DejaVuSans-20" x="1641.779297"/>
     <use xlink:href="#DejaVuSans-62" x="1673.566406"/>
     <use xlink:href="#DejaVuSans-79" x="1737.042969"/>
     <use xlink:href="#DejaVuSans-20" x="1796.222656"/>
     <use xlink:href="#DejaVuSans-43" x="1828.009766"/>
     <use xlink:href="#DejaVuSans-6f" x="1897.833984"/>
     <use xlink:href="#DejaVuSans-6e" x="1959.015625"/>
     <use xlink:href="#DejaVuSans-63" x="2022.394531"/>
     <use xlink:href="#DejaVuSans-65" x="2077.375"/>
     <use xlink:href="#DejaVuSans-70" x="2138.898438"/>
     <use xlink:href="#DejaVuSans-74" x="2202.375"/>
     <use xlink:href="#DejaVuSans-2c" x="2241.583984"/>
     <use xlink:href="#DejaVuSans-20" x="2273.371094"/>
     <use xlink:href="#DejaVuSans-66" x="2305.158203"/>
     <use xlink:href="#DejaVuSans-6f" x="2340.363281"/>
     <use xlink:href="#DejaVuSans-72" x="2401.544922"/>
     <use xlink:href="#DejaVuSans-20" x="2442.658203"/>
     <use xlink:href="#DejaVuSans-46" x="2474.445312"/>
     <use xlink:href="#DejaVuSans-75" x="2526.464844"/>
     <use xlink:href="#DejaVuSans-6c" x="2589.84375"/>
     <use xlink:href="#DejaVuSans-6c" x="2617.626953"/>
     <use xlink:href="#DejaVuSans-20" x="2645.410156"/>
     <use xlink:href="#DejaVuSans-44" x="2677.197266"/>
     <use xlink:href="#DejaVuSans-61" x="2754.199219"/>
     <use xlink:href="#DejaVuSans-74" x="2815.478516"/>
     <use xlink:href="#DejaVuSans-61" x="2854.6875"/>
     <use xlink:href="#DejaVuSans-73" x="2915.966797"/>
     <use xlink:href="#DejaVuSans-65" x="2968.066406"/>
     <use xlink:href="#DejaVuSans-74" x="3029.589844"/>
    </g>
   </g>
   <g id="legend_1">
    <g id="patch_7">
     <path d="M 561.8 363.360313 
L 707.359375 363.360313 
Q 709.359375 363.360313 709.359375 361.360313 
L 709.359375 54.119687 
Q 709.359375 52.119687 707.359375 52.119687 
L 561.8 52.119687 
Q 559.8 52.119687 559.8 54.119687 
L 559.8 361.360313 
Q 559.8 363.360313 561.8 363.360313 
z
" style="fill: #ffffff; opacity: 0.8; stroke: #cccccc; stroke-linejoin: miter"/>
    </g>
    <g id="text_18">
     <!-- Top Concept of Author -->
     <g transform="translate(579.042969 63.718125) scale(0.1 -0.1)">
      <defs>
       <path id="DejaVuSans-54" d="M -19 4666 
L 3928 4666 
L 3928 4134 
L 2272 4134 
L 2272 0 
L 1638 0 
L 1638 4134 
L -19 4134 
L -19 4666 
z
" transform="scale(0.015625)"/>
      </defs>
      <use xlink:href="#DejaVuSans-54"/>
      <use xlink:href="#DejaVuSans-6f" x="44.083984"/>
      <use xlink:href="#DejaVuSans-70" x="105.265625"/>
      <use xlink:href="#DejaVuSans-20" x="168.742188"/>
      <use xlink:href="#DejaVuSans-43" x="200.529297"/>
      <use xlink:href="#DejaVuSans-6f" x="270.353516"/>
      <use xlink:href="#DejaVuSans-6e" x="331.535156"/>
      <use xlink:href="#DejaVuSans-63" x="394.914062"/>
      <use xlink:href="#DejaVuSans-65" x="449.894531"/>
      <use xlink:href="#DejaVuSans-70" x="511.417969"/>
      <use xlink:href="#DejaVuSans-74" x="574.894531"/>
      <use xlink:href="#DejaVuSans-20" x="614.103516"/>
      <use xlink:href="#DejaVuSans-6f" x="645.890625"/>
      <use xlink:href="#DejaVuSans-66" x="707.072266"/>
      <use xlink:href="#DejaVuSans-20" x="742.277344"/>
      <use xlink:href="#DejaVuSans-41" x="774.064453"/>
      <use xlink:href="#DejaVuSans-75" x="842.472656"/>
      <use xlink:href="#DejaVuSans-74" x="905.851562"/>
      <use xlink:href="#DejaVuSans-68" x="945.060547"/>
      <use xlink:href="#DejaVuSans-6f" x="1008.439453"/>
      <use xlink:href="#DejaVuSans-72" x="1069.621094"/>
     </g>
    </g>
    <g id="line2d_35">
     <path d="M 563.8 74.89625 
L 573.8 74.89625 
L 583.8 74.89625 
" style="fill: none; stroke: #1f77b4; stroke-opacity: 0.8; stroke-width: 1.5; stroke-linecap: square"/>
    </g>
    <g id="text_19">
     <!-- Art -->
     <g transform="translate(591.8 78.39625) scale(0.1 -0.1)">
      <use xlink:href="#DejaVuSans-41"/>
      <use xlink:href="#DejaVuSans-72" x="68.408203"/>
      <use xlink:href="#DejaVuSans-74" x="109.521484"/>
     </g>
    </g>
    <g id="line2d_36">
     <path d="M 563.8 89.574375 
L 573.8 89.574375 
L 583.8 89.574375 
" style="fill: none; stroke: #aec7e8; stroke-opacity: 0.8; stroke-width: 1.5; stroke-linecap: square"/>
    </g>
    <g id="text_20">
     <!-- Biology -->
     <g transform="translate(591.8 93.074375) scale(0.1 -0.1)">
      <defs>
       <path id="DejaVuSans-42" d="M 1259 2228 
L 1259 519 
L 2272 519 
Q 2781 519 3026 730 
Q 3272 941 3272 1375 
Q 3272 1813 3026 2020 
Q 2781 2228 2272 2228 
L 1259 2228 
z
M 1259 4147 
L 1259 2741 
L 2194 2741 
Q 2656 2741 2882 2914 
Q 3109 3088 3109 3444 
Q 3109 3797 2882 3972 
Q 2656 4147 2194 4147 
L 1259 4147 
z
M 628 4666 
L 2241 4666 
Q 2963 4666 3353 4366 
Q 3744 4066 3744 3513 
Q 3744 3084 3544 2831 
Q 3344 2578 2956 2516 
Q 3422 2416 3680 2098 
Q 3938 1781 3938 1306 
Q 3938 681 3513 340 
Q 3088 0 2303 0 
L 628 0 
L 628 4666 
z
" transform="scale(0.015625)"/>
      </defs>
      <use xlink:href="#DejaVuSans-42"/>
      <use xlink:href="#DejaVuSans-69" x="68.603516"/>
      <use xlink:href="#DejaVuSans-6f" x="96.386719"/>
      <use xlink:href="#DejaVuSans-6c" x="157.568359"/>
      <use xlink:href="#DejaVuSans-6f" x="185.351562"/>
      <use xlink:href="#DejaVuSans-67" x="246.533203"/>
      <use xlink:href="#DejaVuSans-79" x="310.009766"/>
     </g>
    </g>
    <g id="line2d_37">
     <path d="M 563.8 104.2525 
L 573.8 104.2525 
L 583.8 104.2525 
" style="fill: none; stroke: #ff7f0e; stroke-opacity: 0.8; stroke-width: 1.5; stroke-linecap: square"/>
    </g>
    <g id="text_21">
     <!-- Business -->
     <g transform="translate(591.8 107.7525) scale(0.1 -0.1)">
      <use xlink:href="#DejaVuSans-42"/>
      <use xlink:href="#DejaVuSans-75" x="68.603516"/>
      <use xlink:href="#DejaVuSans-73" x="131.982422"/>
      <use xlink:href="#DejaVuSans-69" x="184.082031"/>
      <use xlink:href="#DejaVuSans-6e" x="211.865234"/>
      <use xlink:href="#DejaVuSans-65" x="275.244141"/>
      <use xlink:href="#DejaVuSans-73" x="336.767578"/>
      <use xlink:href="#DejaVuSans-73" x="388.867188"/>
     </g>
    </g>
    <g id="line2d_38">
     <path d="M 563.8 118.930625 
L 573.8 118.930625 
L 583.8 118.930625 
" style="fill: none; stroke: #ffbb78; stroke-opacity: 0.8; stroke-width: 1.5; stroke-linecap: square"/>
    </g>
    <g id="text_22">
     <!-- Chemistry -->
     <g transform="translate(591.8 122.430625) scale(0.1 -0.1)">
      <use xlink:href="#DejaVuSans-43"/>
      <use xlink:href="#DejaVuSans-68" x="69.824219"/>
      <use xlink:href="#DejaVuSans-65" x="133.203125"/>
      <use xlink:href="#DejaVuSans-6d" x="194.726562"/>
      <use xlink:href="#DejaVuSans-69" x="292.138672"/>
      <use xlink:href="#DejaVuSans-73" x="319.921875"/>
      <use xlink:href="#DejaVuSans-74" x="372.021484"/>
      <use xlink:href="#DejaVuSans-72" x="411.230469"/>
      <use xlink:href="#DejaVuSans-79" x="452.34375"/>
     </g>
    </g>
    <g id="line2d_39">
     <path d="M 563.8 133.60875 
L 573.8 133.60875 
L 583.8 133.60875 
" style="fill: none; stroke: #2ca02c; stroke-opacity: 0.8; stroke-width: 1.5; stroke-linecap: square"/>
    </g>
    <g id="text_23">
     <!-- Computer science -->
     <g transform="translate(591.8 137.10875) scale(0.1 -0.1)">
      <use xlink:href="#DejaVuSans-43"/>
      <use xlink:href="#DejaVuSans-6f" x="69.824219"/>
      <use xlink:href="#DejaVuSans-6d" x="131.005859"/>
      <use xlink:href="#DejaVuSans-70" x="228.417969"/>
      <use xlink:href="#DejaVuSans-75" x="291.894531"/>
      <use xlink:href="#DejaVuSans-74" x="355.273438"/>
      <use xlink:href="#DejaVuSans-65" x="394.482422"/>
      <use xlink:href="#DejaVuSans-72" x="456.005859"/>
      <use xlink:href="#DejaVuSans-20" x="497.119141"/>
      <use xlink:href="#DejaVuSans-73" x="528.90625"/>
      <use xlink:href="#DejaVuSans-63" x="581.005859"/>
      <use xlink:href="#DejaVuSans-69" x="635.986328"/>
      <use xlink:href="#DejaVuSans-65" x="663.769531"/>
      <use xlink:href="#DejaVuSans-6e" x="725.292969"/>
      <use xlink:href="#DejaVuSans-63" x="788.671875"/>
      <use xlink:href="#DejaVuSans-65" x="843.652344"/>
     </g>
    </g>
    <g id="line2d_40">
     <path d="M 563.8 148.286875 
L 573.8 148.286875 
L 583.8 148.286875 
" style="fill: none; stroke: #98df8a; stroke-opacity: 0.8; stroke-width: 1.5; stroke-linecap: square"/>
    </g>
    <g id="text_24">
     <!-- Economics -->
     <g transform="translate(591.8 151.786875) scale(0.1 -0.1)">
      <use xlink:href="#DejaVuSans-45"/>
      <use xlink:href="#DejaVuSans-63" x="63.183594"/>
      <use xlink:href="#DejaVuSans-6f" x="118.164062"/>
      <use xlink:href="#DejaVuSans-6e" x="179.345703"/>
      <use xlink:href="#DejaVuSans-6f" x="242.724609"/>
      <use xlink:href="#DejaVuSans-6d" x="303.90625"/>
      <use xlink:href="#DejaVuSans-69" x="401.318359"/>
      <use xlink:href="#DejaVuSans-63" x="429.101562"/>
      <use xlink:href="#DejaVuSans-73" x="484.082031"/>
     </g>
    </g>
    <g id="line2d_41">
     <path d="M 563.8 162.965 
L 573.8 162.965 
L 583.8 162.965 
" style="fill: none; stroke: #d62728; stroke-opacity: 0.8; stroke-width: 1.5; stroke-linecap: square"/>
    </g>
    <g id="text_25">
     <!-- Engineering -->
     <g transform="translate(591.8 166.465) scale(0.1 -0.1)">
      <use xlink:href="#DejaVuSans-45"/>
      <use xlink:href="#DejaVuSans-6e" x="63.183594"/>
      <use xlink:href="#DejaVuSans-67" x="126.5625"/>
      <use xlink:href="#DejaVuSans-69" x="190.039062"/>
      <use xlink:href="#DejaVuSans-6e" x="217.822266"/>
      <use xlink:href="#DejaVuSans-65" x="281.201172"/>
      <use xlink:href="#DejaVuSans-65" x="342.724609"/>
      <use xlink:href="#DejaVuSans-72" x="404.248047"/>
      <use xlink:href="#DejaVuSans-69" x="445.361328"/>
      <use xlink:href="#DejaVuSans-6e" x="473.144531"/>
      <use xlink:href="#DejaVuSans-67" x="536.523438"/>
     </g>
    </g>
    <g id="line2d_42">
     <path d="M 563.8 177.643125 
L 573.8 177.643125 
L 583.8 177.643125 
" style="fill: none; stroke: #ff9896; stroke-opacity: 0.8; stroke-width: 1.5; stroke-linecap: square"/>
    </g>
    <g id="text_26">
     <!-- Environmental science -->
     <g transform="translate(591.8 181.143125) scale(0.1 -0.1)">
      <defs>
       <path id="DejaVuSans-76" d="M 191 3500 
L 800 3500 
L 1894 563 
L 2988 3500 
L 3597 3500 
L 2284 0 
L 1503 0 
L 191 3500 
z
" transform="scale(0.015625)"/>
      </defs>
      <use xlink:href="#DejaVuSans-45"/>
      <use xlink:href="#DejaVuSans-6e" x="63.183594"/>
      <use xlink:href="#DejaVuSans-76" x="126.5625"/>
      <use xlink:href="#DejaVuSans-69" x="185.742188"/>
      <use xlink:href="#DejaVuSans-72" x="213.525391"/>
      <use xlink:href="#DejaVuSans-6f" x="252.388672"/>
      <use xlink:href="#DejaVuSans-6e" x="313.570312"/>
      <use xlink:href="#DejaVuSans-6d" x="376.949219"/>
      <use xlink:href="#DejaVuSans-65" x="474.361328"/>
      <use xlink:href="#DejaVuSans-6e" x="535.884766"/>
      <use xlink:href="#DejaVuSans-74" x="599.263672"/>
      <use xlink:href="#DejaVuSans-61" x="638.472656"/>
      <use xlink:href="#DejaVuSans-6c" x="699.751953"/>
      <use xlink:href="#DejaVuSans-20" x="727.535156"/>
      <use xlink:href="#DejaVuSans-73" x="759.322266"/>
      <use xlink:href="#DejaVuSans-63" x="811.421875"/>
      <use xlink:href="#DejaVuSans-69" x="866.402344"/>
      <use xlink:href="#DejaVuSans-65" x="894.185547"/>
      <use xlink:href="#DejaVuSans-6e" x="955.708984"/>
      <use xlink:href="#DejaVuSans-63" x="1019.087891"/>
      <use xlink:href="#DejaVuSans-65" x="1074.068359"/>
     </g>
    </g>
    <g id="line2d_43">
     <path d="M 563.8 192.32125 
L 573.8 192.32125 
L 583.8 192.32125 
" style="fill: none; stroke: #9467bd; stroke-opacity: 0.8; stroke-width: 1.5; stroke-linecap: square"/>
    </g>
    <g id="text_27">
     <!-- Geography -->
     <g transform="translate(591.8 195.82125) scale(0.1 -0.1)">
      <defs>
       <path id="DejaVuSans-47" d="M 3809 666 
L 3809 1919 
L 2778 1919 
L 2778 2438 
L 4434 2438 
L 4434 434 
Q 4069 175 3628 42 
Q 3188 -91 2688 -91 
Q 1594 -91 976 548 
Q 359 1188 359 2328 
Q 359 3472 976 4111 
Q 1594 4750 2688 4750 
Q 3144 4750 3555 4637 
Q 3966 4525 4313 4306 
L 4313 3634 
Q 3963 3931 3569 4081 
Q 3175 4231 2741 4231 
Q 1884 4231 1454 3753 
Q 1025 3275 1025 2328 
Q 1025 1384 1454 906 
Q 1884 428 2741 428 
Q 3075 428 3337 486 
Q 3600 544 3809 666 
z
" transform="scale(0.015625)"/>
      </defs>
      <use xlink:href="#DejaVuSans-47"/>
      <use xlink:href="#DejaVuSans-65" x="77.490234"/>
      <use xlink:href="#DejaVuSans-6f" x="139.013672"/>
      <use xlink:href="#DejaVuSans-67" x="200.195312"/>
      <use xlink:href="#DejaVuSans-72" x="263.671875"/>
      <use xlink:href="#DejaVuSans-61" x="304.785156"/>
      <use xlink:href="#DejaVuSans-70" x="366.064453"/>
      <use xlink:href="#DejaVuSans-68" x="429.541016"/>
      <use xlink:href="#DejaVuSans-79" x="492.919922"/>
     </g>
    </g>
    <g id="line2d_44">
     <path d="M 563.8 206.999375 
L 573.8 206.999375 
L 583.8 206.999375 
" style="fill: none; stroke: #c5b0d5; stroke-opacity: 0.8; stroke-width: 1.5; stroke-linecap: square"/>
    </g>
    <g id="text_28">
     <!-- Geology -->
     <g transform="translate(591.8 210.499375) scale(0.1 -0.1)">
      <use xlink:href="#DejaVuSans-47"/>
      <use xlink:href="#DejaVuSans-65" x="77.490234"/>
      <use xlink:href="#DejaVuSans-6f" x="139.013672"/>
      <use xlink:href="#DejaVuSans-6c" x="200.195312"/>
      <use xlink:href="#DejaVuSans-6f" x="227.978516"/>
      <use xlink:href="#DejaVuSans-67" x="289.160156"/>
      <use xlink:href="#DejaVuSans-79" x="352.636719"/>
     </g>
    </g>
    <g id="line2d_45">
     <path d="M 563.8 221.6775 
L 573.8 221.6775 
L 583.8 221.6775 
" style="fill: none; stroke: #8c564b; stroke-opacity: 0.8; stroke-width: 1.5; stroke-linecap: square"/>
    </g>
    <g id="text_29">
     <!-- History -->
     <g transform="translate(591.8 225.1775) scale(0.1 -0.1)">
      <defs>
       <path id="DejaVuSans-48" d="M 628 4666 
L 1259 4666 
L 1259 2753 
L 3553 2753 
L 3553 4666 
L 4184 4666 
L 4184 0 
L 3553 0 
L 3553 2222 
L 1259 2222 
L 1259 0 
L 628 0 
L 628 4666 
z
" transform="scale(0.015625)"/>
      </defs>
      <use xlink:href="#DejaVuSans-48"/>
      <use xlink:href="#DejaVuSans-69" x="75.195312"/>
      <use xlink:href="#DejaVuSans-73" x="102.978516"/>
      <use xlink:href="#DejaVuSans-74" x="155.078125"/>
      <use xlink:href="#DejaVuSans-6f" x="194.287109"/>
      <use xlink:href="#DejaVuSans-72" x="255.46875"/>
      <use xlink:href="#DejaVuSans-79" x="296.582031"/>
     </g>
    </g>
    <g id="line2d_46">
     <path d="M 563.8 236.355625 
L 573.8 236.355625 
L 583.8 236.355625 
" style="fill: none; stroke: #c49c94; stroke-opacity: 0.8; stroke-width: 1.5; stroke-linecap: square"/>
    </g>
    <g id="text_30">
     <!-- Materials science -->
     <g transform="translate(591.8 239.855625) scale(0.1 -0.1)">
      <defs>
       <path id="DejaVuSans-4d" d="M 628 4666 
L 1569 4666 
L 2759 1491 
L 3956 4666 
L 4897 4666 
L 4897 0 
L 4281 0 
L 4281 4097 
L 3078 897 
L 2444 897 
L 1241 4097 
L 1241 0 
L 628 0 
L 628 4666 
z
" transform="scale(0.015625)"/>
      </defs>
      <use xlink:href="#DejaVuSans-4d"/>
      <use xlink:href="#DejaVuSans-61" x="86.279297"/>
      <use xlink:href="#DejaVuSans-74" x="147.558594"/>
      <use xlink:href="#DejaVuSans-65" x="186.767578"/>
      <use xlink:href="#DejaVuSans-72" x="248.291016"/>
      <use xlink:href="#DejaVuSans-69" x="289.404297"/>
      <use xlink:href="#DejaVuSans-61" x="317.1875"/>
      <use xlink:href="#DejaVuSans-6c" x="378.466797"/>
      <use xlink:href="#DejaVuSans-73" x="406.25"/>
      <use xlink:href="#DejaVuSans-20" x="458.349609"/>
      <use xlink:href="#DejaVuSans-73" x="490.136719"/>
      <use xlink:href="#DejaVuSans-63" x="542.236328"/>
      <use xlink:href="#DejaVuSans-69" x="597.216797"/>
      <use xlink:href="#DejaVuSans-65" x="625"/>
      <use xlink:href="#DejaVuSans-6e" x="686.523438"/>
      <use xlink:href="#DejaVuSans-63" x="749.902344"/>
      <use xlink:href="#DejaVuSans-65" x="804.882812"/>
     </g>
    </g>
    <g id="line2d_47">
     <path d="M 563.8 251.03375 
L 573.8 251.03375 
L 583.8 251.03375 
" style="fill: none; stroke: #e377c2; stroke-opacity: 0.8; stroke-width: 1.5; stroke-linecap: square"/>
    </g>
    <g id="text_31">
     <!-- Mathematics -->
     <g transform="translate(591.8 254.53375) scale(0.1 -0.1)">
      <use xlink:href="#DejaVuSans-4d"/>
      <use xlink:href="#DejaVuSans-61" x="86.279297"/>
      <use xlink:href="#DejaVuSans-74" x="147.558594"/>
      <use xlink:href="#DejaVuSans-68" x="186.767578"/>
      <use xlink:href="#DejaVuSans-65" x="250.146484"/>
      <use xlink:href="#DejaVuSans-6d" x="311.669922"/>
      <use xlink:href="#DejaVuSans-61" x="409.082031"/>
      <use xlink:href="#DejaVuSans-74" x="470.361328"/>
      <use xlink:href="#DejaVuSans-69" x="509.570312"/>
      <use xlink:href="#DejaVuSans-63" x="537.353516"/>
      <use xlink:href="#DejaVuSans-73" x="592.333984"/>
     </g>
    </g>
    <g id="line2d_48">
     <path d="M 563.8 265.711875 
L 573.8 265.711875 
L 583.8 265.711875 
" style="fill: none; stroke: #f7b6d2; stroke-opacity: 0.8; stroke-width: 1.5; stroke-linecap: square"/>
    </g>
    <g id="text_32">
     <!-- Medicine -->
     <g transform="translate(591.8 269.211875) scale(0.1 -0.1)">
      <use xlink:href="#DejaVuSans-4d"/>
      <use xlink:href="#DejaVuSans-65" x="86.279297"/>
      <use xlink:href="#DejaVuSans-64" x="147.802734"/>
      <use xlink:href="#DejaVuSans-69" x="211.279297"/>
      <use xlink:href="#DejaVuSans-63" x="239.0625"/>
      <use xlink:href="#DejaVuSans-69" x="294.042969"/>
      <use xlink:href="#DejaVuSans-6e" x="321.826172"/>
      <use xlink:href="#DejaVuSans-65" x="385.205078"/>
     </g>
    </g>
    <g id="line2d_49">
     <path d="M 563.8 280.39 
L 573.8 280.39 
L 583.8 280.39 
" style="fill: none; stroke: #7f7f7f; stroke-opacity: 0.8; stroke-width: 1.5; stroke-linecap: square"/>
    </g>
    <g id="text_33">
     <!-- No Top Concept -->
     <g transform="translate(591.8 283.89) scale(0.1 -0.1)">
      <use xlink:href="#DejaVuSans-4e"/>
      <use xlink:href="#DejaVuSans-6f" x="74.804688"/>
      <use xlink:href="#DejaVuSans-20" x="135.986328"/>
      <use xlink:href="#DejaVuSans-54" x="167.773438"/>
      <use xlink:href="#DejaVuSans-6f" x="211.857422"/>
      <use xlink:href="#DejaVuSans-70" x="273.039062"/>
      <use xlink:href="#DejaVuSans-20" x="336.515625"/>
      <use xlink:href="#DejaVuSans-43" x="368.302734"/>
      <use xlink:href="#DejaVuSans-6f" x="438.126953"/>
      <use xlink:href="#DejaVuSans-6e" x="499.308594"/>
      <use xlink:href="#DejaVuSans-63" x="562.6875"/>
      <use xlink:href="#DejaVuSans-65" x="617.667969"/>
      <use xlink:href="#DejaVuSans-70" x="679.191406"/>
      <use xlink:href="#DejaVuSans-74" x="742.667969"/>
     </g>
    </g>
    <g id="line2d_50">
     <path d="M 563.8 295.068125 
L 573.8 295.068125 
L 583.8 295.068125 
" style="fill: none; stroke: #c7c7c7; stroke-opacity: 0.8; stroke-width: 1.5; stroke-linecap: square"/>
    </g>
    <g id="text_34">
     <!-- Philosophy -->
     <g transform="translate(591.8 298.568125) scale(0.1 -0.1)">
      <use xlink:href="#DejaVuSans-50"/>
      <use xlink:href="#DejaVuSans-68" x="60.302734"/>
      <use xlink:href="#DejaVuSans-69" x="123.681641"/>
      <use xlink:href="#DejaVuSans-6c" x="151.464844"/>
      <use xlink:href="#DejaVuSans-6f" x="179.248047"/>
      <use xlink:href="#DejaVuSans-73" x="240.429688"/>
      <use xlink:href="#DejaVuSans-6f" x="292.529297"/>
      <use xlink:href="#DejaVuSans-70" x="353.710938"/>
      <use xlink:href="#DejaVuSans-68" x="417.1875"/>
      <use xlink:href="#DejaVuSans-79" x="480.566406"/>
     </g>
    </g>
    <g id="line2d_51">
     <path d="M 563.8 309.74625 
L 573.8 309.74625 
L 583.8 309.74625 
" style="fill: none; stroke: #bcbd22; stroke-opacity: 0.8; stroke-width: 1.5; stroke-linecap: square"/>
    </g>
    <g id="text_35">
     <!-- Physics -->
     <g transform="translate(591.8 313.24625) scale(0.1 -0.1)">
      <use xlink:href="#DejaVuSans-50"/>
      <use xlink:href="#DejaVuSans-68" x="60.302734"/>
      <use xlink:href="#DejaVuSans-79" x="123.681641"/>
      <use xlink:href="#DejaVuSans-73" x="182.861328"/>
      <use xlink:href="#DejaVuSans-69" x="234.960938"/>
      <use xlink:href="#DejaVuSans-63" x="262.744141"/>
      <use xlink:href="#DejaVuSans-73" x="317.724609"/>
     </g>
    </g>
    <g id="line2d_52">
     <path d="M 563.8 324.424375 
L 573.8 324.424375 
L 583.8 324.424375 
" style="fill: none; stroke: #dbdb8d; stroke-opacity: 0.8; stroke-width: 1.5; stroke-linecap: square"/>
    </g>
    <g id="text_36">
     <!-- Political science -->
     <g transform="translate(591.8 327.924375) scale(0.1 -0.1)">
      <use xlink:href="#DejaVuSans-50"/>
      <use xlink:href="#DejaVuSans-6f" x="56.677734"/>
      <use xlink:href="#DejaVuSans-6c" x="117.859375"/>
      <use xlink:href="#DejaVuSans-69" x="145.642578"/>
      <use xlink:href="#DejaVuSans-74" x="173.425781"/>
      <use xlink:href="#DejaVuSans-69" x="212.634766"/>
      <use xlink:href="#DejaVuSans-63" x="240.417969"/>
      <use xlink:href="#DejaVuSans-61" x="295.398438"/>
      <use xlink:href="#DejaVuSans-6c" x="356.677734"/>
      <use xlink:href="#DejaVuSans-20" x="384.460938"/>
      <use xlink:href="#DejaVuSans-73" x="416.248047"/>
      <use xlink:href="#DejaVuSans-63" x="468.347656"/>
      <use xlink:href="#DejaVuSans-69" x="523.328125"/>
      <use xlink:href="#DejaVuSans-65" x="551.111328"/>
      <use xlink:href="#DejaVuSans-6e" x="612.634766"/>
      <use xlink:href="#DejaVuSans-63" x="676.013672"/>
      <use xlink:href="#DejaVuSans-65" x="730.994141"/>
     </g>
    </g>
    <g id="line2d_53">
     <path d="M 563.8 339.1025 
L 573.8 339.1025 
L 583.8 339.1025 
" style="fill: none; stroke: #17becf; stroke-opacity: 0.8; stroke-width: 1.5; stroke-linecap: square"/>
    </g>
    <g id="text_37">
     <!-- Psychology -->
     <g transform="translate(591.8 342.6025) scale(0.1 -0.1)">
      <use xlink:href="#DejaVuSans-50"/>
      <use xlink:href="#DejaVuSans-73" x="58.552734"/>
      <use xlink:href="#DejaVuSans-79" x="110.652344"/>
      <use xlink:href="#DejaVuSans-63" x="169.832031"/>
      <use xlink:href="#DejaVuSans-68" x="224.8125"/>
      <use xlink:href="#DejaVuSans-6f" x="288.191406"/>
      <use xlink:href="#DejaVuSans-6c" x="349.373047"/>
      <use xlink:href="#DejaVuSans-6f" x="377.15625"/>
      <use xlink:href="#DejaVuSans-67" x="438.337891"/>
      <use xlink:href="#DejaVuSans-79" x="501.814453"/>
     </g>
    </g>
    <g id="line2d_54">
     <path d="M 563.8 353.780625 
L 573.8 353.780625 
L 583.8 353.780625 
" style="fill: none; stroke: #9edae5; stroke-opacity: 0.8; stroke-width: 1.5; stroke-linecap: square"/>
    </g>
    <g id="text_38">
     <!-- Sociology -->
     <g transform="translate(591.8 357.280625) scale(0.1 -0.1)">
      <defs>
       <path id="DejaVuSans-53" d="M 3425 4513 
L 3425 3897 
Q 3066 4069 2747 4153 
Q 2428 4238 2131 4238 
Q 1616 4238 1336 4038 
Q 1056 3838 1056 3469 
Q 1056 3159 1242 3001 
Q 1428 2844 1947 2747 
L 2328 2669 
Q 3034 2534 3370 2195 
Q 3706 1856 3706 1288 
Q 3706 609 3251 259 
Q 2797 -91 1919 -91 
Q 1588 -91 1214 -16 
Q 841 59 441 206 
L 441 856 
Q 825 641 1194 531 
Q 1563 422 1919 422 
Q 2459 422 2753 634 
Q 3047 847 3047 1241 
Q 3047 1584 2836 1778 
Q 2625 1972 2144 2069 
L 1759 2144 
Q 1053 2284 737 2584 
Q 422 2884 422 3419 
Q 422 4038 858 4394 
Q 1294 4750 2059 4750 
Q 2388 4750 2728 4690 
Q 3069 4631 3425 4513 
z
" transform="scale(0.015625)"/>
      </defs>
      <use xlink:href="#DejaVuSans-53"/>
      <use xlink:href="#DejaVuSans-6f" x="63.476562"/>
      <use xlink:href="#DejaVuSans-63" x="124.658203"/>
      <use xlink:href="#DejaVuSans-69" x="179.638672"/>
      <use xlink:href="#DejaVuSans-6f" x="207.421875"/>
      <use xlink:href="#DejaVuSans-6c" x="268.603516"/>
      <use xlink:href="#DejaVuSans-6f" x="296.386719"/>
      <use xlink:href="#DejaVuSans-67" x="357.568359"/>
      <use xlink:href="#DejaVuSans-79" x="421.044922"/>
     </g>
    </g>
   </g>
  </g>
 </g>
 <defs>
  <clipPath id="p3adbe62ec6">
   <rect x="73.37" y="25.44" width="481.43" height="364.6"/>
  </clipPath>
 </defs>
</svg>
