<?xml version="1.0" encoding="utf-8" standalone="no"?>
<!DOCTYPE svg PUBLIC "-//W3C//DTD SVG 1.1//EN"
  "http://www.w3.org/Graphics/SVG/1.1/DTD/svg11.dtd">
<svg xmlns:xlink="http://www.w3.org/1999/xlink" width="720pt" height="432pt" viewBox="0 0 720 432" xmlns="http://www.w3.org/2000/svg" version="1.1">
 <metadata>
  <rdf:RDF xmlns:dc="http://purl.org/dc/elements/1.1/" xmlns:cc="http://creativecommons.org/ns#" xmlns:rdf="http://www.w3.org/1999/02/22-rdf-syntax-ns#">
   <cc:Work>
    <dc:type rdf:resource="http://purl.org/dc/dcmitype/StillImage"/>
    <dc:date>2023-06-21T10:47:49.750617</dc:date>
    <dc:format>image/svg+xml</dc:format>
    <dc:creator>
     <cc:Agent>
      <dc:title>Matplotlib v3.7.1, https://matplotlib.org/</dc:title>
     </cc:Agent>
    </dc:creator>
   </cc:Work>
  </rdf:RDF>
 </metadata>
 <defs>
  <style type="text/css">*{stroke-linejoin: round; stroke-linecap: butt}</style>
 </defs>
 <g id="figure_1">
  <g id="patch_1">
   <path d="M 0 432 
L 720 432 
L 720 0 
L 0 0 
z
" style="fill: #ffffff"/>
  </g>
  <g id="axes_1">
   <g id="patch_2">
    <path d="M 73.37 390.04 
L 554.8 390.04 
L 554.8 25.44 
L 73.37 25.44 
z
" style="fill: #ffffff"/>
   </g>
   <g id="matplotlib.axis_1">
    <g id="xtick_1">
     <g id="line2d_1">
      <defs>
       <path id="m498231ff27" d="M 0 0 
L 0 3.5 
" style="stroke: #000000; stroke-width: 0.8"/>
      </defs>
      <g>
       <use xlink:href="#m498231ff27" x="75.014401" y="390.04" style="stroke: #000000; stroke-width: 0.8"/>
      </g>
     </g>
     <g id="text_1">
      <!-- 1650 -->
      <g transform="translate(62.289401 404.638438) scale(0.1 -0.1)">
       <defs>
        <path id="DejaVuSans-31" d="M 794 531 
L 1825 531 
L 1825 4091 
L 703 3866 
L 703 4441 
L 1819 4666 
L 2450 4666 
L 2450 531 
L 3481 531 
L 3481 0 
L 794 0 
L 794 531 
z
" transform="scale(0.015625)"/>
        <path id="DejaVuSans-36" d="M 2113 2584 
Q 1688 2584 1439 2293 
Q 1191 2003 1191 1497 
Q 1191 994 1439 701 
Q 1688 409 2113 409 
Q 2538 409 2786 701 
Q 3034 994 3034 1497 
Q 3034 2003 2786 2293 
Q 2538 2584 2113 2584 
z
M 3366 4563 
L 3366 3988 
Q 3128 4100 2886 4159 
Q 2644 4219 2406 4219 
Q 1781 4219 1451 3797 
Q 1122 3375 1075 2522 
Q 1259 2794 1537 2939 
Q 1816 3084 2150 3084 
Q 2853 3084 3261 2657 
Q 3669 2231 3669 1497 
Q 3669 778 3244 343 
Q 2819 -91 2113 -91 
Q 1303 -91 875 529 
Q 447 1150 447 2328 
Q 447 3434 972 4092 
Q 1497 4750 2381 4750 
Q 2619 4750 2861 4703 
Q 3103 4656 3366 4563 
z
" transform="scale(0.015625)"/>
        <path id="DejaVuSans-35" d="M 691 4666 
L 3169 4666 
L 3169 4134 
L 1269 4134 
L 1269 2991 
Q 1406 3038 1543 3061 
Q 1681 3084 1819 3084 
Q 2600 3084 3056 2656 
Q 3513 2228 3513 1497 
Q 3513 744 3044 326 
Q 2575 -91 1722 -91 
Q 1428 -91 1123 -41 
Q 819 9 494 109 
L 494 744 
Q 775 591 1075 516 
Q 1375 441 1709 441 
Q 2250 441 2565 725 
Q 2881 1009 2881 1497 
Q 2881 1984 2565 2268 
Q 2250 2553 1709 2553 
Q 1456 2553 1204 2497 
Q 953 2441 691 2322 
L 691 4666 
z
" transform="scale(0.015625)"/>
        <path id="DejaVuSans-30" d="M 2034 4250 
Q 1547 4250 1301 3770 
Q 1056 3291 1056 2328 
Q 1056 1369 1301 889 
Q 1547 409 2034 409 
Q 2525 409 2770 889 
Q 3016 1369 3016 2328 
Q 3016 3291 2770 3770 
Q 2525 4250 2034 4250 
z
M 2034 4750 
Q 2819 4750 3233 4129 
Q 3647 3509 3647 2328 
Q 3647 1150 3233 529 
Q 2819 -91 2034 -91 
Q 1250 -91 836 529 
Q 422 1150 422 2328 
Q 422 3509 836 4129 
Q 1250 4750 2034 4750 
z
" transform="scale(0.015625)"/>
       </defs>
       <use xlink:href="#DejaVuSans-31"/>
       <use xlink:href="#DejaVuSans-36" x="63.623047"/>
       <use xlink:href="#DejaVuSans-35" x="127.246094"/>
       <use xlink:href="#DejaVuSans-30" x="190.869141"/>
      </g>
     </g>
    </g>
    <g id="xtick_2">
     <g id="line2d_2">
      <g>
       <use xlink:href="#m498231ff27" x="138.260591" y="390.04" style="stroke: #000000; stroke-width: 0.8"/>
      </g>
     </g>
     <g id="text_2">
      <!-- 1700 -->
      <g transform="translate(125.535591 404.638438) scale(0.1 -0.1)">
       <defs>
        <path id="DejaVuSans-37" d="M 525 4666 
L 3525 4666 
L 3525 4397 
L 1831 0 
L 1172 0 
L 2766 4134 
L 525 4134 
L 525 4666 
z
" transform="scale(0.015625)"/>
       </defs>
       <use xlink:href="#DejaVuSans-31"/>
       <use xlink:href="#DejaVuSans-37" x="63.623047"/>
       <use xlink:href="#DejaVuSans-30" x="127.246094"/>
       <use xlink:href="#DejaVuSans-30" x="190.869141"/>
      </g>
     </g>
    </g>
    <g id="xtick_3">
     <g id="line2d_3">
      <g>
       <use xlink:href="#m498231ff27" x="201.506781" y="390.04" style="stroke: #000000; stroke-width: 0.8"/>
      </g>
     </g>
     <g id="text_3">
      <!-- 1750 -->
      <g transform="translate(188.781781 404.638438) scale(0.1 -0.1)">
       <use xlink:href="#DejaVuSans-31"/>
       <use xlink:href="#DejaVuSans-37" x="63.623047"/>
       <use xlink:href="#DejaVuSans-35" x="127.246094"/>
       <use xlink:href="#DejaVuSans-30" x="190.869141"/>
      </g>
     </g>
    </g>
    <g id="xtick_4">
     <g id="line2d_4">
      <g>
       <use xlink:href="#m498231ff27" x="264.752972" y="390.04" style="stroke: #000000; stroke-width: 0.8"/>
      </g>
     </g>
     <g id="text_4">
      <!-- 1800 -->
      <g transform="translate(252.027972 404.638438) scale(0.1 -0.1)">
       <defs>
        <path id="DejaVuSans-38" d="M 2034 2216 
Q 1584 2216 1326 1975 
Q 1069 1734 1069 1313 
Q 1069 891 1326 650 
Q 1584 409 2034 409 
Q 2484 409 2743 651 
Q 3003 894 3003 1313 
Q 3003 1734 2745 1975 
Q 2488 2216 2034 2216 
z
M 1403 2484 
Q 997 2584 770 2862 
Q 544 3141 544 3541 
Q 544 4100 942 4425 
Q 1341 4750 2034 4750 
Q 2731 4750 3128 4425 
Q 3525 4100 3525 3541 
Q 3525 3141 3298 2862 
Q 3072 2584 2669 2484 
Q 3125 2378 3379 2068 
Q 3634 1759 3634 1313 
Q 3634 634 3220 271 
Q 2806 -91 2034 -91 
Q 1263 -91 848 271 
Q 434 634 434 1313 
Q 434 1759 690 2068 
Q 947 2378 1403 2484 
z
M 1172 3481 
Q 1172 3119 1398 2916 
Q 1625 2713 2034 2713 
Q 2441 2713 2670 2916 
Q 2900 3119 2900 3481 
Q 2900 3844 2670 4047 
Q 2441 4250 2034 4250 
Q 1625 4250 1398 4047 
Q 1172 3844 1172 3481 
z
" transform="scale(0.015625)"/>
       </defs>
       <use xlink:href="#DejaVuSans-31"/>
       <use xlink:href="#DejaVuSans-38" x="63.623047"/>
       <use xlink:href="#DejaVuSans-30" x="127.246094"/>
       <use xlink:href="#DejaVuSans-30" x="190.869141"/>
      </g>
     </g>
    </g>
    <g id="xtick_5">
     <g id="line2d_5">
      <g>
       <use xlink:href="#m498231ff27" x="327.999162" y="390.04" style="stroke: #000000; stroke-width: 0.8"/>
      </g>
     </g>
     <g id="text_5">
      <!-- 1850 -->
      <g transform="translate(315.274162 404.638438) scale(0.1 -0.1)">
       <use xlink:href="#DejaVuSans-31"/>
       <use xlink:href="#DejaVuSans-38" x="63.623047"/>
       <use xlink:href="#DejaVuSans-35" x="127.246094"/>
       <use xlink:href="#DejaVuSans-30" x="190.869141"/>
      </g>
     </g>
    </g>
    <g id="xtick_6">
     <g id="line2d_6">
      <g>
       <use xlink:href="#m498231ff27" x="391.245352" y="390.04" style="stroke: #000000; stroke-width: 0.8"/>
      </g>
     </g>
     <g id="text_6">
      <!-- 1900 -->
      <g transform="translate(378.520352 404.638438) scale(0.1 -0.1)">
       <defs>
        <path id="DejaVuSans-39" d="M 703 97 
L 703 672 
Q 941 559 1184 500 
Q 1428 441 1663 441 
Q 2288 441 2617 861 
Q 2947 1281 2994 2138 
Q 2813 1869 2534 1725 
Q 2256 1581 1919 1581 
Q 1219 1581 811 2004 
Q 403 2428 403 3163 
Q 403 3881 828 4315 
Q 1253 4750 1959 4750 
Q 2769 4750 3195 4129 
Q 3622 3509 3622 2328 
Q 3622 1225 3098 567 
Q 2575 -91 1691 -91 
Q 1453 -91 1209 -44 
Q 966 3 703 97 
z
M 1959 2075 
Q 2384 2075 2632 2365 
Q 2881 2656 2881 3163 
Q 2881 3666 2632 3958 
Q 2384 4250 1959 4250 
Q 1534 4250 1286 3958 
Q 1038 3666 1038 3163 
Q 1038 2656 1286 2365 
Q 1534 2075 1959 2075 
z
" transform="scale(0.015625)"/>
       </defs>
       <use xlink:href="#DejaVuSans-31"/>
       <use xlink:href="#DejaVuSans-39" x="63.623047"/>
       <use xlink:href="#DejaVuSans-30" x="127.246094"/>
       <use xlink:href="#DejaVuSans-30" x="190.869141"/>
      </g>
     </g>
    </g>
    <g id="xtick_7">
     <g id="line2d_7">
      <g>
       <use xlink:href="#m498231ff27" x="454.491542" y="390.04" style="stroke: #000000; stroke-width: 0.8"/>
      </g>
     </g>
     <g id="text_7">
      <!-- 1950 -->
      <g transform="translate(441.766542 404.638438) scale(0.1 -0.1)">
       <use xlink:href="#DejaVuSans-31"/>
       <use xlink:href="#DejaVuSans-39" x="63.623047"/>
       <use xlink:href="#DejaVuSans-35" x="127.246094"/>
       <use xlink:href="#DejaVuSans-30" x="190.869141"/>
      </g>
     </g>
    </g>
    <g id="xtick_8">
     <g id="line2d_8">
      <g>
       <use xlink:href="#m498231ff27" x="517.737733" y="390.04" style="stroke: #000000; stroke-width: 0.8"/>
      </g>
     </g>
     <g id="text_8">
      <!-- 2000 -->
      <g transform="translate(505.012733 404.638438) scale(0.1 -0.1)">
       <defs>
        <path id="DejaVuSans-32" d="M 1228 531 
L 3431 531 
L 3431 0 
L 469 0 
L 469 531 
Q 828 903 1448 1529 
Q 2069 2156 2228 2338 
Q 2531 2678 2651 2914 
Q 2772 3150 2772 3378 
Q 2772 3750 2511 3984 
Q 2250 4219 1831 4219 
Q 1534 4219 1204 4116 
Q 875 4013 500 3803 
L 500 4441 
Q 881 4594 1212 4672 
Q 1544 4750 1819 4750 
Q 2544 4750 2975 4387 
Q 3406 4025 3406 3419 
Q 3406 3131 3298 2873 
Q 3191 2616 2906 2266 
Q 2828 2175 2409 1742 
Q 1991 1309 1228 531 
z
" transform="scale(0.015625)"/>
       </defs>
       <use xlink:href="#DejaVuSans-32"/>
       <use xlink:href="#DejaVuSans-30" x="63.623047"/>
       <use xlink:href="#DejaVuSans-30" x="127.246094"/>
       <use xlink:href="#DejaVuSans-30" x="190.869141"/>
      </g>
     </g>
    </g>
    <g id="text_9">
     <!-- 1st Publishing Year -->
     <g transform="translate(267.019375 418.316562) scale(0.1 -0.1)">
      <defs>
       <path id="DejaVuSans-73" d="M 2834 3397 
L 2834 2853 
Q 2591 2978 2328 3040 
Q 2066 3103 1784 3103 
Q 1356 3103 1142 2972 
Q 928 2841 928 2578 
Q 928 2378 1081 2264 
Q 1234 2150 1697 2047 
L 1894 2003 
Q 2506 1872 2764 1633 
Q 3022 1394 3022 966 
Q 3022 478 2636 193 
Q 2250 -91 1575 -91 
Q 1294 -91 989 -36 
Q 684 19 347 128 
L 347 722 
Q 666 556 975 473 
Q 1284 391 1588 391 
Q 1994 391 2212 530 
Q 2431 669 2431 922 
Q 2431 1156 2273 1281 
Q 2116 1406 1581 1522 
L 1381 1569 
Q 847 1681 609 1914 
Q 372 2147 372 2553 
Q 372 3047 722 3315 
Q 1072 3584 1716 3584 
Q 2034 3584 2315 3537 
Q 2597 3491 2834 3397 
z
" transform="scale(0.015625)"/>
       <path id="DejaVuSans-74" d="M 1172 4494 
L 1172 3500 
L 2356 3500 
L 2356 3053 
L 1172 3053 
L 1172 1153 
Q 1172 725 1289 603 
Q 1406 481 1766 481 
L 2356 481 
L 2356 0 
L 1766 0 
Q 1100 0 847 248 
Q 594 497 594 1153 
L 594 3053 
L 172 3053 
L 172 3500 
L 594 3500 
L 594 4494 
L 1172 4494 
z
" transform="scale(0.015625)"/>
       <path id="DejaVuSans-20" transform="scale(0.015625)"/>
       <path id="DejaVuSans-50" d="M 1259 4147 
L 1259 2394 
L 2053 2394 
Q 2494 2394 2734 2622 
Q 2975 2850 2975 3272 
Q 2975 3691 2734 3919 
Q 2494 4147 2053 4147 
L 1259 4147 
z
M 628 4666 
L 2053 4666 
Q 2838 4666 3239 4311 
Q 3641 3956 3641 3272 
Q 3641 2581 3239 2228 
Q 2838 1875 2053 1875 
L 1259 1875 
L 1259 0 
L 628 0 
L 628 4666 
z
" transform="scale(0.015625)"/>
       <path id="DejaVuSans-75" d="M 544 1381 
L 544 3500 
L 1119 3500 
L 1119 1403 
Q 1119 906 1312 657 
Q 1506 409 1894 409 
Q 2359 409 2629 706 
Q 2900 1003 2900 1516 
L 2900 3500 
L 3475 3500 
L 3475 0 
L 2900 0 
L 2900 538 
Q 2691 219 2414 64 
Q 2138 -91 1772 -91 
Q 1169 -91 856 284 
Q 544 659 544 1381 
z
M 1991 3584 
L 1991 3584 
z
" transform="scale(0.015625)"/>
       <path id="DejaVuSans-62" d="M 3116 1747 
Q 3116 2381 2855 2742 
Q 2594 3103 2138 3103 
Q 1681 3103 1420 2742 
Q 1159 2381 1159 1747 
Q 1159 1113 1420 752 
Q 1681 391 2138 391 
Q 2594 391 2855 752 
Q 3116 1113 3116 1747 
z
M 1159 2969 
Q 1341 3281 1617 3432 
Q 1894 3584 2278 3584 
Q 2916 3584 3314 3078 
Q 3713 2572 3713 1747 
Q 3713 922 3314 415 
Q 2916 -91 2278 -91 
Q 1894 -91 1617 61 
Q 1341 213 1159 525 
L 1159 0 
L 581 0 
L 581 4863 
L 1159 4863 
L 1159 2969 
z
" transform="scale(0.015625)"/>
       <path id="DejaVuSans-6c" d="M 603 4863 
L 1178 4863 
L 1178 0 
L 603 0 
L 603 4863 
z
" transform="scale(0.015625)"/>
       <path id="DejaVuSans-69" d="M 603 3500 
L 1178 3500 
L 1178 0 
L 603 0 
L 603 3500 
z
M 603 4863 
L 1178 4863 
L 1178 4134 
L 603 4134 
L 603 4863 
z
" transform="scale(0.015625)"/>
       <path id="DejaVuSans-68" d="M 3513 2113 
L 3513 0 
L 2938 0 
L 2938 2094 
Q 2938 2591 2744 2837 
Q 2550 3084 2163 3084 
Q 1697 3084 1428 2787 
Q 1159 2491 1159 1978 
L 1159 0 
L 581 0 
L 581 4863 
L 1159 4863 
L 1159 2956 
Q 1366 3272 1645 3428 
Q 1925 3584 2291 3584 
Q 2894 3584 3203 3211 
Q 3513 2838 3513 2113 
z
" transform="scale(0.015625)"/>
       <path id="DejaVuSans-6e" d="M 3513 2113 
L 3513 0 
L 2938 0 
L 2938 2094 
Q 2938 2591 2744 2837 
Q 2550 3084 2163 3084 
Q 1697 3084 1428 2787 
Q 1159 2491 1159 1978 
L 1159 0 
L 581 0 
L 581 3500 
L 1159 3500 
L 1159 2956 
Q 1366 3272 1645 3428 
Q 1925 3584 2291 3584 
Q 2894 3584 3203 3211 
Q 3513 2838 3513 2113 
z
" transform="scale(0.015625)"/>
       <path id="DejaVuSans-67" d="M 2906 1791 
Q 2906 2416 2648 2759 
Q 2391 3103 1925 3103 
Q 1463 3103 1205 2759 
Q 947 2416 947 1791 
Q 947 1169 1205 825 
Q 1463 481 1925 481 
Q 2391 481 2648 825 
Q 2906 1169 2906 1791 
z
M 3481 434 
Q 3481 -459 3084 -895 
Q 2688 -1331 1869 -1331 
Q 1566 -1331 1297 -1286 
Q 1028 -1241 775 -1147 
L 775 -588 
Q 1028 -725 1275 -790 
Q 1522 -856 1778 -856 
Q 2344 -856 2625 -561 
Q 2906 -266 2906 331 
L 2906 616 
Q 2728 306 2450 153 
Q 2172 0 1784 0 
Q 1141 0 747 490 
Q 353 981 353 1791 
Q 353 2603 747 3093 
Q 1141 3584 1784 3584 
Q 2172 3584 2450 3431 
Q 2728 3278 2906 2969 
L 2906 3500 
L 3481 3500 
L 3481 434 
z
" transform="scale(0.015625)"/>
       <path id="DejaVuSans-59" d="M -13 4666 
L 666 4666 
L 1959 2747 
L 3244 4666 
L 3922 4666 
L 2272 2222 
L 2272 0 
L 1638 0 
L 1638 2222 
L -13 4666 
z
" transform="scale(0.015625)"/>
       <path id="DejaVuSans-65" d="M 3597 1894 
L 3597 1613 
L 953 1613 
Q 991 1019 1311 708 
Q 1631 397 2203 397 
Q 2534 397 2845 478 
Q 3156 559 3463 722 
L 3463 178 
Q 3153 47 2828 -22 
Q 2503 -91 2169 -91 
Q 1331 -91 842 396 
Q 353 884 353 1716 
Q 353 2575 817 3079 
Q 1281 3584 2069 3584 
Q 2775 3584 3186 3129 
Q 3597 2675 3597 1894 
z
M 3022 2063 
Q 3016 2534 2758 2815 
Q 2500 3097 2075 3097 
Q 1594 3097 1305 2825 
Q 1016 2553 972 2059 
L 3022 2063 
z
" transform="scale(0.015625)"/>
       <path id="DejaVuSans-61" d="M 2194 1759 
Q 1497 1759 1228 1600 
Q 959 1441 959 1056 
Q 959 750 1161 570 
Q 1363 391 1709 391 
Q 2188 391 2477 730 
Q 2766 1069 2766 1631 
L 2766 1759 
L 2194 1759 
z
M 3341 1997 
L 3341 0 
L 2766 0 
L 2766 531 
Q 2569 213 2275 61 
Q 1981 -91 1556 -91 
Q 1019 -91 701 211 
Q 384 513 384 1019 
Q 384 1609 779 1909 
Q 1175 2209 1959 2209 
L 2766 2209 
L 2766 2266 
Q 2766 2663 2505 2880 
Q 2244 3097 1772 3097 
Q 1472 3097 1187 3025 
Q 903 2953 641 2809 
L 641 3341 
Q 956 3463 1253 3523 
Q 1550 3584 1831 3584 
Q 2591 3584 2966 3190 
Q 3341 2797 3341 1997 
z
" transform="scale(0.015625)"/>
       <path id="DejaVuSans-72" d="M 2631 2963 
Q 2534 3019 2420 3045 
Q 2306 3072 2169 3072 
Q 1681 3072 1420 2755 
Q 1159 2438 1159 1844 
L 1159 0 
L 581 0 
L 581 3500 
L 1159 3500 
L 1159 2956 
Q 1341 3275 1631 3429 
Q 1922 3584 2338 3584 
Q 2397 3584 2469 3576 
Q 2541 3569 2628 3553 
L 2631 2963 
z
" transform="scale(0.015625)"/>
      </defs>
      <use xlink:href="#DejaVuSans-31"/>
      <use xlink:href="#DejaVuSans-73" x="63.623047"/>
      <use xlink:href="#DejaVuSans-74" x="115.722656"/>
      <use xlink:href="#DejaVuSans-20" x="154.931641"/>
      <use xlink:href="#DejaVuSans-50" x="186.71875"/>
      <use xlink:href="#DejaVuSans-75" x="245.271484"/>
      <use xlink:href="#DejaVuSans-62" x="308.650391"/>
      <use xlink:href="#DejaVuSans-6c" x="372.126953"/>
      <use xlink:href="#DejaVuSans-69" x="399.910156"/>
      <use xlink:href="#DejaVuSans-73" x="427.693359"/>
      <use xlink:href="#DejaVuSans-68" x="479.792969"/>
      <use xlink:href="#DejaVuSans-69" x="543.171875"/>
      <use xlink:href="#DejaVuSans-6e" x="570.955078"/>
      <use xlink:href="#DejaVuSans-67" x="634.333984"/>
      <use xlink:href="#DejaVuSans-20" x="697.810547"/>
      <use xlink:href="#DejaVuSans-59" x="729.597656"/>
      <use xlink:href="#DejaVuSans-65" x="777.431641"/>
      <use xlink:href="#DejaVuSans-61" x="838.955078"/>
      <use xlink:href="#DejaVuSans-72" x="900.234375"/>
     </g>
    </g>
   </g>
   <g id="matplotlib.axis_2">
    <g id="ytick_1">
     <g id="line2d_9">
      <defs>
       <path id="m5e1b5dfa3f" d="M 0 0 
L -3.5 0 
" style="stroke: #000000; stroke-width: 0.8"/>
      </defs>
      <g>
       <use xlink:href="#m5e1b5dfa3f" x="73.37" y="373.468747" style="stroke: #000000; stroke-width: 0.8"/>
      </g>
     </g>
     <g id="text_10">
      <!-- 0 -->
      <g transform="translate(60.0075 377.267966) scale(0.1 -0.1)">
       <use xlink:href="#DejaVuSans-30"/>
      </g>
     </g>
    </g>
    <g id="ytick_2">
     <g id="line2d_10">
      <g>
       <use xlink:href="#m5e1b5dfa3f" x="73.37" y="299.742387" style="stroke: #000000; stroke-width: 0.8"/>
      </g>
     </g>
     <g id="text_11">
      <!-- 50,000 -->
      <g transform="translate(31.379375 303.541606) scale(0.1 -0.1)">
       <defs>
        <path id="DejaVuSans-2c" d="M 750 794 
L 1409 794 
L 1409 256 
L 897 -744 
L 494 -744 
L 750 256 
L 750 794 
z
" transform="scale(0.015625)"/>
       </defs>
       <use xlink:href="#DejaVuSans-35"/>
       <use xlink:href="#DejaVuSans-30" x="63.623047"/>
       <use xlink:href="#DejaVuSans-2c" x="127.246094"/>
       <use xlink:href="#DejaVuSans-30" x="159.033203"/>
       <use xlink:href="#DejaVuSans-30" x="222.65625"/>
       <use xlink:href="#DejaVuSans-30" x="286.279297"/>
      </g>
     </g>
    </g>
    <g id="ytick_3">
     <g id="line2d_11">
      <g>
       <use xlink:href="#m5e1b5dfa3f" x="73.37" y="226.016027" style="stroke: #000000; stroke-width: 0.8"/>
      </g>
     </g>
     <g id="text_12">
      <!-- 100,000 -->
      <g transform="translate(25.016875 229.815246) scale(0.1 -0.1)">
       <use xlink:href="#DejaVuSans-31"/>
       <use xlink:href="#DejaVuSans-30" x="63.623047"/>
       <use xlink:href="#DejaVuSans-30" x="127.246094"/>
       <use xlink:href="#DejaVuSans-2c" x="190.869141"/>
       <use xlink:href="#DejaVuSans-30" x="222.65625"/>
       <use xlink:href="#DejaVuSans-30" x="286.279297"/>
       <use xlink:href="#DejaVuSans-30" x="349.902344"/>
      </g>
     </g>
    </g>
    <g id="ytick_4">
     <g id="line2d_12">
      <g>
       <use xlink:href="#m5e1b5dfa3f" x="73.37" y="152.289667" style="stroke: #000000; stroke-width: 0.8"/>
      </g>
     </g>
     <g id="text_13">
      <!-- 150,000 -->
      <g transform="translate(25.016875 156.088886) scale(0.1 -0.1)">
       <use xlink:href="#DejaVuSans-31"/>
       <use xlink:href="#DejaVuSans-35" x="63.623047"/>
       <use xlink:href="#DejaVuSans-30" x="127.246094"/>
       <use xlink:href="#DejaVuSans-2c" x="190.869141"/>
       <use xlink:href="#DejaVuSans-30" x="222.65625"/>
       <use xlink:href="#DejaVuSans-30" x="286.279297"/>
       <use xlink:href="#DejaVuSans-30" x="349.902344"/>
      </g>
     </g>
    </g>
    <g id="ytick_5">
     <g id="line2d_13">
      <g>
       <use xlink:href="#m5e1b5dfa3f" x="73.37" y="78.563307" style="stroke: #000000; stroke-width: 0.8"/>
      </g>
     </g>
     <g id="text_14">
      <!-- 200,000 -->
      <g transform="translate(25.016875 82.362526) scale(0.1 -0.1)">
       <use xlink:href="#DejaVuSans-32"/>
       <use xlink:href="#DejaVuSans-30" x="63.623047"/>
       <use xlink:href="#DejaVuSans-30" x="127.246094"/>
       <use xlink:href="#DejaVuSans-2c" x="190.869141"/>
       <use xlink:href="#DejaVuSans-30" x="222.65625"/>
       <use xlink:href="#DejaVuSans-30" x="286.279297"/>
       <use xlink:href="#DejaVuSans-30" x="349.902344"/>
      </g>
     </g>
    </g>
    <g id="text_15">
     <!-- Number of Authors -->
     <g transform="translate(18.937187 255.261094) rotate(-90) scale(0.1 -0.1)">
      <defs>
       <path id="DejaVuSans-4e" d="M 628 4666 
L 1478 4666 
L 3547 763 
L 3547 4666 
L 4159 4666 
L 4159 0 
L 3309 0 
L 1241 3903 
L 1241 0 
L 628 0 
L 628 4666 
z
" transform="scale(0.015625)"/>
       <path id="DejaVuSans-6d" d="M 3328 2828 
Q 3544 3216 3844 3400 
Q 4144 3584 4550 3584 
Q 5097 3584 5394 3201 
Q 5691 2819 5691 2113 
L 5691 0 
L 5113 0 
L 5113 2094 
Q 5113 2597 4934 2840 
Q 4756 3084 4391 3084 
Q 3944 3084 3684 2787 
Q 3425 2491 3425 1978 
L 3425 0 
L 2847 0 
L 2847 2094 
Q 2847 2600 2669 2842 
Q 2491 3084 2119 3084 
Q 1678 3084 1418 2786 
Q 1159 2488 1159 1978 
L 1159 0 
L 581 0 
L 581 3500 
L 1159 3500 
L 1159 2956 
Q 1356 3278 1631 3431 
Q 1906 3584 2284 3584 
Q 2666 3584 2933 3390 
Q 3200 3197 3328 2828 
z
" transform="scale(0.015625)"/>
       <path id="DejaVuSans-6f" d="M 1959 3097 
Q 1497 3097 1228 2736 
Q 959 2375 959 1747 
Q 959 1119 1226 758 
Q 1494 397 1959 397 
Q 2419 397 2687 759 
Q 2956 1122 2956 1747 
Q 2956 2369 2687 2733 
Q 2419 3097 1959 3097 
z
M 1959 3584 
Q 2709 3584 3137 3096 
Q 3566 2609 3566 1747 
Q 3566 888 3137 398 
Q 2709 -91 1959 -91 
Q 1206 -91 779 398 
Q 353 888 353 1747 
Q 353 2609 779 3096 
Q 1206 3584 1959 3584 
z
" transform="scale(0.015625)"/>
       <path id="DejaVuSans-66" d="M 2375 4863 
L 2375 4384 
L 1825 4384 
Q 1516 4384 1395 4259 
Q 1275 4134 1275 3809 
L 1275 3500 
L 2222 3500 
L 2222 3053 
L 1275 3053 
L 1275 0 
L 697 0 
L 697 3053 
L 147 3053 
L 147 3500 
L 697 3500 
L 697 3744 
Q 697 4328 969 4595 
Q 1241 4863 1831 4863 
L 2375 4863 
z
" transform="scale(0.015625)"/>
       <path id="DejaVuSans-41" d="M 2188 4044 
L 1331 1722 
L 3047 1722 
L 2188 4044 
z
M 1831 4666 
L 2547 4666 
L 4325 0 
L 3669 0 
L 3244 1197 
L 1141 1197 
L 716 0 
L 50 0 
L 1831 4666 
z
" transform="scale(0.015625)"/>
      </defs>
      <use xlink:href="#DejaVuSans-4e"/>
      <use xlink:href="#DejaVuSans-75" x="74.804688"/>
      <use xlink:href="#DejaVuSans-6d" x="138.183594"/>
      <use xlink:href="#DejaVuSans-62" x="235.595703"/>
      <use xlink:href="#DejaVuSans-65" x="299.072266"/>
      <use xlink:href="#DejaVuSans-72" x="360.595703"/>
      <use xlink:href="#DejaVuSans-20" x="401.708984"/>
      <use xlink:href="#DejaVuSans-6f" x="433.496094"/>
      <use xlink:href="#DejaVuSans-66" x="494.677734"/>
      <use xlink:href="#DejaVuSans-20" x="529.882812"/>
      <use xlink:href="#DejaVuSans-41" x="561.669922"/>
      <use xlink:href="#DejaVuSans-75" x="630.078125"/>
      <use xlink:href="#DejaVuSans-74" x="693.457031"/>
      <use xlink:href="#DejaVuSans-68" x="732.666016"/>
      <use xlink:href="#DejaVuSans-6f" x="796.044922"/>
      <use xlink:href="#DejaVuSans-72" x="857.226562"/>
      <use xlink:href="#DejaVuSans-73" x="898.339844"/>
     </g>
    </g>
   </g>
   <g id="line2d_14">
    <path d="M 95.253182 373.465798 
L 188.857543 373.467273 
L 263.488048 373.456951 
L 264.752972 373.182689 
L 267.282819 373.393546 
L 273.607438 373.428935 
L 281.196981 373.433359 
L 302.700686 373.368479 
L 305.230533 373.384699 
L 312.820076 373.386174 
L 340.6484 373.291804 
L 343.178248 373.341938 
L 350.76779 373.268212 
L 358.357333 373.263788 
L 359.622257 373.138453 
L 360.887181 373.275584 
L 363.417028 373.191536 
L 367.2118 373.237246 
L 372.271495 373.164995 
L 389.980428 373.073574 
L 391.245352 372.939392 
L 392.510276 373.106014 
L 398.834895 373.029338 
L 400.099819 373.088319 
L 401.364743 372.968883 
L 405.159514 372.934968 
L 407.689362 372.917274 
L 412.749057 373.178265 
L 417.808752 372.993949 
L 419.073676 372.865666 
L 420.3386 372.943816 
L 421.603523 372.765398 
L 424.133371 372.843548 
L 425.398295 372.858293 
L 427.928142 372.713789 
L 431.722914 372.749178 
L 436.782609 372.774245 
L 439.312457 372.74328 
L 445.637076 373.014593 
L 448.166923 372.979204 
L 454.491542 372.395291 
L 455.756466 372.647436 
L 458.286314 372.380546 
L 463.346009 372.205077 
L 464.610933 372.119555 
L 465.875857 372.146096 
L 468.405704 371.997169 
L 474.730323 371.604945 
L 475.995247 371.523846 
L 477.260171 371.304141 
L 478.525095 370.60669 
L 479.790018 370.392884 
L 481.054942 371.047574 
L 482.319866 371.074115 
L 483.58479 370.928137 
L 484.849714 371.093284 
L 486.114637 370.858834 
L 487.379561 370.761515 
L 488.644485 370.487253 
L 489.909409 370.484304 
L 491.174333 370.345699 
L 492.439256 370.093554 
L 493.70418 370.158434 
L 497.498952 370.097978 
L 500.028799 369.494896 
L 501.293723 369.534709 
L 502.558647 369.282565 
L 503.823571 369.28109 
L 505.088494 369.114468 
L 506.353418 369.065809 
L 512.678037 368.153077 
L 515.207885 368.030691 
L 516.472809 367.774123 
L 517.737733 367.342087 
L 522.797428 366.408711 
L 524.062352 365.935388 
L 525.327275 365.6626 
L 526.592199 365.058044 
L 529.122047 364.137939 
L 530.386971 363.993435 
L 531.651894 364.014079 
L 532.916818 363.27829 
L 532.916818 363.27829 
" clip-path="url(#pdb0e72fbe4)" style="fill: none; stroke: #1f77b4; stroke-opacity: 0.8; stroke-width: 1.5; stroke-linecap: square"/>
   </g>
   <g id="line2d_15">
    <path d="M 96.518106 373.467273 
L 144.58521 373.462849 
L 190.122467 373.465798 
L 263.488048 373.451053 
L 264.752972 373.139928 
L 266.017895 373.411241 
L 320.409619 373.338989 
L 321.674543 373.247568 
L 324.20439 373.324244 
L 345.708095 373.22545 
L 349.502867 373.216603 
L 355.827486 373.131081 
L 357.092409 373.193011 
L 358.357333 373.103065 
L 360.887181 373.138453 
L 363.417028 373.076523 
L 368.476724 373.036711 
L 371.006571 373.021966 
L 376.066266 372.949714 
L 378.596114 372.974781 
L 387.450581 372.803735 
L 388.715504 372.833226 
L 389.980428 372.585505 
L 391.245352 372.18001 
L 392.510276 372.707891 
L 400.099819 372.535372 
L 402.629666 372.477865 
L 403.89459 372.261109 
L 405.159514 372.349581 
L 406.424438 372.177061 
L 412.749057 372.287651 
L 414.013981 372.49261 
L 416.543828 372.10481 
L 417.808752 372.171163 
L 419.073676 371.851191 
L 424.133371 371.394087 
L 425.398295 371.200924 
L 427.928142 371.178807 
L 429.193066 370.584572 
L 430.45799 370.87063 
L 431.722914 370.835242 
L 432.987838 370.630282 
L 438.047533 370.415001 
L 440.57738 370.426798 
L 441.842304 368.919831 
L 443.107228 370.758566 
L 446.901999 371.211246 
L 448.166923 370.678942 
L 449.431847 369.887121 
L 450.696771 368.924254 
L 451.961695 368.619027 
L 453.226618 367.984981 
L 454.491542 364.30751 
L 455.756466 365.821849 
L 457.02139 365.765817 
L 458.286314 365.13177 
L 459.551238 364.869305 
L 460.816161 364.738072 
L 463.346009 363.704428 
L 465.875857 362.191563 
L 467.14078 357.184069 
L 468.405704 360.842371 
L 470.935552 358.309133 
L 472.200476 357.352165 
L 473.465399 355.426432 
L 475.995247 353.137966 
L 477.260171 352.154457 
L 478.525095 348.574305 
L 479.790018 337.957709 
L 481.054942 349.675776 
L 483.58479 347.126319 
L 484.849714 345.850853 
L 486.114637 345.348039 
L 487.379561 343.851394 
L 488.644485 342.823648 
L 489.909409 340.909712 
L 491.174333 339.423389 
L 492.439256 328.771404 
L 493.70418 336.624736 
L 494.969104 336.272324 
L 496.234028 335.144311 
L 497.498952 332.935469 
L 498.763875 331.348878 
L 500.028799 328.348215 
L 501.293723 326.690846 
L 502.558647 323.383482 
L 503.823571 321.530001 
L 505.088494 309.797188 
L 506.353418 316.656689 
L 507.618342 313.949457 
L 508.883266 310.745309 
L 510.14819 306.889421 
L 511.413114 304.870793 
L 512.678037 299.886891 
L 513.942961 299.538903 
L 515.207885 296.52202 
L 516.472809 293.111438 
L 517.737733 273.674221 
L 519.002656 280.924471 
L 520.26758 273.802505 
L 521.532504 267.644879 
L 522.797428 258.376001 
L 525.327275 247.825759 
L 526.592199 243.840112 
L 527.857123 239.369346 
L 529.122047 226.512943 
L 530.386971 221.779711 
L 531.651894 217.72771 
L 532.916818 212.164319 
L 532.916818 212.164319 
" clip-path="url(#pdb0e72fbe4)" style="fill: none; stroke: #aec7e8; stroke-opacity: 0.8; stroke-width: 1.5; stroke-linecap: square"/>
   </g>
   <g id="line2d_16">
    <path d="M 104.107648 373.467273 
L 389.980428 373.400919 
L 391.245352 373.346361 
L 393.7752 373.405343 
L 415.278904 373.368479 
L 425.398295 373.268212 
L 432.987838 373.299177 
L 439.312457 373.226925 
L 444.372152 373.272635 
L 446.901999 373.325718 
L 453.226618 373.135504 
L 454.491542 372.970357 
L 457.02139 373.094217 
L 464.610933 372.968883 
L 465.875857 373.019016 
L 467.14078 372.836175 
L 469.670628 372.934968 
L 478.525095 372.408562 
L 479.790018 371.880681 
L 481.054942 372.466069 
L 483.58479 372.408562 
L 484.849714 372.365801 
L 486.114637 372.128402 
L 491.174333 371.99422 
L 492.439256 371.606419 
L 493.70418 371.88658 
L 494.969104 371.862987 
L 496.234028 371.688993 
L 497.498952 371.671299 
L 500.028799 371.243686 
L 501.293723 371.40146 
L 505.088494 370.475457 
L 506.353418 370.56098 
L 507.618342 370.431221 
L 508.883266 370.123045 
L 510.14819 370.093554 
L 515.207885 369.00093 
L 516.472809 368.741413 
L 517.737733 367.785919 
L 519.002656 367.496912 
L 520.26758 366.566485 
L 521.532504 366.051875 
L 522.797428 365.2748 
L 524.062352 364.689412 
L 526.592199 362.650141 
L 527.857123 361.029636 
L 529.122047 359.677494 
L 530.386971 358.652698 
L 531.651894 356.796268 
L 532.916818 355.342384 
L 532.916818 355.342384 
" clip-path="url(#pdb0e72fbe4)" style="fill: none; stroke: #ff7f0e; stroke-opacity: 0.8; stroke-width: 1.5; stroke-linecap: square"/>
   </g>
   <g id="line2d_17">
    <path d="M 102.842725 373.467273 
L 354.562562 373.390597 
L 359.622257 373.344887 
L 367.2118 373.293279 
L 371.006571 373.284431 
L 378.596114 373.253466 
L 396.305047 373.066201 
L 397.569971 372.980679 
L 400.099819 373.019016 
L 403.89459 373.038185 
L 405.159514 372.96151 
L 406.424438 373.008695 
L 407.689362 372.924647 
L 412.749057 373.144351 
L 415.278904 373.097166 
L 417.808752 372.924647 
L 419.073676 372.89958 
L 421.603523 372.634165 
L 422.868447 372.650385 
L 426.663219 372.423307 
L 427.928142 372.460171 
L 429.193066 372.32304 
L 440.57738 372.213925 
L 445.637076 372.650385 
L 448.166923 372.522101 
L 450.696771 371.976526 
L 453.226618 371.15374 
L 454.491542 370.475457 
L 457.02139 369.953474 
L 458.286314 370.102402 
L 459.551238 369.797175 
L 460.816161 369.803073 
L 462.081085 369.530285 
L 463.346009 369.508167 
L 465.875857 368.253345 
L 467.14078 367.884713 
L 468.405704 367.812461 
L 469.670628 367.275733 
L 470.935552 367.132704 
L 472.200476 366.284851 
L 473.465399 365.608043 
L 474.730323 365.404558 
L 475.995247 364.912066 
L 477.260171 364.575874 
L 478.525095 364.376813 
L 479.790018 358.729373 
L 481.054942 361.466096 
L 482.319866 361.648937 
L 483.58479 361.653361 
L 484.849714 362.670785 
L 486.114637 363.004028 
L 487.379561 363.62038 
L 488.644485 363.421319 
L 491.174333 363.772256 
L 492.439256 363.034993 
L 493.70418 363.253223 
L 496.234028 362.863948 
L 498.763875 362.532179 
L 500.028799 362.367032 
L 501.293723 361.800814 
L 502.558647 361.730036 
L 503.823571 360.921995 
L 505.088494 360.248136 
L 508.883266 359.95618 
L 510.14819 359.276423 
L 512.678037 358.363691 
L 515.207885 357.947874 
L 516.472809 357.307929 
L 517.737733 355.955788 
L 519.002656 355.565038 
L 520.26758 354.423754 
L 521.532504 353.897348 
L 522.797428 352.551104 
L 524.062352 351.654592 
L 525.327275 350.519206 
L 526.592199 350.22725 
L 527.857123 350.212504 
L 529.122047 349.083016 
L 530.386971 348.272026 
L 532.916818 348.537441 
L 532.916818 348.537441 
" clip-path="url(#pdb0e72fbe4)" style="fill: none; stroke: #ffbb78; stroke-opacity: 0.8; stroke-width: 1.5; stroke-linecap: square"/>
   </g>
   <g id="line2d_18">
    <path d="M 95.253182 373.467273 
L 263.488048 373.4599 
L 264.752972 373.114861 
L 266.017895 373.395021 
L 278.667133 373.406817 
L 300.170838 373.375852 
L 311.555152 373.333091 
L 314.085 373.340463 
L 315.349924 373.288855 
L 317.879771 373.312447 
L 339.383476 373.216603 
L 364.681952 373.125182 
L 365.946876 372.982153 
L 369.741647 373.047032 
L 379.861038 372.859768 
L 382.390885 372.881885 
L 383.655809 372.775719 
L 386.185657 372.791939 
L 387.450581 372.833226 
L 388.715504 372.645961 
L 391.245352 370.316208 
L 392.510276 372.671028 
L 395.040123 372.558964 
L 396.305047 372.612047 
L 397.569971 372.529473 
L 398.834895 372.6032 
L 407.689362 372.278804 
L 414.013981 372.533897 
L 415.278904 372.461645 
L 416.543828 372.177061 
L 417.808752 372.110708 
L 419.073676 371.85414 
L 420.3386 372.004542 
L 425.398295 371.454543 
L 427.928142 371.57398 
L 429.193066 371.205348 
L 430.45799 371.358699 
L 432.987838 371.202399 
L 440.57738 371.082962 
L 441.842304 370.872105 
L 443.107228 371.420629 
L 446.901999 371.758296 
L 448.166923 371.612318 
L 451.961695 370.01393 
L 453.226618 369.559776 
L 454.491542 367.634043 
L 455.756466 367.64289 
L 457.02139 367.836053 
L 458.286314 367.429084 
L 459.551238 367.212328 
L 460.816161 367.218226 
L 463.346009 366.529622 
L 465.875857 365.178955 
L 467.14078 363.767833 
L 468.405704 364.648126 
L 470.935552 362.274137 
L 472.200476 361.250815 
L 473.465399 359.649478 
L 474.730323 358.74117 
L 475.995247 358.136613 
L 477.260171 356.986482 
L 478.525095 355.245066 
L 479.790018 350.556069 
L 481.054942 354.524022 
L 483.58479 352.489174 
L 484.849714 351.288909 
L 486.114637 348.97685 
L 487.379561 348.965054 
L 488.644485 347.956478 
L 489.909409 347.144013 
L 491.174333 345.12686 
L 492.439256 341.927136 
L 493.70418 340.490946 
L 494.969104 338.845374 
L 496.234028 337.808781 
L 497.498952 335.324203 
L 498.763875 332.33976 
L 500.028799 327.973685 
L 501.293723 326.002242 
L 502.558647 320.608422 
L 503.823571 305.866099 
L 505.088494 301.769862 
L 506.353418 301.617986 
L 507.618342 298.545071 
L 508.883266 296.743199 
L 510.14819 289.304209 
L 511.413114 286.518827 
L 512.678037 281.172192 
L 513.942961 278.684664 
L 515.207885 275.903706 
L 516.472809 270.688303 
L 517.737733 252.815559 
L 519.002656 247.345063 
L 520.26758 234.894156 
L 521.532504 223.581583 
L 522.797428 208.569422 
L 524.062352 201.888339 
L 525.327275 188.219472 
L 526.592199 183.217875 
L 527.857123 176.479286 
L 529.122047 159.079865 
L 530.386971 149.470371 
L 531.651894 141.198274 
L 532.916818 137.728711 
L 532.916818 137.728711 
" clip-path="url(#pdb0e72fbe4)" style="fill: none; stroke: #2ca02c; stroke-opacity: 0.8; stroke-width: 1.5; stroke-linecap: square"/>
   </g>
   <g id="line2d_19">
    <path d="M 139.525515 373.467273 
L 389.980428 373.424511 
L 391.245352 373.347836 
L 393.7752 373.437782 
L 451.961695 373.294753 
L 458.286314 373.182689 
L 464.610933 373.151724 
L 468.405704 373.073574 
L 470.935552 373.064727 
L 478.525095 372.582556 
L 479.790018 372.131351 
L 481.054942 372.572235 
L 486.114637 372.390868 
L 489.909409 372.392342 
L 491.174333 372.330412 
L 492.439256 372.112182 
L 493.70418 372.289125 
L 497.498952 372.153469 
L 498.763875 372.163791 
L 500.028799 371.992746 
L 501.293723 372.038456 
L 512.678037 371.168485 
L 516.472809 370.8087 
L 517.737733 370.168755 
L 519.002656 370.121571 
L 520.26758 369.887121 
L 521.532504 369.791276 
L 522.797428 369.462457 
L 524.062352 369.432966 
L 525.327275 369.138061 
L 527.857123 368.90656 
L 529.122047 368.387527 
L 530.386971 368.322647 
L 532.916818 368.012997 
L 532.916818 368.012997 
" clip-path="url(#pdb0e72fbe4)" style="fill: none; stroke: #98df8a; stroke-opacity: 0.8; stroke-width: 1.5; stroke-linecap: square"/>
   </g>
   <g id="line2d_20">
    <path d="M 97.783029 373.467273 
L 381.125962 373.418613 
L 383.655809 373.377327 
L 406.424438 373.282957 
L 414.013981 373.353734 
L 419.073676 373.27411 
L 444.372152 373.151724 
L 448.166923 373.157622 
L 459.551238 372.645961 
L 462.081085 372.485238 
L 464.610933 372.33631 
L 467.14078 372.076794 
L 468.405704 372.106284 
L 472.200476 371.746499 
L 473.465399 371.442747 
L 478.525095 370.908968 
L 479.790018 369.993287 
L 481.054942 370.978271 
L 482.319866 371.000389 
L 484.849714 370.671569 
L 493.70418 370.121571 
L 494.969104 370.210042 
L 496.234028 369.978541 
L 497.498952 369.946102 
L 498.763875 369.682161 
L 500.028799 369.783904 
L 502.558647 368.92278 
L 503.823571 368.732566 
L 505.088494 368.380154 
L 507.618342 368.158975 
L 508.883266 367.872917 
L 510.14819 367.852273 
L 511.413114 367.586858 
L 512.678037 366.963133 
L 513.942961 366.961659 
L 515.207885 366.823053 
L 516.472809 365.888203 
L 517.737733 363.219309 
L 519.002656 363.172124 
L 521.532504 361.635666 
L 522.797428 359.698138 
L 524.062352 359.358996 
L 525.327275 358.757389 
L 526.592199 359.105378 
L 527.857123 358.483127 
L 529.122047 357.201763 
L 530.386971 356.44828 
L 531.651894 355.864367 
L 532.916818 355.942517 
L 532.916818 355.942517 
" clip-path="url(#pdb0e72fbe4)" style="fill: none; stroke: #d62728; stroke-opacity: 0.8; stroke-width: 1.5; stroke-linecap: square"/>
   </g>
   <g id="line2d_21">
    <path d="M 118.02181 373.467273 
L 374.801343 373.361107 
L 382.390885 373.338989 
L 388.715504 373.334565 
L 397.569971 373.166469 
L 400.099819 373.275584 
L 406.424438 373.136979 
L 417.808752 373.120759 
L 421.603523 373.05588 
L 422.868447 373.107488 
L 424.133371 373.002797 
L 425.398295 373.060303 
L 429.193066 372.85092 
L 431.722914 372.971832 
L 432.987838 372.870089 
L 435.517685 372.861242 
L 440.57738 372.787516 
L 441.842304 372.181485 
L 443.107228 372.83765 
L 446.901999 372.967408 
L 449.431847 372.802261 
L 453.226618 372.343683 
L 454.491542 371.429476 
L 455.756466 371.927866 
L 463.346009 371.510575 
L 464.610933 371.221568 
L 465.875857 371.110978 
L 467.14078 369.29731 
L 468.405704 370.838191 
L 469.670628 370.640604 
L 470.935552 370.164332 
L 472.200476 369.904815 
L 473.465399 369.322377 
L 474.730323 369.269294 
L 475.995247 369.021573 
L 478.525095 368.353612 
L 479.790018 364.637804 
L 481.054942 367.849324 
L 482.319866 367.790343 
L 484.849714 367.060452 
L 487.379561 366.351204 
L 489.909409 365.264478 
L 491.174333 365.08606 
L 492.439256 361.200681 
L 493.70418 364.087805 
L 494.969104 363.986063 
L 496.234028 364.224936 
L 497.498952 363.823865 
L 498.763875 363.778155 
L 500.028799 363.237003 
L 501.293723 362.992232 
L 502.558647 362.148802 
L 503.823571 361.585533 
L 505.088494 357.596936 
L 506.353418 360.467841 
L 510.14819 357.300557 
L 511.413114 355.144798 
L 512.678037 354.954584 
L 513.942961 354.976702 
L 515.207885 354.602172 
L 516.472809 353.572952 
L 517.737733 348.581677 
L 519.002656 349.776044 
L 520.26758 348.126048 
L 521.532504 345.539728 
L 522.797428 342.132095 
L 524.062352 340.126738 
L 525.327275 338.448726 
L 526.592199 336.13077 
L 527.857123 332.482789 
L 530.386971 321.295551 
L 531.651894 318.387784 
L 532.916818 314.524522 
L 532.916818 314.524522 
" clip-path="url(#pdb0e72fbe4)" style="fill: none; stroke: #ff9896; stroke-opacity: 0.8; stroke-width: 1.5; stroke-linecap: square"/>
   </g>
   <g id="line2d_22">
    <path d="M 102.842725 373.467273 
L 373.536419 373.374378 
L 381.125962 373.361107 
L 408.954285 373.201858 
L 411.484133 373.24167 
L 415.278904 373.250517 
L 417.808752 373.207756 
L 440.57738 373.076523 
L 441.842304 372.942341 
L 443.107228 373.19596 
L 448.166923 373.20923 
L 449.431847 373.107488 
L 451.961695 373.035236 
L 453.226618 372.993949 
L 454.491542 372.671028 
L 455.756466 372.864191 
L 459.551238 372.9158 
L 465.875857 372.774245 
L 467.14078 372.517677 
L 468.405704 372.700519 
L 474.730323 372.505881 
L 477.260171 372.311243 
L 478.525095 372.193281 
L 479.790018 371.510575 
L 481.054942 372.221297 
L 483.58479 372.079743 
L 489.909409 371.658028 
L 491.174333 371.655079 
L 492.439256 371.108029 
L 493.70418 371.357224 
L 494.969104 371.317412 
L 496.234028 371.41768 
L 498.763875 371.30709 
L 500.028799 371.015134 
L 502.558647 370.848512 
L 503.823571 370.681891 
L 505.088494 369.985914 
L 506.353418 370.336851 
L 508.883266 370.162857 
L 511.413114 369.633502 
L 512.678037 369.60991 
L 513.942961 369.427068 
L 515.207885 369.073182 
L 516.472809 369.045166 
L 517.737733 367.965812 
L 519.002656 367.934847 
L 520.26758 367.670906 
L 521.532504 367.244768 
L 522.797428 367.001471 
L 525.327275 366.079891 
L 526.592199 365.581501 
L 527.857123 364.860457 
L 529.122047 364.332577 
L 530.386971 363.406574 
L 531.651894 363.54223 
L 532.916818 362.853626 
L 532.916818 362.853626 
" clip-path="url(#pdb0e72fbe4)" style="fill: none; stroke: #9467bd; stroke-opacity: 0.8; stroke-width: 1.5; stroke-linecap: square"/>
   </g>
   <g id="line2d_23">
    <path d="M 100.312877 373.467273 
L 389.980428 373.35226 
L 391.245352 373.291804 
L 393.7752 373.359632 
L 405.159514 373.316871 
L 407.689362 373.308024 
L 412.749057 373.327193 
L 415.278904 373.333091 
L 424.133371 373.234297 
L 450.696771 373.173842 
L 451.961695 373.048507 
L 453.226618 373.057354 
L 454.491542 372.825853 
L 457.02139 372.842073 
L 458.286314 372.738856 
L 459.551238 372.846497 
L 472.200476 372.122504 
L 474.730323 371.849716 
L 477.260171 371.740601 
L 478.525095 371.556285 
L 479.790018 371.051997 
L 481.054942 371.597572 
L 484.849714 371.203873 
L 487.379561 371.205348 
L 488.644485 371.138994 
L 491.174333 370.748245 
L 492.439256 370.73055 
L 493.70418 370.584572 
L 496.234028 370.661247 
L 497.498952 370.251329 
L 500.028799 370.192348 
L 501.293723 370.13779 
L 505.088494 369.393154 
L 507.618342 369.304682 
L 508.883266 368.981761 
L 510.14819 368.913933 
L 511.413114 368.601333 
L 512.678037 368.421441 
L 513.942961 368.414068 
L 516.472809 368.136857 
L 517.737733 367.709244 
L 519.002656 367.122382 
L 520.26758 366.94249 
L 521.532504 366.479488 
L 522.797428 366.212599 
L 525.327275 365.265952 
L 526.592199 365.324934 
L 527.857123 364.739546 
L 529.122047 364.320781 
L 530.386971 363.554026 
L 531.651894 363.845983 
L 532.916818 363.484724 
L 532.916818 363.484724 
" clip-path="url(#pdb0e72fbe4)" style="fill: none; stroke: #c5b0d5; stroke-opacity: 0.8; stroke-width: 1.5; stroke-linecap: square"/>
   </g>
   <g id="line2d_24">
    <path d="M 95.253182 373.465798 
L 181.268001 373.465798 
L 263.488048 373.451053 
L 264.752972 373.306549 
L 267.282819 373.437782 
L 326.734238 373.315396 
L 327.999162 373.027864 
L 329.264086 373.11781 
L 331.793933 373.136979 
L 336.853628 373.235772 
L 339.383476 373.190062 
L 340.6484 373.185638 
L 341.913324 373.305075 
L 350.76779 373.173842 
L 354.562562 373.213654 
L 357.092409 373.157622 
L 358.357333 373.203332 
L 359.622257 373.095692 
L 363.417028 373.223976 
L 365.946876 373.100115 
L 369.741647 373.153198 
L 376.066266 373.038185 
L 383.655809 373.019016 
L 389.980428 372.948239 
L 391.245352 372.781618 
L 393.7752 372.962984 
L 412.749057 372.855344 
L 415.278904 372.993949 
L 416.543828 372.858293 
L 419.073676 372.82143 
L 421.603523 372.656283 
L 424.133371 372.625318 
L 432.987838 372.361377 
L 434.252761 372.513254 
L 439.312457 372.377597 
L 440.57738 372.457222 
L 441.842304 372.373174 
L 443.107228 372.594353 
L 449.431847 372.609098 
L 451.961695 372.271431 
L 453.226618 372.281753 
L 454.491542 372.045829 
L 455.756466 372.169689 
L 457.02139 372.172638 
L 458.286314 371.980949 
L 462.081085 371.935239 
L 463.346009 371.65213 
L 464.610933 371.588725 
L 465.875857 371.646232 
L 467.14078 371.383766 
L 468.405704 371.522371 
L 469.670628 371.472237 
L 470.935552 371.268753 
L 472.200476 371.292345 
L 473.465399 370.917815 
L 474.730323 370.928137 
L 477.260171 370.54476 
L 479.790018 369.810445 
L 481.054942 370.233635 
L 482.319866 370.27787 
L 483.58479 370.015405 
L 484.849714 370.038997 
L 487.379561 369.534709 
L 488.644485 369.626129 
L 489.909409 369.272243 
L 492.439256 369.204415 
L 494.969104 369.614333 
L 496.234028 369.329749 
L 498.763875 369.208838 
L 500.028799 368.87707 
L 510.14819 367.926 
L 512.678037 367.396644 
L 513.942961 367.529352 
L 515.207885 367.423186 
L 516.472809 366.999996 
L 517.737733 366.11528 
L 519.002656 366.258309 
L 520.26758 365.832171 
L 522.797428 364.567027 
L 524.062352 364.345847 
L 527.857123 362.215156 
L 529.122047 361.205105 
L 530.386971 360.439825 
L 531.651894 359.844116 
L 532.916818 359.046397 
L 532.916818 359.046397 
" clip-path="url(#pdb0e72fbe4)" style="fill: none; stroke: #8c564b; stroke-opacity: 0.8; stroke-width: 1.5; stroke-linecap: square"/>
   </g>
   <g id="line2d_25">
    <path d="M 226.805257 373.467273 
L 425.398295 373.399444 
L 429.193066 373.346361 
L 438.047533 373.288855 
L 449.431847 373.353734 
L 465.875857 372.588455 
L 467.14078 372.438053 
L 468.405704 372.507356 
L 470.935552 372.40119 
L 472.200476 372.236043 
L 473.465399 372.19623 
L 474.730323 371.960306 
L 475.995247 372.10481 
L 478.525095 371.843818 
L 479.790018 371.576929 
L 481.054942 371.802532 
L 482.319866 371.725856 
L 486.114637 371.762719 
L 491.174333 371.787786 
L 492.439256 371.548913 
L 493.70418 371.634435 
L 494.969104 371.528269 
L 496.234028 371.543015 
L 501.293723 371.090335 
L 502.558647 370.847038 
L 505.088494 370.600792 
L 506.353418 370.378138 
L 507.618342 370.345699 
L 508.883266 370.149587 
L 510.14819 370.266074 
L 512.678037 369.634977 
L 513.942961 369.657094 
L 515.207885 369.38873 
L 516.472809 369.372511 
L 517.737733 368.813665 
L 519.002656 368.781225 
L 520.26758 368.344765 
L 521.532504 368.213532 
L 525.327275 367.433507 
L 526.592199 367.194634 
L 527.857123 367.141551 
L 531.651894 366.503081 
L 532.916818 366.461794 
L 532.916818 366.461794 
" clip-path="url(#pdb0e72fbe4)" style="fill: none; stroke: #c49c94; stroke-opacity: 0.8; stroke-width: 1.5; stroke-linecap: square"/>
   </g>
   <g id="line2d_26">
    <path d="M 95.253182 373.467273 
L 363.417028 373.367005 
L 372.271495 373.322769 
L 374.801343 373.321295 
L 388.715504 373.268212 
L 389.980428 372.980679 
L 393.7752 373.216603 
L 406.424438 373.049982 
L 417.808752 373.016067 
L 421.603523 372.892207 
L 427.928142 372.796363 
L 429.193066 372.645961 
L 431.722914 372.589929 
L 436.782609 372.455747 
L 439.312457 372.553066 
L 441.842304 372.305345 
L 443.107228 372.592878 
L 445.637076 372.688722 
L 448.166923 372.691671 
L 449.431847 372.389393 
L 451.961695 372.025185 
L 453.226618 371.674248 
L 454.491542 371.012185 
L 455.756466 371.093284 
L 458.286314 370.729076 
L 459.551238 370.848512 
L 463.346009 370.2646 
L 464.610933 369.770633 
L 465.875857 369.60991 
L 467.14078 368.33002 
L 468.405704 368.611655 
L 469.670628 368.06608 
L 470.935552 367.244768 
L 472.200476 366.8319 
L 473.465399 365.787935 
L 474.730323 365.38244 
L 475.995247 364.497724 
L 477.260171 364.099601 
L 478.525095 363.039416 
L 479.790018 359.901622 
L 481.054942 362.59116 
L 482.319866 361.42186 
L 483.58479 360.749476 
L 484.849714 360.234866 
L 486.114637 359.913419 
L 487.379561 359.72173 
L 488.644485 359.183528 
L 489.909409 359.049346 
L 491.174333 358.30471 
L 492.439256 355.861418 
L 493.70418 356.794794 
L 494.969104 356.55592 
L 496.234028 355.913026 
L 498.763875 353.400432 
L 500.028799 351.781401 
L 501.293723 350.401244 
L 502.558647 347.520018 
L 503.823571 345.952595 
L 505.088494 342.885579 
L 506.353418 341.947779 
L 507.618342 341.310784 
L 508.883266 339.743361 
L 510.14819 337.242563 
L 511.413114 335.993638 
L 512.678037 333.047533 
L 516.472809 330.116173 
L 517.737733 321.872092 
L 519.002656 321.953191 
L 520.26758 316.762855 
L 521.532504 309.082043 
L 522.797428 299.823486 
L 524.062352 294.120015 
L 525.327275 287.241346 
L 526.592199 282.733716 
L 527.857123 277.251424 
L 529.122047 267.201047 
L 531.651894 244.931262 
L 532.916818 236.383428 
L 532.916818 236.383428 
" clip-path="url(#pdb0e72fbe4)" style="fill: none; stroke: #e377c2; stroke-opacity: 0.8; stroke-width: 1.5; stroke-linecap: square"/>
   </g>
   <g id="line2d_27">
    <path d="M 96.518106 373.465798 
L 191.387391 373.467273 
L 263.488048 373.451053 
L 264.752972 373.162046 
L 266.017895 373.38175 
L 271.077591 373.406817 
L 278.667133 373.39797 
L 286.256676 373.396495 
L 290.051448 373.396495 
L 298.905914 373.327193 
L 302.700686 373.288855 
L 322.939467 373.175316 
L 325.469314 373.188587 
L 326.734238 373.126657 
L 330.529009 373.181214 
L 335.588705 373.091268 
L 340.6484 373.103065 
L 345.708095 373.100115 
L 349.502867 373.103065 
L 353.297638 372.999848 
L 355.827486 372.998373 
L 358.357333 372.957086 
L 365.946876 372.811108 
L 368.476724 372.783092 
L 371.006571 372.699044 
L 372.271495 372.620894 
L 373.536419 372.656283 
L 376.066266 372.451323 
L 378.596114 372.410037 
L 379.861038 372.35253 
L 381.125962 372.466069 
L 382.390885 372.399715 
L 383.655809 372.16674 
L 386.185657 372.147571 
L 389.980428 371.898376 
L 391.245352 371.444221 
L 392.510276 371.871834 
L 393.7752 371.938188 
L 395.040123 371.753872 
L 397.569971 371.568082 
L 398.834895 371.724382 
L 400.099819 371.740601 
L 401.364743 371.531219 
L 405.159514 371.379342 
L 407.689362 371.038726 
L 411.484133 371.634435 
L 414.013981 371.715534 
L 416.543828 371.2776 
L 421.603523 370.037522 
L 422.868447 370.033099 
L 424.133371 369.463931 
L 426.663219 369.083503 
L 427.928142 369.29731 
L 429.193066 368.788598 
L 430.45799 368.975863 
L 431.722914 368.731091 
L 432.987838 368.358036 
L 434.252761 368.504014 
L 438.047533 368.36246 
L 439.312457 368.014471 
L 440.57738 368.125061 
L 441.842304 367.327341 
L 443.107228 368.648518 
L 445.637076 368.882968 
L 446.901999 369.230956 
L 448.166923 366.079891 
L 449.431847 362.126684 
L 450.696771 360.571058 
L 451.961695 359.624411 
L 453.226618 359.307388 
L 454.491542 352.462633 
L 455.756466 351.664914 
L 457.02139 353.306062 
L 458.286314 353.698287 
L 460.816161 353.354722 
L 462.081085 353.244132 
L 463.346009 351.903787 
L 464.610933 351.747487 
L 465.875857 350.069475 
L 467.14078 347.691063 
L 468.405704 347.155809 
L 469.670628 345.856751 
L 470.935552 341.953677 
L 472.200476 340.583842 
L 473.465399 336.247257 
L 474.730323 336.295917 
L 475.995247 335.119244 
L 477.260171 333.093243 
L 478.525095 329.684137 
L 479.790018 325.039376 
L 481.054942 329.636952 
L 482.319866 328.088698 
L 483.58479 325.924092 
L 484.849714 324.179727 
L 486.114637 321.742333 
L 487.379561 319.941935 
L 488.644485 316.248245 
L 489.909409 313.50415 
L 491.174333 312.36434 
L 492.439256 305.64492 
L 493.70418 305.501891 
L 494.969104 303.073344 
L 496.234028 302.218118 
L 497.498952 297.265182 
L 498.763875 293.003798 
L 500.028799 289.28504 
L 501.293723 283.903016 
L 503.823571 275.182662 
L 505.088494 267.917667 
L 506.353418 271.488972 
L 507.618342 268.946887 
L 508.883266 265.726519 
L 510.14819 258.782971 
L 511.413114 250.793982 
L 512.678037 247.007397 
L 515.207885 234.453272 
L 516.472809 234.496033 
L 517.737733 214.551578 
L 519.002656 215.010156 
L 520.26758 202.377882 
L 521.532504 182.754874 
L 522.797428 160.504258 
L 524.062352 153.041676 
L 525.327275 136.111155 
L 526.592199 133.722421 
L 527.857123 123.599792 
L 529.122047 99.865802 
L 530.386971 84.889029 
L 531.651894 65.600739 
L 532.916818 42.012727 
L 532.916818 42.012727 
" clip-path="url(#pdb0e72fbe4)" style="fill: none; stroke: #f7b6d2; stroke-opacity: 0.8; stroke-width: 1.5; stroke-linecap: square"/>
   </g>
   <g id="line2d_28">
    <path d="M 180.003077 373.467273 
L 473.465399 373.361107 
L 474.730323 373.31982 
L 477.260171 373.389123 
L 478.525095 373.405343 
L 479.790018 373.300651 
L 483.58479 373.371428 
L 487.379561 373.313922 
L 489.909409 373.389123 
L 503.823571 373.128131 
L 505.088494 372.918749 
L 507.618342 373.193011 
L 508.883266 372.825853 
L 510.14819 372.623843 
L 511.413114 372.744754 
L 512.678037 372.464594 
L 513.942961 372.722636 
L 515.207885 372.673977 
L 517.737733 372.783092 
L 519.002656 372.806685 
L 522.797428 372.41446 
L 524.062352 372.796363 
L 525.327275 372.470492 
L 526.592199 372.367275 
L 527.857123 372.458696 
L 530.386971 371.839395 
L 531.651894 370.852936 
L 532.916818 370.711381 
L 532.916818 370.711381 
" clip-path="url(#pdb0e72fbe4)" style="fill: none; stroke: #7f7f7f; stroke-opacity: 0.8; stroke-width: 1.5; stroke-linecap: square"/>
   </g>
   <g id="line2d_29">
    <path d="M 95.253182 373.465798 
L 263.488048 373.452527 
L 264.752972 373.111912 
L 267.282819 373.324244 
L 288.786524 373.362581 
L 290.051448 373.281482 
L 293.846219 373.316871 
L 303.96561 373.290329 
L 305.230533 373.362581 
L 309.025305 373.3036 
L 358.357333 373.10159 
L 359.622257 372.926121 
L 360.887181 373.049982 
L 363.417028 372.962984 
L 364.681952 373.026389 
L 365.946876 372.846497 
L 368.476724 372.960035 
L 374.801343 372.875987 
L 377.33119 372.786041 
L 378.596114 372.914325 
L 387.450581 372.793414 
L 388.715504 372.840599 
L 389.980428 372.756551 
L 391.245352 372.488187 
L 392.510276 372.656283 
L 396.305047 372.58698 
L 397.569971 372.473441 
L 398.834895 372.659232 
L 400.099819 372.626792 
L 402.629666 372.426257 
L 407.689362 372.303871 
L 408.954285 372.52505 
L 410.219209 372.861242 
L 415.278904 372.771296 
L 417.808752 372.495559 
L 424.133371 372.21245 
L 425.398295 372.057625 
L 430.45799 372.053201 
L 431.722914 371.985373 
L 435.517685 372.15052 
L 438.047533 372.044354 
L 448.166923 372.752127 
L 450.696771 372.18001 
L 454.491542 371.669824 
L 455.756466 371.693417 
L 457.02139 371.46339 
L 458.286314 371.428002 
L 459.551238 371.246635 
L 460.816161 371.376393 
L 464.610933 370.852936 
L 465.875857 370.98122 
L 467.14078 370.76299 
L 469.670628 370.62291 
L 470.935552 370.506422 
L 477.260171 369.363664 
L 479.790018 365.432574 
L 481.054942 368.635247 
L 482.319866 368.683906 
L 486.114637 368.086723 
L 487.379561 367.676804 
L 489.909409 367.179889 
L 492.439256 366.383644 
L 493.70418 365.733378 
L 494.969104 366.265682 
L 497.498952 365.432574 
L 498.763875 364.91649 
L 500.028799 364.049468 
L 501.293723 363.38593 
L 502.558647 363.250274 
L 503.823571 362.741562 
L 505.088494 361.837677 
L 506.353418 362.050009 
L 507.618342 361.215426 
L 510.14819 359.251356 
L 511.413114 358.620258 
L 512.678037 357.442111 
L 513.942961 355.991176 
L 515.207885 354.802707 
L 516.472809 353.867857 
L 517.737733 351.221081 
L 519.002656 350.143201 
L 520.26758 348.503527 
L 521.532504 345.362784 
L 522.797428 342.863461 
L 524.062352 339.949795 
L 526.592199 333.178766 
L 527.857123 329.560276 
L 529.122047 324.275571 
L 530.386971 320.095286 
L 531.651894 315.191009 
L 532.916818 308.977351 
L 532.916818 308.977351 
" clip-path="url(#pdb0e72fbe4)" style="fill: none; stroke: #c7c7c7; stroke-opacity: 0.8; stroke-width: 1.5; stroke-linecap: square"/>
   </g>
   <g id="line2d_30">
    <path d="M 100.312877 373.467273 
L 193.917239 373.465798 
L 263.488048 373.455477 
L 264.752972 373.246094 
L 266.017895 373.417139 
L 288.786524 373.439257 
L 302.700686 373.371428 
L 306.495457 373.412715 
L 317.879771 373.384699 
L 335.588705 373.31982 
L 388.715504 373.073574 
L 391.245352 372.803735 
L 392.510276 373.088319 
L 395.040123 373.10159 
L 398.834895 372.957086 
L 401.364743 372.974781 
L 408.954285 372.893682 
L 412.749057 373.086845 
L 414.013981 373.088319 
L 416.543828 372.904003 
L 421.603523 372.668079 
L 426.663219 372.325989 
L 427.928142 372.393817 
L 429.193066 372.265533 
L 430.45799 372.356954 
L 435.517685 372.032558 
L 440.57738 372.141673 
L 441.842304 371.986847 
L 443.107228 372.331887 
L 445.637076 372.532422 
L 446.901999 372.584031 
L 448.166923 372.412986 
L 450.696771 371.33953 
L 453.226618 370.432696 
L 454.491542 369.39168 
L 455.756466 369.381358 
L 457.02139 369.145434 
L 458.286314 369.149857 
L 460.816161 368.759107 
L 462.081085 367.999726 
L 463.346009 367.676804 
L 464.610933 366.622517 
L 465.875857 365.805629 
L 467.14078 364.440217 
L 468.405704 364.50952 
L 470.935552 362.635396 
L 472.200476 361.67253 
L 473.465399 360.445723 
L 474.730323 359.586074 
L 475.995247 358.86503 
L 477.260171 358.548007 
L 478.525095 357.588089 
L 479.790018 355.079919 
L 481.054942 357.157527 
L 482.319866 356.812488 
L 484.849714 355.566513 
L 486.114637 355.318792 
L 487.379561 356.162222 
L 488.644485 355.870265 
L 489.909409 356.306725 
L 492.439256 354.097883 
L 493.70418 353.57885 
L 494.969104 354.606595 
L 497.498952 352.943329 
L 498.763875 351.250571 
L 500.028799 350.051781 
L 501.293723 347.80755 
L 503.823571 345.271364 
L 505.088494 343.38102 
L 506.353418 343.305819 
L 508.883266 340.604485 
L 510.14819 339.503013 
L 511.413114 338.737734 
L 512.678037 335.701682 
L 513.942961 336.17648 
L 516.472809 335.017501 
L 517.737733 329.361215 
L 519.002656 330.194323 
L 520.26758 327.513633 
L 521.532504 323.622355 
L 522.797428 319.012983 
L 524.062352 316.336716 
L 525.327275 312.760988 
L 526.592199 311.050536 
L 527.857123 308.200275 
L 529.122047 303.214899 
L 530.386971 296.243334 
L 531.651894 292.881412 
L 532.916818 291.089862 
L 532.916818 291.089862 
" clip-path="url(#pdb0e72fbe4)" style="fill: none; stroke: #bcbd22; stroke-opacity: 0.8; stroke-width: 1.5; stroke-linecap: square"/>
   </g>
   <g id="line2d_31">
    <path d="M 95.253182 373.465798 
L 263.488048 373.451053 
L 264.752972 373.191536 
L 266.017895 373.355209 
L 271.077591 373.411241 
L 283.726829 373.384699 
L 293.846219 373.377327 
L 303.96561 373.327193 
L 314.085 373.308024 
L 316.614848 373.293279 
L 329.264086 373.19596 
L 338.118552 373.181214 
L 359.622257 373.027864 
L 362.152105 373.057354 
L 367.2118 372.976255 
L 369.741647 372.986577 
L 372.271495 372.893682 
L 374.801343 372.825853 
L 381.125962 372.72706 
L 384.920733 372.666604 
L 387.450581 372.578133 
L 388.715504 372.643012 
L 391.245352 372.205077 
L 392.510276 372.511779 
L 395.040123 372.32304 
L 397.569971 372.302396 
L 402.629666 372.149045 
L 403.89459 372.035507 
L 406.424438 372.01044 
L 408.954285 371.988322 
L 410.219209 372.154944 
L 414.013981 372.169689 
L 416.543828 372.032558 
L 417.808752 371.955882 
L 419.073676 371.762719 
L 422.868447 371.57398 
L 424.133371 371.535642 
L 425.398295 371.295294 
L 430.45799 370.928137 
L 431.722914 371.100657 
L 432.987838 370.79248 
L 434.252761 371.084437 
L 435.517685 370.967949 
L 436.782609 371.090335 
L 438.047533 371.021032 
L 439.312457 370.805751 
L 440.57738 370.947306 
L 441.842304 362.959792 
L 443.107228 371.397037 
L 446.901999 371.643283 
L 449.431847 371.07559 
L 450.696771 370.56098 
L 453.226618 370.161383 
L 454.491542 369.338597 
L 455.756466 369.452135 
L 459.551238 369.241278 
L 460.816161 369.021573 
L 462.081085 369.020099 
L 463.346009 368.565944 
L 464.610933 368.530556 
L 465.875857 368.191414 
L 467.14078 367.417288 
L 468.405704 367.653212 
L 470.935552 366.960184 
L 473.465399 365.894101 
L 475.995247 364.512469 
L 477.260171 364.04062 
L 478.525095 361.094515 
L 479.790018 358.531787 
L 481.054942 361.704969 
L 482.319866 360.727358 
L 483.58479 360.475214 
L 484.849714 359.944384 
L 486.114637 358.950552 
L 487.379561 358.542108 
L 488.644485 357.473076 
L 489.909409 357.223881 
L 491.174333 356.16812 
L 492.439256 354.891179 
L 493.70418 355.019463 
L 494.969104 354.892654 
L 496.234028 354.358875 
L 497.498952 353.572952 
L 498.763875 352.527512 
L 500.028799 351.061832 
L 501.293723 349.771621 
L 502.558647 347.803127 
L 503.823571 346.49817 
L 505.088494 343.681823 
L 506.353418 343.094961 
L 507.618342 341.369765 
L 510.14819 336.177954 
L 511.413114 332.869115 
L 512.678037 332.531449 
L 513.942961 329.39218 
L 516.472809 324.507072 
L 517.737733 314.630688 
L 519.002656 312.560452 
L 520.26758 306.11087 
L 521.532504 298.935821 
L 524.062352 283.037469 
L 525.327275 272.731998 
L 526.592199 265.037915 
L 529.122047 240.566662 
L 530.386971 226.220987 
L 532.916818 195.191036 
L 532.916818 195.191036 
" clip-path="url(#pdb0e72fbe4)" style="fill: none; stroke: #dbdb8d; stroke-opacity: 0.8; stroke-width: 1.5; stroke-linecap: square"/>
   </g>
   <g id="line2d_32">
    <path d="M 95.253182 373.465798 
L 263.488048 373.461375 
L 264.752972 373.269686 
L 266.017895 373.446629 
L 306.495457 373.436308 
L 314.085 373.439257 
L 331.793933 373.393546 
L 338.118552 373.386174 
L 344.443171 373.383225 
L 372.271495 373.271161 
L 373.536419 373.299177 
L 376.066266 373.178265 
L 382.390885 373.182689 
L 384.920733 373.073574 
L 387.450581 373.128131 
L 397.569971 372.85092 
L 398.834895 372.917274 
L 403.89459 372.734433 
L 405.159514 372.755076 
L 406.424438 372.638588 
L 410.219209 372.738856 
L 415.278904 372.696095 
L 421.603523 372.174112 
L 422.868447 372.271431 
L 425.398295 371.96473 
L 426.663219 371.88658 
L 427.928142 371.958831 
L 429.193066 371.656553 
L 430.45799 371.585776 
L 431.722914 371.631486 
L 432.987838 371.45012 
L 434.252761 371.630012 
L 435.517685 371.391138 
L 438.047533 371.302667 
L 439.312457 371.177332 
L 440.57738 371.243686 
L 441.842304 370.898646 
L 443.107228 371.295294 
L 444.372152 371.348377 
L 446.901999 371.706687 
L 448.166923 371.214195 
L 449.431847 370.596368 
L 450.696771 370.230686 
L 451.961695 369.993287 
L 453.226618 369.620231 
L 454.491542 368.446508 
L 455.756466 367.822783 
L 457.02139 367.878815 
L 460.816161 367.628145 
L 462.081085 367.433507 
L 463.346009 367.085519 
L 464.610933 366.879085 
L 465.875857 366.091688 
L 468.405704 365.019706 
L 469.670628 364.769037 
L 472.200476 362.79317 
L 473.465399 361.34371 
L 474.730323 360.442774 
L 477.260171 357.874148 
L 478.525095 355.193457 
L 479.790018 352.773758 
L 481.054942 353.434346 
L 482.319866 352.511292 
L 483.58479 351.050036 
L 484.849714 350.472021 
L 486.114637 347.955003 
L 487.379561 347.3416 
L 489.909409 344.610775 
L 491.174333 344.36158 
L 492.439256 342.373918 
L 493.70418 341.353545 
L 494.969104 341.35207 
L 496.234028 340.501268 
L 498.763875 336.62916 
L 500.028799 335.159056 
L 501.293723 332.501958 
L 502.558647 329.45411 
L 503.823571 325.127848 
L 505.088494 322.209758 
L 506.353418 322.127185 
L 507.618342 319.102929 
L 508.883266 318.32143 
L 510.14819 313.679618 
L 511.413114 310.187938 
L 512.678037 306.187546 
L 513.942961 302.846267 
L 515.207885 300.223083 
L 516.472809 298.480192 
L 517.737733 290.735975 
L 519.002656 287.782497 
L 521.532504 270.194337 
L 522.797428 258.729888 
L 524.062352 249.430045 
L 525.327275 233.776464 
L 526.592199 222.574481 
L 527.857123 209.890598 
L 530.386971 169.939758 
L 532.916818 121.731566 
L 532.916818 121.731566 
" clip-path="url(#pdb0e72fbe4)" style="fill: none; stroke: #17becf; stroke-opacity: 0.8; stroke-width: 1.5; stroke-linecap: square"/>
   </g>
   <g id="line2d_33">
    <path d="M 188.857543 373.465798 
L 451.961695 373.387648 
L 459.551238 373.293279 
L 464.610933 373.296228 
L 470.935552 373.238721 
L 479.790018 372.847971 
L 481.054942 373.019016 
L 483.58479 372.949714 
L 487.379561 372.914325 
L 488.644485 372.818481 
L 491.174333 372.881885 
L 493.70418 372.874513 
L 500.028799 372.812583 
L 505.088494 372.607623 
L 506.353418 372.69757 
L 511.413114 372.471967 
L 512.678037 372.371699 
L 516.472809 372.320091 
L 519.002656 372.044354 
L 520.26758 372.084166 
L 524.062352 371.762719 
L 532.916818 370.662722 
L 532.916818 370.662722 
" clip-path="url(#pdb0e72fbe4)" style="fill: none; stroke: #9edae5; stroke-opacity: 0.8; stroke-width: 1.5; stroke-linecap: square"/>
   </g>
   <g id="line2d_34">
    <path d="M 283.726829 390.04 
L 283.726829 25.44 
" clip-path="url(#pdb0e72fbe4)" style="fill: none; stroke-dasharray: 1.5,2.475; stroke-dashoffset: 0; stroke: #1f77b4; stroke-width: 1.5"/>
   </g>
   <g id="line2d_35">
    <path d="M 414.013981 390.04 
L 414.013981 25.44 
" clip-path="url(#pdb0e72fbe4)" style="fill: none; stroke-dasharray: 1.5,2.475; stroke-dashoffset: 0; stroke: #1f77b4; stroke-width: 1.5"/>
   </g>
   <g id="line2d_36">
    <path d="M 448.166923 390.04 
L 448.166923 25.44 
" clip-path="url(#pdb0e72fbe4)" style="fill: none; stroke-dasharray: 1.5,2.475; stroke-dashoffset: 0; stroke: #1f77b4; stroke-width: 1.5"/>
   </g>
   <g id="line2d_37">
    <path d="M 503.823571 390.04 
L 503.823571 25.44 
" clip-path="url(#pdb0e72fbe4)" style="fill: none; stroke-dasharray: 1.5,2.475; stroke-dashoffset: 0; stroke: #1f77b4; stroke-width: 1.5"/>
   </g>
   <g id="patch_3">
    <path d="M 73.37 390.04 
L 73.37 25.44 
" style="fill: none; stroke: #000000; stroke-width: 0.8; stroke-linejoin: miter; stroke-linecap: square"/>
   </g>
   <g id="patch_4">
    <path d="M 554.8 390.04 
L 554.8 25.44 
" style="fill: none; stroke: #000000; stroke-width: 0.8; stroke-linejoin: miter; stroke-linecap: square"/>
   </g>
   <g id="patch_5">
    <path d="M 73.37 390.04 
L 554.8 390.04 
" style="fill: none; stroke: #000000; stroke-width: 0.8; stroke-linejoin: miter; stroke-linecap: square"/>
   </g>
   <g id="patch_6">
    <path d="M 73.37 25.44 
L 554.8 25.44 
" style="fill: none; stroke: #000000; stroke-width: 0.8; stroke-linejoin: miter; stroke-linecap: square"/>
   </g>
   <g id="text_16">
    <!-- End of Waterloo -->
    <g transform="translate(284.991752 45.47822) scale(0.1 -0.1)">
     <defs>
      <path id="DejaVuSans-45" d="M 628 4666 
L 3578 4666 
L 3578 4134 
L 1259 4134 
L 1259 2753 
L 3481 2753 
L 3481 2222 
L 1259 2222 
L 1259 531 
L 3634 531 
L 3634 0 
L 628 0 
L 628 4666 
z
" transform="scale(0.015625)"/>
      <path id="DejaVuSans-64" d="M 2906 2969 
L 2906 4863 
L 3481 4863 
L 3481 0 
L 2906 0 
L 2906 525 
Q 2725 213 2448 61 
Q 2172 -91 1784 -91 
Q 1150 -91 751 415 
Q 353 922 353 1747 
Q 353 2572 751 3078 
Q 1150 3584 1784 3584 
Q 2172 3584 2448 3432 
Q 2725 3281 2906 2969 
z
M 947 1747 
Q 947 1113 1208 752 
Q 1469 391 1925 391 
Q 2381 391 2643 752 
Q 2906 1113 2906 1747 
Q 2906 2381 2643 2742 
Q 2381 3103 1925 3103 
Q 1469 3103 1208 2742 
Q 947 2381 947 1747 
z
" transform="scale(0.015625)"/>
      <path id="DejaVuSans-57" d="M 213 4666 
L 850 4666 
L 1831 722 
L 2809 4666 
L 3519 4666 
L 4500 722 
L 5478 4666 
L 6119 4666 
L 4947 0 
L 4153 0 
L 3169 4050 
L 2175 0 
L 1381 0 
L 213 4666 
z
" transform="scale(0.015625)"/>
     </defs>
     <use xlink:href="#DejaVuSans-45"/>
     <use xlink:href="#DejaVuSans-6e" x="63.183594"/>
     <use xlink:href="#DejaVuSans-64" x="126.5625"/>
     <use xlink:href="#DejaVuSans-20" x="190.039062"/>
     <use xlink:href="#DejaVuSans-6f" x="221.826172"/>
     <use xlink:href="#DejaVuSans-66" x="283.007812"/>
     <use xlink:href="#DejaVuSans-20" x="318.212891"/>
     <use xlink:href="#DejaVuSans-57" x="350"/>
     <use xlink:href="#DejaVuSans-61" x="442.501953"/>
     <use xlink:href="#DejaVuSans-74" x="503.78125"/>
     <use xlink:href="#DejaVuSans-65" x="542.990234"/>
     <use xlink:href="#DejaVuSans-72" x="604.513672"/>
     <use xlink:href="#DejaVuSans-6c" x="645.626953"/>
     <use xlink:href="#DejaVuSans-6f" x="673.410156"/>
     <use xlink:href="#DejaVuSans-6f" x="734.591797"/>
    </g>
   </g>
   <g id="text_17">
    <!-- End  -->
    <g transform="translate(415.278904 37.827867) scale(0.1 -0.1)">
     <use xlink:href="#DejaVuSans-45"/>
     <use xlink:href="#DejaVuSans-6e" x="63.183594"/>
     <use xlink:href="#DejaVuSans-64" x="126.5625"/>
     <use xlink:href="#DejaVuSans-20" x="190.039062"/>
    </g>
    <!-- of  -->
    <g transform="translate(415.278904 49.02568) scale(0.1 -0.1)">
     <use xlink:href="#DejaVuSans-6f"/>
     <use xlink:href="#DejaVuSans-66" x="61.181641"/>
     <use xlink:href="#DejaVuSans-20" x="96.386719"/>
    </g>
    <!-- WWI -->
    <g transform="translate(415.278904 60.223492) scale(0.1 -0.1)">
     <defs>
      <path id="DejaVuSans-49" d="M 628 4666 
L 1259 4666 
L 1259 0 
L 628 0 
L 628 4666 
z
" transform="scale(0.015625)"/>
     </defs>
     <use xlink:href="#DejaVuSans-57"/>
     <use xlink:href="#DejaVuSans-57" x="98.876953"/>
     <use xlink:href="#DejaVuSans-49" x="197.753906"/>
    </g>
   </g>
   <g id="text_18">
    <!-- End of  -->
    <g transform="translate(449.431847 38.70399) scale(0.1 -0.1)">
     <use xlink:href="#DejaVuSans-45"/>
     <use xlink:href="#DejaVuSans-6e" x="63.183594"/>
     <use xlink:href="#DejaVuSans-64" x="126.5625"/>
     <use xlink:href="#DejaVuSans-20" x="190.039062"/>
     <use xlink:href="#DejaVuSans-6f" x="221.826172"/>
     <use xlink:href="#DejaVuSans-66" x="283.007812"/>
     <use xlink:href="#DejaVuSans-20" x="318.212891"/>
    </g>
    <!-- WWII -->
    <g transform="translate(449.431847 49.901802) scale(0.1 -0.1)">
     <use xlink:href="#DejaVuSans-57"/>
     <use xlink:href="#DejaVuSans-57" x="98.876953"/>
     <use xlink:href="#DejaVuSans-49" x="197.753906"/>
     <use xlink:href="#DejaVuSans-49" x="227.246094"/>
    </g>
   </g>
   <g id="text_19">
    <!-- Fall of the  -->
    <g transform="translate(505.088494 37.827867) scale(0.1 -0.1)">
     <defs>
      <path id="DejaVuSans-46" d="M 628 4666 
L 3309 4666 
L 3309 4134 
L 1259 4134 
L 1259 2759 
L 3109 2759 
L 3109 2228 
L 1259 2228 
L 1259 0 
L 628 0 
L 628 4666 
z
" transform="scale(0.015625)"/>
     </defs>
     <use xlink:href="#DejaVuSans-46"/>
     <use xlink:href="#DejaVuSans-61" x="48.394531"/>
     <use xlink:href="#DejaVuSans-6c" x="109.673828"/>
     <use xlink:href="#DejaVuSans-6c" x="137.457031"/>
     <use xlink:href="#DejaVuSans-20" x="165.240234"/>
     <use xlink:href="#DejaVuSans-6f" x="197.027344"/>
     <use xlink:href="#DejaVuSans-66" x="258.208984"/>
     <use xlink:href="#DejaVuSans-20" x="293.414062"/>
     <use xlink:href="#DejaVuSans-74" x="325.201172"/>
     <use xlink:href="#DejaVuSans-68" x="364.410156"/>
     <use xlink:href="#DejaVuSans-65" x="427.789062"/>
     <use xlink:href="#DejaVuSans-20" x="489.3125"/>
    </g>
    <!-- Berlin  -->
    <g transform="translate(505.088494 49.02568) scale(0.1 -0.1)">
     <defs>
      <path id="DejaVuSans-42" d="M 1259 2228 
L 1259 519 
L 2272 519 
Q 2781 519 3026 730 
Q 3272 941 3272 1375 
Q 3272 1813 3026 2020 
Q 2781 2228 2272 2228 
L 1259 2228 
z
M 1259 4147 
L 1259 2741 
L 2194 2741 
Q 2656 2741 2882 2914 
Q 3109 3088 3109 3444 
Q 3109 3797 2882 3972 
Q 2656 4147 2194 4147 
L 1259 4147 
z
M 628 4666 
L 2241 4666 
Q 2963 4666 3353 4366 
Q 3744 4066 3744 3513 
Q 3744 3084 3544 2831 
Q 3344 2578 2956 2516 
Q 3422 2416 3680 2098 
Q 3938 1781 3938 1306 
Q 3938 681 3513 340 
Q 3088 0 2303 0 
L 628 0 
L 628 4666 
z
" transform="scale(0.015625)"/>
     </defs>
     <use xlink:href="#DejaVuSans-42"/>
     <use xlink:href="#DejaVuSans-65" x="68.603516"/>
     <use xlink:href="#DejaVuSans-72" x="130.126953"/>
     <use xlink:href="#DejaVuSans-6c" x="171.240234"/>
     <use xlink:href="#DejaVuSans-69" x="199.023438"/>
     <use xlink:href="#DejaVuSans-6e" x="226.806641"/>
     <use xlink:href="#DejaVuSans-20" x="290.185547"/>
    </g>
    <!-- Wall -->
    <g transform="translate(505.088494 60.223492) scale(0.1 -0.1)">
     <use xlink:href="#DejaVuSans-57"/>
     <use xlink:href="#DejaVuSans-61" x="92.501953"/>
     <use xlink:href="#DejaVuSans-6c" x="153.78125"/>
     <use xlink:href="#DejaVuSans-6c" x="181.564453"/>
    </g>
   </g>
   <g id="text_20">
    <!-- Number of New Authors per Year by Concept, for Subset of Data -->
    <g transform="translate(121.105313 19.44) scale(0.12 -0.12)">
     <defs>
      <path id="DejaVuSans-77" d="M 269 3500 
L 844 3500 
L 1563 769 
L 2278 3500 
L 2956 3500 
L 3675 769 
L 4391 3500 
L 4966 3500 
L 4050 0 
L 3372 0 
L 2619 2869 
L 1863 0 
L 1184 0 
L 269 3500 
z
" transform="scale(0.015625)"/>
      <path id="DejaVuSans-70" d="M 1159 525 
L 1159 -1331 
L 581 -1331 
L 581 3500 
L 1159 3500 
L 1159 2969 
Q 1341 3281 1617 3432 
Q 1894 3584 2278 3584 
Q 2916 3584 3314 3078 
Q 3713 2572 3713 1747 
Q 3713 922 3314 415 
Q 2916 -91 2278 -91 
Q 1894 -91 1617 61 
Q 1341 213 1159 525 
z
M 3116 1747 
Q 3116 2381 2855 2742 
Q 2594 3103 2138 3103 
Q 1681 3103 1420 2742 
Q 1159 2381 1159 1747 
Q 1159 1113 1420 752 
Q 1681 391 2138 391 
Q 2594 391 2855 752 
Q 3116 1113 3116 1747 
z
" transform="scale(0.015625)"/>
      <path id="DejaVuSans-79" d="M 2059 -325 
Q 1816 -950 1584 -1140 
Q 1353 -1331 966 -1331 
L 506 -1331 
L 506 -850 
L 844 -850 
Q 1081 -850 1212 -737 
Q 1344 -625 1503 -206 
L 1606 56 
L 191 3500 
L 800 3500 
L 1894 763 
L 2988 3500 
L 3597 3500 
L 2059 -325 
z
" transform="scale(0.015625)"/>
      <path id="DejaVuSans-43" d="M 4122 4306 
L 4122 3641 
Q 3803 3938 3442 4084 
Q 3081 4231 2675 4231 
Q 1875 4231 1450 3742 
Q 1025 3253 1025 2328 
Q 1025 1406 1450 917 
Q 1875 428 2675 428 
Q 3081 428 3442 575 
Q 3803 722 4122 1019 
L 4122 359 
Q 3791 134 3420 21 
Q 3050 -91 2638 -91 
Q 1578 -91 968 557 
Q 359 1206 359 2328 
Q 359 3453 968 4101 
Q 1578 4750 2638 4750 
Q 3056 4750 3426 4639 
Q 3797 4528 4122 4306 
z
" transform="scale(0.015625)"/>
      <path id="DejaVuSans-63" d="M 3122 3366 
L 3122 2828 
Q 2878 2963 2633 3030 
Q 2388 3097 2138 3097 
Q 1578 3097 1268 2742 
Q 959 2388 959 1747 
Q 959 1106 1268 751 
Q 1578 397 2138 397 
Q 2388 397 2633 464 
Q 2878 531 3122 666 
L 3122 134 
Q 2881 22 2623 -34 
Q 2366 -91 2075 -91 
Q 1284 -91 818 406 
Q 353 903 353 1747 
Q 353 2603 823 3093 
Q 1294 3584 2113 3584 
Q 2378 3584 2631 3529 
Q 2884 3475 3122 3366 
z
" transform="scale(0.015625)"/>
      <path id="DejaVuSans-53" d="M 3425 4513 
L 3425 3897 
Q 3066 4069 2747 4153 
Q 2428 4238 2131 4238 
Q 1616 4238 1336 4038 
Q 1056 3838 1056 3469 
Q 1056 3159 1242 3001 
Q 1428 2844 1947 2747 
L 2328 2669 
Q 3034 2534 3370 2195 
Q 3706 1856 3706 1288 
Q 3706 609 3251 259 
Q 2797 -91 1919 -91 
Q 1588 -91 1214 -16 
Q 841 59 441 206 
L 441 856 
Q 825 641 1194 531 
Q 1563 422 1919 422 
Q 2459 422 2753 634 
Q 3047 847 3047 1241 
Q 3047 1584 2836 1778 
Q 2625 1972 2144 2069 
L 1759 2144 
Q 1053 2284 737 2584 
Q 422 2884 422 3419 
Q 422 4038 858 4394 
Q 1294 4750 2059 4750 
Q 2388 4750 2728 4690 
Q 3069 4631 3425 4513 
z
" transform="scale(0.015625)"/>
      <path id="DejaVuSans-44" d="M 1259 4147 
L 1259 519 
L 2022 519 
Q 2988 519 3436 956 
Q 3884 1394 3884 2338 
Q 3884 3275 3436 3711 
Q 2988 4147 2022 4147 
L 1259 4147 
z
M 628 4666 
L 1925 4666 
Q 3281 4666 3915 4102 
Q 4550 3538 4550 2338 
Q 4550 1131 3912 565 
Q 3275 0 1925 0 
L 628 0 
L 628 4666 
z
" transform="scale(0.015625)"/>
     </defs>
     <use xlink:href="#DejaVuSans-4e"/>
     <use xlink:href="#DejaVuSans-75" x="74.804688"/>
     <use xlink:href="#DejaVuSans-6d" x="138.183594"/>
     <use xlink:href="#DejaVuSans-62" x="235.595703"/>
     <use xlink:href="#DejaVuSans-65" x="299.072266"/>
     <use xlink:href="#DejaVuSans-72" x="360.595703"/>
     <use xlink:href="#DejaVuSans-20" x="401.708984"/>
     <use xlink:href="#DejaVuSans-6f" x="433.496094"/>
     <use xlink:href="#DejaVuSans-66" x="494.677734"/>
     <use xlink:href="#DejaVuSans-20" x="529.882812"/>
     <use xlink:href="#DejaVuSans-4e" x="561.669922"/>
     <use xlink:href="#DejaVuSans-65" x="636.474609"/>
     <use xlink:href="#DejaVuSans-77" x="697.998047"/>
     <use xlink:href="#DejaVuSans-20" x="779.785156"/>
     <use xlink:href="#DejaVuSans-41" x="811.572266"/>
     <use xlink:href="#DejaVuSans-75" x="879.980469"/>
     <use xlink:href="#DejaVuSans-74" x="943.359375"/>
     <use xlink:href="#DejaVuSans-68" x="982.568359"/>
     <use xlink:href="#DejaVuSans-6f" x="1045.947266"/>
     <use xlink:href="#DejaVuSans-72" x="1107.128906"/>
     <use xlink:href="#DejaVuSans-73" x="1148.242188"/>
     <use xlink:href="#DejaVuSans-20" x="1200.341797"/>
     <use xlink:href="#DejaVuSans-70" x="1232.128906"/>
     <use xlink:href="#DejaVuSans-65" x="1295.605469"/>
     <use xlink:href="#DejaVuSans-72" x="1357.128906"/>
     <use xlink:href="#DejaVuSans-20" x="1398.242188"/>
     <use xlink:href="#DejaVuSans-59" x="1430.029297"/>
     <use xlink:href="#DejaVuSans-65" x="1477.863281"/>
     <use xlink:href="#DejaVuSans-61" x="1539.386719"/>
     <use xlink:href="#DejaVuSans-72" x="1600.666016"/>
     <use xlink:href="#DejaVuSans-20" x="1641.779297"/>
     <use xlink:href="#DejaVuSans-62" x="1673.566406"/>
     <use xlink:href="#DejaVuSans-79" x="1737.042969"/>
     <use xlink:href="#DejaVuSans-20" x="1796.222656"/>
     <use xlink:href="#DejaVuSans-43" x="1828.009766"/>
     <use xlink:href="#DejaVuSans-6f" x="1897.833984"/>
     <use xlink:href="#DejaVuSans-6e" x="1959.015625"/>
     <use xlink:href="#DejaVuSans-63" x="2022.394531"/>
     <use xlink:href="#DejaVuSans-65" x="2077.375"/>
     <use xlink:href="#DejaVuSans-70" x="2138.898438"/>
     <use xlink:href="#DejaVuSans-74" x="2202.375"/>
     <use xlink:href="#DejaVuSans-2c" x="2241.583984"/>
     <use xlink:href="#DejaVuSans-20" x="2273.371094"/>
     <use xlink:href="#DejaVuSans-66" x="2305.158203"/>
     <use xlink:href="#DejaVuSans-6f" x="2340.363281"/>
     <use xlink:href="#DejaVuSans-72" x="2401.544922"/>
     <use xlink:href="#DejaVuSans-20" x="2442.658203"/>
     <use xlink:href="#DejaVuSans-53" x="2474.445312"/>
     <use xlink:href="#DejaVuSans-75" x="2537.921875"/>
     <use xlink:href="#DejaVuSans-62" x="2601.300781"/>
     <use xlink:href="#DejaVuSans-73" x="2664.777344"/>
     <use xlink:href="#DejaVuSans-65" x="2716.876953"/>
     <use xlink:href="#DejaVuSans-74" x="2778.400391"/>
     <use xlink:href="#DejaVuSans-20" x="2817.609375"/>
     <use xlink:href="#DejaVuSans-6f" x="2849.396484"/>
     <use xlink:href="#DejaVuSans-66" x="2910.578125"/>
     <use xlink:href="#DejaVuSans-20" x="2945.783203"/>
     <use xlink:href="#DejaVuSans-44" x="2977.570312"/>
     <use xlink:href="#DejaVuSans-61" x="3054.572266"/>
     <use xlink:href="#DejaVuSans-74" x="3115.851562"/>
     <use xlink:href="#DejaVuSans-61" x="3155.060547"/>
    </g>
   </g>
   <g id="legend_1">
    <g id="patch_7">
     <path d="M 561.8 363.360313 
L 707.359375 363.360313 
Q 709.359375 363.360313 709.359375 361.360313 
L 709.359375 54.119687 
Q 709.359375 52.119687 707.359375 52.119687 
L 561.8 52.119687 
Q 559.8 52.119687 559.8 54.119687 
L 559.8 361.360313 
Q 559.8 363.360313 561.8 363.360313 
z
" style="fill: #ffffff; opacity: 0.8; stroke: #cccccc; stroke-linejoin: miter"/>
    </g>
    <g id="text_21">
     <!-- Top Concept of Author -->
     <g transform="translate(579.042969 63.718125) scale(0.1 -0.1)">
      <defs>
       <path id="DejaVuSans-54" d="M -19 4666 
L 3928 4666 
L 3928 4134 
L 2272 4134 
L 2272 0 
L 1638 0 
L 1638 4134 
L -19 4134 
L -19 4666 
z
" transform="scale(0.015625)"/>
      </defs>
      <use xlink:href="#DejaVuSans-54"/>
      <use xlink:href="#DejaVuSans-6f" x="44.083984"/>
      <use xlink:href="#DejaVuSans-70" x="105.265625"/>
      <use xlink:href="#DejaVuSans-20" x="168.742188"/>
      <use xlink:href="#DejaVuSans-43" x="200.529297"/>
      <use xlink:href="#DejaVuSans-6f" x="270.353516"/>
      <use xlink:href="#DejaVuSans-6e" x="331.535156"/>
      <use xlink:href="#DejaVuSans-63" x="394.914062"/>
      <use xlink:href="#DejaVuSans-65" x="449.894531"/>
      <use xlink:href="#DejaVuSans-70" x="511.417969"/>
      <use xlink:href="#DejaVuSans-74" x="574.894531"/>
      <use xlink:href="#DejaVuSans-20" x="614.103516"/>
      <use xlink:href="#DejaVuSans-6f" x="645.890625"/>
      <use xlink:href="#DejaVuSans-66" x="707.072266"/>
      <use xlink:href="#DejaVuSans-20" x="742.277344"/>
      <use xlink:href="#DejaVuSans-41" x="774.064453"/>
      <use xlink:href="#DejaVuSans-75" x="842.472656"/>
      <use xlink:href="#DejaVuSans-74" x="905.851562"/>
      <use xlink:href="#DejaVuSans-68" x="945.060547"/>
      <use xlink:href="#DejaVuSans-6f" x="1008.439453"/>
      <use xlink:href="#DejaVuSans-72" x="1069.621094"/>
     </g>
    </g>
    <g id="line2d_38">
     <path d="M 563.8 74.89625 
L 573.8 74.89625 
L 583.8 74.89625 
" style="fill: none; stroke: #1f77b4; stroke-opacity: 0.8; stroke-width: 1.5; stroke-linecap: square"/>
    </g>
    <g id="text_22">
     <!-- Art -->
     <g transform="translate(591.8 78.39625) scale(0.1 -0.1)">
      <use xlink:href="#DejaVuSans-41"/>
      <use xlink:href="#DejaVuSans-72" x="68.408203"/>
      <use xlink:href="#DejaVuSans-74" x="109.521484"/>
     </g>
    </g>
    <g id="line2d_39">
     <path d="M 563.8 89.574375 
L 573.8 89.574375 
L 583.8 89.574375 
" style="fill: none; stroke: #aec7e8; stroke-opacity: 0.8; stroke-width: 1.5; stroke-linecap: square"/>
    </g>
    <g id="text_23">
     <!-- Biology -->
     <g transform="translate(591.8 93.074375) scale(0.1 -0.1)">
      <use xlink:href="#DejaVuSans-42"/>
      <use xlink:href="#DejaVuSans-69" x="68.603516"/>
      <use xlink:href="#DejaVuSans-6f" x="96.386719"/>
      <use xlink:href="#DejaVuSans-6c" x="157.568359"/>
      <use xlink:href="#DejaVuSans-6f" x="185.351562"/>
      <use xlink:href="#DejaVuSans-67" x="246.533203"/>
      <use xlink:href="#DejaVuSans-79" x="310.009766"/>
     </g>
    </g>
    <g id="line2d_40">
     <path d="M 563.8 104.2525 
L 573.8 104.2525 
L 583.8 104.2525 
" style="fill: none; stroke: #ff7f0e; stroke-opacity: 0.8; stroke-width: 1.5; stroke-linecap: square"/>
    </g>
    <g id="text_24">
     <!-- Business -->
     <g transform="translate(591.8 107.7525) scale(0.1 -0.1)">
      <use xlink:href="#DejaVuSans-42"/>
      <use xlink:href="#DejaVuSans-75" x="68.603516"/>
      <use xlink:href="#DejaVuSans-73" x="131.982422"/>
      <use xlink:href="#DejaVuSans-69" x="184.082031"/>
      <use xlink:href="#DejaVuSans-6e" x="211.865234"/>
      <use xlink:href="#DejaVuSans-65" x="275.244141"/>
      <use xlink:href="#DejaVuSans-73" x="336.767578"/>
      <use xlink:href="#DejaVuSans-73" x="388.867188"/>
     </g>
    </g>
    <g id="line2d_41">
     <path d="M 563.8 118.930625 
L 573.8 118.930625 
L 583.8 118.930625 
" style="fill: none; stroke: #ffbb78; stroke-opacity: 0.8; stroke-width: 1.5; stroke-linecap: square"/>
    </g>
    <g id="text_25">
     <!-- Chemistry -->
     <g transform="translate(591.8 122.430625) scale(0.1 -0.1)">
      <use xlink:href="#DejaVuSans-43"/>
      <use xlink:href="#DejaVuSans-68" x="69.824219"/>
      <use xlink:href="#DejaVuSans-65" x="133.203125"/>
      <use xlink:href="#DejaVuSans-6d" x="194.726562"/>
      <use xlink:href="#DejaVuSans-69" x="292.138672"/>
      <use xlink:href="#DejaVuSans-73" x="319.921875"/>
      <use xlink:href="#DejaVuSans-74" x="372.021484"/>
      <use xlink:href="#DejaVuSans-72" x="411.230469"/>
      <use xlink:href="#DejaVuSans-79" x="452.34375"/>
     </g>
    </g>
    <g id="line2d_42">
     <path d="M 563.8 133.60875 
L 573.8 133.60875 
L 583.8 133.60875 
" style="fill: none; stroke: #2ca02c; stroke-opacity: 0.8; stroke-width: 1.5; stroke-linecap: square"/>
    </g>
    <g id="text_26">
     <!-- Computer science -->
     <g transform="translate(591.8 137.10875) scale(0.1 -0.1)">
      <use xlink:href="#DejaVuSans-43"/>
      <use xlink:href="#DejaVuSans-6f" x="69.824219"/>
      <use xlink:href="#DejaVuSans-6d" x="131.005859"/>
      <use xlink:href="#DejaVuSans-70" x="228.417969"/>
      <use xlink:href="#DejaVuSans-75" x="291.894531"/>
      <use xlink:href="#DejaVuSans-74" x="355.273438"/>
      <use xlink:href="#DejaVuSans-65" x="394.482422"/>
      <use xlink:href="#DejaVuSans-72" x="456.005859"/>
      <use xlink:href="#DejaVuSans-20" x="497.119141"/>
      <use xlink:href="#DejaVuSans-73" x="528.90625"/>
      <use xlink:href="#DejaVuSans-63" x="581.005859"/>
      <use xlink:href="#DejaVuSans-69" x="635.986328"/>
      <use xlink:href="#DejaVuSans-65" x="663.769531"/>
      <use xlink:href="#DejaVuSans-6e" x="725.292969"/>
      <use xlink:href="#DejaVuSans-63" x="788.671875"/>
      <use xlink:href="#DejaVuSans-65" x="843.652344"/>
     </g>
    </g>
    <g id="line2d_43">
     <path d="M 563.8 148.286875 
L 573.8 148.286875 
L 583.8 148.286875 
" style="fill: none; stroke: #98df8a; stroke-opacity: 0.8; stroke-width: 1.5; stroke-linecap: square"/>
    </g>
    <g id="text_27">
     <!-- Economics -->
     <g transform="translate(591.8 151.786875) scale(0.1 -0.1)">
      <use xlink:href="#DejaVuSans-45"/>
      <use xlink:href="#DejaVuSans-63" x="63.183594"/>
      <use xlink:href="#DejaVuSans-6f" x="118.164062"/>
      <use xlink:href="#DejaVuSans-6e" x="179.345703"/>
      <use xlink:href="#DejaVuSans-6f" x="242.724609"/>
      <use xlink:href="#DejaVuSans-6d" x="303.90625"/>
      <use xlink:href="#DejaVuSans-69" x="401.318359"/>
      <use xlink:href="#DejaVuSans-63" x="429.101562"/>
      <use xlink:href="#DejaVuSans-73" x="484.082031"/>
     </g>
    </g>
    <g id="line2d_44">
     <path d="M 563.8 162.965 
L 573.8 162.965 
L 583.8 162.965 
" style="fill: none; stroke: #d62728; stroke-opacity: 0.8; stroke-width: 1.5; stroke-linecap: square"/>
    </g>
    <g id="text_28">
     <!-- Engineering -->
     <g transform="translate(591.8 166.465) scale(0.1 -0.1)">
      <use xlink:href="#DejaVuSans-45"/>
      <use xlink:href="#DejaVuSans-6e" x="63.183594"/>
      <use xlink:href="#DejaVuSans-67" x="126.5625"/>
      <use xlink:href="#DejaVuSans-69" x="190.039062"/>
      <use xlink:href="#DejaVuSans-6e" x="217.822266"/>
      <use xlink:href="#DejaVuSans-65" x="281.201172"/>
      <use xlink:href="#DejaVuSans-65" x="342.724609"/>
      <use xlink:href="#DejaVuSans-72" x="404.248047"/>
      <use xlink:href="#DejaVuSans-69" x="445.361328"/>
      <use xlink:href="#DejaVuSans-6e" x="473.144531"/>
      <use xlink:href="#DejaVuSans-67" x="536.523438"/>
     </g>
    </g>
    <g id="line2d_45">
     <path d="M 563.8 177.643125 
L 573.8 177.643125 
L 583.8 177.643125 
" style="fill: none; stroke: #ff9896; stroke-opacity: 0.8; stroke-width: 1.5; stroke-linecap: square"/>
    </g>
    <g id="text_29">
     <!-- Environmental science -->
     <g transform="translate(591.8 181.143125) scale(0.1 -0.1)">
      <defs>
       <path id="DejaVuSans-76" d="M 191 3500 
L 800 3500 
L 1894 563 
L 2988 3500 
L 3597 3500 
L 2284 0 
L 1503 0 
L 191 3500 
z
" transform="scale(0.015625)"/>
      </defs>
      <use xlink:href="#DejaVuSans-45"/>
      <use xlink:href="#DejaVuSans-6e" x="63.183594"/>
      <use xlink:href="#DejaVuSans-76" x="126.5625"/>
      <use xlink:href="#DejaVuSans-69" x="185.742188"/>
      <use xlink:href="#DejaVuSans-72" x="213.525391"/>
      <use xlink:href="#DejaVuSans-6f" x="252.388672"/>
      <use xlink:href="#DejaVuSans-6e" x="313.570312"/>
      <use xlink:href="#DejaVuSans-6d" x="376.949219"/>
      <use xlink:href="#DejaVuSans-65" x="474.361328"/>
      <use xlink:href="#DejaVuSans-6e" x="535.884766"/>
      <use xlink:href="#DejaVuSans-74" x="599.263672"/>
      <use xlink:href="#DejaVuSans-61" x="638.472656"/>
      <use xlink:href="#DejaVuSans-6c" x="699.751953"/>
      <use xlink:href="#DejaVuSans-20" x="727.535156"/>
      <use xlink:href="#DejaVuSans-73" x="759.322266"/>
      <use xlink:href="#DejaVuSans-63" x="811.421875"/>
      <use xlink:href="#DejaVuSans-69" x="866.402344"/>
      <use xlink:href="#DejaVuSans-65" x="894.185547"/>
      <use xlink:href="#DejaVuSans-6e" x="955.708984"/>
      <use xlink:href="#DejaVuSans-63" x="1019.087891"/>
      <use xlink:href="#DejaVuSans-65" x="1074.068359"/>
     </g>
    </g>
    <g id="line2d_46">
     <path d="M 563.8 192.32125 
L 573.8 192.32125 
L 583.8 192.32125 
" style="fill: none; stroke: #9467bd; stroke-opacity: 0.8; stroke-width: 1.5; stroke-linecap: square"/>
    </g>
    <g id="text_30">
     <!-- Geography -->
     <g transform="translate(591.8 195.82125) scale(0.1 -0.1)">
      <defs>
       <path id="DejaVuSans-47" d="M 3809 666 
L 3809 1919 
L 2778 1919 
L 2778 2438 
L 4434 2438 
L 4434 434 
Q 4069 175 3628 42 
Q 3188 -91 2688 -91 
Q 1594 -91 976 548 
Q 359 1188 359 2328 
Q 359 3472 976 4111 
Q 1594 4750 2688 4750 
Q 3144 4750 3555 4637 
Q 3966 4525 4313 4306 
L 4313 3634 
Q 3963 3931 3569 4081 
Q 3175 4231 2741 4231 
Q 1884 4231 1454 3753 
Q 1025 3275 1025 2328 
Q 1025 1384 1454 906 
Q 1884 428 2741 428 
Q 3075 428 3337 486 
Q 3600 544 3809 666 
z
" transform="scale(0.015625)"/>
      </defs>
      <use xlink:href="#DejaVuSans-47"/>
      <use xlink:href="#DejaVuSans-65" x="77.490234"/>
      <use xlink:href="#DejaVuSans-6f" x="139.013672"/>
      <use xlink:href="#DejaVuSans-67" x="200.195312"/>
      <use xlink:href="#DejaVuSans-72" x="263.671875"/>
      <use xlink:href="#DejaVuSans-61" x="304.785156"/>
      <use xlink:href="#DejaVuSans-70" x="366.064453"/>
      <use xlink:href="#DejaVuSans-68" x="429.541016"/>
      <use xlink:href="#DejaVuSans-79" x="492.919922"/>
     </g>
    </g>
    <g id="line2d_47">
     <path d="M 563.8 206.999375 
L 573.8 206.999375 
L 583.8 206.999375 
" style="fill: none; stroke: #c5b0d5; stroke-opacity: 0.8; stroke-width: 1.5; stroke-linecap: square"/>
    </g>
    <g id="text_31">
     <!-- Geology -->
     <g transform="translate(591.8 210.499375) scale(0.1 -0.1)">
      <use xlink:href="#DejaVuSans-47"/>
      <use xlink:href="#DejaVuSans-65" x="77.490234"/>
      <use xlink:href="#DejaVuSans-6f" x="139.013672"/>
      <use xlink:href="#DejaVuSans-6c" x="200.195312"/>
      <use xlink:href="#DejaVuSans-6f" x="227.978516"/>
      <use xlink:href="#DejaVuSans-67" x="289.160156"/>
      <use xlink:href="#DejaVuSans-79" x="352.636719"/>
     </g>
    </g>
    <g id="line2d_48">
     <path d="M 563.8 221.6775 
L 573.8 221.6775 
L 583.8 221.6775 
" style="fill: none; stroke: #8c564b; stroke-opacity: 0.8; stroke-width: 1.5; stroke-linecap: square"/>
    </g>
    <g id="text_32">
     <!-- History -->
     <g transform="translate(591.8 225.1775) scale(0.1 -0.1)">
      <defs>
       <path id="DejaVuSans-48" d="M 628 4666 
L 1259 4666 
L 1259 2753 
L 3553 2753 
L 3553 4666 
L 4184 4666 
L 4184 0 
L 3553 0 
L 3553 2222 
L 1259 2222 
L 1259 0 
L 628 0 
L 628 4666 
z
" transform="scale(0.015625)"/>
      </defs>
      <use xlink:href="#DejaVuSans-48"/>
      <use xlink:href="#DejaVuSans-69" x="75.195312"/>
      <use xlink:href="#DejaVuSans-73" x="102.978516"/>
      <use xlink:href="#DejaVuSans-74" x="155.078125"/>
      <use xlink:href="#DejaVuSans-6f" x="194.287109"/>
      <use xlink:href="#DejaVuSans-72" x="255.46875"/>
      <use xlink:href="#DejaVuSans-79" x="296.582031"/>
     </g>
    </g>
    <g id="line2d_49">
     <path d="M 563.8 236.355625 
L 573.8 236.355625 
L 583.8 236.355625 
" style="fill: none; stroke: #c49c94; stroke-opacity: 0.8; stroke-width: 1.5; stroke-linecap: square"/>
    </g>
    <g id="text_33">
     <!-- Materials science -->
     <g transform="translate(591.8 239.855625) scale(0.1 -0.1)">
      <defs>
       <path id="DejaVuSans-4d" d="M 628 4666 
L 1569 4666 
L 2759 1491 
L 3956 4666 
L 4897 4666 
L 4897 0 
L 4281 0 
L 4281 4097 
L 3078 897 
L 2444 897 
L 1241 4097 
L 1241 0 
L 628 0 
L 628 4666 
z
" transform="scale(0.015625)"/>
      </defs>
      <use xlink:href="#DejaVuSans-4d"/>
      <use xlink:href="#DejaVuSans-61" x="86.279297"/>
      <use xlink:href="#DejaVuSans-74" x="147.558594"/>
      <use xlink:href="#DejaVuSans-65" x="186.767578"/>
      <use xlink:href="#DejaVuSans-72" x="248.291016"/>
      <use xlink:href="#DejaVuSans-69" x="289.404297"/>
      <use xlink:href="#DejaVuSans-61" x="317.1875"/>
      <use xlink:href="#DejaVuSans-6c" x="378.466797"/>
      <use xlink:href="#DejaVuSans-73" x="406.25"/>
      <use xlink:href="#DejaVuSans-20" x="458.349609"/>
      <use xlink:href="#DejaVuSans-73" x="490.136719"/>
      <use xlink:href="#DejaVuSans-63" x="542.236328"/>
      <use xlink:href="#DejaVuSans-69" x="597.216797"/>
      <use xlink:href="#DejaVuSans-65" x="625"/>
      <use xlink:href="#DejaVuSans-6e" x="686.523438"/>
      <use xlink:href="#DejaVuSans-63" x="749.902344"/>
      <use xlink:href="#DejaVuSans-65" x="804.882812"/>
     </g>
    </g>
    <g id="line2d_50">
     <path d="M 563.8 251.03375 
L 573.8 251.03375 
L 583.8 251.03375 
" style="fill: none; stroke: #e377c2; stroke-opacity: 0.8; stroke-width: 1.5; stroke-linecap: square"/>
    </g>
    <g id="text_34">
     <!-- Mathematics -->
     <g transform="translate(591.8 254.53375) scale(0.1 -0.1)">
      <use xlink:href="#DejaVuSans-4d"/>
      <use xlink:href="#DejaVuSans-61" x="86.279297"/>
      <use xlink:href="#DejaVuSans-74" x="147.558594"/>
      <use xlink:href="#DejaVuSans-68" x="186.767578"/>
      <use xlink:href="#DejaVuSans-65" x="250.146484"/>
      <use xlink:href="#DejaVuSans-6d" x="311.669922"/>
      <use xlink:href="#DejaVuSans-61" x="409.082031"/>
      <use xlink:href="#DejaVuSans-74" x="470.361328"/>
      <use xlink:href="#DejaVuSans-69" x="509.570312"/>
      <use xlink:href="#DejaVuSans-63" x="537.353516"/>
      <use xlink:href="#DejaVuSans-73" x="592.333984"/>
     </g>
    </g>
    <g id="line2d_51">
     <path d="M 563.8 265.711875 
L 573.8 265.711875 
L 583.8 265.711875 
" style="fill: none; stroke: #f7b6d2; stroke-opacity: 0.8; stroke-width: 1.5; stroke-linecap: square"/>
    </g>
    <g id="text_35">
     <!-- Medicine -->
     <g transform="translate(591.8 269.211875) scale(0.1 -0.1)">
      <use xlink:href="#DejaVuSans-4d"/>
      <use xlink:href="#DejaVuSans-65" x="86.279297"/>
      <use xlink:href="#DejaVuSans-64" x="147.802734"/>
      <use xlink:href="#DejaVuSans-69" x="211.279297"/>
      <use xlink:href="#DejaVuSans-63" x="239.0625"/>
      <use xlink:href="#DejaVuSans-69" x="294.042969"/>
      <use xlink:href="#DejaVuSans-6e" x="321.826172"/>
      <use xlink:href="#DejaVuSans-65" x="385.205078"/>
     </g>
    </g>
    <g id="line2d_52">
     <path d="M 563.8 280.39 
L 573.8 280.39 
L 583.8 280.39 
" style="fill: none; stroke: #7f7f7f; stroke-opacity: 0.8; stroke-width: 1.5; stroke-linecap: square"/>
    </g>
    <g id="text_36">
     <!-- No Top Concept -->
     <g transform="translate(591.8 283.89) scale(0.1 -0.1)">
      <use xlink:href="#DejaVuSans-4e"/>
      <use xlink:href="#DejaVuSans-6f" x="74.804688"/>
      <use xlink:href="#DejaVuSans-20" x="135.986328"/>
      <use xlink:href="#DejaVuSans-54" x="167.773438"/>
      <use xlink:href="#DejaVuSans-6f" x="211.857422"/>
      <use xlink:href="#DejaVuSans-70" x="273.039062"/>
      <use xlink:href="#DejaVuSans-20" x="336.515625"/>
      <use xlink:href="#DejaVuSans-43" x="368.302734"/>
      <use xlink:href="#DejaVuSans-6f" x="438.126953"/>
      <use xlink:href="#DejaVuSans-6e" x="499.308594"/>
      <use xlink:href="#DejaVuSans-63" x="562.6875"/>
      <use xlink:href="#DejaVuSans-65" x="617.667969"/>
      <use xlink:href="#DejaVuSans-70" x="679.191406"/>
      <use xlink:href="#DejaVuSans-74" x="742.667969"/>
     </g>
    </g>
    <g id="line2d_53">
     <path d="M 563.8 295.068125 
L 573.8 295.068125 
L 583.8 295.068125 
" style="fill: none; stroke: #c7c7c7; stroke-opacity: 0.8; stroke-width: 1.5; stroke-linecap: square"/>
    </g>
    <g id="text_37">
     <!-- Philosophy -->
     <g transform="translate(591.8 298.568125) scale(0.1 -0.1)">
      <use xlink:href="#DejaVuSans-50"/>
      <use xlink:href="#DejaVuSans-68" x="60.302734"/>
      <use xlink:href="#DejaVuSans-69" x="123.681641"/>
      <use xlink:href="#DejaVuSans-6c" x="151.464844"/>
      <use xlink:href="#DejaVuSans-6f" x="179.248047"/>
      <use xlink:href="#DejaVuSans-73" x="240.429688"/>
      <use xlink:href="#DejaVuSans-6f" x="292.529297"/>
      <use xlink:href="#DejaVuSans-70" x="353.710938"/>
      <use xlink:href="#DejaVuSans-68" x="417.1875"/>
      <use xlink:href="#DejaVuSans-79" x="480.566406"/>
     </g>
    </g>
    <g id="line2d_54">
     <path d="M 563.8 309.74625 
L 573.8 309.74625 
L 583.8 309.74625 
" style="fill: none; stroke: #bcbd22; stroke-opacity: 0.8; stroke-width: 1.5; stroke-linecap: square"/>
    </g>
    <g id="text_38">
     <!-- Physics -->
     <g transform="translate(591.8 313.24625) scale(0.1 -0.1)">
      <use xlink:href="#DejaVuSans-50"/>
      <use xlink:href="#DejaVuSans-68" x="60.302734"/>
      <use xlink:href="#DejaVuSans-79" x="123.681641"/>
      <use xlink:href="#DejaVuSans-73" x="182.861328"/>
      <use xlink:href="#DejaVuSans-69" x="234.960938"/>
      <use xlink:href="#DejaVuSans-63" x="262.744141"/>
      <use xlink:href="#DejaVuSans-73" x="317.724609"/>
     </g>
    </g>
    <g id="line2d_55">
     <path d="M 563.8 324.424375 
L 573.8 324.424375 
L 583.8 324.424375 
" style="fill: none; stroke: #dbdb8d; stroke-opacity: 0.8; stroke-width: 1.5; stroke-linecap: square"/>
    </g>
    <g id="text_39">
     <!-- Political science -->
     <g transform="translate(591.8 327.924375) scale(0.1 -0.1)">
      <use xlink:href="#DejaVuSans-50"/>
      <use xlink:href="#DejaVuSans-6f" x="56.677734"/>
      <use xlink:href="#DejaVuSans-6c" x="117.859375"/>
      <use xlink:href="#DejaVuSans-69" x="145.642578"/>
      <use xlink:href="#DejaVuSans-74" x="173.425781"/>
      <use xlink:href="#DejaVuSans-69" x="212.634766"/>
      <use xlink:href="#DejaVuSans-63" x="240.417969"/>
      <use xlink:href="#DejaVuSans-61" x="295.398438"/>
      <use xlink:href="#DejaVuSans-6c" x="356.677734"/>
      <use xlink:href="#DejaVuSans-20" x="384.460938"/>
      <use xlink:href="#DejaVuSans-73" x="416.248047"/>
      <use xlink:href="#DejaVuSans-63" x="468.347656"/>
      <use xlink:href="#DejaVuSans-69" x="523.328125"/>
      <use xlink:href="#DejaVuSans-65" x="551.111328"/>
      <use xlink:href="#DejaVuSans-6e" x="612.634766"/>
      <use xlink:href="#DejaVuSans-63" x="676.013672"/>
      <use xlink:href="#DejaVuSans-65" x="730.994141"/>
     </g>
    </g>
    <g id="line2d_56">
     <path d="M 563.8 339.1025 
L 573.8 339.1025 
L 583.8 339.1025 
" style="fill: none; stroke: #17becf; stroke-opacity: 0.8; stroke-width: 1.5; stroke-linecap: square"/>
    </g>
    <g id="text_40">
     <!-- Psychology -->
     <g transform="translate(591.8 342.6025) scale(0.1 -0.1)">
      <use xlink:href="#DejaVuSans-50"/>
      <use xlink:href="#DejaVuSans-73" x="58.552734"/>
      <use xlink:href="#DejaVuSans-79" x="110.652344"/>
      <use xlink:href="#DejaVuSans-63" x="169.832031"/>
      <use xlink:href="#DejaVuSans-68" x="224.8125"/>
      <use xlink:href="#DejaVuSans-6f" x="288.191406"/>
      <use xlink:href="#DejaVuSans-6c" x="349.373047"/>
      <use xlink:href="#DejaVuSans-6f" x="377.15625"/>
      <use xlink:href="#DejaVuSans-67" x="438.337891"/>
      <use xlink:href="#DejaVuSans-79" x="501.814453"/>
     </g>
    </g>
    <g id="line2d_57">
     <path d="M 563.8 353.780625 
L 573.8 353.780625 
L 583.8 353.780625 
" style="fill: none; stroke: #9edae5; stroke-opacity: 0.8; stroke-width: 1.5; stroke-linecap: square"/>
    </g>
    <g id="text_41">
     <!-- Sociology -->
     <g transform="translate(591.8 357.280625) scale(0.1 -0.1)">
      <use xlink:href="#DejaVuSans-53"/>
      <use xlink:href="#DejaVuSans-6f" x="63.476562"/>
      <use xlink:href="#DejaVuSans-63" x="124.658203"/>
      <use xlink:href="#DejaVuSans-69" x="179.638672"/>
      <use xlink:href="#DejaVuSans-6f" x="207.421875"/>
      <use xlink:href="#DejaVuSans-6c" x="268.603516"/>
      <use xlink:href="#DejaVuSans-6f" x="296.386719"/>
      <use xlink:href="#DejaVuSans-67" x="357.568359"/>
      <use xlink:href="#DejaVuSans-79" x="421.044922"/>
     </g>
    </g>
   </g>
  </g>
 </g>
 <defs>
  <clipPath id="pdb0e72fbe4">
   <rect x="73.37" y="25.44" width="481.43" height="364.6"/>
  </clipPath>
 </defs>
</svg>
