<?xml version="1.0" encoding="utf-8" standalone="no"?>
<!DOCTYPE svg PUBLIC "-//W3C//DTD SVG 1.1//EN"
  "http://www.w3.org/Graphics/SVG/1.1/DTD/svg11.dtd">
<svg xmlns:xlink="http://www.w3.org/1999/xlink" width="720pt" height="432pt" viewBox="0 0 720 432" xmlns="http://www.w3.org/2000/svg" version="1.1">
 <metadata>
  <rdf:RDF xmlns:dc="http://purl.org/dc/elements/1.1/" xmlns:cc="http://creativecommons.org/ns#" xmlns:rdf="http://www.w3.org/1999/02/22-rdf-syntax-ns#">
   <cc:Work>
    <dc:type rdf:resource="http://purl.org/dc/dcmitype/StillImage"/>
    <dc:date>2023-06-21T10:52:34.323533</dc:date>
    <dc:format>image/svg+xml</dc:format>
    <dc:creator>
     <cc:Agent>
      <dc:title>Matplotlib v3.7.1, https://matplotlib.org/</dc:title>
     </cc:Agent>
    </dc:creator>
   </cc:Work>
  </rdf:RDF>
 </metadata>
 <defs>
  <style type="text/css">*{stroke-linejoin: round; stroke-linecap: butt}</style>
 </defs>
 <g id="figure_1">
  <g id="patch_1">
   <path d="M 0 432 
L 720 432 
L 720 0 
L 0 0 
z
" style="fill: #ffffff"/>
  </g>
  <g id="axes_1">
   <g id="patch_2">
    <path d="M 73.37 390.04 
L 554.8 390.04 
L 554.8 25.44 
L 73.37 25.44 
z
" style="fill: #ffffff"/>
   </g>
   <g id="matplotlib.axis_1">
    <g id="xtick_1">
     <g id="line2d_1">
      <defs>
       <path id="md0c0dd5ecd" d="M 0 0 
L 0 3.5 
" style="stroke: #000000; stroke-width: 0.8"/>
      </defs>
      <g>
       <use xlink:href="#md0c0dd5ecd" x="95.253182" y="390.04" style="stroke: #000000; stroke-width: 0.8"/>
      </g>
     </g>
     <g id="text_1">
      <!-- 1984 -->
      <g transform="translate(82.528182 404.638438) scale(0.1 -0.1)">
       <defs>
        <path id="DejaVuSans-31" d="M 794 531 
L 1825 531 
L 1825 4091 
L 703 3866 
L 703 4441 
L 1819 4666 
L 2450 4666 
L 2450 531 
L 3481 531 
L 3481 0 
L 794 0 
L 794 531 
z
" transform="scale(0.015625)"/>
        <path id="DejaVuSans-39" d="M 703 97 
L 703 672 
Q 941 559 1184 500 
Q 1428 441 1663 441 
Q 2288 441 2617 861 
Q 2947 1281 2994 2138 
Q 2813 1869 2534 1725 
Q 2256 1581 1919 1581 
Q 1219 1581 811 2004 
Q 403 2428 403 3163 
Q 403 3881 828 4315 
Q 1253 4750 1959 4750 
Q 2769 4750 3195 4129 
Q 3622 3509 3622 2328 
Q 3622 1225 3098 567 
Q 2575 -91 1691 -91 
Q 1453 -91 1209 -44 
Q 966 3 703 97 
z
M 1959 2075 
Q 2384 2075 2632 2365 
Q 2881 2656 2881 3163 
Q 2881 3666 2632 3958 
Q 2384 4250 1959 4250 
Q 1534 4250 1286 3958 
Q 1038 3666 1038 3163 
Q 1038 2656 1286 2365 
Q 1534 2075 1959 2075 
z
" transform="scale(0.015625)"/>
        <path id="DejaVuSans-38" d="M 2034 2216 
Q 1584 2216 1326 1975 
Q 1069 1734 1069 1313 
Q 1069 891 1326 650 
Q 1584 409 2034 409 
Q 2484 409 2743 651 
Q 3003 894 3003 1313 
Q 3003 1734 2745 1975 
Q 2488 2216 2034 2216 
z
M 1403 2484 
Q 997 2584 770 2862 
Q 544 3141 544 3541 
Q 544 4100 942 4425 
Q 1341 4750 2034 4750 
Q 2731 4750 3128 4425 
Q 3525 4100 3525 3541 
Q 3525 3141 3298 2862 
Q 3072 2584 2669 2484 
Q 3125 2378 3379 2068 
Q 3634 1759 3634 1313 
Q 3634 634 3220 271 
Q 2806 -91 2034 -91 
Q 1263 -91 848 271 
Q 434 634 434 1313 
Q 434 1759 690 2068 
Q 947 2378 1403 2484 
z
M 1172 3481 
Q 1172 3119 1398 2916 
Q 1625 2713 2034 2713 
Q 2441 2713 2670 2916 
Q 2900 3119 2900 3481 
Q 2900 3844 2670 4047 
Q 2441 4250 2034 4250 
Q 1625 4250 1398 4047 
Q 1172 3844 1172 3481 
z
" transform="scale(0.015625)"/>
        <path id="DejaVuSans-34" d="M 2419 4116 
L 825 1625 
L 2419 1625 
L 2419 4116 
z
M 2253 4666 
L 3047 4666 
L 3047 1625 
L 3713 1625 
L 3713 1100 
L 3047 1100 
L 3047 0 
L 2419 0 
L 2419 1100 
L 313 1100 
L 313 1709 
L 2253 4666 
z
" transform="scale(0.015625)"/>
       </defs>
       <use xlink:href="#DejaVuSans-31"/>
       <use xlink:href="#DejaVuSans-39" x="63.623047"/>
       <use xlink:href="#DejaVuSans-38" x="127.246094"/>
       <use xlink:href="#DejaVuSans-34" x="190.869141"/>
      </g>
     </g>
    </g>
    <g id="xtick_2">
     <g id="line2d_2">
      <g>
       <use xlink:href="#md0c0dd5ecd" x="182.785909" y="390.04" style="stroke: #000000; stroke-width: 0.8"/>
      </g>
     </g>
     <g id="text_2">
      <!-- 1986 -->
      <g transform="translate(170.060909 404.638438) scale(0.1 -0.1)">
       <defs>
        <path id="DejaVuSans-36" d="M 2113 2584 
Q 1688 2584 1439 2293 
Q 1191 2003 1191 1497 
Q 1191 994 1439 701 
Q 1688 409 2113 409 
Q 2538 409 2786 701 
Q 3034 994 3034 1497 
Q 3034 2003 2786 2293 
Q 2538 2584 2113 2584 
z
M 3366 4563 
L 3366 3988 
Q 3128 4100 2886 4159 
Q 2644 4219 2406 4219 
Q 1781 4219 1451 3797 
Q 1122 3375 1075 2522 
Q 1259 2794 1537 2939 
Q 1816 3084 2150 3084 
Q 2853 3084 3261 2657 
Q 3669 2231 3669 1497 
Q 3669 778 3244 343 
Q 2819 -91 2113 -91 
Q 1303 -91 875 529 
Q 447 1150 447 2328 
Q 447 3434 972 4092 
Q 1497 4750 2381 4750 
Q 2619 4750 2861 4703 
Q 3103 4656 3366 4563 
z
" transform="scale(0.015625)"/>
       </defs>
       <use xlink:href="#DejaVuSans-31"/>
       <use xlink:href="#DejaVuSans-39" x="63.623047"/>
       <use xlink:href="#DejaVuSans-38" x="127.246094"/>
       <use xlink:href="#DejaVuSans-36" x="190.869141"/>
      </g>
     </g>
    </g>
    <g id="xtick_3">
     <g id="line2d_3">
      <g>
       <use xlink:href="#md0c0dd5ecd" x="270.318636" y="390.04" style="stroke: #000000; stroke-width: 0.8"/>
      </g>
     </g>
     <g id="text_3">
      <!-- 1988 -->
      <g transform="translate(257.593636 404.638438) scale(0.1 -0.1)">
       <use xlink:href="#DejaVuSans-31"/>
       <use xlink:href="#DejaVuSans-39" x="63.623047"/>
       <use xlink:href="#DejaVuSans-38" x="127.246094"/>
       <use xlink:href="#DejaVuSans-38" x="190.869141"/>
      </g>
     </g>
    </g>
    <g id="xtick_4">
     <g id="line2d_4">
      <g>
       <use xlink:href="#md0c0dd5ecd" x="357.851364" y="390.04" style="stroke: #000000; stroke-width: 0.8"/>
      </g>
     </g>
     <g id="text_4">
      <!-- 1990 -->
      <g transform="translate(345.126364 404.638438) scale(0.1 -0.1)">
       <defs>
        <path id="DejaVuSans-30" d="M 2034 4250 
Q 1547 4250 1301 3770 
Q 1056 3291 1056 2328 
Q 1056 1369 1301 889 
Q 1547 409 2034 409 
Q 2525 409 2770 889 
Q 3016 1369 3016 2328 
Q 3016 3291 2770 3770 
Q 2525 4250 2034 4250 
z
M 2034 4750 
Q 2819 4750 3233 4129 
Q 3647 3509 3647 2328 
Q 3647 1150 3233 529 
Q 2819 -91 2034 -91 
Q 1250 -91 836 529 
Q 422 1150 422 2328 
Q 422 3509 836 4129 
Q 1250 4750 2034 4750 
z
" transform="scale(0.015625)"/>
       </defs>
       <use xlink:href="#DejaVuSans-31"/>
       <use xlink:href="#DejaVuSans-39" x="63.623047"/>
       <use xlink:href="#DejaVuSans-39" x="127.246094"/>
       <use xlink:href="#DejaVuSans-30" x="190.869141"/>
      </g>
     </g>
    </g>
    <g id="xtick_5">
     <g id="line2d_5">
      <g>
       <use xlink:href="#md0c0dd5ecd" x="445.384091" y="390.04" style="stroke: #000000; stroke-width: 0.8"/>
      </g>
     </g>
     <g id="text_5">
      <!-- 1992 -->
      <g transform="translate(432.659091 404.638438) scale(0.1 -0.1)">
       <defs>
        <path id="DejaVuSans-32" d="M 1228 531 
L 3431 531 
L 3431 0 
L 469 0 
L 469 531 
Q 828 903 1448 1529 
Q 2069 2156 2228 2338 
Q 2531 2678 2651 2914 
Q 2772 3150 2772 3378 
Q 2772 3750 2511 3984 
Q 2250 4219 1831 4219 
Q 1534 4219 1204 4116 
Q 875 4013 500 3803 
L 500 4441 
Q 881 4594 1212 4672 
Q 1544 4750 1819 4750 
Q 2544 4750 2975 4387 
Q 3406 4025 3406 3419 
Q 3406 3131 3298 2873 
Q 3191 2616 2906 2266 
Q 2828 2175 2409 1742 
Q 1991 1309 1228 531 
z
" transform="scale(0.015625)"/>
       </defs>
       <use xlink:href="#DejaVuSans-31"/>
       <use xlink:href="#DejaVuSans-39" x="63.623047"/>
       <use xlink:href="#DejaVuSans-39" x="127.246094"/>
       <use xlink:href="#DejaVuSans-32" x="190.869141"/>
      </g>
     </g>
    </g>
    <g id="xtick_6">
     <g id="line2d_6">
      <g>
       <use xlink:href="#md0c0dd5ecd" x="532.916818" y="390.04" style="stroke: #000000; stroke-width: 0.8"/>
      </g>
     </g>
     <g id="text_6">
      <!-- 1994 -->
      <g transform="translate(520.191818 404.638438) scale(0.1 -0.1)">
       <use xlink:href="#DejaVuSans-31"/>
       <use xlink:href="#DejaVuSans-39" x="63.623047"/>
       <use xlink:href="#DejaVuSans-39" x="127.246094"/>
       <use xlink:href="#DejaVuSans-34" x="190.869141"/>
      </g>
     </g>
    </g>
    <g id="text_7">
     <!-- Publication Year -->
     <g transform="translate(274.469375 418.316562) scale(0.1 -0.1)">
      <defs>
       <path id="DejaVuSans-50" d="M 1259 4147 
L 1259 2394 
L 2053 2394 
Q 2494 2394 2734 2622 
Q 2975 2850 2975 3272 
Q 2975 3691 2734 3919 
Q 2494 4147 2053 4147 
L 1259 4147 
z
M 628 4666 
L 2053 4666 
Q 2838 4666 3239 4311 
Q 3641 3956 3641 3272 
Q 3641 2581 3239 2228 
Q 2838 1875 2053 1875 
L 1259 1875 
L 1259 0 
L 628 0 
L 628 4666 
z
" transform="scale(0.015625)"/>
       <path id="DejaVuSans-75" d="M 544 1381 
L 544 3500 
L 1119 3500 
L 1119 1403 
Q 1119 906 1312 657 
Q 1506 409 1894 409 
Q 2359 409 2629 706 
Q 2900 1003 2900 1516 
L 2900 3500 
L 3475 3500 
L 3475 0 
L 2900 0 
L 2900 538 
Q 2691 219 2414 64 
Q 2138 -91 1772 -91 
Q 1169 -91 856 284 
Q 544 659 544 1381 
z
M 1991 3584 
L 1991 3584 
z
" transform="scale(0.015625)"/>
       <path id="DejaVuSans-62" d="M 3116 1747 
Q 3116 2381 2855 2742 
Q 2594 3103 2138 3103 
Q 1681 3103 1420 2742 
Q 1159 2381 1159 1747 
Q 1159 1113 1420 752 
Q 1681 391 2138 391 
Q 2594 391 2855 752 
Q 3116 1113 3116 1747 
z
M 1159 2969 
Q 1341 3281 1617 3432 
Q 1894 3584 2278 3584 
Q 2916 3584 3314 3078 
Q 3713 2572 3713 1747 
Q 3713 922 3314 415 
Q 2916 -91 2278 -91 
Q 1894 -91 1617 61 
Q 1341 213 1159 525 
L 1159 0 
L 581 0 
L 581 4863 
L 1159 4863 
L 1159 2969 
z
" transform="scale(0.015625)"/>
       <path id="DejaVuSans-6c" d="M 603 4863 
L 1178 4863 
L 1178 0 
L 603 0 
L 603 4863 
z
" transform="scale(0.015625)"/>
       <path id="DejaVuSans-69" d="M 603 3500 
L 1178 3500 
L 1178 0 
L 603 0 
L 603 3500 
z
M 603 4863 
L 1178 4863 
L 1178 4134 
L 603 4134 
L 603 4863 
z
" transform="scale(0.015625)"/>
       <path id="DejaVuSans-63" d="M 3122 3366 
L 3122 2828 
Q 2878 2963 2633 3030 
Q 2388 3097 2138 3097 
Q 1578 3097 1268 2742 
Q 959 2388 959 1747 
Q 959 1106 1268 751 
Q 1578 397 2138 397 
Q 2388 397 2633 464 
Q 2878 531 3122 666 
L 3122 134 
Q 2881 22 2623 -34 
Q 2366 -91 2075 -91 
Q 1284 -91 818 406 
Q 353 903 353 1747 
Q 353 2603 823 3093 
Q 1294 3584 2113 3584 
Q 2378 3584 2631 3529 
Q 2884 3475 3122 3366 
z
" transform="scale(0.015625)"/>
       <path id="DejaVuSans-61" d="M 2194 1759 
Q 1497 1759 1228 1600 
Q 959 1441 959 1056 
Q 959 750 1161 570 
Q 1363 391 1709 391 
Q 2188 391 2477 730 
Q 2766 1069 2766 1631 
L 2766 1759 
L 2194 1759 
z
M 3341 1997 
L 3341 0 
L 2766 0 
L 2766 531 
Q 2569 213 2275 61 
Q 1981 -91 1556 -91 
Q 1019 -91 701 211 
Q 384 513 384 1019 
Q 384 1609 779 1909 
Q 1175 2209 1959 2209 
L 2766 2209 
L 2766 2266 
Q 2766 2663 2505 2880 
Q 2244 3097 1772 3097 
Q 1472 3097 1187 3025 
Q 903 2953 641 2809 
L 641 3341 
Q 956 3463 1253 3523 
Q 1550 3584 1831 3584 
Q 2591 3584 2966 3190 
Q 3341 2797 3341 1997 
z
" transform="scale(0.015625)"/>
       <path id="DejaVuSans-74" d="M 1172 4494 
L 1172 3500 
L 2356 3500 
L 2356 3053 
L 1172 3053 
L 1172 1153 
Q 1172 725 1289 603 
Q 1406 481 1766 481 
L 2356 481 
L 2356 0 
L 1766 0 
Q 1100 0 847 248 
Q 594 497 594 1153 
L 594 3053 
L 172 3053 
L 172 3500 
L 594 3500 
L 594 4494 
L 1172 4494 
z
" transform="scale(0.015625)"/>
       <path id="DejaVuSans-6f" d="M 1959 3097 
Q 1497 3097 1228 2736 
Q 959 2375 959 1747 
Q 959 1119 1226 758 
Q 1494 397 1959 397 
Q 2419 397 2687 759 
Q 2956 1122 2956 1747 
Q 2956 2369 2687 2733 
Q 2419 3097 1959 3097 
z
M 1959 3584 
Q 2709 3584 3137 3096 
Q 3566 2609 3566 1747 
Q 3566 888 3137 398 
Q 2709 -91 1959 -91 
Q 1206 -91 779 398 
Q 353 888 353 1747 
Q 353 2609 779 3096 
Q 1206 3584 1959 3584 
z
" transform="scale(0.015625)"/>
       <path id="DejaVuSans-6e" d="M 3513 2113 
L 3513 0 
L 2938 0 
L 2938 2094 
Q 2938 2591 2744 2837 
Q 2550 3084 2163 3084 
Q 1697 3084 1428 2787 
Q 1159 2491 1159 1978 
L 1159 0 
L 581 0 
L 581 3500 
L 1159 3500 
L 1159 2956 
Q 1366 3272 1645 3428 
Q 1925 3584 2291 3584 
Q 2894 3584 3203 3211 
Q 3513 2838 3513 2113 
z
" transform="scale(0.015625)"/>
       <path id="DejaVuSans-20" transform="scale(0.015625)"/>
       <path id="DejaVuSans-59" d="M -13 4666 
L 666 4666 
L 1959 2747 
L 3244 4666 
L 3922 4666 
L 2272 2222 
L 2272 0 
L 1638 0 
L 1638 2222 
L -13 4666 
z
" transform="scale(0.015625)"/>
       <path id="DejaVuSans-65" d="M 3597 1894 
L 3597 1613 
L 953 1613 
Q 991 1019 1311 708 
Q 1631 397 2203 397 
Q 2534 397 2845 478 
Q 3156 559 3463 722 
L 3463 178 
Q 3153 47 2828 -22 
Q 2503 -91 2169 -91 
Q 1331 -91 842 396 
Q 353 884 353 1716 
Q 353 2575 817 3079 
Q 1281 3584 2069 3584 
Q 2775 3584 3186 3129 
Q 3597 2675 3597 1894 
z
M 3022 2063 
Q 3016 2534 2758 2815 
Q 2500 3097 2075 3097 
Q 1594 3097 1305 2825 
Q 1016 2553 972 2059 
L 3022 2063 
z
" transform="scale(0.015625)"/>
       <path id="DejaVuSans-72" d="M 2631 2963 
Q 2534 3019 2420 3045 
Q 2306 3072 2169 3072 
Q 1681 3072 1420 2755 
Q 1159 2438 1159 1844 
L 1159 0 
L 581 0 
L 581 3500 
L 1159 3500 
L 1159 2956 
Q 1341 3275 1631 3429 
Q 1922 3584 2338 3584 
Q 2397 3584 2469 3576 
Q 2541 3569 2628 3553 
L 2631 2963 
z
" transform="scale(0.015625)"/>
      </defs>
      <use xlink:href="#DejaVuSans-50"/>
      <use xlink:href="#DejaVuSans-75" x="58.552734"/>
      <use xlink:href="#DejaVuSans-62" x="121.931641"/>
      <use xlink:href="#DejaVuSans-6c" x="185.408203"/>
      <use xlink:href="#DejaVuSans-69" x="213.191406"/>
      <use xlink:href="#DejaVuSans-63" x="240.974609"/>
      <use xlink:href="#DejaVuSans-61" x="295.955078"/>
      <use xlink:href="#DejaVuSans-74" x="357.234375"/>
      <use xlink:href="#DejaVuSans-69" x="396.443359"/>
      <use xlink:href="#DejaVuSans-6f" x="424.226562"/>
      <use xlink:href="#DejaVuSans-6e" x="485.408203"/>
      <use xlink:href="#DejaVuSans-20" x="548.787109"/>
      <use xlink:href="#DejaVuSans-59" x="580.574219"/>
      <use xlink:href="#DejaVuSans-65" x="628.408203"/>
      <use xlink:href="#DejaVuSans-61" x="689.931641"/>
      <use xlink:href="#DejaVuSans-72" x="751.210938"/>
     </g>
    </g>
   </g>
   <g id="matplotlib.axis_2">
    <g id="ytick_1">
     <g id="line2d_7">
      <defs>
       <path id="m9593f0750f" d="M 0 0 
L -3.5 0 
" style="stroke: #000000; stroke-width: 0.8"/>
      </defs>
      <g>
       <use xlink:href="#m9593f0750f" x="73.37" y="373.59972" style="stroke: #000000; stroke-width: 0.8"/>
      </g>
     </g>
     <g id="text_8">
      <!-- 0 -->
      <g transform="translate(60.0075 377.398938) scale(0.1 -0.1)">
       <use xlink:href="#DejaVuSans-30"/>
      </g>
     </g>
    </g>
    <g id="ytick_2">
     <g id="line2d_8">
      <g>
       <use xlink:href="#m9593f0750f" x="73.37" y="295.228702" style="stroke: #000000; stroke-width: 0.8"/>
      </g>
     </g>
     <g id="text_9">
      <!-- 100,000 -->
      <g transform="translate(25.016875 299.027921) scale(0.1 -0.1)">
       <defs>
        <path id="DejaVuSans-2c" d="M 750 794 
L 1409 794 
L 1409 256 
L 897 -744 
L 494 -744 
L 750 256 
L 750 794 
z
" transform="scale(0.015625)"/>
       </defs>
       <use xlink:href="#DejaVuSans-31"/>
       <use xlink:href="#DejaVuSans-30" x="63.623047"/>
       <use xlink:href="#DejaVuSans-30" x="127.246094"/>
       <use xlink:href="#DejaVuSans-2c" x="190.869141"/>
       <use xlink:href="#DejaVuSans-30" x="222.65625"/>
       <use xlink:href="#DejaVuSans-30" x="286.279297"/>
       <use xlink:href="#DejaVuSans-30" x="349.902344"/>
      </g>
     </g>
    </g>
    <g id="ytick_3">
     <g id="line2d_9">
      <g>
       <use xlink:href="#m9593f0750f" x="73.37" y="216.857684" style="stroke: #000000; stroke-width: 0.8"/>
      </g>
     </g>
     <g id="text_10">
      <!-- 200,000 -->
      <g transform="translate(25.016875 220.656903) scale(0.1 -0.1)">
       <use xlink:href="#DejaVuSans-32"/>
       <use xlink:href="#DejaVuSans-30" x="63.623047"/>
       <use xlink:href="#DejaVuSans-30" x="127.246094"/>
       <use xlink:href="#DejaVuSans-2c" x="190.869141"/>
       <use xlink:href="#DejaVuSans-30" x="222.65625"/>
       <use xlink:href="#DejaVuSans-30" x="286.279297"/>
       <use xlink:href="#DejaVuSans-30" x="349.902344"/>
      </g>
     </g>
    </g>
    <g id="ytick_4">
     <g id="line2d_10">
      <g>
       <use xlink:href="#m9593f0750f" x="73.37" y="138.486666" style="stroke: #000000; stroke-width: 0.8"/>
      </g>
     </g>
     <g id="text_11">
      <!-- 300,000 -->
      <g transform="translate(25.016875 142.285885) scale(0.1 -0.1)">
       <defs>
        <path id="DejaVuSans-33" d="M 2597 2516 
Q 3050 2419 3304 2112 
Q 3559 1806 3559 1356 
Q 3559 666 3084 287 
Q 2609 -91 1734 -91 
Q 1441 -91 1130 -33 
Q 819 25 488 141 
L 488 750 
Q 750 597 1062 519 
Q 1375 441 1716 441 
Q 2309 441 2620 675 
Q 2931 909 2931 1356 
Q 2931 1769 2642 2001 
Q 2353 2234 1838 2234 
L 1294 2234 
L 1294 2753 
L 1863 2753 
Q 2328 2753 2575 2939 
Q 2822 3125 2822 3475 
Q 2822 3834 2567 4026 
Q 2313 4219 1838 4219 
Q 1578 4219 1281 4162 
Q 984 4106 628 3988 
L 628 4550 
Q 988 4650 1302 4700 
Q 1616 4750 1894 4750 
Q 2613 4750 3031 4423 
Q 3450 4097 3450 3541 
Q 3450 3153 3228 2886 
Q 3006 2619 2597 2516 
z
" transform="scale(0.015625)"/>
       </defs>
       <use xlink:href="#DejaVuSans-33"/>
       <use xlink:href="#DejaVuSans-30" x="63.623047"/>
       <use xlink:href="#DejaVuSans-30" x="127.246094"/>
       <use xlink:href="#DejaVuSans-2c" x="190.869141"/>
       <use xlink:href="#DejaVuSans-30" x="222.65625"/>
       <use xlink:href="#DejaVuSans-30" x="286.279297"/>
       <use xlink:href="#DejaVuSans-30" x="349.902344"/>
      </g>
     </g>
    </g>
    <g id="ytick_5">
     <g id="line2d_11">
      <g>
       <use xlink:href="#m9593f0750f" x="73.37" y="60.115649" style="stroke: #000000; stroke-width: 0.8"/>
      </g>
     </g>
     <g id="text_12">
      <!-- 400,000 -->
      <g transform="translate(25.016875 63.914867) scale(0.1 -0.1)">
       <use xlink:href="#DejaVuSans-34"/>
       <use xlink:href="#DejaVuSans-30" x="63.623047"/>
       <use xlink:href="#DejaVuSans-30" x="127.246094"/>
       <use xlink:href="#DejaVuSans-2c" x="190.869141"/>
       <use xlink:href="#DejaVuSans-30" x="222.65625"/>
       <use xlink:href="#DejaVuSans-30" x="286.279297"/>
       <use xlink:href="#DejaVuSans-30" x="349.902344"/>
      </g>
     </g>
    </g>
    <g id="text_13">
     <!-- Number of Works -->
     <g transform="translate(18.937187 251.088437) rotate(-90) scale(0.1 -0.1)">
      <defs>
       <path id="DejaVuSans-4e" d="M 628 4666 
L 1478 4666 
L 3547 763 
L 3547 4666 
L 4159 4666 
L 4159 0 
L 3309 0 
L 1241 3903 
L 1241 0 
L 628 0 
L 628 4666 
z
" transform="scale(0.015625)"/>
       <path id="DejaVuSans-6d" d="M 3328 2828 
Q 3544 3216 3844 3400 
Q 4144 3584 4550 3584 
Q 5097 3584 5394 3201 
Q 5691 2819 5691 2113 
L 5691 0 
L 5113 0 
L 5113 2094 
Q 5113 2597 4934 2840 
Q 4756 3084 4391 3084 
Q 3944 3084 3684 2787 
Q 3425 2491 3425 1978 
L 3425 0 
L 2847 0 
L 2847 2094 
Q 2847 2600 2669 2842 
Q 2491 3084 2119 3084 
Q 1678 3084 1418 2786 
Q 1159 2488 1159 1978 
L 1159 0 
L 581 0 
L 581 3500 
L 1159 3500 
L 1159 2956 
Q 1356 3278 1631 3431 
Q 1906 3584 2284 3584 
Q 2666 3584 2933 3390 
Q 3200 3197 3328 2828 
z
" transform="scale(0.015625)"/>
       <path id="DejaVuSans-66" d="M 2375 4863 
L 2375 4384 
L 1825 4384 
Q 1516 4384 1395 4259 
Q 1275 4134 1275 3809 
L 1275 3500 
L 2222 3500 
L 2222 3053 
L 1275 3053 
L 1275 0 
L 697 0 
L 697 3053 
L 147 3053 
L 147 3500 
L 697 3500 
L 697 3744 
Q 697 4328 969 4595 
Q 1241 4863 1831 4863 
L 2375 4863 
z
" transform="scale(0.015625)"/>
       <path id="DejaVuSans-57" d="M 213 4666 
L 850 4666 
L 1831 722 
L 2809 4666 
L 3519 4666 
L 4500 722 
L 5478 4666 
L 6119 4666 
L 4947 0 
L 4153 0 
L 3169 4050 
L 2175 0 
L 1381 0 
L 213 4666 
z
" transform="scale(0.015625)"/>
       <path id="DejaVuSans-6b" d="M 581 4863 
L 1159 4863 
L 1159 1991 
L 2875 3500 
L 3609 3500 
L 1753 1863 
L 3688 0 
L 2938 0 
L 1159 1709 
L 1159 0 
L 581 0 
L 581 4863 
z
" transform="scale(0.015625)"/>
       <path id="DejaVuSans-73" d="M 2834 3397 
L 2834 2853 
Q 2591 2978 2328 3040 
Q 2066 3103 1784 3103 
Q 1356 3103 1142 2972 
Q 928 2841 928 2578 
Q 928 2378 1081 2264 
Q 1234 2150 1697 2047 
L 1894 2003 
Q 2506 1872 2764 1633 
Q 3022 1394 3022 966 
Q 3022 478 2636 193 
Q 2250 -91 1575 -91 
Q 1294 -91 989 -36 
Q 684 19 347 128 
L 347 722 
Q 666 556 975 473 
Q 1284 391 1588 391 
Q 1994 391 2212 530 
Q 2431 669 2431 922 
Q 2431 1156 2273 1281 
Q 2116 1406 1581 1522 
L 1381 1569 
Q 847 1681 609 1914 
Q 372 2147 372 2553 
Q 372 3047 722 3315 
Q 1072 3584 1716 3584 
Q 2034 3584 2315 3537 
Q 2597 3491 2834 3397 
z
" transform="scale(0.015625)"/>
      </defs>
      <use xlink:href="#DejaVuSans-4e"/>
      <use xlink:href="#DejaVuSans-75" x="74.804688"/>
      <use xlink:href="#DejaVuSans-6d" x="138.183594"/>
      <use xlink:href="#DejaVuSans-62" x="235.595703"/>
      <use xlink:href="#DejaVuSans-65" x="299.072266"/>
      <use xlink:href="#DejaVuSans-72" x="360.595703"/>
      <use xlink:href="#DejaVuSans-20" x="401.708984"/>
      <use xlink:href="#DejaVuSans-6f" x="433.496094"/>
      <use xlink:href="#DejaVuSans-66" x="494.677734"/>
      <use xlink:href="#DejaVuSans-20" x="529.882812"/>
      <use xlink:href="#DejaVuSans-57" x="561.669922"/>
      <use xlink:href="#DejaVuSans-6f" x="654.671875"/>
      <use xlink:href="#DejaVuSans-72" x="715.853516"/>
      <use xlink:href="#DejaVuSans-6b" x="756.966797"/>
      <use xlink:href="#DejaVuSans-73" x="814.876953"/>
     </g>
    </g>
   </g>
   <g id="line2d_12">
    <path d="M 95.253182 336.69324 
L 139.019545 335.179112 
L 182.785909 332.507444 
L 226.552273 329.918849 
L 270.318636 327.070063 
L 314.085 324.711879 
L 357.851364 321.841148 
L 401.617727 321.137377 
L 445.384091 317.355975 
L 489.150455 313.138831 
L 532.916818 309.279058 
" clip-path="url(#p8e12400ba3)" style="fill: none; stroke: #1f77b4; stroke-width: 1.5; stroke-linecap: square"/>
   </g>
   <g id="line2d_13">
    <path d="M 95.253182 290.965319 
L 139.019545 287.550693 
L 182.785909 280.878969 
L 226.552273 275.657891 
L 270.318636 270.810644 
L 314.085 263.928101 
L 357.851364 239.96773 
L 401.617727 253.721844 
L 445.384091 247.936495 
L 489.150455 243.195048 
L 532.916818 234.223134 
" clip-path="url(#p8e12400ba3)" style="fill: none; stroke: #aec7e8; stroke-width: 1.5; stroke-linecap: square"/>
   </g>
   <g id="line2d_14">
    <path d="M 95.253182 342.331251 
L 139.019545 340.754426 
L 182.785909 338.047491 
L 226.552273 336.313924 
L 270.318636 332.946322 
L 314.085 330.117128 
L 357.851364 323.384274 
L 401.617727 324.506547 
L 445.384091 321.141295 
L 489.150455 316.262699 
L 532.916818 311.86295 
" clip-path="url(#p8e12400ba3)" style="fill: none; stroke: #ff7f0e; stroke-width: 1.5; stroke-linecap: square"/>
   </g>
   <g id="line2d_15">
    <path d="M 95.253182 239.804718 
L 139.019545 237.198882 
L 182.785909 233.29287 
L 226.552273 225.442445 
L 270.318636 222.143026 
L 314.085 219.555998 
L 357.851364 208.476688 
L 401.617727 213.240862 
L 445.384091 211.756515 
L 489.150455 209.069956 
L 532.916818 203.504046 
" clip-path="url(#p8e12400ba3)" style="fill: none; stroke: #ffbb78; stroke-width: 1.5; stroke-linecap: square"/>
   </g>
   <g id="line2d_16">
    <path d="M 95.253182 207.309743 
L 139.019545 199.459318 
L 182.785909 186.247532 
L 226.552273 178.221556 
L 270.318636 162.878078 
L 314.085 135.819701 
L 357.851364 117.422888 
L 401.617727 104.377248 
L 445.384091 87.801778 
L 489.150455 71.74434 
L 532.916818 42.012727 
" clip-path="url(#p8e12400ba3)" style="fill: none; stroke: #2ca02c; stroke-width: 1.5; stroke-linecap: square"/>
   </g>
   <g id="line2d_17">
    <path d="M 95.253182 360.679474 
L 139.019545 360.134011 
L 182.785909 359.02271 
L 226.552273 358.142604 
L 270.318636 357.523473 
L 314.085 355.814985 
L 357.851364 354.992873 
L 401.617727 354.581425 
L 445.384091 353.6974 
L 489.150455 352.850209 
L 532.916818 351.949726 
" clip-path="url(#p8e12400ba3)" style="fill: none; stroke: #98df8a; stroke-width: 1.5; stroke-linecap: square"/>
   </g>
   <g id="line2d_18">
    <path d="M 95.253182 357.360461 
L 139.019545 356.854968 
L 182.785909 356.51954 
L 226.552273 355.376891 
L 270.318636 354.557914 
L 314.085 353.295356 
L 357.851364 351.776526 
L 401.617727 351.634675 
L 445.384091 349.981046 
L 489.150455 348.943414 
L 532.916818 348.405789 
" clip-path="url(#p8e12400ba3)" style="fill: none; stroke: #d62728; stroke-width: 1.5; stroke-linecap: square"/>
   </g>
   <g id="line2d_19">
    <path d="M 95.253182 339.695634 
L 139.019545 340.266175 
L 182.785909 338.826499 
L 226.552273 337.99028 
L 270.318636 336.226933 
L 314.085 334.507472 
L 357.851364 325.239316 
L 401.617727 330.743312 
L 445.384091 328.317729 
L 489.150455 325.70484 
L 532.916818 322.500249 
" clip-path="url(#p8e12400ba3)" style="fill: none; stroke: #ff9896; stroke-width: 1.5; stroke-linecap: square"/>
   </g>
   <g id="line2d_20">
    <path d="M 95.253182 340.594549 
L 139.019545 340.295956 
L 182.785909 338.386054 
L 226.552273 337.031803 
L 270.318636 335.665796 
L 314.085 333.935364 
L 357.851364 326.928211 
L 401.617727 329.793456 
L 445.384091 327.303608 
L 489.150455 324.609997 
L 532.916818 322.113096 
" clip-path="url(#p8e12400ba3)" style="fill: none; stroke: #9467bd; stroke-width: 1.5; stroke-linecap: square"/>
   </g>
   <g id="line2d_21">
    <path d="M 95.253182 337.391526 
L 139.019545 336.216744 
L 182.785909 335.972227 
L 226.552273 333.90715 
L 270.318636 330.856167 
L 314.085 330.060701 
L 357.851364 327.042633 
L 401.617727 325.890579 
L 445.384091 325.226776 
L 489.150455 323.406218 
L 532.916818 323.133487 
" clip-path="url(#p8e12400ba3)" style="fill: none; stroke: #c5b0d5; stroke-width: 1.5; stroke-linecap: square"/>
   </g>
   <g id="line2d_22">
    <path d="M 95.253182 346.381465 
L 139.019545 346.941034 
L 182.785909 345.585999 
L 226.552273 344.570311 
L 270.318636 342.716836 
L 314.085 340.661165 
L 357.851364 339.385285 
L 401.617727 337.94796 
L 445.384091 337.224596 
L 489.150455 335.422062 
L 532.916818 335.129738 
" clip-path="url(#p8e12400ba3)" style="fill: none; stroke: #8c564b; stroke-width: 1.5; stroke-linecap: square"/>
   </g>
   <g id="line2d_23">
    <path d="M 95.253182 314.147466 
L 139.019545 308.750054 
L 182.785909 305.934183 
L 226.552273 299.434091 
L 270.318636 294.035111 
L 314.085 287.356333 
L 357.851364 282.153281 
L 401.617727 274.225269 
L 445.384091 272.246401 
L 489.150455 266.016689 
L 532.916818 262.267419 
" clip-path="url(#p8e12400ba3)" style="fill: none; stroke: #c49c94; stroke-width: 1.5; stroke-linecap: square"/>
   </g>
   <g id="line2d_24">
    <path d="M 95.253182 337.387607 
L 139.019545 336.379756 
L 182.785909 334.5302 
L 226.552273 332.651647 
L 270.318636 329.842829 
L 314.085 327.96506 
L 357.851364 324.604511 
L 401.617727 323.571581 
L 445.384091 319.790963 
L 489.150455 318.66242 
L 532.916818 315.526012 
" clip-path="url(#p8e12400ba3)" style="fill: none; stroke: #e377c2; stroke-width: 1.5; stroke-linecap: square"/>
   </g>
   <g id="line2d_25">
    <path d="M 95.253182 185.053158 
L 139.019545 176.435481 
L 182.785909 167.620309 
L 226.552273 150.765054 
L 270.318636 140.895792 
L 314.085 127.126787 
L 357.851364 115.529444 
L 401.617727 114.851535 
L 445.384091 115.377404 
L 489.150455 106.152352 
L 532.916818 98.923409 
" clip-path="url(#p8e12400ba3)" style="fill: none; stroke: #f7b6d2; stroke-width: 1.5; stroke-linecap: square"/>
   </g>
   <g id="line2d_26">
    <path d="M 95.253182 373.467273 
L 139.019545 373.444545 
L 182.785909 373.436708 
L 226.552273 373.443761 
L 270.318636 373.307396 
L 314.085 373.415548 
L 357.851364 373.425736 
L 401.617727 373.406143 
L 445.384091 373.421818 
L 489.150455 373.425736 
L 532.916818 373.409278 
" clip-path="url(#p8e12400ba3)" style="fill: none; stroke: #7f7f7f; stroke-width: 1.5; stroke-linecap: square"/>
   </g>
   <g id="line2d_27">
    <path d="M 95.253182 337.952662 
L 139.019545 336.436967 
L 182.785909 333.978468 
L 226.552273 332.412615 
L 270.318636 329.879664 
L 314.085 327.720542 
L 357.851364 325.630387 
L 401.617727 324.903888 
L 445.384091 322.289431 
L 489.150455 318.921828 
L 532.916818 315.127103 
" clip-path="url(#p8e12400ba3)" style="fill: none; stroke: #c7c7c7; stroke-width: 1.5; stroke-linecap: square"/>
   </g>
   <g id="line2d_28">
    <path d="M 95.253182 322.553541 
L 139.019545 319.550364 
L 182.785909 317.902221 
L 226.552273 314.315963 
L 270.318636 312.685846 
L 314.085 308.955386 
L 357.851364 305.989043 
L 401.617727 304.124596 
L 445.384091 301.944314 
L 489.150455 296.666026 
L 532.916818 293.727113 
" clip-path="url(#p8e12400ba3)" style="fill: none; stroke: #bcbd22; stroke-width: 1.5; stroke-linecap: square"/>
   </g>
   <g id="line2d_29">
    <path d="M 95.253182 317.202368 
L 139.019545 314.646689 
L 182.785909 310.351957 
L 226.552273 305.982773 
L 270.318636 302.377706 
L 314.085 296.769476 
L 357.851364 290.125965 
L 401.617727 288.436286 
L 445.384091 282.272405 
L 489.150455 276.085797 
L 532.916818 267.709503 
" clip-path="url(#p8e12400ba3)" style="fill: none; stroke: #dbdb8d; stroke-width: 1.5; stroke-linecap: square"/>
   </g>
   <g id="line2d_30">
    <path d="M 95.253182 315.069109 
L 139.019545 314.261104 
L 182.785909 311.299463 
L 226.552273 308.859773 
L 270.318636 304.81818 
L 314.085 301.932559 
L 357.851364 298.800853 
L 401.617727 298.750696 
L 445.384091 295.768678 
L 489.150455 294.050786 
L 532.916818 291.47473 
" clip-path="url(#p8e12400ba3)" style="fill: none; stroke: #17becf; stroke-width: 1.5; stroke-linecap: square"/>
   </g>
   <g id="line2d_31">
    <path d="M 95.253182 360.221787 
L 139.019545 359.714727 
L 182.785909 358.988227 
L 226.552273 358.010157 
L 270.318636 357.003089 
L 314.085 355.828308 
L 357.851364 354.553211 
L 401.617727 353.664484 
L 445.384091 352.400359 
L 489.150455 350.679332 
L 532.916818 349.049215 
" clip-path="url(#p8e12400ba3)" style="fill: none; stroke: #9edae5; stroke-width: 1.5; stroke-linecap: square"/>
   </g>
   <g id="line2d_32">
    <path d="M 314.085 390.04 
L 314.085 25.44 
" clip-path="url(#p8e12400ba3)" style="fill: none; stroke-dasharray: 1.5,2.475; stroke-dashoffset: 0; stroke: #1f77b4; stroke-width: 1.5"/>
   </g>
   <g id="patch_3">
    <path d="M 73.37 390.04 
L 73.37 25.44 
" style="fill: none; stroke: #000000; stroke-width: 0.8; stroke-linejoin: miter; stroke-linecap: square"/>
   </g>
   <g id="patch_4">
    <path d="M 554.8 390.04 
L 554.8 25.44 
" style="fill: none; stroke: #000000; stroke-width: 0.8; stroke-linejoin: miter; stroke-linecap: square"/>
   </g>
   <g id="patch_5">
    <path d="M 73.37 390.04 
L 554.8 390.04 
" style="fill: none; stroke: #000000; stroke-width: 0.8; stroke-linejoin: miter; stroke-linecap: square"/>
   </g>
   <g id="patch_6">
    <path d="M 73.37 25.44 
L 554.8 25.44 
" style="fill: none; stroke: #000000; stroke-width: 0.8; stroke-linejoin: miter; stroke-linecap: square"/>
   </g>
   <g id="text_14">
    <!-- Fall of the  -->
    <g transform="translate(318.461636 51.348009) scale(0.1 -0.1)">
     <defs>
      <path id="DejaVuSans-46" d="M 628 4666 
L 3309 4666 
L 3309 4134 
L 1259 4134 
L 1259 2759 
L 3109 2759 
L 3109 2228 
L 1259 2228 
L 1259 0 
L 628 0 
L 628 4666 
z
" transform="scale(0.015625)"/>
      <path id="DejaVuSans-68" d="M 3513 2113 
L 3513 0 
L 2938 0 
L 2938 2094 
Q 2938 2591 2744 2837 
Q 2550 3084 2163 3084 
Q 1697 3084 1428 2787 
Q 1159 2491 1159 1978 
L 1159 0 
L 581 0 
L 581 4863 
L 1159 4863 
L 1159 2956 
Q 1366 3272 1645 3428 
Q 1925 3584 2291 3584 
Q 2894 3584 3203 3211 
Q 3513 2838 3513 2113 
z
" transform="scale(0.015625)"/>
     </defs>
     <use xlink:href="#DejaVuSans-46"/>
     <use xlink:href="#DejaVuSans-61" x="48.394531"/>
     <use xlink:href="#DejaVuSans-6c" x="109.673828"/>
     <use xlink:href="#DejaVuSans-6c" x="137.457031"/>
     <use xlink:href="#DejaVuSans-20" x="165.240234"/>
     <use xlink:href="#DejaVuSans-6f" x="197.027344"/>
     <use xlink:href="#DejaVuSans-66" x="258.208984"/>
     <use xlink:href="#DejaVuSans-20" x="293.414062"/>
     <use xlink:href="#DejaVuSans-74" x="325.201172"/>
     <use xlink:href="#DejaVuSans-68" x="364.410156"/>
     <use xlink:href="#DejaVuSans-65" x="427.789062"/>
     <use xlink:href="#DejaVuSans-20" x="489.3125"/>
    </g>
    <!-- Berlin Wall -->
    <g transform="translate(318.461636 62.545821) scale(0.1 -0.1)">
     <defs>
      <path id="DejaVuSans-42" d="M 1259 2228 
L 1259 519 
L 2272 519 
Q 2781 519 3026 730 
Q 3272 941 3272 1375 
Q 3272 1813 3026 2020 
Q 2781 2228 2272 2228 
L 1259 2228 
z
M 1259 4147 
L 1259 2741 
L 2194 2741 
Q 2656 2741 2882 2914 
Q 3109 3088 3109 3444 
Q 3109 3797 2882 3972 
Q 2656 4147 2194 4147 
L 1259 4147 
z
M 628 4666 
L 2241 4666 
Q 2963 4666 3353 4366 
Q 3744 4066 3744 3513 
Q 3744 3084 3544 2831 
Q 3344 2578 2956 2516 
Q 3422 2416 3680 2098 
Q 3938 1781 3938 1306 
Q 3938 681 3513 340 
Q 3088 0 2303 0 
L 628 0 
L 628 4666 
z
" transform="scale(0.015625)"/>
     </defs>
     <use xlink:href="#DejaVuSans-42"/>
     <use xlink:href="#DejaVuSans-65" x="68.603516"/>
     <use xlink:href="#DejaVuSans-72" x="130.126953"/>
     <use xlink:href="#DejaVuSans-6c" x="171.240234"/>
     <use xlink:href="#DejaVuSans-69" x="199.023438"/>
     <use xlink:href="#DejaVuSans-6e" x="226.806641"/>
     <use xlink:href="#DejaVuSans-20" x="290.185547"/>
     <use xlink:href="#DejaVuSans-57" x="321.972656"/>
     <use xlink:href="#DejaVuSans-61" x="414.474609"/>
     <use xlink:href="#DejaVuSans-6c" x="475.753906"/>
     <use xlink:href="#DejaVuSans-6c" x="503.537109"/>
    </g>
   </g>
   <g id="text_15">
    <!-- Number of New Works per Year by Concept, from 1984-1994 -->
    <g transform="translate(132.211875 19.44) scale(0.12 -0.12)">
     <defs>
      <path id="DejaVuSans-77" d="M 269 3500 
L 844 3500 
L 1563 769 
L 2278 3500 
L 2956 3500 
L 3675 769 
L 4391 3500 
L 4966 3500 
L 4050 0 
L 3372 0 
L 2619 2869 
L 1863 0 
L 1184 0 
L 269 3500 
z
" transform="scale(0.015625)"/>
      <path id="DejaVuSans-70" d="M 1159 525 
L 1159 -1331 
L 581 -1331 
L 581 3500 
L 1159 3500 
L 1159 2969 
Q 1341 3281 1617 3432 
Q 1894 3584 2278 3584 
Q 2916 3584 3314 3078 
Q 3713 2572 3713 1747 
Q 3713 922 3314 415 
Q 2916 -91 2278 -91 
Q 1894 -91 1617 61 
Q 1341 213 1159 525 
z
M 3116 1747 
Q 3116 2381 2855 2742 
Q 2594 3103 2138 3103 
Q 1681 3103 1420 2742 
Q 1159 2381 1159 1747 
Q 1159 1113 1420 752 
Q 1681 391 2138 391 
Q 2594 391 2855 752 
Q 3116 1113 3116 1747 
z
" transform="scale(0.015625)"/>
      <path id="DejaVuSans-79" d="M 2059 -325 
Q 1816 -950 1584 -1140 
Q 1353 -1331 966 -1331 
L 506 -1331 
L 506 -850 
L 844 -850 
Q 1081 -850 1212 -737 
Q 1344 -625 1503 -206 
L 1606 56 
L 191 3500 
L 800 3500 
L 1894 763 
L 2988 3500 
L 3597 3500 
L 2059 -325 
z
" transform="scale(0.015625)"/>
      <path id="DejaVuSans-43" d="M 4122 4306 
L 4122 3641 
Q 3803 3938 3442 4084 
Q 3081 4231 2675 4231 
Q 1875 4231 1450 3742 
Q 1025 3253 1025 2328 
Q 1025 1406 1450 917 
Q 1875 428 2675 428 
Q 3081 428 3442 575 
Q 3803 722 4122 1019 
L 4122 359 
Q 3791 134 3420 21 
Q 3050 -91 2638 -91 
Q 1578 -91 968 557 
Q 359 1206 359 2328 
Q 359 3453 968 4101 
Q 1578 4750 2638 4750 
Q 3056 4750 3426 4639 
Q 3797 4528 4122 4306 
z
" transform="scale(0.015625)"/>
      <path id="DejaVuSans-2d" d="M 313 2009 
L 1997 2009 
L 1997 1497 
L 313 1497 
L 313 2009 
z
" transform="scale(0.015625)"/>
     </defs>
     <use xlink:href="#DejaVuSans-4e"/>
     <use xlink:href="#DejaVuSans-75" x="74.804688"/>
     <use xlink:href="#DejaVuSans-6d" x="138.183594"/>
     <use xlink:href="#DejaVuSans-62" x="235.595703"/>
     <use xlink:href="#DejaVuSans-65" x="299.072266"/>
     <use xlink:href="#DejaVuSans-72" x="360.595703"/>
     <use xlink:href="#DejaVuSans-20" x="401.708984"/>
     <use xlink:href="#DejaVuSans-6f" x="433.496094"/>
     <use xlink:href="#DejaVuSans-66" x="494.677734"/>
     <use xlink:href="#DejaVuSans-20" x="529.882812"/>
     <use xlink:href="#DejaVuSans-4e" x="561.669922"/>
     <use xlink:href="#DejaVuSans-65" x="636.474609"/>
     <use xlink:href="#DejaVuSans-77" x="697.998047"/>
     <use xlink:href="#DejaVuSans-20" x="779.785156"/>
     <use xlink:href="#DejaVuSans-57" x="811.572266"/>
     <use xlink:href="#DejaVuSans-6f" x="904.574219"/>
     <use xlink:href="#DejaVuSans-72" x="965.755859"/>
     <use xlink:href="#DejaVuSans-6b" x="1006.869141"/>
     <use xlink:href="#DejaVuSans-73" x="1064.779297"/>
     <use xlink:href="#DejaVuSans-20" x="1116.878906"/>
     <use xlink:href="#DejaVuSans-70" x="1148.666016"/>
     <use xlink:href="#DejaVuSans-65" x="1212.142578"/>
     <use xlink:href="#DejaVuSans-72" x="1273.666016"/>
     <use xlink:href="#DejaVuSans-20" x="1314.779297"/>
     <use xlink:href="#DejaVuSans-59" x="1346.566406"/>
     <use xlink:href="#DejaVuSans-65" x="1394.400391"/>
     <use xlink:href="#DejaVuSans-61" x="1455.923828"/>
     <use xlink:href="#DejaVuSans-72" x="1517.203125"/>
     <use xlink:href="#DejaVuSans-20" x="1558.316406"/>
     <use xlink:href="#DejaVuSans-62" x="1590.103516"/>
     <use xlink:href="#DejaVuSans-79" x="1653.580078"/>
     <use xlink:href="#DejaVuSans-20" x="1712.759766"/>
     <use xlink:href="#DejaVuSans-43" x="1744.546875"/>
     <use xlink:href="#DejaVuSans-6f" x="1814.371094"/>
     <use xlink:href="#DejaVuSans-6e" x="1875.552734"/>
     <use xlink:href="#DejaVuSans-63" x="1938.931641"/>
     <use xlink:href="#DejaVuSans-65" x="1993.912109"/>
     <use xlink:href="#DejaVuSans-70" x="2055.435547"/>
     <use xlink:href="#DejaVuSans-74" x="2118.912109"/>
     <use xlink:href="#DejaVuSans-2c" x="2158.121094"/>
     <use xlink:href="#DejaVuSans-20" x="2189.908203"/>
     <use xlink:href="#DejaVuSans-66" x="2221.695312"/>
     <use xlink:href="#DejaVuSans-72" x="2256.900391"/>
     <use xlink:href="#DejaVuSans-6f" x="2295.763672"/>
     <use xlink:href="#DejaVuSans-6d" x="2356.945312"/>
     <use xlink:href="#DejaVuSans-20" x="2454.357422"/>
     <use xlink:href="#DejaVuSans-31" x="2486.144531"/>
     <use xlink:href="#DejaVuSans-39" x="2549.767578"/>
     <use xlink:href="#DejaVuSans-38" x="2613.390625"/>
     <use xlink:href="#DejaVuSans-34" x="2677.013672"/>
     <use xlink:href="#DejaVuSans-2d" x="2740.636719"/>
     <use xlink:href="#DejaVuSans-31" x="2776.720703"/>
     <use xlink:href="#DejaVuSans-39" x="2840.34375"/>
     <use xlink:href="#DejaVuSans-39" x="2903.966797"/>
     <use xlink:href="#DejaVuSans-34" x="2967.589844"/>
    </g>
   </g>
   <g id="legend_1">
    <g id="patch_7">
     <path d="M 561.8 363.360313 
L 707.359375 363.360313 
Q 709.359375 363.360313 709.359375 361.360313 
L 709.359375 54.119687 
Q 709.359375 52.119687 707.359375 52.119687 
L 561.8 52.119687 
Q 559.8 52.119687 559.8 54.119687 
L 559.8 361.360313 
Q 559.8 363.360313 561.8 363.360313 
z
" style="fill: #ffffff; opacity: 0.8; stroke: #cccccc; stroke-linejoin: miter"/>
    </g>
    <g id="text_16">
     <!-- Top Concept of Work -->
     <g transform="translate(583.215625 63.718125) scale(0.1 -0.1)">
      <defs>
       <path id="DejaVuSans-54" d="M -19 4666 
L 3928 4666 
L 3928 4134 
L 2272 4134 
L 2272 0 
L 1638 0 
L 1638 4134 
L -19 4134 
L -19 4666 
z
" transform="scale(0.015625)"/>
      </defs>
      <use xlink:href="#DejaVuSans-54"/>
      <use xlink:href="#DejaVuSans-6f" x="44.083984"/>
      <use xlink:href="#DejaVuSans-70" x="105.265625"/>
      <use xlink:href="#DejaVuSans-20" x="168.742188"/>
      <use xlink:href="#DejaVuSans-43" x="200.529297"/>
      <use xlink:href="#DejaVuSans-6f" x="270.353516"/>
      <use xlink:href="#DejaVuSans-6e" x="331.535156"/>
      <use xlink:href="#DejaVuSans-63" x="394.914062"/>
      <use xlink:href="#DejaVuSans-65" x="449.894531"/>
      <use xlink:href="#DejaVuSans-70" x="511.417969"/>
      <use xlink:href="#DejaVuSans-74" x="574.894531"/>
      <use xlink:href="#DejaVuSans-20" x="614.103516"/>
      <use xlink:href="#DejaVuSans-6f" x="645.890625"/>
      <use xlink:href="#DejaVuSans-66" x="707.072266"/>
      <use xlink:href="#DejaVuSans-20" x="742.277344"/>
      <use xlink:href="#DejaVuSans-57" x="774.064453"/>
      <use xlink:href="#DejaVuSans-6f" x="867.066406"/>
      <use xlink:href="#DejaVuSans-72" x="928.248047"/>
      <use xlink:href="#DejaVuSans-6b" x="969.361328"/>
     </g>
    </g>
    <g id="line2d_33">
     <path d="M 563.8 74.89625 
L 573.8 74.89625 
L 583.8 74.89625 
" style="fill: none; stroke: #1f77b4; stroke-width: 1.5; stroke-linecap: square"/>
    </g>
    <g id="text_17">
     <!-- Art -->
     <g transform="translate(591.8 78.39625) scale(0.1 -0.1)">
      <defs>
       <path id="DejaVuSans-41" d="M 2188 4044 
L 1331 1722 
L 3047 1722 
L 2188 4044 
z
M 1831 4666 
L 2547 4666 
L 4325 0 
L 3669 0 
L 3244 1197 
L 1141 1197 
L 716 0 
L 50 0 
L 1831 4666 
z
" transform="scale(0.015625)"/>
      </defs>
      <use xlink:href="#DejaVuSans-41"/>
      <use xlink:href="#DejaVuSans-72" x="68.408203"/>
      <use xlink:href="#DejaVuSans-74" x="109.521484"/>
     </g>
    </g>
    <g id="line2d_34">
     <path d="M 563.8 89.574375 
L 573.8 89.574375 
L 583.8 89.574375 
" style="fill: none; stroke: #aec7e8; stroke-width: 1.5; stroke-linecap: square"/>
    </g>
    <g id="text_18">
     <!-- Biology -->
     <g transform="translate(591.8 93.074375) scale(0.1 -0.1)">
      <defs>
       <path id="DejaVuSans-67" d="M 2906 1791 
Q 2906 2416 2648 2759 
Q 2391 3103 1925 3103 
Q 1463 3103 1205 2759 
Q 947 2416 947 1791 
Q 947 1169 1205 825 
Q 1463 481 1925 481 
Q 2391 481 2648 825 
Q 2906 1169 2906 1791 
z
M 3481 434 
Q 3481 -459 3084 -895 
Q 2688 -1331 1869 -1331 
Q 1566 -1331 1297 -1286 
Q 1028 -1241 775 -1147 
L 775 -588 
Q 1028 -725 1275 -790 
Q 1522 -856 1778 -856 
Q 2344 -856 2625 -561 
Q 2906 -266 2906 331 
L 2906 616 
Q 2728 306 2450 153 
Q 2172 0 1784 0 
Q 1141 0 747 490 
Q 353 981 353 1791 
Q 353 2603 747 3093 
Q 1141 3584 1784 3584 
Q 2172 3584 2450 3431 
Q 2728 3278 2906 2969 
L 2906 3500 
L 3481 3500 
L 3481 434 
z
" transform="scale(0.015625)"/>
      </defs>
      <use xlink:href="#DejaVuSans-42"/>
      <use xlink:href="#DejaVuSans-69" x="68.603516"/>
      <use xlink:href="#DejaVuSans-6f" x="96.386719"/>
      <use xlink:href="#DejaVuSans-6c" x="157.568359"/>
      <use xlink:href="#DejaVuSans-6f" x="185.351562"/>
      <use xlink:href="#DejaVuSans-67" x="246.533203"/>
      <use xlink:href="#DejaVuSans-79" x="310.009766"/>
     </g>
    </g>
    <g id="line2d_35">
     <path d="M 563.8 104.2525 
L 573.8 104.2525 
L 583.8 104.2525 
" style="fill: none; stroke: #ff7f0e; stroke-width: 1.5; stroke-linecap: square"/>
    </g>
    <g id="text_19">
     <!-- Business -->
     <g transform="translate(591.8 107.7525) scale(0.1 -0.1)">
      <use xlink:href="#DejaVuSans-42"/>
      <use xlink:href="#DejaVuSans-75" x="68.603516"/>
      <use xlink:href="#DejaVuSans-73" x="131.982422"/>
      <use xlink:href="#DejaVuSans-69" x="184.082031"/>
      <use xlink:href="#DejaVuSans-6e" x="211.865234"/>
      <use xlink:href="#DejaVuSans-65" x="275.244141"/>
      <use xlink:href="#DejaVuSans-73" x="336.767578"/>
      <use xlink:href="#DejaVuSans-73" x="388.867188"/>
     </g>
    </g>
    <g id="line2d_36">
     <path d="M 563.8 118.930625 
L 573.8 118.930625 
L 583.8 118.930625 
" style="fill: none; stroke: #ffbb78; stroke-width: 1.5; stroke-linecap: square"/>
    </g>
    <g id="text_20">
     <!-- Chemistry -->
     <g transform="translate(591.8 122.430625) scale(0.1 -0.1)">
      <use xlink:href="#DejaVuSans-43"/>
      <use xlink:href="#DejaVuSans-68" x="69.824219"/>
      <use xlink:href="#DejaVuSans-65" x="133.203125"/>
      <use xlink:href="#DejaVuSans-6d" x="194.726562"/>
      <use xlink:href="#DejaVuSans-69" x="292.138672"/>
      <use xlink:href="#DejaVuSans-73" x="319.921875"/>
      <use xlink:href="#DejaVuSans-74" x="372.021484"/>
      <use xlink:href="#DejaVuSans-72" x="411.230469"/>
      <use xlink:href="#DejaVuSans-79" x="452.34375"/>
     </g>
    </g>
    <g id="line2d_37">
     <path d="M 563.8 133.60875 
L 573.8 133.60875 
L 583.8 133.60875 
" style="fill: none; stroke: #2ca02c; stroke-width: 1.5; stroke-linecap: square"/>
    </g>
    <g id="text_21">
     <!-- Computer science -->
     <g transform="translate(591.8 137.10875) scale(0.1 -0.1)">
      <use xlink:href="#DejaVuSans-43"/>
      <use xlink:href="#DejaVuSans-6f" x="69.824219"/>
      <use xlink:href="#DejaVuSans-6d" x="131.005859"/>
      <use xlink:href="#DejaVuSans-70" x="228.417969"/>
      <use xlink:href="#DejaVuSans-75" x="291.894531"/>
      <use xlink:href="#DejaVuSans-74" x="355.273438"/>
      <use xlink:href="#DejaVuSans-65" x="394.482422"/>
      <use xlink:href="#DejaVuSans-72" x="456.005859"/>
      <use xlink:href="#DejaVuSans-20" x="497.119141"/>
      <use xlink:href="#DejaVuSans-73" x="528.90625"/>
      <use xlink:href="#DejaVuSans-63" x="581.005859"/>
      <use xlink:href="#DejaVuSans-69" x="635.986328"/>
      <use xlink:href="#DejaVuSans-65" x="663.769531"/>
      <use xlink:href="#DejaVuSans-6e" x="725.292969"/>
      <use xlink:href="#DejaVuSans-63" x="788.671875"/>
      <use xlink:href="#DejaVuSans-65" x="843.652344"/>
     </g>
    </g>
    <g id="line2d_38">
     <path d="M 563.8 148.286875 
L 573.8 148.286875 
L 583.8 148.286875 
" style="fill: none; stroke: #98df8a; stroke-width: 1.5; stroke-linecap: square"/>
    </g>
    <g id="text_22">
     <!-- Economics -->
     <g transform="translate(591.8 151.786875) scale(0.1 -0.1)">
      <defs>
       <path id="DejaVuSans-45" d="M 628 4666 
L 3578 4666 
L 3578 4134 
L 1259 4134 
L 1259 2753 
L 3481 2753 
L 3481 2222 
L 1259 2222 
L 1259 531 
L 3634 531 
L 3634 0 
L 628 0 
L 628 4666 
z
" transform="scale(0.015625)"/>
      </defs>
      <use xlink:href="#DejaVuSans-45"/>
      <use xlink:href="#DejaVuSans-63" x="63.183594"/>
      <use xlink:href="#DejaVuSans-6f" x="118.164062"/>
      <use xlink:href="#DejaVuSans-6e" x="179.345703"/>
      <use xlink:href="#DejaVuSans-6f" x="242.724609"/>
      <use xlink:href="#DejaVuSans-6d" x="303.90625"/>
      <use xlink:href="#DejaVuSans-69" x="401.318359"/>
      <use xlink:href="#DejaVuSans-63" x="429.101562"/>
      <use xlink:href="#DejaVuSans-73" x="484.082031"/>
     </g>
    </g>
    <g id="line2d_39">
     <path d="M 563.8 162.965 
L 573.8 162.965 
L 583.8 162.965 
" style="fill: none; stroke: #d62728; stroke-width: 1.5; stroke-linecap: square"/>
    </g>
    <g id="text_23">
     <!-- Engineering -->
     <g transform="translate(591.8 166.465) scale(0.1 -0.1)">
      <use xlink:href="#DejaVuSans-45"/>
      <use xlink:href="#DejaVuSans-6e" x="63.183594"/>
      <use xlink:href="#DejaVuSans-67" x="126.5625"/>
      <use xlink:href="#DejaVuSans-69" x="190.039062"/>
      <use xlink:href="#DejaVuSans-6e" x="217.822266"/>
      <use xlink:href="#DejaVuSans-65" x="281.201172"/>
      <use xlink:href="#DejaVuSans-65" x="342.724609"/>
      <use xlink:href="#DejaVuSans-72" x="404.248047"/>
      <use xlink:href="#DejaVuSans-69" x="445.361328"/>
      <use xlink:href="#DejaVuSans-6e" x="473.144531"/>
      <use xlink:href="#DejaVuSans-67" x="536.523438"/>
     </g>
    </g>
    <g id="line2d_40">
     <path d="M 563.8 177.643125 
L 573.8 177.643125 
L 583.8 177.643125 
" style="fill: none; stroke: #ff9896; stroke-width: 1.5; stroke-linecap: square"/>
    </g>
    <g id="text_24">
     <!-- Environmental science -->
     <g transform="translate(591.8 181.143125) scale(0.1 -0.1)">
      <defs>
       <path id="DejaVuSans-76" d="M 191 3500 
L 800 3500 
L 1894 563 
L 2988 3500 
L 3597 3500 
L 2284 0 
L 1503 0 
L 191 3500 
z
" transform="scale(0.015625)"/>
      </defs>
      <use xlink:href="#DejaVuSans-45"/>
      <use xlink:href="#DejaVuSans-6e" x="63.183594"/>
      <use xlink:href="#DejaVuSans-76" x="126.5625"/>
      <use xlink:href="#DejaVuSans-69" x="185.742188"/>
      <use xlink:href="#DejaVuSans-72" x="213.525391"/>
      <use xlink:href="#DejaVuSans-6f" x="252.388672"/>
      <use xlink:href="#DejaVuSans-6e" x="313.570312"/>
      <use xlink:href="#DejaVuSans-6d" x="376.949219"/>
      <use xlink:href="#DejaVuSans-65" x="474.361328"/>
      <use xlink:href="#DejaVuSans-6e" x="535.884766"/>
      <use xlink:href="#DejaVuSans-74" x="599.263672"/>
      <use xlink:href="#DejaVuSans-61" x="638.472656"/>
      <use xlink:href="#DejaVuSans-6c" x="699.751953"/>
      <use xlink:href="#DejaVuSans-20" x="727.535156"/>
      <use xlink:href="#DejaVuSans-73" x="759.322266"/>
      <use xlink:href="#DejaVuSans-63" x="811.421875"/>
      <use xlink:href="#DejaVuSans-69" x="866.402344"/>
      <use xlink:href="#DejaVuSans-65" x="894.185547"/>
      <use xlink:href="#DejaVuSans-6e" x="955.708984"/>
      <use xlink:href="#DejaVuSans-63" x="1019.087891"/>
      <use xlink:href="#DejaVuSans-65" x="1074.068359"/>
     </g>
    </g>
    <g id="line2d_41">
     <path d="M 563.8 192.32125 
L 573.8 192.32125 
L 583.8 192.32125 
" style="fill: none; stroke: #9467bd; stroke-width: 1.5; stroke-linecap: square"/>
    </g>
    <g id="text_25">
     <!-- Geography -->
     <g transform="translate(591.8 195.82125) scale(0.1 -0.1)">
      <defs>
       <path id="DejaVuSans-47" d="M 3809 666 
L 3809 1919 
L 2778 1919 
L 2778 2438 
L 4434 2438 
L 4434 434 
Q 4069 175 3628 42 
Q 3188 -91 2688 -91 
Q 1594 -91 976 548 
Q 359 1188 359 2328 
Q 359 3472 976 4111 
Q 1594 4750 2688 4750 
Q 3144 4750 3555 4637 
Q 3966 4525 4313 4306 
L 4313 3634 
Q 3963 3931 3569 4081 
Q 3175 4231 2741 4231 
Q 1884 4231 1454 3753 
Q 1025 3275 1025 2328 
Q 1025 1384 1454 906 
Q 1884 428 2741 428 
Q 3075 428 3337 486 
Q 3600 544 3809 666 
z
" transform="scale(0.015625)"/>
      </defs>
      <use xlink:href="#DejaVuSans-47"/>
      <use xlink:href="#DejaVuSans-65" x="77.490234"/>
      <use xlink:href="#DejaVuSans-6f" x="139.013672"/>
      <use xlink:href="#DejaVuSans-67" x="200.195312"/>
      <use xlink:href="#DejaVuSans-72" x="263.671875"/>
      <use xlink:href="#DejaVuSans-61" x="304.785156"/>
      <use xlink:href="#DejaVuSans-70" x="366.064453"/>
      <use xlink:href="#DejaVuSans-68" x="429.541016"/>
      <use xlink:href="#DejaVuSans-79" x="492.919922"/>
     </g>
    </g>
    <g id="line2d_42">
     <path d="M 563.8 206.999375 
L 573.8 206.999375 
L 583.8 206.999375 
" style="fill: none; stroke: #c5b0d5; stroke-width: 1.5; stroke-linecap: square"/>
    </g>
    <g id="text_26">
     <!-- Geology -->
     <g transform="translate(591.8 210.499375) scale(0.1 -0.1)">
      <use xlink:href="#DejaVuSans-47"/>
      <use xlink:href="#DejaVuSans-65" x="77.490234"/>
      <use xlink:href="#DejaVuSans-6f" x="139.013672"/>
      <use xlink:href="#DejaVuSans-6c" x="200.195312"/>
      <use xlink:href="#DejaVuSans-6f" x="227.978516"/>
      <use xlink:href="#DejaVuSans-67" x="289.160156"/>
      <use xlink:href="#DejaVuSans-79" x="352.636719"/>
     </g>
    </g>
    <g id="line2d_43">
     <path d="M 563.8 221.6775 
L 573.8 221.6775 
L 583.8 221.6775 
" style="fill: none; stroke: #8c564b; stroke-width: 1.5; stroke-linecap: square"/>
    </g>
    <g id="text_27">
     <!-- History -->
     <g transform="translate(591.8 225.1775) scale(0.1 -0.1)">
      <defs>
       <path id="DejaVuSans-48" d="M 628 4666 
L 1259 4666 
L 1259 2753 
L 3553 2753 
L 3553 4666 
L 4184 4666 
L 4184 0 
L 3553 0 
L 3553 2222 
L 1259 2222 
L 1259 0 
L 628 0 
L 628 4666 
z
" transform="scale(0.015625)"/>
      </defs>
      <use xlink:href="#DejaVuSans-48"/>
      <use xlink:href="#DejaVuSans-69" x="75.195312"/>
      <use xlink:href="#DejaVuSans-73" x="102.978516"/>
      <use xlink:href="#DejaVuSans-74" x="155.078125"/>
      <use xlink:href="#DejaVuSans-6f" x="194.287109"/>
      <use xlink:href="#DejaVuSans-72" x="255.46875"/>
      <use xlink:href="#DejaVuSans-79" x="296.582031"/>
     </g>
    </g>
    <g id="line2d_44">
     <path d="M 563.8 236.355625 
L 573.8 236.355625 
L 583.8 236.355625 
" style="fill: none; stroke: #c49c94; stroke-width: 1.5; stroke-linecap: square"/>
    </g>
    <g id="text_28">
     <!-- Materials science -->
     <g transform="translate(591.8 239.855625) scale(0.1 -0.1)">
      <defs>
       <path id="DejaVuSans-4d" d="M 628 4666 
L 1569 4666 
L 2759 1491 
L 3956 4666 
L 4897 4666 
L 4897 0 
L 4281 0 
L 4281 4097 
L 3078 897 
L 2444 897 
L 1241 4097 
L 1241 0 
L 628 0 
L 628 4666 
z
" transform="scale(0.015625)"/>
      </defs>
      <use xlink:href="#DejaVuSans-4d"/>
      <use xlink:href="#DejaVuSans-61" x="86.279297"/>
      <use xlink:href="#DejaVuSans-74" x="147.558594"/>
      <use xlink:href="#DejaVuSans-65" x="186.767578"/>
      <use xlink:href="#DejaVuSans-72" x="248.291016"/>
      <use xlink:href="#DejaVuSans-69" x="289.404297"/>
      <use xlink:href="#DejaVuSans-61" x="317.1875"/>
      <use xlink:href="#DejaVuSans-6c" x="378.466797"/>
      <use xlink:href="#DejaVuSans-73" x="406.25"/>
      <use xlink:href="#DejaVuSans-20" x="458.349609"/>
      <use xlink:href="#DejaVuSans-73" x="490.136719"/>
      <use xlink:href="#DejaVuSans-63" x="542.236328"/>
      <use xlink:href="#DejaVuSans-69" x="597.216797"/>
      <use xlink:href="#DejaVuSans-65" x="625"/>
      <use xlink:href="#DejaVuSans-6e" x="686.523438"/>
      <use xlink:href="#DejaVuSans-63" x="749.902344"/>
      <use xlink:href="#DejaVuSans-65" x="804.882812"/>
     </g>
    </g>
    <g id="line2d_45">
     <path d="M 563.8 251.03375 
L 573.8 251.03375 
L 583.8 251.03375 
" style="fill: none; stroke: #e377c2; stroke-width: 1.5; stroke-linecap: square"/>
    </g>
    <g id="text_29">
     <!-- Mathematics -->
     <g transform="translate(591.8 254.53375) scale(0.1 -0.1)">
      <use xlink:href="#DejaVuSans-4d"/>
      <use xlink:href="#DejaVuSans-61" x="86.279297"/>
      <use xlink:href="#DejaVuSans-74" x="147.558594"/>
      <use xlink:href="#DejaVuSans-68" x="186.767578"/>
      <use xlink:href="#DejaVuSans-65" x="250.146484"/>
      <use xlink:href="#DejaVuSans-6d" x="311.669922"/>
      <use xlink:href="#DejaVuSans-61" x="409.082031"/>
      <use xlink:href="#DejaVuSans-74" x="470.361328"/>
      <use xlink:href="#DejaVuSans-69" x="509.570312"/>
      <use xlink:href="#DejaVuSans-63" x="537.353516"/>
      <use xlink:href="#DejaVuSans-73" x="592.333984"/>
     </g>
    </g>
    <g id="line2d_46">
     <path d="M 563.8 265.711875 
L 573.8 265.711875 
L 583.8 265.711875 
" style="fill: none; stroke: #f7b6d2; stroke-width: 1.5; stroke-linecap: square"/>
    </g>
    <g id="text_30">
     <!-- Medicine -->
     <g transform="translate(591.8 269.211875) scale(0.1 -0.1)">
      <defs>
       <path id="DejaVuSans-64" d="M 2906 2969 
L 2906 4863 
L 3481 4863 
L 3481 0 
L 2906 0 
L 2906 525 
Q 2725 213 2448 61 
Q 2172 -91 1784 -91 
Q 1150 -91 751 415 
Q 353 922 353 1747 
Q 353 2572 751 3078 
Q 1150 3584 1784 3584 
Q 2172 3584 2448 3432 
Q 2725 3281 2906 2969 
z
M 947 1747 
Q 947 1113 1208 752 
Q 1469 391 1925 391 
Q 2381 391 2643 752 
Q 2906 1113 2906 1747 
Q 2906 2381 2643 2742 
Q 2381 3103 1925 3103 
Q 1469 3103 1208 2742 
Q 947 2381 947 1747 
z
" transform="scale(0.015625)"/>
      </defs>
      <use xlink:href="#DejaVuSans-4d"/>
      <use xlink:href="#DejaVuSans-65" x="86.279297"/>
      <use xlink:href="#DejaVuSans-64" x="147.802734"/>
      <use xlink:href="#DejaVuSans-69" x="211.279297"/>
      <use xlink:href="#DejaVuSans-63" x="239.0625"/>
      <use xlink:href="#DejaVuSans-69" x="294.042969"/>
      <use xlink:href="#DejaVuSans-6e" x="321.826172"/>
      <use xlink:href="#DejaVuSans-65" x="385.205078"/>
     </g>
    </g>
    <g id="line2d_47">
     <path d="M 563.8 280.39 
L 573.8 280.39 
L 583.8 280.39 
" style="fill: none; stroke: #7f7f7f; stroke-width: 1.5; stroke-linecap: square"/>
    </g>
    <g id="text_31">
     <!-- No Top Concept -->
     <g transform="translate(591.8 283.89) scale(0.1 -0.1)">
      <use xlink:href="#DejaVuSans-4e"/>
      <use xlink:href="#DejaVuSans-6f" x="74.804688"/>
      <use xlink:href="#DejaVuSans-20" x="135.986328"/>
      <use xlink:href="#DejaVuSans-54" x="167.773438"/>
      <use xlink:href="#DejaVuSans-6f" x="211.857422"/>
      <use xlink:href="#DejaVuSans-70" x="273.039062"/>
      <use xlink:href="#DejaVuSans-20" x="336.515625"/>
      <use xlink:href="#DejaVuSans-43" x="368.302734"/>
      <use xlink:href="#DejaVuSans-6f" x="438.126953"/>
      <use xlink:href="#DejaVuSans-6e" x="499.308594"/>
      <use xlink:href="#DejaVuSans-63" x="562.6875"/>
      <use xlink:href="#DejaVuSans-65" x="617.667969"/>
      <use xlink:href="#DejaVuSans-70" x="679.191406"/>
      <use xlink:href="#DejaVuSans-74" x="742.667969"/>
     </g>
    </g>
    <g id="line2d_48">
     <path d="M 563.8 295.068125 
L 573.8 295.068125 
L 583.8 295.068125 
" style="fill: none; stroke: #c7c7c7; stroke-width: 1.5; stroke-linecap: square"/>
    </g>
    <g id="text_32">
     <!-- Philosophy -->
     <g transform="translate(591.8 298.568125) scale(0.1 -0.1)">
      <use xlink:href="#DejaVuSans-50"/>
      <use xlink:href="#DejaVuSans-68" x="60.302734"/>
      <use xlink:href="#DejaVuSans-69" x="123.681641"/>
      <use xlink:href="#DejaVuSans-6c" x="151.464844"/>
      <use xlink:href="#DejaVuSans-6f" x="179.248047"/>
      <use xlink:href="#DejaVuSans-73" x="240.429688"/>
      <use xlink:href="#DejaVuSans-6f" x="292.529297"/>
      <use xlink:href="#DejaVuSans-70" x="353.710938"/>
      <use xlink:href="#DejaVuSans-68" x="417.1875"/>
      <use xlink:href="#DejaVuSans-79" x="480.566406"/>
     </g>
    </g>
    <g id="line2d_49">
     <path d="M 563.8 309.74625 
L 573.8 309.74625 
L 583.8 309.74625 
" style="fill: none; stroke: #bcbd22; stroke-width: 1.5; stroke-linecap: square"/>
    </g>
    <g id="text_33">
     <!-- Physics -->
     <g transform="translate(591.8 313.24625) scale(0.1 -0.1)">
      <use xlink:href="#DejaVuSans-50"/>
      <use xlink:href="#DejaVuSans-68" x="60.302734"/>
      <use xlink:href="#DejaVuSans-79" x="123.681641"/>
      <use xlink:href="#DejaVuSans-73" x="182.861328"/>
      <use xlink:href="#DejaVuSans-69" x="234.960938"/>
      <use xlink:href="#DejaVuSans-63" x="262.744141"/>
      <use xlink:href="#DejaVuSans-73" x="317.724609"/>
     </g>
    </g>
    <g id="line2d_50">
     <path d="M 563.8 324.424375 
L 573.8 324.424375 
L 583.8 324.424375 
" style="fill: none; stroke: #dbdb8d; stroke-width: 1.5; stroke-linecap: square"/>
    </g>
    <g id="text_34">
     <!-- Political science -->
     <g transform="translate(591.8 327.924375) scale(0.1 -0.1)">
      <use xlink:href="#DejaVuSans-50"/>
      <use xlink:href="#DejaVuSans-6f" x="56.677734"/>
      <use xlink:href="#DejaVuSans-6c" x="117.859375"/>
      <use xlink:href="#DejaVuSans-69" x="145.642578"/>
      <use xlink:href="#DejaVuSans-74" x="173.425781"/>
      <use xlink:href="#DejaVuSans-69" x="212.634766"/>
      <use xlink:href="#DejaVuSans-63" x="240.417969"/>
      <use xlink:href="#DejaVuSans-61" x="295.398438"/>
      <use xlink:href="#DejaVuSans-6c" x="356.677734"/>
      <use xlink:href="#DejaVuSans-20" x="384.460938"/>
      <use xlink:href="#DejaVuSans-73" x="416.248047"/>
      <use xlink:href="#DejaVuSans-63" x="468.347656"/>
      <use xlink:href="#DejaVuSans-69" x="523.328125"/>
      <use xlink:href="#DejaVuSans-65" x="551.111328"/>
      <use xlink:href="#DejaVuSans-6e" x="612.634766"/>
      <use xlink:href="#DejaVuSans-63" x="676.013672"/>
      <use xlink:href="#DejaVuSans-65" x="730.994141"/>
     </g>
    </g>
    <g id="line2d_51">
     <path d="M 563.8 339.1025 
L 573.8 339.1025 
L 583.8 339.1025 
" style="fill: none; stroke: #17becf; stroke-width: 1.5; stroke-linecap: square"/>
    </g>
    <g id="text_35">
     <!-- Psychology -->
     <g transform="translate(591.8 342.6025) scale(0.1 -0.1)">
      <use xlink:href="#DejaVuSans-50"/>
      <use xlink:href="#DejaVuSans-73" x="58.552734"/>
      <use xlink:href="#DejaVuSans-79" x="110.652344"/>
      <use xlink:href="#DejaVuSans-63" x="169.832031"/>
      <use xlink:href="#DejaVuSans-68" x="224.8125"/>
      <use xlink:href="#DejaVuSans-6f" x="288.191406"/>
      <use xlink:href="#DejaVuSans-6c" x="349.373047"/>
      <use xlink:href="#DejaVuSans-6f" x="377.15625"/>
      <use xlink:href="#DejaVuSans-67" x="438.337891"/>
      <use xlink:href="#DejaVuSans-79" x="501.814453"/>
     </g>
    </g>
    <g id="line2d_52">
     <path d="M 563.8 353.780625 
L 573.8 353.780625 
L 583.8 353.780625 
" style="fill: none; stroke: #9edae5; stroke-width: 1.5; stroke-linecap: square"/>
    </g>
    <g id="text_36">
     <!-- Sociology -->
     <g transform="translate(591.8 357.280625) scale(0.1 -0.1)">
      <defs>
       <path id="DejaVuSans-53" d="M 3425 4513 
L 3425 3897 
Q 3066 4069 2747 4153 
Q 2428 4238 2131 4238 
Q 1616 4238 1336 4038 
Q 1056 3838 1056 3469 
Q 1056 3159 1242 3001 
Q 1428 2844 1947 2747 
L 2328 2669 
Q 3034 2534 3370 2195 
Q 3706 1856 3706 1288 
Q 3706 609 3251 259 
Q 2797 -91 1919 -91 
Q 1588 -91 1214 -16 
Q 841 59 441 206 
L 441 856 
Q 825 641 1194 531 
Q 1563 422 1919 422 
Q 2459 422 2753 634 
Q 3047 847 3047 1241 
Q 3047 1584 2836 1778 
Q 2625 1972 2144 2069 
L 1759 2144 
Q 1053 2284 737 2584 
Q 422 2884 422 3419 
Q 422 4038 858 4394 
Q 1294 4750 2059 4750 
Q 2388 4750 2728 4690 
Q 3069 4631 3425 4513 
z
" transform="scale(0.015625)"/>
      </defs>
      <use xlink:href="#DejaVuSans-53"/>
      <use xlink:href="#DejaVuSans-6f" x="63.476562"/>
      <use xlink:href="#DejaVuSans-63" x="124.658203"/>
      <use xlink:href="#DejaVuSans-69" x="179.638672"/>
      <use xlink:href="#DejaVuSans-6f" x="207.421875"/>
      <use xlink:href="#DejaVuSans-6c" x="268.603516"/>
      <use xlink:href="#DejaVuSans-6f" x="296.386719"/>
      <use xlink:href="#DejaVuSans-67" x="357.568359"/>
      <use xlink:href="#DejaVuSans-79" x="421.044922"/>
     </g>
    </g>
   </g>
  </g>
 </g>
 <defs>
  <clipPath id="p8e12400ba3">
   <rect x="73.37" y="25.44" width="481.43" height="364.6"/>
  </clipPath>
 </defs>
</svg>
