<?xml version="1.0" encoding="utf-8" standalone="no"?>
<!DOCTYPE svg PUBLIC "-//W3C//DTD SVG 1.1//EN"
  "http://www.w3.org/Graphics/SVG/1.1/DTD/svg11.dtd">
<svg xmlns:xlink="http://www.w3.org/1999/xlink" width="720pt" height="432pt" viewBox="0 0 720 432" xmlns="http://www.w3.org/2000/svg" version="1.1">
 <metadata>
  <rdf:RDF xmlns:dc="http://purl.org/dc/elements/1.1/" xmlns:cc="http://creativecommons.org/ns#" xmlns:rdf="http://www.w3.org/1999/02/22-rdf-syntax-ns#">
   <cc:Work>
    <dc:type rdf:resource="http://purl.org/dc/dcmitype/StillImage"/>
    <dc:date>2023-06-21T10:51:16.862665</dc:date>
    <dc:format>image/svg+xml</dc:format>
    <dc:creator>
     <cc:Agent>
      <dc:title>Matplotlib v3.7.1, https://matplotlib.org/</dc:title>
     </cc:Agent>
    </dc:creator>
   </cc:Work>
  </rdf:RDF>
 </metadata>
 <defs>
  <style type="text/css">*{stroke-linejoin: round; stroke-linecap: butt}</style>
 </defs>
 <g id="figure_1">
  <g id="patch_1">
   <path d="M 0 432 
L 720 432 
L 720 0 
L 0 0 
z
" style="fill: #ffffff"/>
  </g>
  <g id="axes_1">
   <g id="patch_2">
    <path d="M 82.91 390.04 
L 554.8 390.04 
L 554.8 25.44 
L 82.91 25.44 
z
" style="fill: #ffffff"/>
   </g>
   <g id="matplotlib.axis_1">
    <g id="xtick_1">
     <g id="line2d_1">
      <defs>
       <path id="m50edfb6b27" d="M 0 0 
L 0 3.5 
" style="stroke: #000000; stroke-width: 0.8"/>
      </defs>
      <g>
       <use xlink:href="#m50edfb6b27" x="84.521816" y="390.04" style="stroke: #000000; stroke-width: 0.8"/>
      </g>
     </g>
     <g id="text_1">
      <!-- 1650 -->
      <g transform="translate(71.796816 404.638438) scale(0.1 -0.1)">
       <defs>
        <path id="DejaVuSans-31" d="M 794 531 
L 1825 531 
L 1825 4091 
L 703 3866 
L 703 4441 
L 1819 4666 
L 2450 4666 
L 2450 531 
L 3481 531 
L 3481 0 
L 794 0 
L 794 531 
z
" transform="scale(0.015625)"/>
        <path id="DejaVuSans-36" d="M 2113 2584 
Q 1688 2584 1439 2293 
Q 1191 2003 1191 1497 
Q 1191 994 1439 701 
Q 1688 409 2113 409 
Q 2538 409 2786 701 
Q 3034 994 3034 1497 
Q 3034 2003 2786 2293 
Q 2538 2584 2113 2584 
z
M 3366 4563 
L 3366 3988 
Q 3128 4100 2886 4159 
Q 2644 4219 2406 4219 
Q 1781 4219 1451 3797 
Q 1122 3375 1075 2522 
Q 1259 2794 1537 2939 
Q 1816 3084 2150 3084 
Q 2853 3084 3261 2657 
Q 3669 2231 3669 1497 
Q 3669 778 3244 343 
Q 2819 -91 2113 -91 
Q 1303 -91 875 529 
Q 447 1150 447 2328 
Q 447 3434 972 4092 
Q 1497 4750 2381 4750 
Q 2619 4750 2861 4703 
Q 3103 4656 3366 4563 
z
" transform="scale(0.015625)"/>
        <path id="DejaVuSans-35" d="M 691 4666 
L 3169 4666 
L 3169 4134 
L 1269 4134 
L 1269 2991 
Q 1406 3038 1543 3061 
Q 1681 3084 1819 3084 
Q 2600 3084 3056 2656 
Q 3513 2228 3513 1497 
Q 3513 744 3044 326 
Q 2575 -91 1722 -91 
Q 1428 -91 1123 -41 
Q 819 9 494 109 
L 494 744 
Q 775 591 1075 516 
Q 1375 441 1709 441 
Q 2250 441 2565 725 
Q 2881 1009 2881 1497 
Q 2881 1984 2565 2268 
Q 2250 2553 1709 2553 
Q 1456 2553 1204 2497 
Q 953 2441 691 2322 
L 691 4666 
z
" transform="scale(0.015625)"/>
        <path id="DejaVuSans-30" d="M 2034 4250 
Q 1547 4250 1301 3770 
Q 1056 3291 1056 2328 
Q 1056 1369 1301 889 
Q 1547 409 2034 409 
Q 2525 409 2770 889 
Q 3016 1369 3016 2328 
Q 3016 3291 2770 3770 
Q 2525 4250 2034 4250 
z
M 2034 4750 
Q 2819 4750 3233 4129 
Q 3647 3509 3647 2328 
Q 3647 1150 3233 529 
Q 2819 -91 2034 -91 
Q 1250 -91 836 529 
Q 422 1150 422 2328 
Q 422 3509 836 4129 
Q 1250 4750 2034 4750 
z
" transform="scale(0.015625)"/>
       </defs>
       <use xlink:href="#DejaVuSans-31"/>
       <use xlink:href="#DejaVuSans-36" x="63.623047"/>
       <use xlink:href="#DejaVuSans-35" x="127.246094"/>
       <use xlink:href="#DejaVuSans-30" x="190.869141"/>
      </g>
     </g>
    </g>
    <g id="xtick_2">
     <g id="line2d_2">
      <g>
       <use xlink:href="#m50edfb6b27" x="146.514721" y="390.04" style="stroke: #000000; stroke-width: 0.8"/>
      </g>
     </g>
     <g id="text_2">
      <!-- 1700 -->
      <g transform="translate(133.789721 404.638438) scale(0.1 -0.1)">
       <defs>
        <path id="DejaVuSans-37" d="M 525 4666 
L 3525 4666 
L 3525 4397 
L 1831 0 
L 1172 0 
L 2766 4134 
L 525 4134 
L 525 4666 
z
" transform="scale(0.015625)"/>
       </defs>
       <use xlink:href="#DejaVuSans-31"/>
       <use xlink:href="#DejaVuSans-37" x="63.623047"/>
       <use xlink:href="#DejaVuSans-30" x="127.246094"/>
       <use xlink:href="#DejaVuSans-30" x="190.869141"/>
      </g>
     </g>
    </g>
    <g id="xtick_3">
     <g id="line2d_3">
      <g>
       <use xlink:href="#m50edfb6b27" x="208.507627" y="390.04" style="stroke: #000000; stroke-width: 0.8"/>
      </g>
     </g>
     <g id="text_3">
      <!-- 1750 -->
      <g transform="translate(195.782627 404.638438) scale(0.1 -0.1)">
       <use xlink:href="#DejaVuSans-31"/>
       <use xlink:href="#DejaVuSans-37" x="63.623047"/>
       <use xlink:href="#DejaVuSans-35" x="127.246094"/>
       <use xlink:href="#DejaVuSans-30" x="190.869141"/>
      </g>
     </g>
    </g>
    <g id="xtick_4">
     <g id="line2d_4">
      <g>
       <use xlink:href="#m50edfb6b27" x="270.500533" y="390.04" style="stroke: #000000; stroke-width: 0.8"/>
      </g>
     </g>
     <g id="text_4">
      <!-- 1800 -->
      <g transform="translate(257.775533 404.638438) scale(0.1 -0.1)">
       <defs>
        <path id="DejaVuSans-38" d="M 2034 2216 
Q 1584 2216 1326 1975 
Q 1069 1734 1069 1313 
Q 1069 891 1326 650 
Q 1584 409 2034 409 
Q 2484 409 2743 651 
Q 3003 894 3003 1313 
Q 3003 1734 2745 1975 
Q 2488 2216 2034 2216 
z
M 1403 2484 
Q 997 2584 770 2862 
Q 544 3141 544 3541 
Q 544 4100 942 4425 
Q 1341 4750 2034 4750 
Q 2731 4750 3128 4425 
Q 3525 4100 3525 3541 
Q 3525 3141 3298 2862 
Q 3072 2584 2669 2484 
Q 3125 2378 3379 2068 
Q 3634 1759 3634 1313 
Q 3634 634 3220 271 
Q 2806 -91 2034 -91 
Q 1263 -91 848 271 
Q 434 634 434 1313 
Q 434 1759 690 2068 
Q 947 2378 1403 2484 
z
M 1172 3481 
Q 1172 3119 1398 2916 
Q 1625 2713 2034 2713 
Q 2441 2713 2670 2916 
Q 2900 3119 2900 3481 
Q 2900 3844 2670 4047 
Q 2441 4250 2034 4250 
Q 1625 4250 1398 4047 
Q 1172 3844 1172 3481 
z
" transform="scale(0.015625)"/>
       </defs>
       <use xlink:href="#DejaVuSans-31"/>
       <use xlink:href="#DejaVuSans-38" x="63.623047"/>
       <use xlink:href="#DejaVuSans-30" x="127.246094"/>
       <use xlink:href="#DejaVuSans-30" x="190.869141"/>
      </g>
     </g>
    </g>
    <g id="xtick_5">
     <g id="line2d_5">
      <g>
       <use xlink:href="#m50edfb6b27" x="332.493439" y="390.04" style="stroke: #000000; stroke-width: 0.8"/>
      </g>
     </g>
     <g id="text_5">
      <!-- 1850 -->
      <g transform="translate(319.768439 404.638438) scale(0.1 -0.1)">
       <use xlink:href="#DejaVuSans-31"/>
       <use xlink:href="#DejaVuSans-38" x="63.623047"/>
       <use xlink:href="#DejaVuSans-35" x="127.246094"/>
       <use xlink:href="#DejaVuSans-30" x="190.869141"/>
      </g>
     </g>
    </g>
    <g id="xtick_6">
     <g id="line2d_6">
      <g>
       <use xlink:href="#m50edfb6b27" x="394.486345" y="390.04" style="stroke: #000000; stroke-width: 0.8"/>
      </g>
     </g>
     <g id="text_6">
      <!-- 1900 -->
      <g transform="translate(381.761345 404.638438) scale(0.1 -0.1)">
       <defs>
        <path id="DejaVuSans-39" d="M 703 97 
L 703 672 
Q 941 559 1184 500 
Q 1428 441 1663 441 
Q 2288 441 2617 861 
Q 2947 1281 2994 2138 
Q 2813 1869 2534 1725 
Q 2256 1581 1919 1581 
Q 1219 1581 811 2004 
Q 403 2428 403 3163 
Q 403 3881 828 4315 
Q 1253 4750 1959 4750 
Q 2769 4750 3195 4129 
Q 3622 3509 3622 2328 
Q 3622 1225 3098 567 
Q 2575 -91 1691 -91 
Q 1453 -91 1209 -44 
Q 966 3 703 97 
z
M 1959 2075 
Q 2384 2075 2632 2365 
Q 2881 2656 2881 3163 
Q 2881 3666 2632 3958 
Q 2384 4250 1959 4250 
Q 1534 4250 1286 3958 
Q 1038 3666 1038 3163 
Q 1038 2656 1286 2365 
Q 1534 2075 1959 2075 
z
" transform="scale(0.015625)"/>
       </defs>
       <use xlink:href="#DejaVuSans-31"/>
       <use xlink:href="#DejaVuSans-39" x="63.623047"/>
       <use xlink:href="#DejaVuSans-30" x="127.246094"/>
       <use xlink:href="#DejaVuSans-30" x="190.869141"/>
      </g>
     </g>
    </g>
    <g id="xtick_7">
     <g id="line2d_7">
      <g>
       <use xlink:href="#m50edfb6b27" x="456.479251" y="390.04" style="stroke: #000000; stroke-width: 0.8"/>
      </g>
     </g>
     <g id="text_7">
      <!-- 1950 -->
      <g transform="translate(443.754251 404.638438) scale(0.1 -0.1)">
       <use xlink:href="#DejaVuSans-31"/>
       <use xlink:href="#DejaVuSans-39" x="63.623047"/>
       <use xlink:href="#DejaVuSans-35" x="127.246094"/>
       <use xlink:href="#DejaVuSans-30" x="190.869141"/>
      </g>
     </g>
    </g>
    <g id="xtick_8">
     <g id="line2d_8">
      <g>
       <use xlink:href="#m50edfb6b27" x="518.472157" y="390.04" style="stroke: #000000; stroke-width: 0.8"/>
      </g>
     </g>
     <g id="text_8">
      <!-- 2000 -->
      <g transform="translate(505.747157 404.638438) scale(0.1 -0.1)">
       <defs>
        <path id="DejaVuSans-32" d="M 1228 531 
L 3431 531 
L 3431 0 
L 469 0 
L 469 531 
Q 828 903 1448 1529 
Q 2069 2156 2228 2338 
Q 2531 2678 2651 2914 
Q 2772 3150 2772 3378 
Q 2772 3750 2511 3984 
Q 2250 4219 1831 4219 
Q 1534 4219 1204 4116 
Q 875 4013 500 3803 
L 500 4441 
Q 881 4594 1212 4672 
Q 1544 4750 1819 4750 
Q 2544 4750 2975 4387 
Q 3406 4025 3406 3419 
Q 3406 3131 3298 2873 
Q 3191 2616 2906 2266 
Q 2828 2175 2409 1742 
Q 1991 1309 1228 531 
z
" transform="scale(0.015625)"/>
       </defs>
       <use xlink:href="#DejaVuSans-32"/>
       <use xlink:href="#DejaVuSans-30" x="63.623047"/>
       <use xlink:href="#DejaVuSans-30" x="127.246094"/>
       <use xlink:href="#DejaVuSans-30" x="190.869141"/>
      </g>
     </g>
    </g>
    <g id="text_9">
     <!-- Publication Year -->
     <g transform="translate(279.239375 418.316562) scale(0.1 -0.1)">
      <defs>
       <path id="DejaVuSans-50" d="M 1259 4147 
L 1259 2394 
L 2053 2394 
Q 2494 2394 2734 2622 
Q 2975 2850 2975 3272 
Q 2975 3691 2734 3919 
Q 2494 4147 2053 4147 
L 1259 4147 
z
M 628 4666 
L 2053 4666 
Q 2838 4666 3239 4311 
Q 3641 3956 3641 3272 
Q 3641 2581 3239 2228 
Q 2838 1875 2053 1875 
L 1259 1875 
L 1259 0 
L 628 0 
L 628 4666 
z
" transform="scale(0.015625)"/>
       <path id="DejaVuSans-75" d="M 544 1381 
L 544 3500 
L 1119 3500 
L 1119 1403 
Q 1119 906 1312 657 
Q 1506 409 1894 409 
Q 2359 409 2629 706 
Q 2900 1003 2900 1516 
L 2900 3500 
L 3475 3500 
L 3475 0 
L 2900 0 
L 2900 538 
Q 2691 219 2414 64 
Q 2138 -91 1772 -91 
Q 1169 -91 856 284 
Q 544 659 544 1381 
z
M 1991 3584 
L 1991 3584 
z
" transform="scale(0.015625)"/>
       <path id="DejaVuSans-62" d="M 3116 1747 
Q 3116 2381 2855 2742 
Q 2594 3103 2138 3103 
Q 1681 3103 1420 2742 
Q 1159 2381 1159 1747 
Q 1159 1113 1420 752 
Q 1681 391 2138 391 
Q 2594 391 2855 752 
Q 3116 1113 3116 1747 
z
M 1159 2969 
Q 1341 3281 1617 3432 
Q 1894 3584 2278 3584 
Q 2916 3584 3314 3078 
Q 3713 2572 3713 1747 
Q 3713 922 3314 415 
Q 2916 -91 2278 -91 
Q 1894 -91 1617 61 
Q 1341 213 1159 525 
L 1159 0 
L 581 0 
L 581 4863 
L 1159 4863 
L 1159 2969 
z
" transform="scale(0.015625)"/>
       <path id="DejaVuSans-6c" d="M 603 4863 
L 1178 4863 
L 1178 0 
L 603 0 
L 603 4863 
z
" transform="scale(0.015625)"/>
       <path id="DejaVuSans-69" d="M 603 3500 
L 1178 3500 
L 1178 0 
L 603 0 
L 603 3500 
z
M 603 4863 
L 1178 4863 
L 1178 4134 
L 603 4134 
L 603 4863 
z
" transform="scale(0.015625)"/>
       <path id="DejaVuSans-63" d="M 3122 3366 
L 3122 2828 
Q 2878 2963 2633 3030 
Q 2388 3097 2138 3097 
Q 1578 3097 1268 2742 
Q 959 2388 959 1747 
Q 959 1106 1268 751 
Q 1578 397 2138 397 
Q 2388 397 2633 464 
Q 2878 531 3122 666 
L 3122 134 
Q 2881 22 2623 -34 
Q 2366 -91 2075 -91 
Q 1284 -91 818 406 
Q 353 903 353 1747 
Q 353 2603 823 3093 
Q 1294 3584 2113 3584 
Q 2378 3584 2631 3529 
Q 2884 3475 3122 3366 
z
" transform="scale(0.015625)"/>
       <path id="DejaVuSans-61" d="M 2194 1759 
Q 1497 1759 1228 1600 
Q 959 1441 959 1056 
Q 959 750 1161 570 
Q 1363 391 1709 391 
Q 2188 391 2477 730 
Q 2766 1069 2766 1631 
L 2766 1759 
L 2194 1759 
z
M 3341 1997 
L 3341 0 
L 2766 0 
L 2766 531 
Q 2569 213 2275 61 
Q 1981 -91 1556 -91 
Q 1019 -91 701 211 
Q 384 513 384 1019 
Q 384 1609 779 1909 
Q 1175 2209 1959 2209 
L 2766 2209 
L 2766 2266 
Q 2766 2663 2505 2880 
Q 2244 3097 1772 3097 
Q 1472 3097 1187 3025 
Q 903 2953 641 2809 
L 641 3341 
Q 956 3463 1253 3523 
Q 1550 3584 1831 3584 
Q 2591 3584 2966 3190 
Q 3341 2797 3341 1997 
z
" transform="scale(0.015625)"/>
       <path id="DejaVuSans-74" d="M 1172 4494 
L 1172 3500 
L 2356 3500 
L 2356 3053 
L 1172 3053 
L 1172 1153 
Q 1172 725 1289 603 
Q 1406 481 1766 481 
L 2356 481 
L 2356 0 
L 1766 0 
Q 1100 0 847 248 
Q 594 497 594 1153 
L 594 3053 
L 172 3053 
L 172 3500 
L 594 3500 
L 594 4494 
L 1172 4494 
z
" transform="scale(0.015625)"/>
       <path id="DejaVuSans-6f" d="M 1959 3097 
Q 1497 3097 1228 2736 
Q 959 2375 959 1747 
Q 959 1119 1226 758 
Q 1494 397 1959 397 
Q 2419 397 2687 759 
Q 2956 1122 2956 1747 
Q 2956 2369 2687 2733 
Q 2419 3097 1959 3097 
z
M 1959 3584 
Q 2709 3584 3137 3096 
Q 3566 2609 3566 1747 
Q 3566 888 3137 398 
Q 2709 -91 1959 -91 
Q 1206 -91 779 398 
Q 353 888 353 1747 
Q 353 2609 779 3096 
Q 1206 3584 1959 3584 
z
" transform="scale(0.015625)"/>
       <path id="DejaVuSans-6e" d="M 3513 2113 
L 3513 0 
L 2938 0 
L 2938 2094 
Q 2938 2591 2744 2837 
Q 2550 3084 2163 3084 
Q 1697 3084 1428 2787 
Q 1159 2491 1159 1978 
L 1159 0 
L 581 0 
L 581 3500 
L 1159 3500 
L 1159 2956 
Q 1366 3272 1645 3428 
Q 1925 3584 2291 3584 
Q 2894 3584 3203 3211 
Q 3513 2838 3513 2113 
z
" transform="scale(0.015625)"/>
       <path id="DejaVuSans-20" transform="scale(0.015625)"/>
       <path id="DejaVuSans-59" d="M -13 4666 
L 666 4666 
L 1959 2747 
L 3244 4666 
L 3922 4666 
L 2272 2222 
L 2272 0 
L 1638 0 
L 1638 2222 
L -13 4666 
z
" transform="scale(0.015625)"/>
       <path id="DejaVuSans-65" d="M 3597 1894 
L 3597 1613 
L 953 1613 
Q 991 1019 1311 708 
Q 1631 397 2203 397 
Q 2534 397 2845 478 
Q 3156 559 3463 722 
L 3463 178 
Q 3153 47 2828 -22 
Q 2503 -91 2169 -91 
Q 1331 -91 842 396 
Q 353 884 353 1716 
Q 353 2575 817 3079 
Q 1281 3584 2069 3584 
Q 2775 3584 3186 3129 
Q 3597 2675 3597 1894 
z
M 3022 2063 
Q 3016 2534 2758 2815 
Q 2500 3097 2075 3097 
Q 1594 3097 1305 2825 
Q 1016 2553 972 2059 
L 3022 2063 
z
" transform="scale(0.015625)"/>
       <path id="DejaVuSans-72" d="M 2631 2963 
Q 2534 3019 2420 3045 
Q 2306 3072 2169 3072 
Q 1681 3072 1420 2755 
Q 1159 2438 1159 1844 
L 1159 0 
L 581 0 
L 581 3500 
L 1159 3500 
L 1159 2956 
Q 1341 3275 1631 3429 
Q 1922 3584 2338 3584 
Q 2397 3584 2469 3576 
Q 2541 3569 2628 3553 
L 2631 2963 
z
" transform="scale(0.015625)"/>
      </defs>
      <use xlink:href="#DejaVuSans-50"/>
      <use xlink:href="#DejaVuSans-75" x="58.552734"/>
      <use xlink:href="#DejaVuSans-62" x="121.931641"/>
      <use xlink:href="#DejaVuSans-6c" x="185.408203"/>
      <use xlink:href="#DejaVuSans-69" x="213.191406"/>
      <use xlink:href="#DejaVuSans-63" x="240.974609"/>
      <use xlink:href="#DejaVuSans-61" x="295.955078"/>
      <use xlink:href="#DejaVuSans-74" x="357.234375"/>
      <use xlink:href="#DejaVuSans-69" x="396.443359"/>
      <use xlink:href="#DejaVuSans-6f" x="424.226562"/>
      <use xlink:href="#DejaVuSans-6e" x="485.408203"/>
      <use xlink:href="#DejaVuSans-20" x="548.787109"/>
      <use xlink:href="#DejaVuSans-59" x="580.574219"/>
      <use xlink:href="#DejaVuSans-65" x="628.408203"/>
      <use xlink:href="#DejaVuSans-61" x="689.931641"/>
      <use xlink:href="#DejaVuSans-72" x="751.210938"/>
     </g>
    </g>
   </g>
   <g id="matplotlib.axis_2">
    <g id="ytick_1">
     <g id="line2d_9">
      <defs>
       <path id="m40fb7b7a6d" d="M 0 0 
L -3.5 0 
" style="stroke: #000000; stroke-width: 0.8"/>
      </defs>
      <g>
       <use xlink:href="#m40fb7b7a6d" x="82.91" y="373.467443" style="stroke: #000000; stroke-width: 0.8"/>
      </g>
     </g>
     <g id="text_10">
      <!-- 0 -->
      <g transform="translate(69.5475 377.266662) scale(0.1 -0.1)">
       <use xlink:href="#DejaVuSans-30"/>
      </g>
     </g>
    </g>
    <g id="ytick_2">
     <g id="line2d_10">
      <g>
       <use xlink:href="#m40fb7b7a6d" x="82.91" y="330.775839" style="stroke: #000000; stroke-width: 0.8"/>
      </g>
     </g>
     <g id="text_11">
      <!-- 250,000 -->
      <g transform="translate(34.556875 334.575057) scale(0.1 -0.1)">
       <defs>
        <path id="DejaVuSans-2c" d="M 750 794 
L 1409 794 
L 1409 256 
L 897 -744 
L 494 -744 
L 750 256 
L 750 794 
z
" transform="scale(0.015625)"/>
       </defs>
       <use xlink:href="#DejaVuSans-32"/>
       <use xlink:href="#DejaVuSans-35" x="63.623047"/>
       <use xlink:href="#DejaVuSans-30" x="127.246094"/>
       <use xlink:href="#DejaVuSans-2c" x="190.869141"/>
       <use xlink:href="#DejaVuSans-30" x="222.65625"/>
       <use xlink:href="#DejaVuSans-30" x="286.279297"/>
       <use xlink:href="#DejaVuSans-30" x="349.902344"/>
      </g>
     </g>
    </g>
    <g id="ytick_3">
     <g id="line2d_11">
      <g>
       <use xlink:href="#m40fb7b7a6d" x="82.91" y="288.084234" style="stroke: #000000; stroke-width: 0.8"/>
      </g>
     </g>
     <g id="text_12">
      <!-- 500,000 -->
      <g transform="translate(34.556875 291.883453) scale(0.1 -0.1)">
       <use xlink:href="#DejaVuSans-35"/>
       <use xlink:href="#DejaVuSans-30" x="63.623047"/>
       <use xlink:href="#DejaVuSans-30" x="127.246094"/>
       <use xlink:href="#DejaVuSans-2c" x="190.869141"/>
       <use xlink:href="#DejaVuSans-30" x="222.65625"/>
       <use xlink:href="#DejaVuSans-30" x="286.279297"/>
       <use xlink:href="#DejaVuSans-30" x="349.902344"/>
      </g>
     </g>
    </g>
    <g id="ytick_4">
     <g id="line2d_12">
      <g>
       <use xlink:href="#m40fb7b7a6d" x="82.91" y="245.392629" style="stroke: #000000; stroke-width: 0.8"/>
      </g>
     </g>
     <g id="text_13">
      <!-- 750,000 -->
      <g transform="translate(34.556875 249.191848) scale(0.1 -0.1)">
       <use xlink:href="#DejaVuSans-37"/>
       <use xlink:href="#DejaVuSans-35" x="63.623047"/>
       <use xlink:href="#DejaVuSans-30" x="127.246094"/>
       <use xlink:href="#DejaVuSans-2c" x="190.869141"/>
       <use xlink:href="#DejaVuSans-30" x="222.65625"/>
       <use xlink:href="#DejaVuSans-30" x="286.279297"/>
       <use xlink:href="#DejaVuSans-30" x="349.902344"/>
      </g>
     </g>
    </g>
    <g id="ytick_5">
     <g id="line2d_13">
      <g>
       <use xlink:href="#m40fb7b7a6d" x="82.91" y="202.701025" style="stroke: #000000; stroke-width: 0.8"/>
      </g>
     </g>
     <g id="text_14">
      <!-- 1,000,000 -->
      <g transform="translate(25.01625 206.500243) scale(0.1 -0.1)">
       <use xlink:href="#DejaVuSans-31"/>
       <use xlink:href="#DejaVuSans-2c" x="63.623047"/>
       <use xlink:href="#DejaVuSans-30" x="95.410156"/>
       <use xlink:href="#DejaVuSans-30" x="159.033203"/>
       <use xlink:href="#DejaVuSans-30" x="222.65625"/>
       <use xlink:href="#DejaVuSans-2c" x="286.279297"/>
       <use xlink:href="#DejaVuSans-30" x="318.066406"/>
       <use xlink:href="#DejaVuSans-30" x="381.689453"/>
       <use xlink:href="#DejaVuSans-30" x="445.3125"/>
      </g>
     </g>
    </g>
    <g id="ytick_6">
     <g id="line2d_14">
      <g>
       <use xlink:href="#m40fb7b7a6d" x="82.91" y="160.00942" style="stroke: #000000; stroke-width: 0.8"/>
      </g>
     </g>
     <g id="text_15">
      <!-- 1,250,000 -->
      <g transform="translate(25.01625 163.808639) scale(0.1 -0.1)">
       <use xlink:href="#DejaVuSans-31"/>
       <use xlink:href="#DejaVuSans-2c" x="63.623047"/>
       <use xlink:href="#DejaVuSans-32" x="95.410156"/>
       <use xlink:href="#DejaVuSans-35" x="159.033203"/>
       <use xlink:href="#DejaVuSans-30" x="222.65625"/>
       <use xlink:href="#DejaVuSans-2c" x="286.279297"/>
       <use xlink:href="#DejaVuSans-30" x="318.066406"/>
       <use xlink:href="#DejaVuSans-30" x="381.689453"/>
       <use xlink:href="#DejaVuSans-30" x="445.3125"/>
      </g>
     </g>
    </g>
    <g id="ytick_7">
     <g id="line2d_15">
      <g>
       <use xlink:href="#m40fb7b7a6d" x="82.91" y="117.317815" style="stroke: #000000; stroke-width: 0.8"/>
      </g>
     </g>
     <g id="text_16">
      <!-- 1,500,000 -->
      <g transform="translate(25.01625 121.117034) scale(0.1 -0.1)">
       <use xlink:href="#DejaVuSans-31"/>
       <use xlink:href="#DejaVuSans-2c" x="63.623047"/>
       <use xlink:href="#DejaVuSans-35" x="95.410156"/>
       <use xlink:href="#DejaVuSans-30" x="159.033203"/>
       <use xlink:href="#DejaVuSans-30" x="222.65625"/>
       <use xlink:href="#DejaVuSans-2c" x="286.279297"/>
       <use xlink:href="#DejaVuSans-30" x="318.066406"/>
       <use xlink:href="#DejaVuSans-30" x="381.689453"/>
       <use xlink:href="#DejaVuSans-30" x="445.3125"/>
      </g>
     </g>
    </g>
    <g id="ytick_8">
     <g id="line2d_16">
      <g>
       <use xlink:href="#m40fb7b7a6d" x="82.91" y="74.62621" style="stroke: #000000; stroke-width: 0.8"/>
      </g>
     </g>
     <g id="text_17">
      <!-- 1,750,000 -->
      <g transform="translate(25.01625 78.425429) scale(0.1 -0.1)">
       <use xlink:href="#DejaVuSans-31"/>
       <use xlink:href="#DejaVuSans-2c" x="63.623047"/>
       <use xlink:href="#DejaVuSans-37" x="95.410156"/>
       <use xlink:href="#DejaVuSans-35" x="159.033203"/>
       <use xlink:href="#DejaVuSans-30" x="222.65625"/>
       <use xlink:href="#DejaVuSans-2c" x="286.279297"/>
       <use xlink:href="#DejaVuSans-30" x="318.066406"/>
       <use xlink:href="#DejaVuSans-30" x="381.689453"/>
       <use xlink:href="#DejaVuSans-30" x="445.3125"/>
      </g>
     </g>
    </g>
    <g id="ytick_9">
     <g id="line2d_17">
      <g>
       <use xlink:href="#m40fb7b7a6d" x="82.91" y="31.934606" style="stroke: #000000; stroke-width: 0.8"/>
      </g>
     </g>
     <g id="text_18">
      <!-- 2,000,000 -->
      <g transform="translate(25.01625 35.733824) scale(0.1 -0.1)">
       <use xlink:href="#DejaVuSans-32"/>
       <use xlink:href="#DejaVuSans-2c" x="63.623047"/>
       <use xlink:href="#DejaVuSans-30" x="95.410156"/>
       <use xlink:href="#DejaVuSans-30" x="159.033203"/>
       <use xlink:href="#DejaVuSans-30" x="222.65625"/>
       <use xlink:href="#DejaVuSans-2c" x="286.279297"/>
       <use xlink:href="#DejaVuSans-30" x="318.066406"/>
       <use xlink:href="#DejaVuSans-30" x="381.689453"/>
       <use xlink:href="#DejaVuSans-30" x="445.3125"/>
      </g>
     </g>
    </g>
    <g id="text_19">
     <!-- Number of Works -->
     <g transform="translate(18.936563 251.088437) rotate(-90) scale(0.1 -0.1)">
      <defs>
       <path id="DejaVuSans-4e" d="M 628 4666 
L 1478 4666 
L 3547 763 
L 3547 4666 
L 4159 4666 
L 4159 0 
L 3309 0 
L 1241 3903 
L 1241 0 
L 628 0 
L 628 4666 
z
" transform="scale(0.015625)"/>
       <path id="DejaVuSans-6d" d="M 3328 2828 
Q 3544 3216 3844 3400 
Q 4144 3584 4550 3584 
Q 5097 3584 5394 3201 
Q 5691 2819 5691 2113 
L 5691 0 
L 5113 0 
L 5113 2094 
Q 5113 2597 4934 2840 
Q 4756 3084 4391 3084 
Q 3944 3084 3684 2787 
Q 3425 2491 3425 1978 
L 3425 0 
L 2847 0 
L 2847 2094 
Q 2847 2600 2669 2842 
Q 2491 3084 2119 3084 
Q 1678 3084 1418 2786 
Q 1159 2488 1159 1978 
L 1159 0 
L 581 0 
L 581 3500 
L 1159 3500 
L 1159 2956 
Q 1356 3278 1631 3431 
Q 1906 3584 2284 3584 
Q 2666 3584 2933 3390 
Q 3200 3197 3328 2828 
z
" transform="scale(0.015625)"/>
       <path id="DejaVuSans-66" d="M 2375 4863 
L 2375 4384 
L 1825 4384 
Q 1516 4384 1395 4259 
Q 1275 4134 1275 3809 
L 1275 3500 
L 2222 3500 
L 2222 3053 
L 1275 3053 
L 1275 0 
L 697 0 
L 697 3053 
L 147 3053 
L 147 3500 
L 697 3500 
L 697 3744 
Q 697 4328 969 4595 
Q 1241 4863 1831 4863 
L 2375 4863 
z
" transform="scale(0.015625)"/>
       <path id="DejaVuSans-57" d="M 213 4666 
L 850 4666 
L 1831 722 
L 2809 4666 
L 3519 4666 
L 4500 722 
L 5478 4666 
L 6119 4666 
L 4947 0 
L 4153 0 
L 3169 4050 
L 2175 0 
L 1381 0 
L 213 4666 
z
" transform="scale(0.015625)"/>
       <path id="DejaVuSans-6b" d="M 581 4863 
L 1159 4863 
L 1159 1991 
L 2875 3500 
L 3609 3500 
L 1753 1863 
L 3688 0 
L 2938 0 
L 1159 1709 
L 1159 0 
L 581 0 
L 581 4863 
z
" transform="scale(0.015625)"/>
       <path id="DejaVuSans-73" d="M 2834 3397 
L 2834 2853 
Q 2591 2978 2328 3040 
Q 2066 3103 1784 3103 
Q 1356 3103 1142 2972 
Q 928 2841 928 2578 
Q 928 2378 1081 2264 
Q 1234 2150 1697 2047 
L 1894 2003 
Q 2506 1872 2764 1633 
Q 3022 1394 3022 966 
Q 3022 478 2636 193 
Q 2250 -91 1575 -91 
Q 1294 -91 989 -36 
Q 684 19 347 128 
L 347 722 
Q 666 556 975 473 
Q 1284 391 1588 391 
Q 1994 391 2212 530 
Q 2431 669 2431 922 
Q 2431 1156 2273 1281 
Q 2116 1406 1581 1522 
L 1381 1569 
Q 847 1681 609 1914 
Q 372 2147 372 2553 
Q 372 3047 722 3315 
Q 1072 3584 1716 3584 
Q 2034 3584 2315 3537 
Q 2597 3491 2834 3397 
z
" transform="scale(0.015625)"/>
      </defs>
      <use xlink:href="#DejaVuSans-4e"/>
      <use xlink:href="#DejaVuSans-75" x="74.804688"/>
      <use xlink:href="#DejaVuSans-6d" x="138.183594"/>
      <use xlink:href="#DejaVuSans-62" x="235.595703"/>
      <use xlink:href="#DejaVuSans-65" x="299.072266"/>
      <use xlink:href="#DejaVuSans-72" x="360.595703"/>
      <use xlink:href="#DejaVuSans-20" x="401.708984"/>
      <use xlink:href="#DejaVuSans-6f" x="433.496094"/>
      <use xlink:href="#DejaVuSans-66" x="494.677734"/>
      <use xlink:href="#DejaVuSans-20" x="529.882812"/>
      <use xlink:href="#DejaVuSans-57" x="561.669922"/>
      <use xlink:href="#DejaVuSans-6f" x="654.671875"/>
      <use xlink:href="#DejaVuSans-72" x="715.853516"/>
      <use xlink:href="#DejaVuSans-6b" x="756.966797"/>
      <use xlink:href="#DejaVuSans-73" x="814.876953"/>
     </g>
    </g>
   </g>
   <g id="line2d_18">
    <path d="M 104.359545 373.46437 
L 183.710465 373.463687 
L 269.260675 373.436706 
L 270.500533 373.252449 
L 272.98025 373.378986 
L 295.297696 373.371131 
L 321.334716 373.299239 
L 326.294149 373.302995 
L 328.773865 373.248692 
L 331.253581 373.273453 
L 332.493439 373.04548 
L 333.733297 372.981271 
L 336.213014 373.107809 
L 341.172446 372.973929 
L 342.412304 373.081853 
L 357.290602 372.901865 
L 358.53046 373.102857 
L 359.770318 372.94746 
L 368.449325 372.871127 
L 369.689183 372.544622 
L 370.929041 372.732465 
L 373.408757 372.692164 
L 377.128332 372.537279 
L 379.608048 372.51747 
L 382.087764 372.57553 
L 384.56748 372.692505 
L 385.807338 372.554014 
L 393.246487 372.515933 
L 394.486345 372.233144 
L 395.726203 372.385467 
L 399.445778 372.27686 
L 400.685636 372.176449 
L 404.40521 372.158519 
L 405.645068 372.092091 
L 406.884926 371.905102 
L 408.124785 372.041202 
L 410.604501 372.022247 
L 411.844359 372.150834 
L 413.084217 372.465386 
L 414.324075 372.422695 
L 416.803791 372.549062 
L 418.04365 372.482463 
L 419.283508 372.248342 
L 430.442231 371.668249 
L 431.682089 371.385289 
L 432.921947 371.573132 
L 434.161805 371.597039 
L 435.401663 371.759609 
L 441.600954 371.688057 
L 449.040102 372.341068 
L 450.279961 372.34807 
L 452.759677 371.883926 
L 456.479251 371.202568 
L 460.198826 371.125553 
L 462.678542 370.888017 
L 463.9184 370.886992 
L 468.877832 370.354713 
L 470.11769 370.290505 
L 471.357549 369.975612 
L 472.597407 369.957511 
L 477.556839 369.23329 
L 478.796697 368.827549 
L 480.036555 368.673859 
L 481.276414 368.020336 
L 482.516272 368.740458 
L 484.995988 368.280755 
L 486.235846 368.278194 
L 487.475704 368.102987 
L 491.195279 367.161893 
L 492.435137 366.943142 
L 493.674995 366.475242 
L 496.154711 366.244024 
L 499.874285 365.095791 
L 506.073576 362.189517 
L 507.313434 362.036169 
L 513.512725 357.797405 
L 515.992441 355.864158 
L 517.232299 354.622003 
L 518.472157 341.768927 
L 519.712015 351.56426 
L 520.951873 349.014205 
L 522.191731 347.441787 
L 523.43159 344.639681 
L 524.671448 343.426386 
L 525.911306 340.398697 
L 527.151164 331.929024 
L 528.391022 332.70567 
L 529.63088 328.096684 
L 530.870738 324.859636 
L 532.110596 320.368309 
L 533.350455 317.834476 
L 533.350455 317.834476 
" clip-path="url(#peea43301ff)" style="fill: none; stroke: #1f77b4; stroke-opacity: 0.8; stroke-width: 1.5; stroke-linecap: square"/>
   </g>
   <g id="line2d_19">
    <path d="M 104.359545 373.466931 
L 321.334716 373.425435 
L 330.013723 373.370277 
L 332.493439 373.404431 
L 334.973156 373.340906 
L 393.246487 373.079974 
L 394.486345 372.992371 
L 396.966061 373.035746 
L 405.645068 372.853026 
L 408.124785 372.790525 
L 411.844359 372.71351 
L 419.283508 372.649814 
L 426.722656 372.311355 
L 430.442231 372.179523 
L 431.682089 371.906126 
L 432.921947 372.076039 
L 435.401663 371.984337 
L 437.881379 371.90698 
L 442.840812 371.828086 
L 444.08067 371.245772 
L 445.320528 372.036592 
L 450.279961 372.229558 
L 452.759677 371.698816 
L 455.239393 371.569546 
L 456.479251 370.168749 
L 457.719109 370.807927 
L 466.398116 369.517616 
L 467.637974 369.194014 
L 468.877832 367.073949 
L 470.11769 368.538612 
L 471.357549 368.310298 
L 477.556839 365.704744 
L 478.796697 365.137458 
L 480.036555 364.197901 
L 481.276414 360.926187 
L 482.516272 363.713266 
L 483.75613 363.453701 
L 486.235846 362.646659 
L 487.475704 361.844227 
L 488.715562 361.55529 
L 492.435137 359.685569 
L 493.674995 354.941849 
L 494.914853 357.97244 
L 497.394569 356.546711 
L 498.634427 355.461832 
L 499.874285 354.717803 
L 501.114143 353.264068 
L 503.59386 351.070232 
L 504.833718 349.570562 
L 506.073576 344.34972 
L 507.313434 347.346671 
L 508.553292 346.086073 
L 509.79315 345.052936 
L 511.033008 343.098002 
L 512.272867 342.128049 
L 513.512725 340.204024 
L 514.752583 339.399201 
L 515.992441 337.825077 
L 517.232299 337.081218 
L 518.472157 329.984678 
L 519.712015 331.644528 
L 520.951873 329.182417 
L 522.191731 321.045056 
L 523.43159 323.112013 
L 524.671448 321.363364 
L 525.911306 315.680087 
L 527.151164 312.617562 
L 528.391022 307.436509 
L 529.63088 301.126519 
L 530.870738 300.538741 
L 532.110596 297.958461 
L 533.350455 294.702457 
L 533.350455 294.702457 
" clip-path="url(#peea43301ff)" style="fill: none; stroke: #aec7e8; stroke-opacity: 0.8; stroke-width: 1.5; stroke-linecap: square"/>
   </g>
   <g id="line2d_20">
    <path d="M 106.839262 373.467102 
L 327.534007 373.420824 
L 331.253581 373.398112 
L 338.69273 373.382231 
L 346.131879 373.391282 
L 374.648615 373.329464 
L 392.006629 373.198316 
L 398.20592 373.091928 
L 404.40521 373.02772 
L 409.364643 372.936018 
L 418.04365 372.940629 
L 419.283508 372.816311 
L 421.763224 372.848244 
L 427.962514 372.708045 
L 430.442231 372.650838 
L 431.682089 372.571261 
L 435.401663 372.683455 
L 444.08067 372.411253 
L 445.320528 372.604048 
L 450.279961 372.697628 
L 453.999535 372.295986 
L 455.239393 372.239633 
L 456.479251 371.836966 
L 460.198826 371.894856 
L 467.637974 371.573644 
L 468.877832 371.232111 
L 470.11769 371.496287 
L 472.597407 371.332522 
L 476.316981 370.820222 
L 480.036555 370.020523 
L 481.276414 368.960064 
L 482.516272 370.027354 
L 483.75613 369.782304 
L 486.235846 369.439747 
L 492.435137 367.800901 
L 493.674995 366.69331 
L 494.914853 367.416165 
L 496.154711 367.239421 
L 497.394569 366.875518 
L 498.634427 366.654205 
L 499.874285 366.310623 
L 501.114143 365.720796 
L 502.354002 365.34306 
L 504.833718 363.99281 
L 506.073576 362.525756 
L 507.313434 362.770293 
L 508.553292 362.037022 
L 511.033008 360.015319 
L 513.512725 358.129545 
L 515.992441 355.835469 
L 517.232299 354.009122 
L 518.472157 349.549045 
L 519.712015 347.963137 
L 525.911306 330.075013 
L 527.151164 325.485324 
L 530.870738 307.86889 
L 532.110596 300.239217 
L 533.350455 294.3488 
L 533.350455 294.3488 
" clip-path="url(#peea43301ff)" style="fill: none; stroke: #ff7f0e; stroke-opacity: 0.8; stroke-width: 1.5; stroke-linecap: square"/>
   </g>
   <g id="line2d_21">
    <path d="M 109.318978 373.466419 
L 299.01727 373.445415 
L 306.456419 373.420653 
L 316.375284 373.404601 
L 365.969609 373.145207 
L 374.648615 373.103882 
L 380.847906 373.079291 
L 392.006629 373.002959 
L 398.20592 372.885984 
L 413.084217 372.786939 
L 418.04365 372.886838 
L 423.003082 372.421328 
L 440.361096 371.469306 
L 444.08067 371.524122 
L 446.560386 371.843967 
L 449.040102 372.137856 
L 450.279961 372.089871 
L 451.519819 371.72204 
L 452.759677 371.103182 
L 455.239393 370.299897 
L 456.479251 369.415498 
L 462.678542 367.542703 
L 465.158258 366.780231 
L 466.398116 366.16735 
L 468.877832 364.348175 
L 470.11769 364.169724 
L 471.357549 363.470094 
L 472.597407 362.362333 
L 475.077123 361.217685 
L 476.316981 360.286325 
L 477.556839 358.763089 
L 478.796697 357.901914 
L 480.036555 357.556112 
L 481.276414 353.257238 
L 482.516272 353.524146 
L 483.75613 352.242031 
L 484.995988 351.809139 
L 486.235846 351.630346 
L 487.475704 350.840381 
L 488.715562 350.930033 
L 489.95542 349.885967 
L 491.195279 349.109663 
L 492.435137 348.488756 
L 493.674995 346.889529 
L 496.154711 346.061482 
L 497.394569 345.353485 
L 498.634427 344.3142 
L 499.874285 343.746402 
L 501.114143 342.895302 
L 502.354002 341.184735 
L 503.59386 340.465808 
L 504.833718 339.902108 
L 506.073576 337.487984 
L 507.313434 338.526073 
L 508.553292 338.202641 
L 509.79315 337.617254 
L 511.033008 336.404471 
L 512.272867 334.877819 
L 513.512725 333.006048 
L 514.752583 332.720185 
L 515.992441 332.26885 
L 517.232299 331.556412 
L 518.472157 328.43429 
L 519.712015 327.003779 
L 520.951873 324.765032 
L 522.191731 322.025255 
L 523.43159 316.127495 
L 524.671448 314.964234 
L 527.151164 303.632346 
L 528.391022 302.700644 
L 529.63088 297.68421 
L 530.870738 291.284397 
L 532.110596 292.674265 
L 533.350455 290.375066 
L 533.350455 290.375066 
" clip-path="url(#peea43301ff)" style="fill: none; stroke: #ffbb78; stroke-opacity: 0.8; stroke-width: 1.5; stroke-linecap: square"/>
   </g>
   <g id="line2d_22">
    <path d="M 104.359545 373.465736 
L 228.345357 373.466248 
L 243.223655 373.456685 
L 269.260675 373.433461 
L 270.500533 373.284894 
L 272.98025 373.423386 
L 277.939682 373.385646 
L 280.419398 373.40204 
L 289.098405 373.389403 
L 310.175993 373.358324 
L 317.615142 373.294457 
L 320.094858 373.197291 
L 343.652162 372.990151 
L 349.851453 373.039674 
L 363.489892 372.861052 
L 364.72975 372.682601 
L 365.969609 372.801625 
L 392.006629 372.08082 
L 393.246487 371.594648 
L 394.486345 371.665345 
L 395.726203 371.943012 
L 396.966061 371.856945 
L 399.445778 371.904589 
L 404.40521 371.660222 
L 405.645068 371.649293 
L 406.884926 371.515242 
L 408.124785 371.577742 
L 409.364643 371.463841 
L 416.803791 371.783516 
L 420.523366 371.427468 
L 421.763224 371.113258 
L 423.003082 371.188395 
L 431.682089 370.280771 
L 432.921947 370.411578 
L 436.641521 370.357787 
L 437.881379 370.142963 
L 444.08067 370.057238 
L 445.320528 370.453928 
L 446.560386 370.675925 
L 447.800244 370.63255 
L 449.040102 370.995258 
L 450.279961 371.175075 
L 452.759677 370.228005 
L 455.239393 369.140393 
L 456.479251 367.333514 
L 457.719109 367.238226 
L 460.198826 366.669574 
L 462.678542 366.603487 
L 463.9184 366.405057 
L 465.158258 366.023735 
L 466.398116 365.511778 
L 468.877832 364.002032 
L 470.11769 364.139328 
L 471.357549 363.423987 
L 473.837265 361.510037 
L 476.316981 358.011887 
L 477.556839 356.702963 
L 478.796697 355.226175 
L 480.036555 353.311542 
L 481.276414 350.891952 
L 482.516272 351.388199 
L 483.75613 350.535733 
L 484.995988 350.326545 
L 486.235846 349.740645 
L 487.475704 348.197941 
L 488.715562 347.569008 
L 489.95542 346.353151 
L 491.195279 345.31677 
L 492.435137 343.562828 
L 493.674995 341.491602 
L 494.914853 340.170724 
L 496.154711 338.477233 
L 497.394569 337.103418 
L 498.634427 337.233712 
L 499.874285 335.523145 
L 501.114143 332.644365 
L 502.354002 330.895546 
L 503.59386 327.552281 
L 504.833718 321.6564 
L 506.073576 317.647829 
L 507.313434 314.805251 
L 509.79315 307.694708 
L 511.033008 301.216342 
L 512.272867 296.868971 
L 513.512725 287.768316 
L 514.752583 280.191239 
L 515.992441 274.562437 
L 517.232299 265.898944 
L 518.472157 247.373007 
L 519.712015 236.692422 
L 522.191731 203.862578 
L 523.43159 178.589318 
L 524.671448 168.656348 
L 525.911306 145.906504 
L 527.151164 131.602767 
L 529.63088 89.560929 
L 530.870738 72.53398 
L 532.110596 42.012727 
L 533.350455 43.033057 
L 533.350455 43.033057 
" clip-path="url(#peea43301ff)" style="fill: none; stroke: #2ca02c; stroke-opacity: 0.8; stroke-width: 1.5; stroke-linecap: square"/>
   </g>
   <g id="line2d_23">
    <path d="M 109.318978 373.467273 
L 393.246487 373.399649 
L 394.486345 373.274819 
L 395.726203 373.404601 
L 426.722656 373.291554 
L 439.121238 373.202756 
L 453.999535 373.182093 
L 462.678542 372.988273 
L 465.158258 372.980418 
L 477.556839 372.557258 
L 480.036555 372.29923 
L 481.276414 372.051448 
L 482.516272 372.204114 
L 492.435137 371.240479 
L 493.674995 370.91551 
L 494.914853 371.007553 
L 499.874285 370.533335 
L 502.354002 370.099417 
L 503.59386 369.964512 
L 504.833718 369.592241 
L 512.272867 368.489773 
L 513.512725 368.033656 
L 514.752583 367.702711 
L 517.232299 366.705264 
L 518.472157 365.623117 
L 519.712015 365.013823 
L 522.191731 363.118828 
L 523.43159 361.97418 
L 524.671448 361.096953 
L 525.911306 360.388956 
L 527.151164 359.015994 
L 528.391022 358.032038 
L 529.63088 356.760682 
L 530.870738 355.848618 
L 532.110596 354.548403 
L 533.350455 353.73453 
L 533.350455 353.73453 
" clip-path="url(#peea43301ff)" style="fill: none; stroke: #98df8a; stroke-opacity: 0.8; stroke-width: 1.5; stroke-linecap: square"/>
   </g>
   <g id="line2d_24">
    <path d="M 106.839262 373.467273 
L 389.526913 373.35969 
L 416.803791 373.290017 
L 426.722656 373.23281 
L 434.161805 373.121471 
L 441.600954 373.079974 
L 444.08067 373.085097 
L 445.320528 373.099613 
L 446.560386 372.937555 
L 449.040102 373.093465 
L 452.759677 372.962829 
L 467.637974 372.446773 
L 468.877832 372.326895 
L 471.357549 372.308281 
L 472.597407 372.188061 
L 473.837265 372.181402 
L 475.077123 372.044105 
L 476.316981 372.021735 
L 477.556839 371.872997 
L 478.796697 371.893489 
L 481.276414 371.662101 
L 482.516272 371.721698 
L 483.75613 371.501751 
L 484.995988 371.457523 
L 488.715562 370.838665 
L 492.435137 370.479543 
L 493.674995 370.175067 
L 494.914853 370.306728 
L 496.154711 370.250375 
L 499.874285 369.818848 
L 501.114143 369.74576 
L 506.073576 368.712282 
L 507.313434 368.681373 
L 508.553292 368.321056 
L 511.033008 367.977815 
L 512.272867 367.379962 
L 513.512725 367.258889 
L 514.752583 367.294921 
L 515.992441 367.118348 
L 517.232299 366.413083 
L 518.472157 364.399917 
L 519.712015 363.646154 
L 522.191731 360.848147 
L 524.671448 357.490708 
L 525.911306 355.397453 
L 527.151164 352.718128 
L 528.391022 351.050594 
L 529.63088 350.117014 
L 530.870738 348.181377 
L 532.110596 345.834534 
L 533.350455 346.661726 
L 533.350455 346.661726 
" clip-path="url(#peea43301ff)" style="fill: none; stroke: #d62728; stroke-opacity: 0.8; stroke-width: 1.5; stroke-linecap: square"/>
   </g>
   <g id="line2d_25">
    <path d="M 109.318978 373.467273 
L 327.534007 373.391452 
L 328.773865 373.284211 
L 342.412304 373.367374 
L 351.091311 373.391794 
L 363.489892 373.33305 
L 364.72975 373.241349 
L 369.689183 373.241007 
L 377.128332 373.191314 
L 393.246487 373.121812 
L 394.486345 373.0477 
L 396.966061 373.074681 
L 413.084217 373.02994 
L 418.04365 373.030623 
L 420.523366 372.985028 
L 426.722656 372.870444 
L 434.161805 372.781646 
L 436.641521 372.800942 
L 437.881379 372.708899 
L 441.600954 372.742369 
L 442.840812 372.719145 
L 444.08067 372.420475 
L 445.320528 372.816653 
L 451.519819 372.824337 
L 455.239393 372.482975 
L 456.479251 371.900491 
L 457.719109 372.207358 
L 463.9184 371.793933 
L 467.637974 371.505679 
L 468.877832 370.544435 
L 470.11769 371.22067 
L 471.357549 371.1317 
L 475.077123 370.230737 
L 476.316981 370.152184 
L 477.556839 369.866492 
L 480.036555 369.579434 
L 481.276414 367.819856 
L 482.516272 369.139881 
L 484.995988 368.858287 
L 486.235846 368.42676 
L 487.475704 368.117844 
L 488.715562 368.010261 
L 489.95542 367.602129 
L 491.195279 367.427948 
L 492.435137 366.995909 
L 493.674995 365.039438 
L 494.914853 366.343068 
L 496.154711 366.231558 
L 497.394569 366.330603 
L 498.634427 366.079917 
L 499.874285 366.204235 
L 501.114143 365.890537 
L 502.354002 365.70833 
L 504.833718 364.949444 
L 506.073576 362.92996 
L 507.313434 364.129253 
L 509.79315 363.031395 
L 511.033008 362.333131 
L 512.272867 360.816555 
L 515.992441 359.775904 
L 517.232299 359.034778 
L 518.472157 354.857831 
L 519.712015 355.625597 
L 520.951873 353.947817 
L 523.43159 350.227329 
L 524.671448 348.623149 
L 525.911306 345.980198 
L 527.151164 343.925707 
L 528.391022 340.127691 
L 529.63088 338.316372 
L 530.870738 334.785947 
L 532.110596 333.027565 
L 533.350455 331.058286 
L 533.350455 331.058286 
" clip-path="url(#peea43301ff)" style="fill: none; stroke: #ff9896; stroke-opacity: 0.8; stroke-width: 1.5; stroke-linecap: square"/>
   </g>
   <g id="line2d_26">
    <path d="M 104.359545 373.467273 
L 339.932588 373.307606 
L 348.611595 373.272087 
L 352.331169 373.278917 
L 357.290602 373.196096 
L 359.770318 373.209415 
L 413.084217 372.541036 
L 416.803791 372.707874 
L 421.763224 372.390761 
L 425.482798 372.317502 
L 427.962514 372.223581 
L 430.442231 372.12095 
L 431.682089 372.023443 
L 432.921947 372.153396 
L 435.401663 372.174059 
L 436.641521 372.175083 
L 439.121238 371.936523 
L 440.361096 372.033176 
L 442.840812 371.965041 
L 444.08067 369.774107 
L 445.320528 372.224776 
L 450.279961 372.453091 
L 453.999535 372.015758 
L 455.239393 371.97597 
L 456.479251 371.210936 
L 457.719109 371.647415 
L 458.958967 371.622825 
L 460.198826 371.458035 
L 465.158258 371.32313 
L 466.398116 371.12487 
L 467.637974 371.133579 
L 468.877832 370.355226 
L 470.11769 370.90202 
L 472.597407 370.568513 
L 475.077123 370.25379 
L 477.556839 369.988419 
L 478.796697 369.608976 
L 480.036555 369.413278 
L 481.276414 368.368871 
L 482.516272 369.320723 
L 486.235846 368.884244 
L 489.95542 368.067297 
L 491.195279 367.726276 
L 492.435137 367.512306 
L 493.674995 365.980702 
L 494.914853 366.865272 
L 496.154711 366.855026 
L 497.394569 366.727805 
L 498.634427 366.275787 
L 499.874285 366.210725 
L 501.114143 365.794567 
L 504.833718 364.824784 
L 506.073576 363.297962 
L 507.313434 363.922284 
L 512.272867 361.753038 
L 513.512725 360.698214 
L 514.752583 360.348996 
L 515.992441 358.813465 
L 517.232299 358.410627 
L 518.472157 354.626443 
L 519.712015 354.785426 
L 520.951873 353.208057 
L 522.191731 346.6537 
L 523.43159 349.804512 
L 524.671448 348.608293 
L 525.911306 345.520324 
L 527.151164 342.982735 
L 528.391022 339.55921 
L 529.63088 336.571822 
L 530.870738 332.680055 
L 532.110596 329.67542 
L 533.350455 327.077038 
L 533.350455 327.077038 
" clip-path="url(#peea43301ff)" style="fill: none; stroke: #9467bd; stroke-opacity: 0.8; stroke-width: 1.5; stroke-linecap: square"/>
   </g>
   <g id="line2d_27">
    <path d="M 104.359545 373.466931 
L 315.135426 373.429021 
L 322.574574 373.417921 
L 388.287055 373.069387 
L 394.486345 372.991517 
L 396.966061 373.028232 
L 405.645068 372.979393 
L 408.124785 372.932774 
L 411.844359 372.93858 
L 416.803791 373.024305 
L 431.682089 372.678844 
L 434.161805 372.734172 
L 436.641521 372.753128 
L 439.121238 372.664158 
L 447.800244 372.904085 
L 450.279961 372.957535 
L 452.759677 372.764398 
L 455.239393 372.501247 
L 456.479251 372.180889 
L 458.958967 372.150834 
L 467.637974 371.547004 
L 468.877832 371.225963 
L 470.11769 371.319202 
L 471.357549 371.131359 
L 472.597407 370.779751 
L 473.837265 370.566293 
L 475.077123 370.189241 
L 478.796697 369.656791 
L 480.036555 369.465703 
L 481.276414 368.836087 
L 482.516272 369.073965 
L 484.995988 368.638681 
L 486.235846 368.1438 
L 489.95542 367.639527 
L 491.195279 367.325658 
L 492.435137 366.800893 
L 493.674995 366.517592 
L 494.914853 366.491465 
L 496.154711 366.186305 
L 497.394569 366.020149 
L 498.634427 365.577864 
L 499.874285 365.321885 
L 501.114143 365.268606 
L 502.354002 364.818637 
L 503.59386 364.153843 
L 504.833718 363.980515 
L 506.073576 363.322894 
L 509.79315 362.530537 
L 511.033008 362.471111 
L 512.272867 361.910997 
L 513.512725 361.171749 
L 514.752583 360.938141 
L 515.992441 360.507468 
L 517.232299 359.85292 
L 518.472157 357.414888 
L 519.712015 356.152582 
L 520.951873 355.366715 
L 522.191731 352.946614 
L 523.43159 352.363788 
L 524.671448 351.257734 
L 525.911306 349.078413 
L 527.151164 347.494213 
L 528.391022 346.414627 
L 529.63088 343.060263 
L 530.870738 342.380271 
L 532.110596 340.480836 
L 533.350455 339.805967 
L 533.350455 339.805967 
" clip-path="url(#peea43301ff)" style="fill: none; stroke: #c5b0d5; stroke-opacity: 0.8; stroke-width: 1.5; stroke-linecap: square"/>
   </g>
   <g id="line2d_28">
    <path d="M 104.359545 373.465053 
L 160.153161 373.438926 
L 203.548195 373.463857 
L 302.736844 373.427826 
L 313.895568 373.383256 
L 321.334716 373.39316 
L 331.253581 373.320243 
L 332.493439 373.124886 
L 342.412304 373.057604 
L 344.89202 373.057092 
L 346.131879 373.090562 
L 348.611595 373.026012 
L 362.250034 372.96761 
L 364.72975 372.840048 
L 365.969609 372.940629 
L 368.449325 372.82946 
L 369.689183 372.572457 
L 370.929041 372.888375 
L 383.327622 372.676795 
L 384.56748 372.815116 
L 385.807338 372.640592 
L 392.006629 372.470338 
L 393.246487 372.573994 
L 395.726203 372.463166 
L 400.685636 372.482634 
L 403.165352 372.451042 
L 405.645068 372.395884 
L 408.124785 372.283861 
L 410.604501 372.474778 
L 413.084217 372.361219 
L 416.803791 372.610708 
L 418.04365 372.646057 
L 420.523366 372.419962 
L 434.161805 371.867533 
L 436.641521 371.911761 
L 440.361096 371.736043 
L 441.600954 371.639731 
L 442.840812 371.766439 
L 444.08067 371.713843 
L 446.560386 371.938401 
L 451.519819 372.039495 
L 456.479251 371.600796 
L 460.198826 371.553664 
L 461.438684 371.43686 
L 463.9184 371.465036 
L 466.398116 371.205642 
L 467.637974 371.204105 
L 468.877832 371.050245 
L 470.11769 371.025313 
L 472.597407 370.531969 
L 473.837265 370.419775 
L 475.077123 370.157136 
L 476.316981 370.163967 
L 477.556839 369.780426 
L 480.036555 369.479365 
L 481.276414 369.051936 
L 482.516272 369.373831 
L 483.75613 369.049887 
L 486.235846 369.034176 
L 489.95542 368.539808 
L 491.195279 368.528708 
L 492.435137 368.405244 
L 493.674995 368.077885 
L 494.914853 368.277169 
L 497.394569 367.948102 
L 498.634427 367.536726 
L 499.874285 367.658653 
L 503.59386 366.738222 
L 504.833718 366.290302 
L 509.79315 365.148728 
L 511.033008 365.085032 
L 512.272867 364.613546 
L 513.512725 364.384719 
L 514.752583 363.831778 
L 515.992441 363.547281 
L 517.232299 362.948744 
L 518.472157 358.811245 
L 519.712015 360.373074 
L 520.951873 359.548956 
L 522.191731 359.078494 
L 523.43159 357.344703 
L 524.671448 357.74293 
L 525.911306 356.474477 
L 527.151164 345.243682 
L 528.391022 353.135652 
L 529.63088 350.197274 
L 530.870738 348.621613 
L 532.110596 344.929472 
L 533.350455 346.105369 
L 533.350455 346.105369 
" clip-path="url(#peea43301ff)" style="fill: none; stroke: #8c564b; stroke-opacity: 0.8; stroke-width: 1.5; stroke-linecap: square"/>
   </g>
   <g id="line2d_29">
    <path d="M 104.359545 373.467273 
L 392.006629 373.369253 
L 400.685636 373.314949 
L 420.523366 373.250058 
L 427.962514 373.118568 
L 437.881379 372.977002 
L 444.08067 372.921674 
L 446.560386 372.984687 
L 450.279961 373.063239 
L 452.759677 372.826386 
L 455.239393 372.457872 
L 457.719109 372.10302 
L 465.158258 371.294612 
L 467.637974 370.426777 
L 468.877832 369.997982 
L 470.11769 369.855221 
L 475.077123 368.175051 
L 476.316981 367.724569 
L 477.556839 367.124154 
L 480.036555 366.556185 
L 481.276414 366.03825 
L 482.516272 365.700645 
L 483.75613 365.085545 
L 484.995988 365.046098 
L 486.235846 364.598006 
L 488.715562 364.112859 
L 489.95542 364.182532 
L 491.195279 363.626858 
L 492.435137 363.278836 
L 493.674995 362.39734 
L 494.914853 361.951468 
L 496.154711 361.800682 
L 497.394569 361.348492 
L 498.634427 360.513103 
L 499.874285 359.337035 
L 501.114143 358.723471 
L 502.354002 357.307134 
L 503.59386 356.130724 
L 504.833718 354.675453 
L 506.073576 353.541735 
L 507.313434 351.814262 
L 508.553292 351.383076 
L 509.79315 350.025654 
L 512.272867 348.38032 
L 513.512725 345.414619 
L 514.752583 345.306695 
L 515.992441 344.018262 
L 517.232299 343.266036 
L 518.472157 339.813139 
L 519.712015 337.50284 
L 520.951873 334.935367 
L 522.191731 331.795827 
L 523.43159 327.189232 
L 524.671448 319.952834 
L 527.151164 310.945247 
L 528.391022 305.264873 
L 529.63088 306.772399 
L 530.870738 303.34136 
L 532.110596 295.503864 
L 533.350455 294.297399 
L 533.350455 294.297399 
" clip-path="url(#peea43301ff)" style="fill: none; stroke: #c49c94; stroke-opacity: 0.8; stroke-width: 1.5; stroke-linecap: square"/>
   </g>
   <g id="line2d_30">
    <path d="M 104.359545 373.467273 
L 384.56748 373.307435 
L 404.40521 373.155453 
L 423.003082 373.06563 
L 431.682089 372.876421 
L 452.759677 372.821946 
L 455.239393 372.591412 
L 456.479251 372.33475 
L 461.438684 372.131879 
L 467.637974 371.71982 
L 468.877832 371.339865 
L 470.11769 371.378458 
L 472.597407 370.965545 
L 475.077123 370.308777 
L 478.796697 369.423182 
L 480.036555 368.952379 
L 481.276414 368.250529 
L 482.516272 368.434957 
L 483.75613 368.062003 
L 486.235846 367.765724 
L 487.475704 367.519991 
L 491.195279 367.285187 
L 492.435137 367.106736 
L 493.674995 366.388834 
L 494.914853 366.640031 
L 498.634427 365.57701 
L 499.874285 365.357405 
L 502.354002 364.545069 
L 503.59386 363.933042 
L 504.833718 363.523886 
L 506.073576 362.791639 
L 507.313434 362.566569 
L 508.553292 361.742792 
L 509.79315 361.496888 
L 511.033008 360.813481 
L 513.512725 359.670371 
L 515.992441 358.413701 
L 517.232299 357.701434 
L 518.472157 355.208244 
L 519.712015 354.789866 
L 520.951873 353.871826 
L 522.191731 351.419108 
L 524.671448 348.709899 
L 527.151164 343.25579 
L 530.870738 337.336514 
L 532.110596 334.003666 
L 533.350455 333.417424 
L 533.350455 333.417424 
" clip-path="url(#peea43301ff)" style="fill: none; stroke: #e377c2; stroke-opacity: 0.8; stroke-width: 1.5; stroke-linecap: square"/>
   </g>
   <g id="line2d_31">
    <path d="M 104.359545 373.466248 
L 256.862094 373.461808 
L 303.976703 373.279942 
L 307.696277 373.198999 
L 328.773865 373.084244 
L 331.253581 373.037795 
L 334.973156 373.104906 
L 348.611595 373.032501 
L 353.571027 372.979052 
L 359.770318 372.834925 
L 362.250034 372.864467 
L 364.72975 372.759787 
L 370.929041 372.660572 
L 378.36819 372.31477 
L 382.087764 371.898442 
L 383.327622 372.035396 
L 392.006629 371.320227 
L 393.246487 371.464012 
L 398.20592 371.317665 
L 399.445778 371.175587 
L 401.925494 371.244235 
L 404.40521 371.282487 
L 408.124785 371.112575 
L 409.364643 371.033851 
L 410.604501 370.711957 
L 411.844359 370.96896 
L 415.563933 371.320397 
L 416.803791 371.145191 
L 418.04365 371.239966 
L 419.283508 370.919096 
L 420.523366 370.478348 
L 425.482798 369.94846 
L 426.722656 369.444187 
L 427.962514 369.121438 
L 429.202373 369.010952 
L 430.442231 369.11734 
L 431.682089 368.991143 
L 432.921947 369.12861 
L 434.161805 369.071233 
L 435.401663 368.894148 
L 440.361096 368.843772 
L 441.600954 368.853847 
L 442.840812 369.033323 
L 444.08067 368.946061 
L 449.040102 369.771034 
L 450.279961 368.945549 
L 451.519819 366.323943 
L 452.759677 364.87499 
L 453.999535 363.754762 
L 455.239393 363.71873 
L 456.479251 361.093709 
L 457.719109 359.445984 
L 458.958967 358.735595 
L 461.438684 358.750623 
L 462.678542 358.209635 
L 463.9184 358.389623 
L 465.158258 357.621515 
L 466.398116 357.800991 
L 468.877832 357.07899 
L 471.357549 355.901727 
L 472.597407 353.755022 
L 473.837265 352.458734 
L 475.077123 351.637348 
L 476.316981 350.653904 
L 477.556839 350.066638 
L 480.036555 348.126219 
L 481.276414 347.744386 
L 482.516272 348.14432 
L 483.75613 347.839502 
L 484.995988 347.330618 
L 486.235846 346.599055 
L 488.715562 344.249822 
L 491.195279 340.901434 
L 492.435137 339.682503 
L 493.674995 338.168488 
L 494.914853 337.257449 
L 497.394569 334.276038 
L 501.114143 328.585589 
L 502.354002 324.912915 
L 503.59386 322.762454 
L 504.833718 319.762259 
L 506.073576 317.235257 
L 507.313434 317.087544 
L 508.553292 317.202128 
L 509.79315 315.192037 
L 511.033008 313.616887 
L 512.272867 308.503287 
L 513.512725 305.335228 
L 514.752583 301.464124 
L 515.992441 298.988694 
L 517.232299 297.468873 
L 518.472157 288.260465 
L 519.712015 284.286901 
L 520.951873 279.349532 
L 522.191731 268.115663 
L 523.43159 255.087039 
L 524.671448 245.80059 
L 525.911306 232.0375 
L 527.151164 223.836272 
L 529.63088 196.522695 
L 530.870738 194.929274 
L 533.350455 166.077775 
L 533.350455 166.077775 
" clip-path="url(#peea43301ff)" style="fill: none; stroke: #f7b6d2; stroke-opacity: 0.8; stroke-width: 1.5; stroke-linecap: square"/>
   </g>
   <g id="line2d_32">
    <path d="M 146.514721 373.467273 
L 522.191731 373.369253 
L 530.870738 373.193876 
L 532.110596 372.439088 
L 533.350455 373.015766 
L 533.350455 373.015766 
" clip-path="url(#peea43301ff)" style="fill: none; stroke: #7f7f7f; stroke-opacity: 0.8; stroke-width: 1.5; stroke-linecap: square"/>
   </g>
   <g id="line2d_33">
    <path d="M 104.359545 373.465224 
L 183.710465 373.464028 
L 269.260675 373.438242 
L 270.500533 373.34859 
L 276.699824 373.401015 
L 363.489892 373.065801 
L 364.72975 372.954973 
L 367.209467 373.035063 
L 404.40521 372.129147 
L 410.604501 371.774124 
L 411.844359 372.006537 
L 413.084217 372.471534 
L 416.803791 372.58202 
L 418.04365 372.415522 
L 419.283508 372.126756 
L 421.763224 371.754144 
L 423.003082 371.81118 
L 425.482798 371.604211 
L 426.722656 371.367358 
L 430.442231 371.187541 
L 442.840812 371.55281 
L 444.08067 371.82911 
L 450.279961 372.562211 
L 452.759677 372.026175 
L 456.479251 370.934978 
L 458.958967 370.866329 
L 460.198826 370.685146 
L 461.438684 370.678486 
L 463.9184 370.315095 
L 465.158258 370.326366 
L 466.398116 370.135278 
L 467.637974 370.139206 
L 468.877832 369.858466 
L 471.357549 369.716388 
L 472.597407 369.405593 
L 473.837265 369.234656 
L 476.316981 369.033323 
L 478.796697 368.457498 
L 480.036555 368.223036 
L 481.276414 367.526309 
L 482.516272 368.09479 
L 487.475704 367.568659 
L 488.715562 367.515551 
L 489.95542 367.321219 
L 491.195279 367.01401 
L 492.435137 366.911038 
L 494.914853 366.493684 
L 496.154711 366.36356 
L 497.394569 366.115778 
L 503.59386 363.941068 
L 506.073576 363.015173 
L 507.313434 362.856872 
L 508.553292 362.287195 
L 514.752583 358.541775 
L 515.992441 357.470216 
L 517.232299 356.682812 
L 518.472157 352.150501 
L 519.712015 352.563585 
L 520.951873 351.783865 
L 522.191731 349.23603 
L 523.43159 347.886975 
L 524.671448 346.044064 
L 525.911306 343.510915 
L 527.151164 338.445129 
L 528.391022 337.768041 
L 530.870738 331.041039 
L 532.110596 321.932529 
L 533.350455 325.85879 
L 533.350455 325.85879 
" clip-path="url(#peea43301ff)" style="fill: none; stroke: #c7c7c7; stroke-opacity: 0.8; stroke-width: 1.5; stroke-linecap: square"/>
   </g>
   <g id="line2d_34">
    <path d="M 104.359545 373.46676 
L 326.294149 373.389232 
L 330.013723 373.348932 
L 337.452872 373.340564 
L 339.932588 373.31068 
L 348.611595 373.331513 
L 354.810885 373.345858 
L 399.445778 373.096539 
L 410.604501 373.05897 
L 411.844359 373.037112 
L 414.324075 373.156478 
L 418.04365 373.157161 
L 421.763224 372.995445 
L 427.962514 372.856954 
L 431.682089 372.743223 
L 442.840812 372.736222 
L 445.320528 372.93858 
L 450.279961 373.128472 
L 457.719109 372.036079 
L 461.438684 371.83782 
L 462.678542 371.72426 
L 463.9184 371.475795 
L 465.158258 371.373164 
L 466.398116 370.993038 
L 467.637974 370.889212 
L 471.357549 369.759763 
L 472.597407 369.124341 
L 473.837265 368.825158 
L 475.077123 368.158999 
L 476.316981 367.755648 
L 477.556839 367.072924 
L 478.796697 366.723365 
L 480.036555 366.106557 
L 481.276414 365.692961 
L 483.75613 365.141214 
L 484.995988 364.711908 
L 487.475704 364.199438 
L 488.715562 364.682877 
L 489.95542 364.513136 
L 491.195279 364.630281 
L 492.435137 363.975221 
L 493.674995 363.885057 
L 494.914853 363.316917 
L 496.154711 363.575969 
L 497.394569 362.698913 
L 498.634427 362.344744 
L 499.874285 361.690367 
L 501.114143 361.331245 
L 502.354002 360.549818 
L 503.59386 360.194624 
L 504.833718 359.381775 
L 506.073576 358.735425 
L 508.553292 357.854099 
L 509.79315 356.703987 
L 512.272867 355.483349 
L 513.512725 354.227191 
L 514.752583 353.355599 
L 515.992441 352.075876 
L 517.232299 351.67799 
L 518.472157 350.148435 
L 519.712015 348.85266 
L 520.951873 348.148419 
L 522.191731 346.146524 
L 523.43159 344.46345 
L 524.671448 342.403837 
L 525.911306 339.924137 
L 527.151164 337.132619 
L 528.391022 334.900872 
L 529.63088 331.200535 
L 530.870738 328.480909 
L 533.350455 325.536383 
L 533.350455 325.536383 
" clip-path="url(#peea43301ff)" style="fill: none; stroke: #bcbd22; stroke-opacity: 0.8; stroke-width: 1.5; stroke-linecap: square"/>
   </g>
   <g id="line2d_35">
    <path d="M 104.359545 373.467102 
L 317.615142 373.386842 
L 323.814432 373.364642 
L 328.773865 373.316828 
L 333.733297 373.290188 
L 336.213014 373.287456 
L 342.412304 373.270891 
L 356.050744 373.229395 
L 382.087764 372.893327 
L 384.56748 372.856612 
L 388.287055 372.759446 
L 389.526913 372.593973 
L 390.766771 372.704971 
L 395.726203 372.505175 
L 403.165352 372.273103 
L 404.40521 372.174912 
L 406.884926 372.196088 
L 411.844359 372.084577 
L 414.324075 372.20565 
L 419.283508 372.070916 
L 432.921947 371.350281 
L 434.161805 371.376238 
L 436.641521 371.57057 
L 439.121238 371.441129 
L 440.361096 371.432591 
L 442.840812 371.242186 
L 444.08067 371.219987 
L 445.320528 371.622995 
L 450.279961 371.792737 
L 452.759677 371.345671 
L 456.479251 370.615132 
L 466.398116 369.882032 
L 467.637974 369.625882 
L 468.877832 369.249171 
L 471.357549 369.144662 
L 472.597407 368.779735 
L 473.837265 368.66054 
L 477.556839 367.586077 
L 480.036555 366.318137 
L 481.276414 365.394461 
L 482.516272 366.305158 
L 483.75613 365.847504 
L 486.235846 365.315396 
L 492.435137 363.202845 
L 493.674995 362.557177 
L 496.154711 362.185589 
L 497.394569 361.865402 
L 498.634427 361.17875 
L 499.874285 360.621881 
L 503.59386 357.948533 
L 504.833718 356.726528 
L 506.073576 355.278941 
L 507.313434 354.910769 
L 509.79315 352.219661 
L 514.752583 344.723869 
L 517.232299 340.206756 
L 518.472157 334.463369 
L 519.712015 332.075713 
L 522.191731 323.686812 
L 523.43159 318.399372 
L 524.671448 314.500604 
L 525.911306 309.507906 
L 527.151164 299.066735 
L 528.391022 294.764446 
L 530.870738 279.223506 
L 532.110596 272.289536 
L 533.350455 264.25156 
L 533.350455 264.25156 
" clip-path="url(#peea43301ff)" style="fill: none; stroke: #dbdb8d; stroke-opacity: 0.8; stroke-width: 1.5; stroke-linecap: square"/>
   </g>
   <g id="line2d_36">
    <path d="M 104.359545 373.466419 
L 269.260675 373.458222 
L 272.98025 373.454124 
L 311.415851 373.440121 
L 346.131879 373.388208 
L 354.810885 373.385988 
L 387.047197 373.180214 
L 392.006629 373.130009 
L 398.20592 373.047187 
L 415.563933 372.885301 
L 416.803791 372.951046 
L 434.161805 372.215213 
L 436.641521 372.216921 
L 439.121238 372.127098 
L 440.361096 372.137685 
L 441.600954 372.013367 
L 442.840812 372.093969 
L 444.08067 372.035738 
L 446.560386 372.183451 
L 449.040102 372.306061 
L 450.279961 372.235193 
L 451.519819 371.959064 
L 455.239393 371.544614 
L 456.479251 371.1428 
L 457.719109 370.968789 
L 458.958967 370.931562 
L 460.198826 370.742182 
L 465.158258 370.420629 
L 468.877832 369.953241 
L 470.11769 369.643813 
L 471.357549 369.551257 
L 472.597407 369.248659 
L 478.796697 366.939385 
L 481.276414 365.605699 
L 483.75613 365.25153 
L 484.995988 364.814197 
L 486.235846 364.637795 
L 488.715562 363.559576 
L 489.95542 363.311452 
L 491.195279 362.610115 
L 492.435137 362.323056 
L 493.674995 361.912875 
L 497.394569 361.232371 
L 498.634427 360.713924 
L 499.874285 360.537864 
L 504.833718 357.851538 
L 506.073576 357.169155 
L 507.313434 357.158226 
L 508.553292 356.50846 
L 509.79315 356.13414 
L 511.033008 355.57283 
L 512.272867 354.658889 
L 513.512725 353.233331 
L 517.232299 350.827744 
L 518.472157 345.526642 
L 519.712015 345.918551 
L 522.191731 341.329887 
L 523.43159 338.558177 
L 524.671448 335.247016 
L 525.911306 330.552306 
L 527.151164 326.310297 
L 528.391022 320.839112 
L 529.63088 316.435558 
L 530.870738 309.891106 
L 532.110596 304.176066 
L 533.350455 296.5189 
L 533.350455 296.5189 
" clip-path="url(#peea43301ff)" style="fill: none; stroke: #17becf; stroke-opacity: 0.8; stroke-width: 1.5; stroke-linecap: square"/>
   </g>
   <g id="line2d_37">
    <path d="M 104.359545 373.467273 
L 404.40521 373.353372 
L 415.563933 373.303849 
L 421.763224 373.305557 
L 466.398116 372.853538 
L 470.11769 372.720853 
L 473.837265 372.543768 
L 477.556839 372.34807 
L 478.796697 372.142467 
L 481.276414 371.477332 
L 482.516272 371.784199 
L 487.475704 371.337303 
L 492.435137 371.009944 
L 496.154711 370.778555 
L 499.874285 370.441975 
L 502.354002 370.070558 
L 507.313434 369.123658 
L 509.79315 368.473209 
L 512.272867 367.743524 
L 514.752583 366.844609 
L 515.992441 366.508541 
L 517.232299 365.868509 
L 522.191731 361.475542 
L 523.43159 360.57475 
L 524.671448 359.03512 
L 525.911306 357.265296 
L 527.151164 354.377466 
L 528.391022 352.999551 
L 530.870738 348.430183 
L 532.110596 346.582491 
L 533.350455 344.242479 
L 533.350455 344.242479 
" clip-path="url(#peea43301ff)" style="fill: none; stroke: #9edae5; stroke-opacity: 0.8; stroke-width: 1.5; stroke-linecap: square"/>
   </g>
   <g id="line2d_38">
    <path d="M 289.098405 390.04 
L 289.098405 25.44 
" clip-path="url(#peea43301ff)" style="fill: none; stroke-dasharray: 1.5,2.475; stroke-dashoffset: 0; stroke: #1f77b4; stroke-width: 1.5"/>
   </g>
   <g id="line2d_39">
    <path d="M 416.803791 390.04 
L 416.803791 25.44 
" clip-path="url(#peea43301ff)" style="fill: none; stroke-dasharray: 1.5,2.475; stroke-dashoffset: 0; stroke: #1f77b4; stroke-width: 1.5"/>
   </g>
   <g id="line2d_40">
    <path d="M 450.279961 390.04 
L 450.279961 25.44 
" clip-path="url(#peea43301ff)" style="fill: none; stroke-dasharray: 1.5,2.475; stroke-dashoffset: 0; stroke: #1f77b4; stroke-width: 1.5"/>
   </g>
   <g id="line2d_41">
    <path d="M 504.833718 390.04 
L 504.833718 25.44 
" clip-path="url(#peea43301ff)" style="fill: none; stroke-dasharray: 1.5,2.475; stroke-dashoffset: 0; stroke: #1f77b4; stroke-width: 1.5"/>
   </g>
   <g id="patch_3">
    <path d="M 82.91 390.04 
L 82.91 25.44 
" style="fill: none; stroke: #000000; stroke-width: 0.8; stroke-linejoin: miter; stroke-linecap: square"/>
   </g>
   <g id="patch_4">
    <path d="M 554.8 390.04 
L 554.8 25.44 
" style="fill: none; stroke: #000000; stroke-width: 0.8; stroke-linejoin: miter; stroke-linecap: square"/>
   </g>
   <g id="patch_5">
    <path d="M 82.91 390.04 
L 554.8 390.04 
" style="fill: none; stroke: #000000; stroke-width: 0.8; stroke-linejoin: miter; stroke-linecap: square"/>
   </g>
   <g id="patch_6">
    <path d="M 82.91 25.44 
L 554.8 25.44 
" style="fill: none; stroke: #000000; stroke-width: 0.8; stroke-linejoin: miter; stroke-linecap: square"/>
   </g>
   <g id="text_20">
    <!-- End of Waterloo -->
    <g transform="translate(290.338263 40.436954) scale(0.1 -0.1)">
     <defs>
      <path id="DejaVuSans-45" d="M 628 4666 
L 3578 4666 
L 3578 4134 
L 1259 4134 
L 1259 2753 
L 3481 2753 
L 3481 2222 
L 1259 2222 
L 1259 531 
L 3634 531 
L 3634 0 
L 628 0 
L 628 4666 
z
" transform="scale(0.015625)"/>
      <path id="DejaVuSans-64" d="M 2906 2969 
L 2906 4863 
L 3481 4863 
L 3481 0 
L 2906 0 
L 2906 525 
Q 2725 213 2448 61 
Q 2172 -91 1784 -91 
Q 1150 -91 751 415 
Q 353 922 353 1747 
Q 353 2572 751 3078 
Q 1150 3584 1784 3584 
Q 2172 3584 2448 3432 
Q 2725 3281 2906 2969 
z
M 947 1747 
Q 947 1113 1208 752 
Q 1469 391 1925 391 
Q 2381 391 2643 752 
Q 2906 1113 2906 1747 
Q 2906 2381 2643 2742 
Q 2381 3103 1925 3103 
Q 1469 3103 1208 2742 
Q 947 2381 947 1747 
z
" transform="scale(0.015625)"/>
     </defs>
     <use xlink:href="#DejaVuSans-45"/>
     <use xlink:href="#DejaVuSans-6e" x="63.183594"/>
     <use xlink:href="#DejaVuSans-64" x="126.5625"/>
     <use xlink:href="#DejaVuSans-20" x="190.039062"/>
     <use xlink:href="#DejaVuSans-6f" x="221.826172"/>
     <use xlink:href="#DejaVuSans-66" x="283.007812"/>
     <use xlink:href="#DejaVuSans-20" x="318.212891"/>
     <use xlink:href="#DejaVuSans-57" x="350"/>
     <use xlink:href="#DejaVuSans-61" x="442.501953"/>
     <use xlink:href="#DejaVuSans-74" x="503.78125"/>
     <use xlink:href="#DejaVuSans-65" x="542.990234"/>
     <use xlink:href="#DejaVuSans-72" x="604.513672"/>
     <use xlink:href="#DejaVuSans-6c" x="645.626953"/>
     <use xlink:href="#DejaVuSans-6f" x="673.410156"/>
     <use xlink:href="#DejaVuSans-6f" x="734.591797"/>
    </g>
   </g>
   <g id="text_21">
    <!-- End  -->
    <g transform="translate(418.04365 38.5333) scale(0.1 -0.1)">
     <use xlink:href="#DejaVuSans-45"/>
     <use xlink:href="#DejaVuSans-6e" x="63.183594"/>
     <use xlink:href="#DejaVuSans-64" x="126.5625"/>
     <use xlink:href="#DejaVuSans-20" x="190.039062"/>
    </g>
    <!-- of  -->
    <g transform="translate(418.04365 49.731112) scale(0.1 -0.1)">
     <use xlink:href="#DejaVuSans-6f"/>
     <use xlink:href="#DejaVuSans-66" x="61.181641"/>
     <use xlink:href="#DejaVuSans-20" x="96.386719"/>
    </g>
    <!-- WWI -->
    <g transform="translate(418.04365 60.928925) scale(0.1 -0.1)">
     <defs>
      <path id="DejaVuSans-49" d="M 628 4666 
L 1259 4666 
L 1259 0 
L 628 0 
L 628 4666 
z
" transform="scale(0.015625)"/>
     </defs>
     <use xlink:href="#DejaVuSans-57"/>
     <use xlink:href="#DejaVuSans-57" x="98.876953"/>
     <use xlink:href="#DejaVuSans-49" x="197.753906"/>
    </g>
   </g>
   <g id="text_22">
    <!-- End of  -->
    <g transform="translate(451.519819 37.777463) scale(0.1 -0.1)">
     <use xlink:href="#DejaVuSans-45"/>
     <use xlink:href="#DejaVuSans-6e" x="63.183594"/>
     <use xlink:href="#DejaVuSans-64" x="126.5625"/>
     <use xlink:href="#DejaVuSans-20" x="190.039062"/>
     <use xlink:href="#DejaVuSans-6f" x="221.826172"/>
     <use xlink:href="#DejaVuSans-66" x="283.007812"/>
     <use xlink:href="#DejaVuSans-20" x="318.212891"/>
    </g>
    <!-- WWII -->
    <g transform="translate(451.519819 48.975275) scale(0.1 -0.1)">
     <use xlink:href="#DejaVuSans-57"/>
     <use xlink:href="#DejaVuSans-57" x="98.876953"/>
     <use xlink:href="#DejaVuSans-49" x="197.753906"/>
     <use xlink:href="#DejaVuSans-49" x="227.246094"/>
    </g>
   </g>
   <g id="text_23">
    <!-- Fall of the  -->
    <g transform="translate(506.073576 38.5333) scale(0.1 -0.1)">
     <defs>
      <path id="DejaVuSans-46" d="M 628 4666 
L 3309 4666 
L 3309 4134 
L 1259 4134 
L 1259 2759 
L 3109 2759 
L 3109 2228 
L 1259 2228 
L 1259 0 
L 628 0 
L 628 4666 
z
" transform="scale(0.015625)"/>
      <path id="DejaVuSans-68" d="M 3513 2113 
L 3513 0 
L 2938 0 
L 2938 2094 
Q 2938 2591 2744 2837 
Q 2550 3084 2163 3084 
Q 1697 3084 1428 2787 
Q 1159 2491 1159 1978 
L 1159 0 
L 581 0 
L 581 4863 
L 1159 4863 
L 1159 2956 
Q 1366 3272 1645 3428 
Q 1925 3584 2291 3584 
Q 2894 3584 3203 3211 
Q 3513 2838 3513 2113 
z
" transform="scale(0.015625)"/>
     </defs>
     <use xlink:href="#DejaVuSans-46"/>
     <use xlink:href="#DejaVuSans-61" x="48.394531"/>
     <use xlink:href="#DejaVuSans-6c" x="109.673828"/>
     <use xlink:href="#DejaVuSans-6c" x="137.457031"/>
     <use xlink:href="#DejaVuSans-20" x="165.240234"/>
     <use xlink:href="#DejaVuSans-6f" x="197.027344"/>
     <use xlink:href="#DejaVuSans-66" x="258.208984"/>
     <use xlink:href="#DejaVuSans-20" x="293.414062"/>
     <use xlink:href="#DejaVuSans-74" x="325.201172"/>
     <use xlink:href="#DejaVuSans-68" x="364.410156"/>
     <use xlink:href="#DejaVuSans-65" x="427.789062"/>
     <use xlink:href="#DejaVuSans-20" x="489.3125"/>
    </g>
    <!-- Berlin  -->
    <g transform="translate(506.073576 49.731112) scale(0.1 -0.1)">
     <defs>
      <path id="DejaVuSans-42" d="M 1259 2228 
L 1259 519 
L 2272 519 
Q 2781 519 3026 730 
Q 3272 941 3272 1375 
Q 3272 1813 3026 2020 
Q 2781 2228 2272 2228 
L 1259 2228 
z
M 1259 4147 
L 1259 2741 
L 2194 2741 
Q 2656 2741 2882 2914 
Q 3109 3088 3109 3444 
Q 3109 3797 2882 3972 
Q 2656 4147 2194 4147 
L 1259 4147 
z
M 628 4666 
L 2241 4666 
Q 2963 4666 3353 4366 
Q 3744 4066 3744 3513 
Q 3744 3084 3544 2831 
Q 3344 2578 2956 2516 
Q 3422 2416 3680 2098 
Q 3938 1781 3938 1306 
Q 3938 681 3513 340 
Q 3088 0 2303 0 
L 628 0 
L 628 4666 
z
" transform="scale(0.015625)"/>
     </defs>
     <use xlink:href="#DejaVuSans-42"/>
     <use xlink:href="#DejaVuSans-65" x="68.603516"/>
     <use xlink:href="#DejaVuSans-72" x="130.126953"/>
     <use xlink:href="#DejaVuSans-6c" x="171.240234"/>
     <use xlink:href="#DejaVuSans-69" x="199.023438"/>
     <use xlink:href="#DejaVuSans-6e" x="226.806641"/>
     <use xlink:href="#DejaVuSans-20" x="290.185547"/>
    </g>
    <!-- Wall -->
    <g transform="translate(506.073576 60.928925) scale(0.1 -0.1)">
     <use xlink:href="#DejaVuSans-57"/>
     <use xlink:href="#DejaVuSans-61" x="92.501953"/>
     <use xlink:href="#DejaVuSans-6c" x="153.78125"/>
     <use xlink:href="#DejaVuSans-6c" x="181.564453"/>
    </g>
   </g>
   <g id="text_24">
    <!-- Number of New Works per Year by Concept, for Subset of Data -->
    <g transform="translate(130.8825 19.44) scale(0.12 -0.12)">
     <defs>
      <path id="DejaVuSans-77" d="M 269 3500 
L 844 3500 
L 1563 769 
L 2278 3500 
L 2956 3500 
L 3675 769 
L 4391 3500 
L 4966 3500 
L 4050 0 
L 3372 0 
L 2619 2869 
L 1863 0 
L 1184 0 
L 269 3500 
z
" transform="scale(0.015625)"/>
      <path id="DejaVuSans-70" d="M 1159 525 
L 1159 -1331 
L 581 -1331 
L 581 3500 
L 1159 3500 
L 1159 2969 
Q 1341 3281 1617 3432 
Q 1894 3584 2278 3584 
Q 2916 3584 3314 3078 
Q 3713 2572 3713 1747 
Q 3713 922 3314 415 
Q 2916 -91 2278 -91 
Q 1894 -91 1617 61 
Q 1341 213 1159 525 
z
M 3116 1747 
Q 3116 2381 2855 2742 
Q 2594 3103 2138 3103 
Q 1681 3103 1420 2742 
Q 1159 2381 1159 1747 
Q 1159 1113 1420 752 
Q 1681 391 2138 391 
Q 2594 391 2855 752 
Q 3116 1113 3116 1747 
z
" transform="scale(0.015625)"/>
      <path id="DejaVuSans-79" d="M 2059 -325 
Q 1816 -950 1584 -1140 
Q 1353 -1331 966 -1331 
L 506 -1331 
L 506 -850 
L 844 -850 
Q 1081 -850 1212 -737 
Q 1344 -625 1503 -206 
L 1606 56 
L 191 3500 
L 800 3500 
L 1894 763 
L 2988 3500 
L 3597 3500 
L 2059 -325 
z
" transform="scale(0.015625)"/>
      <path id="DejaVuSans-43" d="M 4122 4306 
L 4122 3641 
Q 3803 3938 3442 4084 
Q 3081 4231 2675 4231 
Q 1875 4231 1450 3742 
Q 1025 3253 1025 2328 
Q 1025 1406 1450 917 
Q 1875 428 2675 428 
Q 3081 428 3442 575 
Q 3803 722 4122 1019 
L 4122 359 
Q 3791 134 3420 21 
Q 3050 -91 2638 -91 
Q 1578 -91 968 557 
Q 359 1206 359 2328 
Q 359 3453 968 4101 
Q 1578 4750 2638 4750 
Q 3056 4750 3426 4639 
Q 3797 4528 4122 4306 
z
" transform="scale(0.015625)"/>
      <path id="DejaVuSans-53" d="M 3425 4513 
L 3425 3897 
Q 3066 4069 2747 4153 
Q 2428 4238 2131 4238 
Q 1616 4238 1336 4038 
Q 1056 3838 1056 3469 
Q 1056 3159 1242 3001 
Q 1428 2844 1947 2747 
L 2328 2669 
Q 3034 2534 3370 2195 
Q 3706 1856 3706 1288 
Q 3706 609 3251 259 
Q 2797 -91 1919 -91 
Q 1588 -91 1214 -16 
Q 841 59 441 206 
L 441 856 
Q 825 641 1194 531 
Q 1563 422 1919 422 
Q 2459 422 2753 634 
Q 3047 847 3047 1241 
Q 3047 1584 2836 1778 
Q 2625 1972 2144 2069 
L 1759 2144 
Q 1053 2284 737 2584 
Q 422 2884 422 3419 
Q 422 4038 858 4394 
Q 1294 4750 2059 4750 
Q 2388 4750 2728 4690 
Q 3069 4631 3425 4513 
z
" transform="scale(0.015625)"/>
      <path id="DejaVuSans-44" d="M 1259 4147 
L 1259 519 
L 2022 519 
Q 2988 519 3436 956 
Q 3884 1394 3884 2338 
Q 3884 3275 3436 3711 
Q 2988 4147 2022 4147 
L 1259 4147 
z
M 628 4666 
L 1925 4666 
Q 3281 4666 3915 4102 
Q 4550 3538 4550 2338 
Q 4550 1131 3912 565 
Q 3275 0 1925 0 
L 628 0 
L 628 4666 
z
" transform="scale(0.015625)"/>
     </defs>
     <use xlink:href="#DejaVuSans-4e"/>
     <use xlink:href="#DejaVuSans-75" x="74.804688"/>
     <use xlink:href="#DejaVuSans-6d" x="138.183594"/>
     <use xlink:href="#DejaVuSans-62" x="235.595703"/>
     <use xlink:href="#DejaVuSans-65" x="299.072266"/>
     <use xlink:href="#DejaVuSans-72" x="360.595703"/>
     <use xlink:href="#DejaVuSans-20" x="401.708984"/>
     <use xlink:href="#DejaVuSans-6f" x="433.496094"/>
     <use xlink:href="#DejaVuSans-66" x="494.677734"/>
     <use xlink:href="#DejaVuSans-20" x="529.882812"/>
     <use xlink:href="#DejaVuSans-4e" x="561.669922"/>
     <use xlink:href="#DejaVuSans-65" x="636.474609"/>
     <use xlink:href="#DejaVuSans-77" x="697.998047"/>
     <use xlink:href="#DejaVuSans-20" x="779.785156"/>
     <use xlink:href="#DejaVuSans-57" x="811.572266"/>
     <use xlink:href="#DejaVuSans-6f" x="904.574219"/>
     <use xlink:href="#DejaVuSans-72" x="965.755859"/>
     <use xlink:href="#DejaVuSans-6b" x="1006.869141"/>
     <use xlink:href="#DejaVuSans-73" x="1064.779297"/>
     <use xlink:href="#DejaVuSans-20" x="1116.878906"/>
     <use xlink:href="#DejaVuSans-70" x="1148.666016"/>
     <use xlink:href="#DejaVuSans-65" x="1212.142578"/>
     <use xlink:href="#DejaVuSans-72" x="1273.666016"/>
     <use xlink:href="#DejaVuSans-20" x="1314.779297"/>
     <use xlink:href="#DejaVuSans-59" x="1346.566406"/>
     <use xlink:href="#DejaVuSans-65" x="1394.400391"/>
     <use xlink:href="#DejaVuSans-61" x="1455.923828"/>
     <use xlink:href="#DejaVuSans-72" x="1517.203125"/>
     <use xlink:href="#DejaVuSans-20" x="1558.316406"/>
     <use xlink:href="#DejaVuSans-62" x="1590.103516"/>
     <use xlink:href="#DejaVuSans-79" x="1653.580078"/>
     <use xlink:href="#DejaVuSans-20" x="1712.759766"/>
     <use xlink:href="#DejaVuSans-43" x="1744.546875"/>
     <use xlink:href="#DejaVuSans-6f" x="1814.371094"/>
     <use xlink:href="#DejaVuSans-6e" x="1875.552734"/>
     <use xlink:href="#DejaVuSans-63" x="1938.931641"/>
     <use xlink:href="#DejaVuSans-65" x="1993.912109"/>
     <use xlink:href="#DejaVuSans-70" x="2055.435547"/>
     <use xlink:href="#DejaVuSans-74" x="2118.912109"/>
     <use xlink:href="#DejaVuSans-2c" x="2158.121094"/>
     <use xlink:href="#DejaVuSans-20" x="2189.908203"/>
     <use xlink:href="#DejaVuSans-66" x="2221.695312"/>
     <use xlink:href="#DejaVuSans-6f" x="2256.900391"/>
     <use xlink:href="#DejaVuSans-72" x="2318.082031"/>
     <use xlink:href="#DejaVuSans-20" x="2359.195312"/>
     <use xlink:href="#DejaVuSans-53" x="2390.982422"/>
     <use xlink:href="#DejaVuSans-75" x="2454.458984"/>
     <use xlink:href="#DejaVuSans-62" x="2517.837891"/>
     <use xlink:href="#DejaVuSans-73" x="2581.314453"/>
     <use xlink:href="#DejaVuSans-65" x="2633.414062"/>
     <use xlink:href="#DejaVuSans-74" x="2694.9375"/>
     <use xlink:href="#DejaVuSans-20" x="2734.146484"/>
     <use xlink:href="#DejaVuSans-6f" x="2765.933594"/>
     <use xlink:href="#DejaVuSans-66" x="2827.115234"/>
     <use xlink:href="#DejaVuSans-20" x="2862.320312"/>
     <use xlink:href="#DejaVuSans-44" x="2894.107422"/>
     <use xlink:href="#DejaVuSans-61" x="2971.109375"/>
     <use xlink:href="#DejaVuSans-74" x="3032.388672"/>
     <use xlink:href="#DejaVuSans-61" x="3071.597656"/>
    </g>
   </g>
   <g id="legend_1">
    <g id="patch_7">
     <path d="M 561.8 363.360313 
L 707.359375 363.360313 
Q 709.359375 363.360313 709.359375 361.360313 
L 709.359375 54.119687 
Q 709.359375 52.119687 707.359375 52.119687 
L 561.8 52.119687 
Q 559.8 52.119687 559.8 54.119687 
L 559.8 361.360313 
Q 559.8 363.360313 561.8 363.360313 
z
" style="fill: #ffffff; opacity: 0.8; stroke: #cccccc; stroke-linejoin: miter"/>
    </g>
    <g id="text_25">
     <!-- Top Concept of Work -->
     <g transform="translate(583.215625 63.718125) scale(0.1 -0.1)">
      <defs>
       <path id="DejaVuSans-54" d="M -19 4666 
L 3928 4666 
L 3928 4134 
L 2272 4134 
L 2272 0 
L 1638 0 
L 1638 4134 
L -19 4134 
L -19 4666 
z
" transform="scale(0.015625)"/>
      </defs>
      <use xlink:href="#DejaVuSans-54"/>
      <use xlink:href="#DejaVuSans-6f" x="44.083984"/>
      <use xlink:href="#DejaVuSans-70" x="105.265625"/>
      <use xlink:href="#DejaVuSans-20" x="168.742188"/>
      <use xlink:href="#DejaVuSans-43" x="200.529297"/>
      <use xlink:href="#DejaVuSans-6f" x="270.353516"/>
      <use xlink:href="#DejaVuSans-6e" x="331.535156"/>
      <use xlink:href="#DejaVuSans-63" x="394.914062"/>
      <use xlink:href="#DejaVuSans-65" x="449.894531"/>
      <use xlink:href="#DejaVuSans-70" x="511.417969"/>
      <use xlink:href="#DejaVuSans-74" x="574.894531"/>
      <use xlink:href="#DejaVuSans-20" x="614.103516"/>
      <use xlink:href="#DejaVuSans-6f" x="645.890625"/>
      <use xlink:href="#DejaVuSans-66" x="707.072266"/>
      <use xlink:href="#DejaVuSans-20" x="742.277344"/>
      <use xlink:href="#DejaVuSans-57" x="774.064453"/>
      <use xlink:href="#DejaVuSans-6f" x="867.066406"/>
      <use xlink:href="#DejaVuSans-72" x="928.248047"/>
      <use xlink:href="#DejaVuSans-6b" x="969.361328"/>
     </g>
    </g>
    <g id="line2d_42">
     <path d="M 563.8 74.89625 
L 573.8 74.89625 
L 583.8 74.89625 
" style="fill: none; stroke: #1f77b4; stroke-opacity: 0.8; stroke-width: 1.5; stroke-linecap: square"/>
    </g>
    <g id="text_26">
     <!-- Art -->
     <g transform="translate(591.8 78.39625) scale(0.1 -0.1)">
      <defs>
       <path id="DejaVuSans-41" d="M 2188 4044 
L 1331 1722 
L 3047 1722 
L 2188 4044 
z
M 1831 4666 
L 2547 4666 
L 4325 0 
L 3669 0 
L 3244 1197 
L 1141 1197 
L 716 0 
L 50 0 
L 1831 4666 
z
" transform="scale(0.015625)"/>
      </defs>
      <use xlink:href="#DejaVuSans-41"/>
      <use xlink:href="#DejaVuSans-72" x="68.408203"/>
      <use xlink:href="#DejaVuSans-74" x="109.521484"/>
     </g>
    </g>
    <g id="line2d_43">
     <path d="M 563.8 89.574375 
L 573.8 89.574375 
L 583.8 89.574375 
" style="fill: none; stroke: #aec7e8; stroke-opacity: 0.8; stroke-width: 1.5; stroke-linecap: square"/>
    </g>
    <g id="text_27">
     <!-- Biology -->
     <g transform="translate(591.8 93.074375) scale(0.1 -0.1)">
      <defs>
       <path id="DejaVuSans-67" d="M 2906 1791 
Q 2906 2416 2648 2759 
Q 2391 3103 1925 3103 
Q 1463 3103 1205 2759 
Q 947 2416 947 1791 
Q 947 1169 1205 825 
Q 1463 481 1925 481 
Q 2391 481 2648 825 
Q 2906 1169 2906 1791 
z
M 3481 434 
Q 3481 -459 3084 -895 
Q 2688 -1331 1869 -1331 
Q 1566 -1331 1297 -1286 
Q 1028 -1241 775 -1147 
L 775 -588 
Q 1028 -725 1275 -790 
Q 1522 -856 1778 -856 
Q 2344 -856 2625 -561 
Q 2906 -266 2906 331 
L 2906 616 
Q 2728 306 2450 153 
Q 2172 0 1784 0 
Q 1141 0 747 490 
Q 353 981 353 1791 
Q 353 2603 747 3093 
Q 1141 3584 1784 3584 
Q 2172 3584 2450 3431 
Q 2728 3278 2906 2969 
L 2906 3500 
L 3481 3500 
L 3481 434 
z
" transform="scale(0.015625)"/>
      </defs>
      <use xlink:href="#DejaVuSans-42"/>
      <use xlink:href="#DejaVuSans-69" x="68.603516"/>
      <use xlink:href="#DejaVuSans-6f" x="96.386719"/>
      <use xlink:href="#DejaVuSans-6c" x="157.568359"/>
      <use xlink:href="#DejaVuSans-6f" x="185.351562"/>
      <use xlink:href="#DejaVuSans-67" x="246.533203"/>
      <use xlink:href="#DejaVuSans-79" x="310.009766"/>
     </g>
    </g>
    <g id="line2d_44">
     <path d="M 563.8 104.2525 
L 573.8 104.2525 
L 583.8 104.2525 
" style="fill: none; stroke: #ff7f0e; stroke-opacity: 0.8; stroke-width: 1.5; stroke-linecap: square"/>
    </g>
    <g id="text_28">
     <!-- Business -->
     <g transform="translate(591.8 107.7525) scale(0.1 -0.1)">
      <use xlink:href="#DejaVuSans-42"/>
      <use xlink:href="#DejaVuSans-75" x="68.603516"/>
      <use xlink:href="#DejaVuSans-73" x="131.982422"/>
      <use xlink:href="#DejaVuSans-69" x="184.082031"/>
      <use xlink:href="#DejaVuSans-6e" x="211.865234"/>
      <use xlink:href="#DejaVuSans-65" x="275.244141"/>
      <use xlink:href="#DejaVuSans-73" x="336.767578"/>
      <use xlink:href="#DejaVuSans-73" x="388.867188"/>
     </g>
    </g>
    <g id="line2d_45">
     <path d="M 563.8 118.930625 
L 573.8 118.930625 
L 583.8 118.930625 
" style="fill: none; stroke: #ffbb78; stroke-opacity: 0.8; stroke-width: 1.5; stroke-linecap: square"/>
    </g>
    <g id="text_29">
     <!-- Chemistry -->
     <g transform="translate(591.8 122.430625) scale(0.1 -0.1)">
      <use xlink:href="#DejaVuSans-43"/>
      <use xlink:href="#DejaVuSans-68" x="69.824219"/>
      <use xlink:href="#DejaVuSans-65" x="133.203125"/>
      <use xlink:href="#DejaVuSans-6d" x="194.726562"/>
      <use xlink:href="#DejaVuSans-69" x="292.138672"/>
      <use xlink:href="#DejaVuSans-73" x="319.921875"/>
      <use xlink:href="#DejaVuSans-74" x="372.021484"/>
      <use xlink:href="#DejaVuSans-72" x="411.230469"/>
      <use xlink:href="#DejaVuSans-79" x="452.34375"/>
     </g>
    </g>
    <g id="line2d_46">
     <path d="M 563.8 133.60875 
L 573.8 133.60875 
L 583.8 133.60875 
" style="fill: none; stroke: #2ca02c; stroke-opacity: 0.8; stroke-width: 1.5; stroke-linecap: square"/>
    </g>
    <g id="text_30">
     <!-- Computer science -->
     <g transform="translate(591.8 137.10875) scale(0.1 -0.1)">
      <use xlink:href="#DejaVuSans-43"/>
      <use xlink:href="#DejaVuSans-6f" x="69.824219"/>
      <use xlink:href="#DejaVuSans-6d" x="131.005859"/>
      <use xlink:href="#DejaVuSans-70" x="228.417969"/>
      <use xlink:href="#DejaVuSans-75" x="291.894531"/>
      <use xlink:href="#DejaVuSans-74" x="355.273438"/>
      <use xlink:href="#DejaVuSans-65" x="394.482422"/>
      <use xlink:href="#DejaVuSans-72" x="456.005859"/>
      <use xlink:href="#DejaVuSans-20" x="497.119141"/>
      <use xlink:href="#DejaVuSans-73" x="528.90625"/>
      <use xlink:href="#DejaVuSans-63" x="581.005859"/>
      <use xlink:href="#DejaVuSans-69" x="635.986328"/>
      <use xlink:href="#DejaVuSans-65" x="663.769531"/>
      <use xlink:href="#DejaVuSans-6e" x="725.292969"/>
      <use xlink:href="#DejaVuSans-63" x="788.671875"/>
      <use xlink:href="#DejaVuSans-65" x="843.652344"/>
     </g>
    </g>
    <g id="line2d_47">
     <path d="M 563.8 148.286875 
L 573.8 148.286875 
L 583.8 148.286875 
" style="fill: none; stroke: #98df8a; stroke-opacity: 0.8; stroke-width: 1.5; stroke-linecap: square"/>
    </g>
    <g id="text_31">
     <!-- Economics -->
     <g transform="translate(591.8 151.786875) scale(0.1 -0.1)">
      <use xlink:href="#DejaVuSans-45"/>
      <use xlink:href="#DejaVuSans-63" x="63.183594"/>
      <use xlink:href="#DejaVuSans-6f" x="118.164062"/>
      <use xlink:href="#DejaVuSans-6e" x="179.345703"/>
      <use xlink:href="#DejaVuSans-6f" x="242.724609"/>
      <use xlink:href="#DejaVuSans-6d" x="303.90625"/>
      <use xlink:href="#DejaVuSans-69" x="401.318359"/>
      <use xlink:href="#DejaVuSans-63" x="429.101562"/>
      <use xlink:href="#DejaVuSans-73" x="484.082031"/>
     </g>
    </g>
    <g id="line2d_48">
     <path d="M 563.8 162.965 
L 573.8 162.965 
L 583.8 162.965 
" style="fill: none; stroke: #d62728; stroke-opacity: 0.8; stroke-width: 1.5; stroke-linecap: square"/>
    </g>
    <g id="text_32">
     <!-- Engineering -->
     <g transform="translate(591.8 166.465) scale(0.1 -0.1)">
      <use xlink:href="#DejaVuSans-45"/>
      <use xlink:href="#DejaVuSans-6e" x="63.183594"/>
      <use xlink:href="#DejaVuSans-67" x="126.5625"/>
      <use xlink:href="#DejaVuSans-69" x="190.039062"/>
      <use xlink:href="#DejaVuSans-6e" x="217.822266"/>
      <use xlink:href="#DejaVuSans-65" x="281.201172"/>
      <use xlink:href="#DejaVuSans-65" x="342.724609"/>
      <use xlink:href="#DejaVuSans-72" x="404.248047"/>
      <use xlink:href="#DejaVuSans-69" x="445.361328"/>
      <use xlink:href="#DejaVuSans-6e" x="473.144531"/>
      <use xlink:href="#DejaVuSans-67" x="536.523438"/>
     </g>
    </g>
    <g id="line2d_49">
     <path d="M 563.8 177.643125 
L 573.8 177.643125 
L 583.8 177.643125 
" style="fill: none; stroke: #ff9896; stroke-opacity: 0.8; stroke-width: 1.5; stroke-linecap: square"/>
    </g>
    <g id="text_33">
     <!-- Environmental science -->
     <g transform="translate(591.8 181.143125) scale(0.1 -0.1)">
      <defs>
       <path id="DejaVuSans-76" d="M 191 3500 
L 800 3500 
L 1894 563 
L 2988 3500 
L 3597 3500 
L 2284 0 
L 1503 0 
L 191 3500 
z
" transform="scale(0.015625)"/>
      </defs>
      <use xlink:href="#DejaVuSans-45"/>
      <use xlink:href="#DejaVuSans-6e" x="63.183594"/>
      <use xlink:href="#DejaVuSans-76" x="126.5625"/>
      <use xlink:href="#DejaVuSans-69" x="185.742188"/>
      <use xlink:href="#DejaVuSans-72" x="213.525391"/>
      <use xlink:href="#DejaVuSans-6f" x="252.388672"/>
      <use xlink:href="#DejaVuSans-6e" x="313.570312"/>
      <use xlink:href="#DejaVuSans-6d" x="376.949219"/>
      <use xlink:href="#DejaVuSans-65" x="474.361328"/>
      <use xlink:href="#DejaVuSans-6e" x="535.884766"/>
      <use xlink:href="#DejaVuSans-74" x="599.263672"/>
      <use xlink:href="#DejaVuSans-61" x="638.472656"/>
      <use xlink:href="#DejaVuSans-6c" x="699.751953"/>
      <use xlink:href="#DejaVuSans-20" x="727.535156"/>
      <use xlink:href="#DejaVuSans-73" x="759.322266"/>
      <use xlink:href="#DejaVuSans-63" x="811.421875"/>
      <use xlink:href="#DejaVuSans-69" x="866.402344"/>
      <use xlink:href="#DejaVuSans-65" x="894.185547"/>
      <use xlink:href="#DejaVuSans-6e" x="955.708984"/>
      <use xlink:href="#DejaVuSans-63" x="1019.087891"/>
      <use xlink:href="#DejaVuSans-65" x="1074.068359"/>
     </g>
    </g>
    <g id="line2d_50">
     <path d="M 563.8 192.32125 
L 573.8 192.32125 
L 583.8 192.32125 
" style="fill: none; stroke: #9467bd; stroke-opacity: 0.8; stroke-width: 1.5; stroke-linecap: square"/>
    </g>
    <g id="text_34">
     <!-- Geography -->
     <g transform="translate(591.8 195.82125) scale(0.1 -0.1)">
      <defs>
       <path id="DejaVuSans-47" d="M 3809 666 
L 3809 1919 
L 2778 1919 
L 2778 2438 
L 4434 2438 
L 4434 434 
Q 4069 175 3628 42 
Q 3188 -91 2688 -91 
Q 1594 -91 976 548 
Q 359 1188 359 2328 
Q 359 3472 976 4111 
Q 1594 4750 2688 4750 
Q 3144 4750 3555 4637 
Q 3966 4525 4313 4306 
L 4313 3634 
Q 3963 3931 3569 4081 
Q 3175 4231 2741 4231 
Q 1884 4231 1454 3753 
Q 1025 3275 1025 2328 
Q 1025 1384 1454 906 
Q 1884 428 2741 428 
Q 3075 428 3337 486 
Q 3600 544 3809 666 
z
" transform="scale(0.015625)"/>
      </defs>
      <use xlink:href="#DejaVuSans-47"/>
      <use xlink:href="#DejaVuSans-65" x="77.490234"/>
      <use xlink:href="#DejaVuSans-6f" x="139.013672"/>
      <use xlink:href="#DejaVuSans-67" x="200.195312"/>
      <use xlink:href="#DejaVuSans-72" x="263.671875"/>
      <use xlink:href="#DejaVuSans-61" x="304.785156"/>
      <use xlink:href="#DejaVuSans-70" x="366.064453"/>
      <use xlink:href="#DejaVuSans-68" x="429.541016"/>
      <use xlink:href="#DejaVuSans-79" x="492.919922"/>
     </g>
    </g>
    <g id="line2d_51">
     <path d="M 563.8 206.999375 
L 573.8 206.999375 
L 583.8 206.999375 
" style="fill: none; stroke: #c5b0d5; stroke-opacity: 0.8; stroke-width: 1.5; stroke-linecap: square"/>
    </g>
    <g id="text_35">
     <!-- Geology -->
     <g transform="translate(591.8 210.499375) scale(0.1 -0.1)">
      <use xlink:href="#DejaVuSans-47"/>
      <use xlink:href="#DejaVuSans-65" x="77.490234"/>
      <use xlink:href="#DejaVuSans-6f" x="139.013672"/>
      <use xlink:href="#DejaVuSans-6c" x="200.195312"/>
      <use xlink:href="#DejaVuSans-6f" x="227.978516"/>
      <use xlink:href="#DejaVuSans-67" x="289.160156"/>
      <use xlink:href="#DejaVuSans-79" x="352.636719"/>
     </g>
    </g>
    <g id="line2d_52">
     <path d="M 563.8 221.6775 
L 573.8 221.6775 
L 583.8 221.6775 
" style="fill: none; stroke: #8c564b; stroke-opacity: 0.8; stroke-width: 1.5; stroke-linecap: square"/>
    </g>
    <g id="text_36">
     <!-- History -->
     <g transform="translate(591.8 225.1775) scale(0.1 -0.1)">
      <defs>
       <path id="DejaVuSans-48" d="M 628 4666 
L 1259 4666 
L 1259 2753 
L 3553 2753 
L 3553 4666 
L 4184 4666 
L 4184 0 
L 3553 0 
L 3553 2222 
L 1259 2222 
L 1259 0 
L 628 0 
L 628 4666 
z
" transform="scale(0.015625)"/>
      </defs>
      <use xlink:href="#DejaVuSans-48"/>
      <use xlink:href="#DejaVuSans-69" x="75.195312"/>
      <use xlink:href="#DejaVuSans-73" x="102.978516"/>
      <use xlink:href="#DejaVuSans-74" x="155.078125"/>
      <use xlink:href="#DejaVuSans-6f" x="194.287109"/>
      <use xlink:href="#DejaVuSans-72" x="255.46875"/>
      <use xlink:href="#DejaVuSans-79" x="296.582031"/>
     </g>
    </g>
    <g id="line2d_53">
     <path d="M 563.8 236.355625 
L 573.8 236.355625 
L 583.8 236.355625 
" style="fill: none; stroke: #c49c94; stroke-opacity: 0.8; stroke-width: 1.5; stroke-linecap: square"/>
    </g>
    <g id="text_37">
     <!-- Materials science -->
     <g transform="translate(591.8 239.855625) scale(0.1 -0.1)">
      <defs>
       <path id="DejaVuSans-4d" d="M 628 4666 
L 1569 4666 
L 2759 1491 
L 3956 4666 
L 4897 4666 
L 4897 0 
L 4281 0 
L 4281 4097 
L 3078 897 
L 2444 897 
L 1241 4097 
L 1241 0 
L 628 0 
L 628 4666 
z
" transform="scale(0.015625)"/>
      </defs>
      <use xlink:href="#DejaVuSans-4d"/>
      <use xlink:href="#DejaVuSans-61" x="86.279297"/>
      <use xlink:href="#DejaVuSans-74" x="147.558594"/>
      <use xlink:href="#DejaVuSans-65" x="186.767578"/>
      <use xlink:href="#DejaVuSans-72" x="248.291016"/>
      <use xlink:href="#DejaVuSans-69" x="289.404297"/>
      <use xlink:href="#DejaVuSans-61" x="317.1875"/>
      <use xlink:href="#DejaVuSans-6c" x="378.466797"/>
      <use xlink:href="#DejaVuSans-73" x="406.25"/>
      <use xlink:href="#DejaVuSans-20" x="458.349609"/>
      <use xlink:href="#DejaVuSans-73" x="490.136719"/>
      <use xlink:href="#DejaVuSans-63" x="542.236328"/>
      <use xlink:href="#DejaVuSans-69" x="597.216797"/>
      <use xlink:href="#DejaVuSans-65" x="625"/>
      <use xlink:href="#DejaVuSans-6e" x="686.523438"/>
      <use xlink:href="#DejaVuSans-63" x="749.902344"/>
      <use xlink:href="#DejaVuSans-65" x="804.882812"/>
     </g>
    </g>
    <g id="line2d_54">
     <path d="M 563.8 251.03375 
L 573.8 251.03375 
L 583.8 251.03375 
" style="fill: none; stroke: #e377c2; stroke-opacity: 0.8; stroke-width: 1.5; stroke-linecap: square"/>
    </g>
    <g id="text_38">
     <!-- Mathematics -->
     <g transform="translate(591.8 254.53375) scale(0.1 -0.1)">
      <use xlink:href="#DejaVuSans-4d"/>
      <use xlink:href="#DejaVuSans-61" x="86.279297"/>
      <use xlink:href="#DejaVuSans-74" x="147.558594"/>
      <use xlink:href="#DejaVuSans-68" x="186.767578"/>
      <use xlink:href="#DejaVuSans-65" x="250.146484"/>
      <use xlink:href="#DejaVuSans-6d" x="311.669922"/>
      <use xlink:href="#DejaVuSans-61" x="409.082031"/>
      <use xlink:href="#DejaVuSans-74" x="470.361328"/>
      <use xlink:href="#DejaVuSans-69" x="509.570312"/>
      <use xlink:href="#DejaVuSans-63" x="537.353516"/>
      <use xlink:href="#DejaVuSans-73" x="592.333984"/>
     </g>
    </g>
    <g id="line2d_55">
     <path d="M 563.8 265.711875 
L 573.8 265.711875 
L 583.8 265.711875 
" style="fill: none; stroke: #f7b6d2; stroke-opacity: 0.8; stroke-width: 1.5; stroke-linecap: square"/>
    </g>
    <g id="text_39">
     <!-- Medicine -->
     <g transform="translate(591.8 269.211875) scale(0.1 -0.1)">
      <use xlink:href="#DejaVuSans-4d"/>
      <use xlink:href="#DejaVuSans-65" x="86.279297"/>
      <use xlink:href="#DejaVuSans-64" x="147.802734"/>
      <use xlink:href="#DejaVuSans-69" x="211.279297"/>
      <use xlink:href="#DejaVuSans-63" x="239.0625"/>
      <use xlink:href="#DejaVuSans-69" x="294.042969"/>
      <use xlink:href="#DejaVuSans-6e" x="321.826172"/>
      <use xlink:href="#DejaVuSans-65" x="385.205078"/>
     </g>
    </g>
    <g id="line2d_56">
     <path d="M 563.8 280.39 
L 573.8 280.39 
L 583.8 280.39 
" style="fill: none; stroke: #7f7f7f; stroke-opacity: 0.8; stroke-width: 1.5; stroke-linecap: square"/>
    </g>
    <g id="text_40">
     <!-- No Top Concept -->
     <g transform="translate(591.8 283.89) scale(0.1 -0.1)">
      <use xlink:href="#DejaVuSans-4e"/>
      <use xlink:href="#DejaVuSans-6f" x="74.804688"/>
      <use xlink:href="#DejaVuSans-20" x="135.986328"/>
      <use xlink:href="#DejaVuSans-54" x="167.773438"/>
      <use xlink:href="#DejaVuSans-6f" x="211.857422"/>
      <use xlink:href="#DejaVuSans-70" x="273.039062"/>
      <use xlink:href="#DejaVuSans-20" x="336.515625"/>
      <use xlink:href="#DejaVuSans-43" x="368.302734"/>
      <use xlink:href="#DejaVuSans-6f" x="438.126953"/>
      <use xlink:href="#DejaVuSans-6e" x="499.308594"/>
      <use xlink:href="#DejaVuSans-63" x="562.6875"/>
      <use xlink:href="#DejaVuSans-65" x="617.667969"/>
      <use xlink:href="#DejaVuSans-70" x="679.191406"/>
      <use xlink:href="#DejaVuSans-74" x="742.667969"/>
     </g>
    </g>
    <g id="line2d_57">
     <path d="M 563.8 295.068125 
L 573.8 295.068125 
L 583.8 295.068125 
" style="fill: none; stroke: #c7c7c7; stroke-opacity: 0.8; stroke-width: 1.5; stroke-linecap: square"/>
    </g>
    <g id="text_41">
     <!-- Philosophy -->
     <g transform="translate(591.8 298.568125) scale(0.1 -0.1)">
      <use xlink:href="#DejaVuSans-50"/>
      <use xlink:href="#DejaVuSans-68" x="60.302734"/>
      <use xlink:href="#DejaVuSans-69" x="123.681641"/>
      <use xlink:href="#DejaVuSans-6c" x="151.464844"/>
      <use xlink:href="#DejaVuSans-6f" x="179.248047"/>
      <use xlink:href="#DejaVuSans-73" x="240.429688"/>
      <use xlink:href="#DejaVuSans-6f" x="292.529297"/>
      <use xlink:href="#DejaVuSans-70" x="353.710938"/>
      <use xlink:href="#DejaVuSans-68" x="417.1875"/>
      <use xlink:href="#DejaVuSans-79" x="480.566406"/>
     </g>
    </g>
    <g id="line2d_58">
     <path d="M 563.8 309.74625 
L 573.8 309.74625 
L 583.8 309.74625 
" style="fill: none; stroke: #bcbd22; stroke-opacity: 0.8; stroke-width: 1.5; stroke-linecap: square"/>
    </g>
    <g id="text_42">
     <!-- Physics -->
     <g transform="translate(591.8 313.24625) scale(0.1 -0.1)">
      <use xlink:href="#DejaVuSans-50"/>
      <use xlink:href="#DejaVuSans-68" x="60.302734"/>
      <use xlink:href="#DejaVuSans-79" x="123.681641"/>
      <use xlink:href="#DejaVuSans-73" x="182.861328"/>
      <use xlink:href="#DejaVuSans-69" x="234.960938"/>
      <use xlink:href="#DejaVuSans-63" x="262.744141"/>
      <use xlink:href="#DejaVuSans-73" x="317.724609"/>
     </g>
    </g>
    <g id="line2d_59">
     <path d="M 563.8 324.424375 
L 573.8 324.424375 
L 583.8 324.424375 
" style="fill: none; stroke: #dbdb8d; stroke-opacity: 0.8; stroke-width: 1.5; stroke-linecap: square"/>
    </g>
    <g id="text_43">
     <!-- Political science -->
     <g transform="translate(591.8 327.924375) scale(0.1 -0.1)">
      <use xlink:href="#DejaVuSans-50"/>
      <use xlink:href="#DejaVuSans-6f" x="56.677734"/>
      <use xlink:href="#DejaVuSans-6c" x="117.859375"/>
      <use xlink:href="#DejaVuSans-69" x="145.642578"/>
      <use xlink:href="#DejaVuSans-74" x="173.425781"/>
      <use xlink:href="#DejaVuSans-69" x="212.634766"/>
      <use xlink:href="#DejaVuSans-63" x="240.417969"/>
      <use xlink:href="#DejaVuSans-61" x="295.398438"/>
      <use xlink:href="#DejaVuSans-6c" x="356.677734"/>
      <use xlink:href="#DejaVuSans-20" x="384.460938"/>
      <use xlink:href="#DejaVuSans-73" x="416.248047"/>
      <use xlink:href="#DejaVuSans-63" x="468.347656"/>
      <use xlink:href="#DejaVuSans-69" x="523.328125"/>
      <use xlink:href="#DejaVuSans-65" x="551.111328"/>
      <use xlink:href="#DejaVuSans-6e" x="612.634766"/>
      <use xlink:href="#DejaVuSans-63" x="676.013672"/>
      <use xlink:href="#DejaVuSans-65" x="730.994141"/>
     </g>
    </g>
    <g id="line2d_60">
     <path d="M 563.8 339.1025 
L 573.8 339.1025 
L 583.8 339.1025 
" style="fill: none; stroke: #17becf; stroke-opacity: 0.8; stroke-width: 1.5; stroke-linecap: square"/>
    </g>
    <g id="text_44">
     <!-- Psychology -->
     <g transform="translate(591.8 342.6025) scale(0.1 -0.1)">
      <use xlink:href="#DejaVuSans-50"/>
      <use xlink:href="#DejaVuSans-73" x="58.552734"/>
      <use xlink:href="#DejaVuSans-79" x="110.652344"/>
      <use xlink:href="#DejaVuSans-63" x="169.832031"/>
      <use xlink:href="#DejaVuSans-68" x="224.8125"/>
      <use xlink:href="#DejaVuSans-6f" x="288.191406"/>
      <use xlink:href="#DejaVuSans-6c" x="349.373047"/>
      <use xlink:href="#DejaVuSans-6f" x="377.15625"/>
      <use xlink:href="#DejaVuSans-67" x="438.337891"/>
      <use xlink:href="#DejaVuSans-79" x="501.814453"/>
     </g>
    </g>
    <g id="line2d_61">
     <path d="M 563.8 353.780625 
L 573.8 353.780625 
L 583.8 353.780625 
" style="fill: none; stroke: #9edae5; stroke-opacity: 0.8; stroke-width: 1.5; stroke-linecap: square"/>
    </g>
    <g id="text_45">
     <!-- Sociology -->
     <g transform="translate(591.8 357.280625) scale(0.1 -0.1)">
      <use xlink:href="#DejaVuSans-53"/>
      <use xlink:href="#DejaVuSans-6f" x="63.476562"/>
      <use xlink:href="#DejaVuSans-63" x="124.658203"/>
      <use xlink:href="#DejaVuSans-69" x="179.638672"/>
      <use xlink:href="#DejaVuSans-6f" x="207.421875"/>
      <use xlink:href="#DejaVuSans-6c" x="268.603516"/>
      <use xlink:href="#DejaVuSans-6f" x="296.386719"/>
      <use xlink:href="#DejaVuSans-67" x="357.568359"/>
      <use xlink:href="#DejaVuSans-79" x="421.044922"/>
     </g>
    </g>
   </g>
  </g>
 </g>
 <defs>
  <clipPath id="peea43301ff">
   <rect x="82.91" y="25.44" width="471.89" height="364.6"/>
  </clipPath>
 </defs>
</svg>
